%TF.GenerationSoftware,KiCad,Pcbnew,6.0.10-86aedd382b~118~ubuntu20.04.1*%
%TF.CreationDate,2022-12-27T17:01:33-05:00*%
%TF.ProjectId,AMP_PCBv2,414d505f-5043-4427-9632-2e6b69636164,A*%
%TF.SameCoordinates,Original*%
%TF.FileFunction,Paste,Top*%
%TF.FilePolarity,Positive*%
%FSLAX46Y46*%
G04 Gerber Fmt 4.6, Leading zero omitted, Abs format (unit mm)*
G04 Created by KiCad (PCBNEW 6.0.10-86aedd382b~118~ubuntu20.04.1) date 2022-12-27 17:01:33*
%MOMM*%
%LPD*%
G01*
G04 APERTURE LIST*
G04 Aperture macros list*
%AMRoundRect*
0 Rectangle with rounded corners*
0 $1 Rounding radius*
0 $2 $3 $4 $5 $6 $7 $8 $9 X,Y pos of 4 corners*
0 Add a 4 corners polygon primitive as box body*
4,1,4,$2,$3,$4,$5,$6,$7,$8,$9,$2,$3,0*
0 Add four circle primitives for the rounded corners*
1,1,$1+$1,$2,$3*
1,1,$1+$1,$4,$5*
1,1,$1+$1,$6,$7*
1,1,$1+$1,$8,$9*
0 Add four rect primitives between the rounded corners*
20,1,$1+$1,$2,$3,$4,$5,0*
20,1,$1+$1,$4,$5,$6,$7,0*
20,1,$1+$1,$6,$7,$8,$9,0*
20,1,$1+$1,$8,$9,$2,$3,0*%
G04 Aperture macros list end*
%ADD10RoundRect,0.250000X0.475000X-0.337500X0.475000X0.337500X-0.475000X0.337500X-0.475000X-0.337500X0*%
%ADD11RoundRect,0.160000X-0.160000X-0.345000X0.160000X-0.345000X0.160000X0.345000X-0.160000X0.345000X0*%
%ADD12RoundRect,0.062500X-0.362500X-0.062500X0.362500X-0.062500X0.362500X0.062500X-0.362500X0.062500X0*%
%ADD13RoundRect,0.250000X0.450000X-0.350000X0.450000X0.350000X-0.450000X0.350000X-0.450000X-0.350000X0*%
%ADD14RoundRect,0.250000X0.337500X0.475000X-0.337500X0.475000X-0.337500X-0.475000X0.337500X-0.475000X0*%
%ADD15RoundRect,0.250000X0.350000X0.450000X-0.350000X0.450000X-0.350000X-0.450000X0.350000X-0.450000X0*%
%ADD16RoundRect,0.250000X-0.350000X-0.450000X0.350000X-0.450000X0.350000X0.450000X-0.350000X0.450000X0*%
%ADD17RoundRect,0.250000X-0.337500X-0.475000X0.337500X-0.475000X0.337500X0.475000X-0.337500X0.475000X0*%
%ADD18RoundRect,0.250000X-0.450000X0.350000X-0.450000X-0.350000X0.450000X-0.350000X0.450000X0.350000X0*%
%ADD19RoundRect,0.250000X-0.475000X0.337500X-0.475000X-0.337500X0.475000X-0.337500X0.475000X0.337500X0*%
G04 APERTURE END LIST*
D10*
%TO.C,C1*%
X121158000Y-107717500D03*
X121158000Y-105642500D03*
%TD*%
D11*
%TO.C,U2*%
X122066000Y-115941000D03*
X121266000Y-114691000D03*
X121266000Y-115941000D03*
X122066000Y-114691000D03*
D12*
X120241000Y-114066000D03*
X120241000Y-114566000D03*
X120241000Y-115066000D03*
X120241000Y-115566000D03*
X120241000Y-116066000D03*
X120241000Y-116566000D03*
X123091000Y-116566000D03*
X123091000Y-116066000D03*
X123091000Y-115566000D03*
X123091000Y-115066000D03*
X123091000Y-114566000D03*
X123091000Y-114066000D03*
%TD*%
D13*
%TO.C,R13*%
X178054000Y-113014000D03*
X178054000Y-111014000D03*
%TD*%
D14*
%TO.C,C9*%
X98065500Y-140970000D03*
X95990500Y-140970000D03*
%TD*%
D15*
%TO.C,R25*%
X168386000Y-103632000D03*
X166386000Y-103632000D03*
%TD*%
D13*
%TO.C,R28*%
X157729000Y-97012000D03*
X157729000Y-95012000D03*
%TD*%
D16*
%TO.C,R30*%
X152935000Y-93980000D03*
X154935000Y-93980000D03*
%TD*%
D13*
%TO.C,R11*%
X89408000Y-106648000D03*
X89408000Y-104648000D03*
%TD*%
D16*
%TO.C,R5*%
X101346000Y-146304000D03*
X103346000Y-146304000D03*
%TD*%
D17*
%TO.C,C12*%
X97514500Y-98298000D03*
X99589500Y-98298000D03*
%TD*%
D16*
%TO.C,R33*%
X103135000Y-138166000D03*
X105135000Y-138166000D03*
%TD*%
D15*
%TO.C,R27*%
X164322000Y-105918000D03*
X162322000Y-105918000D03*
%TD*%
D18*
%TO.C,R36*%
X111252000Y-51329000D03*
X111252000Y-53329000D03*
%TD*%
D10*
%TO.C,C2*%
X125222000Y-107696000D03*
X125222000Y-105621000D03*
%TD*%
D17*
%TO.C,C7*%
X166348500Y-105918000D03*
X168423500Y-105918000D03*
%TD*%
%TO.C,C14*%
X157473500Y-135382000D03*
X159548500Y-135382000D03*
%TD*%
%TO.C,C17*%
X88878500Y-138430000D03*
X90953500Y-138430000D03*
%TD*%
D15*
%TO.C,R34*%
X113263000Y-138166000D03*
X111263000Y-138166000D03*
%TD*%
D19*
%TO.C,C16*%
X157236000Y-107918500D03*
X157236000Y-109993500D03*
%TD*%
D18*
%TO.C,R31*%
X91186000Y-113067500D03*
X91186000Y-115067500D03*
%TD*%
D15*
%TO.C,R26*%
X164322000Y-103632000D03*
X162322000Y-103632000D03*
%TD*%
D17*
%TO.C,C20*%
X131042500Y-86614000D03*
X133117500Y-86614000D03*
%TD*%
%TO.C,C18*%
X103102500Y-125984000D03*
X105177500Y-125984000D03*
%TD*%
D15*
%TO.C,R19*%
X162036000Y-118110000D03*
X160036000Y-118110000D03*
%TD*%
D19*
%TO.C,C10*%
X111252000Y-140948500D03*
X111252000Y-143023500D03*
%TD*%
D15*
%TO.C,R6*%
X95504000Y-98298000D03*
X93504000Y-98298000D03*
%TD*%
%TO.C,R3*%
X107426000Y-146304000D03*
X105426000Y-146304000D03*
%TD*%
%TO.C,R15*%
X168899000Y-120396000D03*
X166899000Y-120396000D03*
%TD*%
D17*
%TO.C,C15*%
X157204500Y-122936000D03*
X159279500Y-122936000D03*
%TD*%
D13*
%TO.C,R29*%
X150114000Y-101076000D03*
X150114000Y-99076000D03*
%TD*%
D10*
%TO.C,C13*%
X131064000Y-144547500D03*
X131064000Y-142472500D03*
%TD*%
D18*
%TO.C,R2*%
X121158000Y-109744000D03*
X121158000Y-111744000D03*
%TD*%
D13*
%TO.C,R18*%
X178054000Y-102092000D03*
X178054000Y-100092000D03*
%TD*%
D19*
%TO.C,C5*%
X125222000Y-115548500D03*
X125222000Y-117623500D03*
%TD*%
%TO.C,C8*%
X88900000Y-113008500D03*
X88900000Y-115083500D03*
%TD*%
%TO.C,C4*%
X118110000Y-114719000D03*
X118110000Y-116794000D03*
%TD*%
D17*
%TO.C,C3*%
X120374500Y-118618000D03*
X122449500Y-118618000D03*
%TD*%
D18*
%TO.C,R7*%
X125222000Y-109744000D03*
X125222000Y-111744000D03*
%TD*%
D13*
%TO.C,R17*%
X185420000Y-99044000D03*
X185420000Y-97044000D03*
%TD*%
D16*
%TO.C,R4*%
X89408000Y-98298000D03*
X91408000Y-98298000D03*
%TD*%
D13*
%TO.C,R23*%
X168402000Y-97774000D03*
X168402000Y-95774000D03*
%TD*%
D18*
%TO.C,R38*%
X111252000Y-67072000D03*
X111252000Y-69072000D03*
%TD*%
D13*
%TO.C,R12*%
X185420000Y-109966000D03*
X185420000Y-107966000D03*
%TD*%
D19*
%TO.C,C11*%
X88646000Y-94212500D03*
X88646000Y-96287500D03*
%TD*%
D13*
%TO.C,R1*%
X95758000Y-89122000D03*
X95758000Y-87122000D03*
%TD*%
D18*
%TO.C,R35*%
X110998000Y-120412000D03*
X110998000Y-122412000D03*
%TD*%
D13*
%TO.C,R22*%
X175768000Y-94964000D03*
X175768000Y-92964000D03*
%TD*%
D18*
%TO.C,R32*%
X93472000Y-113067500D03*
X93472000Y-115067500D03*
%TD*%
D15*
%TO.C,R10*%
X116062000Y-146304000D03*
X114062000Y-146304000D03*
%TD*%
%TO.C,R14*%
X168915000Y-122682000D03*
X166915000Y-122682000D03*
%TD*%
D17*
%TO.C,C6*%
X166861500Y-118110000D03*
X168936500Y-118110000D03*
%TD*%
D15*
%TO.C,R16*%
X162036000Y-120396000D03*
X160036000Y-120396000D03*
%TD*%
D10*
%TO.C,C19*%
X116840000Y-63595000D03*
X116840000Y-61520000D03*
%TD*%
D16*
%TO.C,R8*%
X116094000Y-118872000D03*
X118094000Y-118872000D03*
%TD*%
D15*
%TO.C,R9*%
X118094000Y-121158000D03*
X116094000Y-121158000D03*
%TD*%
D16*
%TO.C,R20*%
X95520000Y-74930000D03*
X97520000Y-74930000D03*
%TD*%
D13*
%TO.C,R24*%
X174498000Y-106648000D03*
X174498000Y-104648000D03*
%TD*%
D18*
%TO.C,R37*%
X111252000Y-59203000D03*
X111252000Y-61203000D03*
%TD*%
M02*
