%TF.GenerationSoftware,KiCad,Pcbnew,6.0.10-86aedd382b~118~ubuntu20.04.1*%
%TF.CreationDate,2022-12-27T17:01:33-05:00*%
%TF.ProjectId,AMP_PCBv2,414d505f-5043-4427-9632-2e6b69636164,A*%
%TF.SameCoordinates,Original*%
%TF.FileFunction,Legend,Top*%
%TF.FilePolarity,Positive*%
%FSLAX46Y46*%
G04 Gerber Fmt 4.6, Leading zero omitted, Abs format (unit mm)*
G04 Created by KiCad (PCBNEW 6.0.10-86aedd382b~118~ubuntu20.04.1) date 2022-12-27 17:01:33*
%MOMM*%
%LPD*%
G01*
G04 APERTURE LIST*
G04 Aperture macros list*
%AMRoundRect*
0 Rectangle with rounded corners*
0 $1 Rounding radius*
0 $2 $3 $4 $5 $6 $7 $8 $9 X,Y pos of 4 corners*
0 Add a 4 corners polygon primitive as box body*
4,1,4,$2,$3,$4,$5,$6,$7,$8,$9,$2,$3,0*
0 Add four circle primitives for the rounded corners*
1,1,$1+$1,$2,$3*
1,1,$1+$1,$4,$5*
1,1,$1+$1,$6,$7*
1,1,$1+$1,$8,$9*
0 Add four rect primitives between the rounded corners*
20,1,$1+$1,$2,$3,$4,$5,0*
20,1,$1+$1,$4,$5,$6,$7,0*
20,1,$1+$1,$6,$7,$8,$9,0*
20,1,$1+$1,$8,$9,$2,$3,0*%
%AMFreePoly0*
4,1,6,1.000000,0.000000,0.500000,-0.750000,-0.500000,-0.750000,-0.500000,0.750000,0.500000,0.750000,1.000000,0.000000,1.000000,0.000000,$1*%
%AMFreePoly1*
4,1,6,0.500000,-0.750000,-0.650000,-0.750000,-0.150000,0.000000,-0.650000,0.750000,0.500000,0.750000,0.500000,-0.750000,0.500000,-0.750000,$1*%
G04 Aperture macros list end*
%ADD10C,0.300000*%
%ADD11C,0.150000*%
%ADD12C,0.200000*%
%ADD13C,0.120000*%
%ADD14C,0.100000*%
%ADD15RoundRect,0.250000X0.475000X-0.337500X0.475000X0.337500X-0.475000X0.337500X-0.475000X-0.337500X0*%
%ADD16RoundRect,0.062500X-0.362500X-0.062500X0.362500X-0.062500X0.362500X0.062500X-0.362500X0.062500X0*%
%ADD17R,1.600000X2.500000*%
%ADD18R,1.600000X1.600000*%
%ADD19O,1.600000X1.600000*%
%ADD20RoundRect,0.250000X0.450000X-0.350000X0.450000X0.350000X-0.450000X0.350000X-0.450000X-0.350000X0*%
%ADD21R,1.700000X1.700000*%
%ADD22O,1.700000X1.700000*%
%ADD23RoundRect,0.250000X0.337500X0.475000X-0.337500X0.475000X-0.337500X-0.475000X0.337500X-0.475000X0*%
%ADD24RoundRect,0.250000X0.350000X0.450000X-0.350000X0.450000X-0.350000X-0.450000X0.350000X-0.450000X0*%
%ADD25C,1.524000*%
%ADD26RoundRect,0.250000X-0.350000X-0.450000X0.350000X-0.450000X0.350000X0.450000X-0.350000X0.450000X0*%
%ADD27RoundRect,0.250000X-0.337500X-0.475000X0.337500X-0.475000X0.337500X0.475000X-0.337500X0.475000X0*%
%ADD28R,1.717500X1.800000*%
%ADD29O,1.717500X1.800000*%
%ADD30C,3.200000*%
%ADD31RoundRect,0.250001X-1.099999X-1.399999X1.099999X-1.399999X1.099999X1.399999X-1.099999X1.399999X0*%
%ADD32O,2.700000X3.300000*%
%ADD33R,1.800000X1.800000*%
%ADD34C,1.800000*%
%ADD35RoundRect,0.250000X-0.450000X0.350000X-0.450000X-0.350000X0.450000X-0.350000X0.450000X0.350000X0*%
%ADD36FreePoly0,0.000000*%
%ADD37FreePoly1,0.000000*%
%ADD38RoundRect,0.250000X-0.475000X0.337500X-0.475000X-0.337500X0.475000X-0.337500X0.475000X0.337500X0*%
%ADD39RoundRect,0.250001X1.099999X1.399999X-1.099999X1.399999X-1.099999X-1.399999X1.099999X-1.399999X0*%
%ADD40R,1.905000X2.000000*%
%ADD41O,1.905000X2.000000*%
%ADD42FreePoly0,270.000000*%
%ADD43FreePoly1,270.000000*%
%ADD44C,1.600000*%
%ADD45RoundRect,0.250000X-0.845000X0.620000X-0.845000X-0.620000X0.845000X-0.620000X0.845000X0.620000X0*%
%ADD46O,2.190000X1.740000*%
%ADD47R,1.400000X1.400000*%
%ADD48C,1.400000*%
%ADD49C,3.000000*%
G04 APERTURE END LIST*
D10*
X171434857Y-78259714D02*
X171363428Y-78331142D01*
X171149142Y-78402571D01*
X171006285Y-78402571D01*
X170792000Y-78331142D01*
X170649142Y-78188285D01*
X170577714Y-78045428D01*
X170506285Y-77759714D01*
X170506285Y-77545428D01*
X170577714Y-77259714D01*
X170649142Y-77116857D01*
X170792000Y-76974000D01*
X171006285Y-76902571D01*
X171149142Y-76902571D01*
X171363428Y-76974000D01*
X171434857Y-77045428D01*
X172363428Y-76902571D02*
X172649142Y-76902571D01*
X172792000Y-76974000D01*
X172934857Y-77116857D01*
X173006285Y-77402571D01*
X173006285Y-77902571D01*
X172934857Y-78188285D01*
X172792000Y-78331142D01*
X172649142Y-78402571D01*
X172363428Y-78402571D01*
X172220571Y-78331142D01*
X172077714Y-78188285D01*
X172006285Y-77902571D01*
X172006285Y-77402571D01*
X172077714Y-77116857D01*
X172220571Y-76974000D01*
X172363428Y-76902571D01*
X173649142Y-78402571D02*
X173649142Y-76902571D01*
X174506285Y-78402571D01*
X174506285Y-76902571D01*
X175006285Y-76902571D02*
X175863428Y-76902571D01*
X175434857Y-78402571D02*
X175434857Y-76902571D01*
X177220571Y-78402571D02*
X176720571Y-77688285D01*
X176363428Y-78402571D02*
X176363428Y-76902571D01*
X176934857Y-76902571D01*
X177077714Y-76974000D01*
X177149142Y-77045428D01*
X177220571Y-77188285D01*
X177220571Y-77402571D01*
X177149142Y-77545428D01*
X177077714Y-77616857D01*
X176934857Y-77688285D01*
X176363428Y-77688285D01*
X178149142Y-76902571D02*
X178434857Y-76902571D01*
X178577714Y-76974000D01*
X178720571Y-77116857D01*
X178792000Y-77402571D01*
X178792000Y-77902571D01*
X178720571Y-78188285D01*
X178577714Y-78331142D01*
X178434857Y-78402571D01*
X178149142Y-78402571D01*
X178006285Y-78331142D01*
X177863428Y-78188285D01*
X177792000Y-77902571D01*
X177792000Y-77402571D01*
X177863428Y-77116857D01*
X178006285Y-76974000D01*
X178149142Y-76902571D01*
X180149142Y-78402571D02*
X179434857Y-78402571D01*
X179434857Y-76902571D01*
X181363428Y-78402571D02*
X180649142Y-78402571D01*
X180649142Y-76902571D01*
X181863428Y-77616857D02*
X182363428Y-77616857D01*
X182577714Y-78402571D02*
X181863428Y-78402571D01*
X181863428Y-76902571D01*
X182577714Y-76902571D01*
X184077714Y-78402571D02*
X183577714Y-77688285D01*
X183220571Y-78402571D02*
X183220571Y-76902571D01*
X183792000Y-76902571D01*
X183934857Y-76974000D01*
X184006285Y-77045428D01*
X184077714Y-77188285D01*
X184077714Y-77402571D01*
X184006285Y-77545428D01*
X183934857Y-77616857D01*
X183792000Y-77688285D01*
X183220571Y-77688285D01*
D11*
X99568000Y-59158714D02*
X99568000Y-57730142D01*
X99568000Y-60768714D02*
X99568000Y-59340142D01*
X99568000Y-62378714D02*
X99568000Y-60950142D01*
X99568000Y-63988714D02*
X99568000Y-62560142D01*
X99568000Y-65598714D02*
X99568000Y-64170142D01*
X99568000Y-67208714D02*
X99568000Y-65780142D01*
X99568000Y-68818714D02*
X99568000Y-67390142D01*
X99568000Y-70428714D02*
X99568000Y-69000142D01*
X103156095Y-117054380D02*
X103394190Y-118054380D01*
X103584666Y-117340095D01*
X103775142Y-118054380D01*
X104013238Y-117054380D01*
X104394190Y-118054380D02*
X104394190Y-117054380D01*
X104632285Y-117054380D01*
X104775142Y-117102000D01*
X104870380Y-117197238D01*
X104918000Y-117292476D01*
X104965619Y-117482952D01*
X104965619Y-117625809D01*
X104918000Y-117816285D01*
X104870380Y-117911523D01*
X104775142Y-118006761D01*
X104632285Y-118054380D01*
X104394190Y-118054380D01*
X105156095Y-118149619D02*
X105918000Y-118149619D01*
X106156095Y-117530571D02*
X106489428Y-117530571D01*
X106632285Y-118054380D02*
X106156095Y-118054380D01*
X106156095Y-117054380D01*
X106632285Y-117054380D01*
X107632285Y-118054380D02*
X107298952Y-117578190D01*
X107060857Y-118054380D02*
X107060857Y-117054380D01*
X107441809Y-117054380D01*
X107537047Y-117102000D01*
X107584666Y-117149619D01*
X107632285Y-117244857D01*
X107632285Y-117387714D01*
X107584666Y-117482952D01*
X107537047Y-117530571D01*
X107441809Y-117578190D01*
X107060857Y-117578190D01*
X108632285Y-118054380D02*
X108298952Y-117578190D01*
X108060857Y-118054380D02*
X108060857Y-117054380D01*
X108441809Y-117054380D01*
X108537047Y-117102000D01*
X108584666Y-117149619D01*
X108632285Y-117244857D01*
X108632285Y-117387714D01*
X108584666Y-117482952D01*
X108537047Y-117530571D01*
X108441809Y-117578190D01*
X108060857Y-117578190D01*
X180257142Y-58110380D02*
X180257142Y-57110380D01*
X180590476Y-57824666D01*
X180923809Y-57110380D01*
X180923809Y-58110380D01*
X181971428Y-58015142D02*
X181923809Y-58062761D01*
X181780952Y-58110380D01*
X181685714Y-58110380D01*
X181542857Y-58062761D01*
X181447619Y-57967523D01*
X181400000Y-57872285D01*
X181352380Y-57681809D01*
X181352380Y-57538952D01*
X181400000Y-57348476D01*
X181447619Y-57253238D01*
X181542857Y-57158000D01*
X181685714Y-57110380D01*
X181780952Y-57110380D01*
X181923809Y-57158000D01*
X181971428Y-57205619D01*
X182161904Y-58205619D02*
X182923809Y-58205619D01*
X183352380Y-57110380D02*
X183542857Y-57110380D01*
X183638095Y-57158000D01*
X183733333Y-57253238D01*
X183780952Y-57443714D01*
X183780952Y-57777047D01*
X183733333Y-57967523D01*
X183638095Y-58062761D01*
X183542857Y-58110380D01*
X183352380Y-58110380D01*
X183257142Y-58062761D01*
X183161904Y-57967523D01*
X183114285Y-57777047D01*
X183114285Y-57443714D01*
X183161904Y-57253238D01*
X183257142Y-57158000D01*
X183352380Y-57110380D01*
X184685714Y-58110380D02*
X184209523Y-58110380D01*
X184209523Y-57110380D01*
X185019047Y-58110380D02*
X185019047Y-57110380D01*
X185257142Y-57110380D01*
X185400000Y-57158000D01*
X185495238Y-57253238D01*
X185542857Y-57348476D01*
X185590476Y-57538952D01*
X185590476Y-57681809D01*
X185542857Y-57872285D01*
X185495238Y-57967523D01*
X185400000Y-58062761D01*
X185257142Y-58110380D01*
X185019047Y-58110380D01*
D10*
X169081142Y-55772857D02*
X169581142Y-55772857D01*
X169795428Y-56558571D02*
X169081142Y-56558571D01*
X169081142Y-55058571D01*
X169795428Y-55058571D01*
X170938285Y-55772857D02*
X171152571Y-55844285D01*
X171224000Y-55915714D01*
X171295428Y-56058571D01*
X171295428Y-56272857D01*
X171224000Y-56415714D01*
X171152571Y-56487142D01*
X171009714Y-56558571D01*
X170438285Y-56558571D01*
X170438285Y-55058571D01*
X170938285Y-55058571D01*
X171081142Y-55130000D01*
X171152571Y-55201428D01*
X171224000Y-55344285D01*
X171224000Y-55487142D01*
X171152571Y-55630000D01*
X171081142Y-55701428D01*
X170938285Y-55772857D01*
X170438285Y-55772857D01*
X172795428Y-56558571D02*
X172295428Y-55844285D01*
X171938285Y-56558571D02*
X171938285Y-55058571D01*
X172509714Y-55058571D01*
X172652571Y-55130000D01*
X172724000Y-55201428D01*
X172795428Y-55344285D01*
X172795428Y-55558571D01*
X172724000Y-55701428D01*
X172652571Y-55772857D01*
X172509714Y-55844285D01*
X171938285Y-55844285D01*
X173366857Y-56130000D02*
X174081142Y-56130000D01*
X173224000Y-56558571D02*
X173724000Y-55058571D01*
X174224000Y-56558571D01*
X174724000Y-56558571D02*
X174724000Y-55058571D01*
X175581142Y-56558571D02*
X174938285Y-55701428D01*
X175581142Y-55058571D02*
X174724000Y-55915714D01*
X176224000Y-55772857D02*
X176724000Y-55772857D01*
X176938285Y-56558571D02*
X176224000Y-56558571D01*
X176224000Y-55058571D01*
X176938285Y-55058571D01*
D11*
X92995904Y-101306380D02*
X93614952Y-101306380D01*
X93281619Y-101687333D01*
X93424476Y-101687333D01*
X93519714Y-101734952D01*
X93567333Y-101782571D01*
X93614952Y-101877809D01*
X93614952Y-102115904D01*
X93567333Y-102211142D01*
X93519714Y-102258761D01*
X93424476Y-102306380D01*
X93138761Y-102306380D01*
X93043523Y-102258761D01*
X92995904Y-102211142D01*
X93900666Y-101306380D02*
X94234000Y-102306380D01*
X94567333Y-101306380D01*
X94805428Y-101306380D02*
X95424476Y-101306380D01*
X95091142Y-101687333D01*
X95234000Y-101687333D01*
X95329238Y-101734952D01*
X95376857Y-101782571D01*
X95424476Y-101877809D01*
X95424476Y-102115904D01*
X95376857Y-102211142D01*
X95329238Y-102258761D01*
X95234000Y-102306380D01*
X94948285Y-102306380D01*
X94853047Y-102258761D01*
X94805428Y-102211142D01*
X98512380Y-110291238D02*
X98512380Y-109672190D01*
X98893333Y-110005523D01*
X98893333Y-109862666D01*
X98940952Y-109767428D01*
X98988571Y-109719809D01*
X99083809Y-109672190D01*
X99321904Y-109672190D01*
X99417142Y-109719809D01*
X99464761Y-109767428D01*
X99512380Y-109862666D01*
X99512380Y-110148380D01*
X99464761Y-110243619D01*
X99417142Y-110291238D01*
X98512380Y-109386476D02*
X99512380Y-109053142D01*
X98512380Y-108719809D01*
X98512380Y-108481714D02*
X98512380Y-107862666D01*
X98893333Y-108196000D01*
X98893333Y-108053142D01*
X98940952Y-107957904D01*
X98988571Y-107910285D01*
X99083809Y-107862666D01*
X99321904Y-107862666D01*
X99417142Y-107910285D01*
X99464761Y-107957904D01*
X99512380Y-108053142D01*
X99512380Y-108338857D01*
X99464761Y-108434095D01*
X99417142Y-108481714D01*
X99607619Y-107672190D02*
X99607619Y-106910285D01*
X98988571Y-106672190D02*
X98988571Y-106338857D01*
X99512380Y-106196000D02*
X99512380Y-106672190D01*
X98512380Y-106672190D01*
X98512380Y-106196000D01*
X99512380Y-105767428D02*
X98512380Y-105767428D01*
X99512380Y-105196000D01*
X98512380Y-105196000D01*
X169775619Y-116038380D02*
X170347047Y-116038380D01*
X170061333Y-117038380D02*
X170061333Y-116038380D01*
X170680380Y-117038380D02*
X170680380Y-116038380D01*
X170680380Y-116514571D02*
X171251809Y-116514571D01*
X171251809Y-117038380D02*
X171251809Y-116038380D01*
X172299428Y-117038380D02*
X171966095Y-116562190D01*
X171728000Y-117038380D02*
X171728000Y-116038380D01*
X172108952Y-116038380D01*
X172204190Y-116086000D01*
X172251809Y-116133619D01*
X172299428Y-116228857D01*
X172299428Y-116371714D01*
X172251809Y-116466952D01*
X172204190Y-116514571D01*
X172108952Y-116562190D01*
X171728000Y-116562190D01*
X172918476Y-116038380D02*
X173108952Y-116038380D01*
X173204190Y-116086000D01*
X173299428Y-116181238D01*
X173347047Y-116371714D01*
X173347047Y-116705047D01*
X173299428Y-116895523D01*
X173204190Y-116990761D01*
X173108952Y-117038380D01*
X172918476Y-117038380D01*
X172823238Y-116990761D01*
X172728000Y-116895523D01*
X172680380Y-116705047D01*
X172680380Y-116371714D01*
X172728000Y-116181238D01*
X172823238Y-116086000D01*
X172918476Y-116038380D01*
X173632761Y-116038380D02*
X174204190Y-116038380D01*
X173918476Y-117038380D02*
X173918476Y-116038380D01*
X174394666Y-116038380D02*
X174966095Y-116038380D01*
X174680380Y-117038380D02*
X174680380Y-116038380D01*
X175775619Y-117038380D02*
X175299428Y-117038380D01*
X175299428Y-116038380D01*
X176108952Y-116514571D02*
X176442285Y-116514571D01*
X176585142Y-117038380D02*
X176108952Y-117038380D01*
X176108952Y-116038380D01*
X176585142Y-116038380D01*
X132191619Y-108926380D02*
X132763047Y-108926380D01*
X132477333Y-109926380D02*
X132477333Y-108926380D01*
X133477333Y-109878761D02*
X133382095Y-109926380D01*
X133191619Y-109926380D01*
X133096380Y-109878761D01*
X133048761Y-109783523D01*
X133048761Y-109402571D01*
X133096380Y-109307333D01*
X133191619Y-109259714D01*
X133382095Y-109259714D01*
X133477333Y-109307333D01*
X133524952Y-109402571D01*
X133524952Y-109497809D01*
X133048761Y-109593047D01*
X134334476Y-109878761D02*
X134239238Y-109926380D01*
X134048761Y-109926380D01*
X133953523Y-109878761D01*
X133905904Y-109783523D01*
X133905904Y-109402571D01*
X133953523Y-109307333D01*
X134048761Y-109259714D01*
X134239238Y-109259714D01*
X134334476Y-109307333D01*
X134382095Y-109402571D01*
X134382095Y-109497809D01*
X133905904Y-109593047D01*
X134810666Y-109259714D02*
X134810666Y-109926380D01*
X134810666Y-109354952D02*
X134858285Y-109307333D01*
X134953523Y-109259714D01*
X135096380Y-109259714D01*
X135191619Y-109307333D01*
X135239238Y-109402571D01*
X135239238Y-109926380D01*
X135667809Y-109878761D02*
X135763047Y-109926380D01*
X135953523Y-109926380D01*
X136048761Y-109878761D01*
X136096380Y-109783523D01*
X136096380Y-109735904D01*
X136048761Y-109640666D01*
X135953523Y-109593047D01*
X135810666Y-109593047D01*
X135715428Y-109545428D01*
X135667809Y-109450190D01*
X135667809Y-109402571D01*
X135715428Y-109307333D01*
X135810666Y-109259714D01*
X135953523Y-109259714D01*
X136048761Y-109307333D01*
X136429714Y-109259714D02*
X136667809Y-109926380D01*
X136905904Y-109259714D02*
X136667809Y-109926380D01*
X136572571Y-110164476D01*
X136524952Y-110212095D01*
X136429714Y-110259714D01*
X138477333Y-109259714D02*
X138477333Y-109926380D01*
X138239238Y-108878761D02*
X138001142Y-109593047D01*
X138620190Y-109593047D01*
X139001142Y-109831142D02*
X139048761Y-109878761D01*
X139001142Y-109926380D01*
X138953523Y-109878761D01*
X139001142Y-109831142D01*
X139001142Y-109926380D01*
X139667809Y-108926380D02*
X139763047Y-108926380D01*
X139858285Y-108974000D01*
X139905904Y-109021619D01*
X139953523Y-109116857D01*
X140001142Y-109307333D01*
X140001142Y-109545428D01*
X139953523Y-109735904D01*
X139905904Y-109831142D01*
X139858285Y-109878761D01*
X139763047Y-109926380D01*
X139667809Y-109926380D01*
X139572571Y-109878761D01*
X139524952Y-109831142D01*
X139477333Y-109735904D01*
X139429714Y-109545428D01*
X139429714Y-109307333D01*
X139477333Y-109116857D01*
X139524952Y-109021619D01*
X139572571Y-108974000D01*
X139667809Y-108926380D01*
X170989904Y-108640571D02*
X170656571Y-108640571D01*
X170656571Y-109164380D02*
X170656571Y-108164380D01*
X171132761Y-108164380D01*
X171847047Y-108640571D02*
X171989904Y-108688190D01*
X172037523Y-108735809D01*
X172085142Y-108831047D01*
X172085142Y-108973904D01*
X172037523Y-109069142D01*
X171989904Y-109116761D01*
X171894666Y-109164380D01*
X171513714Y-109164380D01*
X171513714Y-108164380D01*
X171847047Y-108164380D01*
X171942285Y-108212000D01*
X171989904Y-108259619D01*
X172037523Y-108354857D01*
X172037523Y-108450095D01*
X171989904Y-108545333D01*
X171942285Y-108592952D01*
X171847047Y-108640571D01*
X171513714Y-108640571D01*
X173085142Y-109164380D02*
X172751809Y-108688190D01*
X172513714Y-109164380D02*
X172513714Y-108164380D01*
X172894666Y-108164380D01*
X172989904Y-108212000D01*
X173037523Y-108259619D01*
X173085142Y-108354857D01*
X173085142Y-108497714D01*
X173037523Y-108592952D01*
X172989904Y-108640571D01*
X172894666Y-108688190D01*
X172513714Y-108688190D01*
X173466095Y-108878666D02*
X173942285Y-108878666D01*
X173370857Y-109164380D02*
X173704190Y-108164380D01*
X174037523Y-109164380D01*
X174370857Y-109164380D02*
X174370857Y-108164380D01*
X174942285Y-109164380D02*
X174513714Y-108592952D01*
X174942285Y-108164380D02*
X174370857Y-108735809D01*
X175370857Y-108640571D02*
X175704190Y-108640571D01*
X175847047Y-109164380D02*
X175370857Y-109164380D01*
X175370857Y-108164380D01*
X175847047Y-108164380D01*
X184150095Y-138946000D02*
X184054857Y-138898380D01*
X183912000Y-138898380D01*
X183769142Y-138946000D01*
X183673904Y-139041238D01*
X183626285Y-139136476D01*
X183578666Y-139326952D01*
X183578666Y-139469809D01*
X183626285Y-139660285D01*
X183673904Y-139755523D01*
X183769142Y-139850761D01*
X183912000Y-139898380D01*
X184007238Y-139898380D01*
X184150095Y-139850761D01*
X184197714Y-139803142D01*
X184197714Y-139469809D01*
X184007238Y-139469809D01*
X184626285Y-139898380D02*
X184626285Y-138898380D01*
X185197714Y-139898380D01*
X185197714Y-138898380D01*
X185673904Y-139898380D02*
X185673904Y-138898380D01*
X185912000Y-138898380D01*
X186054857Y-138946000D01*
X186150095Y-139041238D01*
X186197714Y-139136476D01*
X186245333Y-139326952D01*
X186245333Y-139469809D01*
X186197714Y-139660285D01*
X186150095Y-139755523D01*
X186054857Y-139850761D01*
X185912000Y-139898380D01*
X185673904Y-139898380D01*
X181562476Y-110418571D02*
X181229142Y-110418571D01*
X181229142Y-110942380D02*
X181229142Y-109942380D01*
X181705333Y-109942380D01*
X182038666Y-110894761D02*
X182181523Y-110942380D01*
X182419619Y-110942380D01*
X182514857Y-110894761D01*
X182562476Y-110847142D01*
X182610095Y-110751904D01*
X182610095Y-110656666D01*
X182562476Y-110561428D01*
X182514857Y-110513809D01*
X182419619Y-110466190D01*
X182229142Y-110418571D01*
X182133904Y-110370952D01*
X182086285Y-110323333D01*
X182038666Y-110228095D01*
X182038666Y-110132857D01*
X182086285Y-110037619D01*
X182133904Y-109990000D01*
X182229142Y-109942380D01*
X182467238Y-109942380D01*
X182610095Y-109990000D01*
X183562476Y-110942380D02*
X182991047Y-110942380D01*
X183276761Y-110942380D02*
X183276761Y-109942380D01*
X183181523Y-110085238D01*
X183086285Y-110180476D01*
X182991047Y-110228095D01*
X103608571Y-48701571D02*
X103941904Y-48701571D01*
X104084761Y-49225380D02*
X103608571Y-49225380D01*
X103608571Y-48225380D01*
X104084761Y-48225380D01*
X104846666Y-48701571D02*
X104989523Y-48749190D01*
X105037142Y-48796809D01*
X105084761Y-48892047D01*
X105084761Y-49034904D01*
X105037142Y-49130142D01*
X104989523Y-49177761D01*
X104894285Y-49225380D01*
X104513333Y-49225380D01*
X104513333Y-48225380D01*
X104846666Y-48225380D01*
X104941904Y-48273000D01*
X104989523Y-48320619D01*
X105037142Y-48415857D01*
X105037142Y-48511095D01*
X104989523Y-48606333D01*
X104941904Y-48653952D01*
X104846666Y-48701571D01*
X104513333Y-48701571D01*
X106084761Y-49225380D02*
X105751428Y-48749190D01*
X105513333Y-49225380D02*
X105513333Y-48225380D01*
X105894285Y-48225380D01*
X105989523Y-48273000D01*
X106037142Y-48320619D01*
X106084761Y-48415857D01*
X106084761Y-48558714D01*
X106037142Y-48653952D01*
X105989523Y-48701571D01*
X105894285Y-48749190D01*
X105513333Y-48749190D01*
X106465714Y-48939666D02*
X106941904Y-48939666D01*
X106370476Y-49225380D02*
X106703809Y-48225380D01*
X107037142Y-49225380D01*
X107370476Y-49225380D02*
X107370476Y-48225380D01*
X107941904Y-49225380D02*
X107513333Y-48653952D01*
X107941904Y-48225380D02*
X107370476Y-48796809D01*
X108370476Y-48701571D02*
X108703809Y-48701571D01*
X108846666Y-49225380D02*
X108370476Y-49225380D01*
X108370476Y-48225380D01*
X108846666Y-48225380D01*
X109227619Y-48320619D02*
X109275238Y-48273000D01*
X109370476Y-48225380D01*
X109608571Y-48225380D01*
X109703809Y-48273000D01*
X109751428Y-48320619D01*
X109799047Y-48415857D01*
X109799047Y-48511095D01*
X109751428Y-48653952D01*
X109180000Y-49225380D01*
X109799047Y-49225380D01*
D10*
X89880714Y-55566571D02*
X89880714Y-56638000D01*
X89809285Y-56852285D01*
X89666428Y-56995142D01*
X89452142Y-57066571D01*
X89309285Y-57066571D01*
X90595000Y-55566571D02*
X90595000Y-56780857D01*
X90666428Y-56923714D01*
X90737857Y-56995142D01*
X90880714Y-57066571D01*
X91166428Y-57066571D01*
X91309285Y-56995142D01*
X91380714Y-56923714D01*
X91452142Y-56780857D01*
X91452142Y-55566571D01*
X92166428Y-57066571D02*
X92166428Y-55566571D01*
X92666428Y-56638000D01*
X93166428Y-55566571D01*
X93166428Y-57066571D01*
X93880714Y-57066571D02*
X93880714Y-55566571D01*
X94452142Y-55566571D01*
X94595000Y-55638000D01*
X94666428Y-55709428D01*
X94737857Y-55852285D01*
X94737857Y-56066571D01*
X94666428Y-56209428D01*
X94595000Y-56280857D01*
X94452142Y-56352285D01*
X93880714Y-56352285D01*
X95380714Y-56280857D02*
X95880714Y-56280857D01*
X96095000Y-57066571D02*
X95380714Y-57066571D01*
X95380714Y-55566571D01*
X96095000Y-55566571D01*
X97595000Y-57066571D02*
X97095000Y-56352285D01*
X96737857Y-57066571D02*
X96737857Y-55566571D01*
X97309285Y-55566571D01*
X97452142Y-55638000D01*
X97523571Y-55709428D01*
X97595000Y-55852285D01*
X97595000Y-56066571D01*
X97523571Y-56209428D01*
X97452142Y-56280857D01*
X97309285Y-56352285D01*
X96737857Y-56352285D01*
X98166428Y-56995142D02*
X98380714Y-57066571D01*
X98737857Y-57066571D01*
X98880714Y-56995142D01*
X98952142Y-56923714D01*
X99023571Y-56780857D01*
X99023571Y-56638000D01*
X98952142Y-56495142D01*
X98880714Y-56423714D01*
X98737857Y-56352285D01*
X98452142Y-56280857D01*
X98309285Y-56209428D01*
X98237857Y-56138000D01*
X98166428Y-55995142D01*
X98166428Y-55852285D01*
X98237857Y-55709428D01*
X98309285Y-55638000D01*
X98452142Y-55566571D01*
X98809285Y-55566571D01*
X99023571Y-55638000D01*
X99666428Y-56923714D02*
X99737857Y-56995142D01*
X99666428Y-57066571D01*
X99595000Y-56995142D01*
X99666428Y-56923714D01*
X99666428Y-57066571D01*
X99666428Y-56138000D02*
X99737857Y-56209428D01*
X99666428Y-56280857D01*
X99595000Y-56209428D01*
X99666428Y-56138000D01*
X99666428Y-56280857D01*
D11*
X98554166Y-122592714D02*
X98554166Y-123259380D01*
X98316071Y-122211761D02*
X98077976Y-122926047D01*
X98697023Y-122926047D01*
X99030357Y-123211761D02*
X99125595Y-123259380D01*
X99316071Y-123259380D01*
X99411309Y-123211761D01*
X99458928Y-123116523D01*
X99458928Y-123068904D01*
X99411309Y-122973666D01*
X99316071Y-122926047D01*
X99173214Y-122926047D01*
X99077976Y-122878428D01*
X99030357Y-122783190D01*
X99030357Y-122735571D01*
X99077976Y-122640333D01*
X99173214Y-122592714D01*
X99316071Y-122592714D01*
X99411309Y-122640333D01*
X98077976Y-123964619D02*
X98125595Y-123917000D01*
X98220833Y-123869380D01*
X98458928Y-123869380D01*
X98554166Y-123917000D01*
X98601785Y-123964619D01*
X98649404Y-124059857D01*
X98649404Y-124155095D01*
X98601785Y-124297952D01*
X98030357Y-124869380D01*
X98649404Y-124869380D01*
X99030357Y-124821761D02*
X99125595Y-124869380D01*
X99316071Y-124869380D01*
X99411309Y-124821761D01*
X99458928Y-124726523D01*
X99458928Y-124678904D01*
X99411309Y-124583666D01*
X99316071Y-124536047D01*
X99173214Y-124536047D01*
X99077976Y-124488428D01*
X99030357Y-124393190D01*
X99030357Y-124345571D01*
X99077976Y-124250333D01*
X99173214Y-124202714D01*
X99316071Y-124202714D01*
X99411309Y-124250333D01*
X98649404Y-126479380D02*
X98077976Y-126479380D01*
X98363690Y-126479380D02*
X98363690Y-125479380D01*
X98268452Y-125622238D01*
X98173214Y-125717476D01*
X98077976Y-125765095D01*
X99030357Y-126431761D02*
X99125595Y-126479380D01*
X99316071Y-126479380D01*
X99411309Y-126431761D01*
X99458928Y-126336523D01*
X99458928Y-126288904D01*
X99411309Y-126193666D01*
X99316071Y-126146047D01*
X99173214Y-126146047D01*
X99077976Y-126098428D01*
X99030357Y-126003190D01*
X99030357Y-125955571D01*
X99077976Y-125860333D01*
X99173214Y-125812714D01*
X99316071Y-125812714D01*
X99411309Y-125860333D01*
X98125595Y-127994142D02*
X98173214Y-128041761D01*
X98125595Y-128089380D01*
X98077976Y-128041761D01*
X98125595Y-127994142D01*
X98125595Y-128089380D01*
X98554166Y-127184619D02*
X98601785Y-127137000D01*
X98697023Y-127089380D01*
X98935119Y-127089380D01*
X99030357Y-127137000D01*
X99077976Y-127184619D01*
X99125595Y-127279857D01*
X99125595Y-127375095D01*
X99077976Y-127517952D01*
X98506547Y-128089380D01*
X99125595Y-128089380D01*
X100030357Y-127089380D02*
X99554166Y-127089380D01*
X99506547Y-127565571D01*
X99554166Y-127517952D01*
X99649404Y-127470333D01*
X99887500Y-127470333D01*
X99982738Y-127517952D01*
X100030357Y-127565571D01*
X100077976Y-127660809D01*
X100077976Y-127898904D01*
X100030357Y-127994142D01*
X99982738Y-128041761D01*
X99887500Y-128089380D01*
X99649404Y-128089380D01*
X99554166Y-128041761D01*
X99506547Y-127994142D01*
X100458928Y-128041761D02*
X100554166Y-128089380D01*
X100744642Y-128089380D01*
X100839880Y-128041761D01*
X100887500Y-127946523D01*
X100887500Y-127898904D01*
X100839880Y-127803666D01*
X100744642Y-127756047D01*
X100601785Y-127756047D01*
X100506547Y-127708428D01*
X100458928Y-127613190D01*
X100458928Y-127565571D01*
X100506547Y-127470333D01*
X100601785Y-127422714D01*
X100744642Y-127422714D01*
X100839880Y-127470333D01*
X90566952Y-83510380D02*
X89995523Y-83510380D01*
X90281238Y-83510380D02*
X90281238Y-82510380D01*
X90186000Y-82653238D01*
X90090761Y-82748476D01*
X89995523Y-82796095D01*
X90947904Y-82605619D02*
X90995523Y-82558000D01*
X91090761Y-82510380D01*
X91328857Y-82510380D01*
X91424095Y-82558000D01*
X91471714Y-82605619D01*
X91519333Y-82700857D01*
X91519333Y-82796095D01*
X91471714Y-82938952D01*
X90900285Y-83510380D01*
X91519333Y-83510380D01*
X91805047Y-82510380D02*
X92138380Y-83510380D01*
X92471714Y-82510380D01*
X172153571Y-95956380D02*
X171820238Y-95480190D01*
X171582142Y-95956380D02*
X171582142Y-94956380D01*
X171963095Y-94956380D01*
X172058333Y-95004000D01*
X172105952Y-95051619D01*
X172153571Y-95146857D01*
X172153571Y-95289714D01*
X172105952Y-95384952D01*
X172058333Y-95432571D01*
X171963095Y-95480190D01*
X171582142Y-95480190D01*
X172582142Y-95432571D02*
X172915476Y-95432571D01*
X173058333Y-95956380D02*
X172582142Y-95956380D01*
X172582142Y-94956380D01*
X173058333Y-94956380D01*
X173344047Y-94956380D02*
X173677380Y-95956380D01*
X174010714Y-94956380D01*
D12*
X118332761Y-71572380D02*
X117856571Y-71572380D01*
X117856571Y-70572380D01*
X118808952Y-71572380D02*
X118713714Y-71524761D01*
X118666095Y-71477142D01*
X118618476Y-71381904D01*
X118618476Y-71096190D01*
X118666095Y-71000952D01*
X118713714Y-70953333D01*
X118808952Y-70905714D01*
X118951809Y-70905714D01*
X119047047Y-70953333D01*
X119094666Y-71000952D01*
X119142285Y-71096190D01*
X119142285Y-71381904D01*
X119094666Y-71477142D01*
X119047047Y-71524761D01*
X118951809Y-71572380D01*
X118808952Y-71572380D01*
X120142285Y-71572380D02*
X119808952Y-71096190D01*
X119570857Y-71572380D02*
X119570857Y-70572380D01*
X119951809Y-70572380D01*
X120047047Y-70620000D01*
X120094666Y-70667619D01*
X120142285Y-70762857D01*
X120142285Y-70905714D01*
X120094666Y-71000952D01*
X120047047Y-71048571D01*
X119951809Y-71096190D01*
X119570857Y-71096190D01*
X120999428Y-71572380D02*
X120999428Y-71048571D01*
X120951809Y-70953333D01*
X120856571Y-70905714D01*
X120666095Y-70905714D01*
X120570857Y-70953333D01*
X120999428Y-71524761D02*
X120904190Y-71572380D01*
X120666095Y-71572380D01*
X120570857Y-71524761D01*
X120523238Y-71429523D01*
X120523238Y-71334285D01*
X120570857Y-71239047D01*
X120666095Y-71191428D01*
X120904190Y-71191428D01*
X120999428Y-71143809D01*
X122237523Y-71572380D02*
X122237523Y-70572380D01*
X122570857Y-71286666D01*
X122904190Y-70572380D01*
X122904190Y-71572380D01*
X123523238Y-71572380D02*
X123428000Y-71524761D01*
X123380380Y-71477142D01*
X123332761Y-71381904D01*
X123332761Y-71096190D01*
X123380380Y-71000952D01*
X123428000Y-70953333D01*
X123523238Y-70905714D01*
X123666095Y-70905714D01*
X123761333Y-70953333D01*
X123808952Y-71000952D01*
X123856571Y-71096190D01*
X123856571Y-71381904D01*
X123808952Y-71477142D01*
X123761333Y-71524761D01*
X123666095Y-71572380D01*
X123523238Y-71572380D01*
X124713714Y-71572380D02*
X124713714Y-70572380D01*
X124713714Y-71524761D02*
X124618476Y-71572380D01*
X124428000Y-71572380D01*
X124332761Y-71524761D01*
X124285142Y-71477142D01*
X124237523Y-71381904D01*
X124237523Y-71096190D01*
X124285142Y-71000952D01*
X124332761Y-70953333D01*
X124428000Y-70905714D01*
X124618476Y-70905714D01*
X124713714Y-70953333D01*
X125618476Y-70905714D02*
X125618476Y-71572380D01*
X125189904Y-70905714D02*
X125189904Y-71429523D01*
X125237523Y-71524761D01*
X125332761Y-71572380D01*
X125475619Y-71572380D01*
X125570857Y-71524761D01*
X125618476Y-71477142D01*
X126237523Y-71572380D02*
X126142285Y-71524761D01*
X126094666Y-71429523D01*
X126094666Y-70572380D01*
X126999428Y-71524761D02*
X126904190Y-71572380D01*
X126713714Y-71572380D01*
X126618476Y-71524761D01*
X126570857Y-71429523D01*
X126570857Y-71048571D01*
X126618476Y-70953333D01*
X126713714Y-70905714D01*
X126904190Y-70905714D01*
X126999428Y-70953333D01*
X127047047Y-71048571D01*
X127047047Y-71143809D01*
X126570857Y-71239047D01*
D11*
X178593904Y-138898380D02*
X179212952Y-138898380D01*
X178879619Y-139279333D01*
X179022476Y-139279333D01*
X179117714Y-139326952D01*
X179165333Y-139374571D01*
X179212952Y-139469809D01*
X179212952Y-139707904D01*
X179165333Y-139803142D01*
X179117714Y-139850761D01*
X179022476Y-139898380D01*
X178736761Y-139898380D01*
X178641523Y-139850761D01*
X178593904Y-139803142D01*
X179498666Y-138898380D02*
X179832000Y-139898380D01*
X180165333Y-138898380D01*
X180403428Y-138898380D02*
X181022476Y-138898380D01*
X180689142Y-139279333D01*
X180832000Y-139279333D01*
X180927238Y-139326952D01*
X180974857Y-139374571D01*
X181022476Y-139469809D01*
X181022476Y-139707904D01*
X180974857Y-139803142D01*
X180927238Y-139850761D01*
X180832000Y-139898380D01*
X180546285Y-139898380D01*
X180451047Y-139850761D01*
X180403428Y-139803142D01*
D10*
X120737428Y-56558571D02*
X119880285Y-56558571D01*
X120308857Y-56558571D02*
X120308857Y-55058571D01*
X120166000Y-55272857D01*
X120023142Y-55415714D01*
X119880285Y-55487142D01*
X121308857Y-55201428D02*
X121380285Y-55130000D01*
X121523142Y-55058571D01*
X121880285Y-55058571D01*
X122023142Y-55130000D01*
X122094571Y-55201428D01*
X122166000Y-55344285D01*
X122166000Y-55487142D01*
X122094571Y-55701428D01*
X121237428Y-56558571D01*
X122166000Y-56558571D01*
X122594571Y-55058571D02*
X123094571Y-56558571D01*
X123594571Y-55058571D01*
D11*
X88947904Y-72318571D02*
X89281238Y-72318571D01*
X89424095Y-72842380D02*
X88947904Y-72842380D01*
X88947904Y-71842380D01*
X89424095Y-71842380D01*
X90424095Y-72842380D02*
X90090761Y-72366190D01*
X89852666Y-72842380D02*
X89852666Y-71842380D01*
X90233619Y-71842380D01*
X90328857Y-71890000D01*
X90376476Y-71937619D01*
X90424095Y-72032857D01*
X90424095Y-72175714D01*
X90376476Y-72270952D01*
X90328857Y-72318571D01*
X90233619Y-72366190D01*
X89852666Y-72366190D01*
X91424095Y-72842380D02*
X91090761Y-72366190D01*
X90852666Y-72842380D02*
X90852666Y-71842380D01*
X91233619Y-71842380D01*
X91328857Y-71890000D01*
X91376476Y-71937619D01*
X91424095Y-72032857D01*
X91424095Y-72175714D01*
X91376476Y-72270952D01*
X91328857Y-72318571D01*
X91233619Y-72366190D01*
X90852666Y-72366190D01*
X92043142Y-71842380D02*
X92233619Y-71842380D01*
X92328857Y-71890000D01*
X92424095Y-71985238D01*
X92471714Y-72175714D01*
X92471714Y-72509047D01*
X92424095Y-72699523D01*
X92328857Y-72794761D01*
X92233619Y-72842380D01*
X92043142Y-72842380D01*
X91947904Y-72794761D01*
X91852666Y-72699523D01*
X91805047Y-72509047D01*
X91805047Y-72175714D01*
X91852666Y-71985238D01*
X91947904Y-71890000D01*
X92043142Y-71842380D01*
X93471714Y-72842380D02*
X93138380Y-72366190D01*
X92900285Y-72842380D02*
X92900285Y-71842380D01*
X93281238Y-71842380D01*
X93376476Y-71890000D01*
X93424095Y-71937619D01*
X93471714Y-72032857D01*
X93471714Y-72175714D01*
X93424095Y-72270952D01*
X93376476Y-72318571D01*
X93281238Y-72366190D01*
X92900285Y-72366190D01*
X113260380Y-142962380D02*
X112784190Y-142962380D01*
X112736571Y-143438571D01*
X112784190Y-143390952D01*
X112879428Y-143343333D01*
X113117523Y-143343333D01*
X113212761Y-143390952D01*
X113260380Y-143438571D01*
X113308000Y-143533809D01*
X113308000Y-143771904D01*
X113260380Y-143867142D01*
X113212761Y-143914761D01*
X113117523Y-143962380D01*
X112879428Y-143962380D01*
X112784190Y-143914761D01*
X112736571Y-143867142D01*
X113593714Y-142962380D02*
X113927047Y-143962380D01*
X114260380Y-142962380D01*
X114355619Y-144057619D02*
X115117523Y-144057619D01*
X115355619Y-143438571D02*
X115688952Y-143438571D01*
X115831809Y-143962380D02*
X115355619Y-143962380D01*
X115355619Y-142962380D01*
X115831809Y-142962380D01*
X116260380Y-143962380D02*
X116260380Y-142962380D01*
X116831809Y-143962380D01*
X116831809Y-142962380D01*
X181443428Y-99496571D02*
X181110095Y-99496571D01*
X181110095Y-100020380D02*
X181110095Y-99020380D01*
X181586285Y-99020380D01*
X181872000Y-99020380D02*
X182110095Y-100020380D01*
X182300571Y-99306095D01*
X182491047Y-100020380D01*
X182729142Y-99020380D01*
X183110095Y-100020380D02*
X183110095Y-99020380D01*
X183348190Y-99020380D01*
X183491047Y-99068000D01*
X183586285Y-99163238D01*
X183633904Y-99258476D01*
X183681523Y-99448952D01*
X183681523Y-99591809D01*
X183633904Y-99782285D01*
X183586285Y-99877523D01*
X183491047Y-99972761D01*
X183348190Y-100020380D01*
X183110095Y-100020380D01*
X89473690Y-59158714D02*
X89473690Y-57730142D01*
X91283214Y-58301571D02*
X90949880Y-58301571D01*
X90949880Y-58825380D02*
X90949880Y-57825380D01*
X91426071Y-57825380D01*
X91759404Y-58777761D02*
X91902261Y-58825380D01*
X92140357Y-58825380D01*
X92235595Y-58777761D01*
X92283214Y-58730142D01*
X92330833Y-58634904D01*
X92330833Y-58539666D01*
X92283214Y-58444428D01*
X92235595Y-58396809D01*
X92140357Y-58349190D01*
X91949880Y-58301571D01*
X91854642Y-58253952D01*
X91807023Y-58206333D01*
X91759404Y-58111095D01*
X91759404Y-58015857D01*
X91807023Y-57920619D01*
X91854642Y-57873000D01*
X91949880Y-57825380D01*
X92187976Y-57825380D01*
X92330833Y-57873000D01*
X93283214Y-58825380D02*
X92711785Y-58825380D01*
X92997500Y-58825380D02*
X92997500Y-57825380D01*
X92902261Y-57968238D01*
X92807023Y-58063476D01*
X92711785Y-58111095D01*
X89473690Y-60768714D02*
X89473690Y-59340142D01*
X91283214Y-59911571D02*
X90949880Y-59911571D01*
X90949880Y-60435380D02*
X90949880Y-59435380D01*
X91426071Y-59435380D01*
X91711785Y-59435380D02*
X91949880Y-60435380D01*
X92140357Y-59721095D01*
X92330833Y-60435380D01*
X92568928Y-59435380D01*
X92949880Y-60435380D02*
X92949880Y-59435380D01*
X93187976Y-59435380D01*
X93330833Y-59483000D01*
X93426071Y-59578238D01*
X93473690Y-59673476D01*
X93521309Y-59863952D01*
X93521309Y-60006809D01*
X93473690Y-60197285D01*
X93426071Y-60292523D01*
X93330833Y-60387761D01*
X93187976Y-60435380D01*
X92949880Y-60435380D01*
X89473690Y-62378714D02*
X89473690Y-60950142D01*
X91521309Y-62045380D02*
X91187976Y-61569190D01*
X90949880Y-62045380D02*
X90949880Y-61045380D01*
X91330833Y-61045380D01*
X91426071Y-61093000D01*
X91473690Y-61140619D01*
X91521309Y-61235857D01*
X91521309Y-61378714D01*
X91473690Y-61473952D01*
X91426071Y-61521571D01*
X91330833Y-61569190D01*
X90949880Y-61569190D01*
X91949880Y-61521571D02*
X92283214Y-61521571D01*
X92426071Y-62045380D02*
X91949880Y-62045380D01*
X91949880Y-61045380D01*
X92426071Y-61045380D01*
X92711785Y-61045380D02*
X93045119Y-62045380D01*
X93378452Y-61045380D01*
X89473690Y-63988714D02*
X89473690Y-62560142D01*
X90807023Y-62655380D02*
X91378452Y-62655380D01*
X91092738Y-63655380D02*
X91092738Y-62655380D01*
X91711785Y-63655380D02*
X91711785Y-62655380D01*
X91711785Y-63131571D02*
X92283214Y-63131571D01*
X92283214Y-63655380D02*
X92283214Y-62655380D01*
X93330833Y-63655380D02*
X92997500Y-63179190D01*
X92759404Y-63655380D02*
X92759404Y-62655380D01*
X93140357Y-62655380D01*
X93235595Y-62703000D01*
X93283214Y-62750619D01*
X93330833Y-62845857D01*
X93330833Y-62988714D01*
X93283214Y-63083952D01*
X93235595Y-63131571D01*
X93140357Y-63179190D01*
X92759404Y-63179190D01*
X93949880Y-62655380D02*
X94140357Y-62655380D01*
X94235595Y-62703000D01*
X94330833Y-62798238D01*
X94378452Y-62988714D01*
X94378452Y-63322047D01*
X94330833Y-63512523D01*
X94235595Y-63607761D01*
X94140357Y-63655380D01*
X93949880Y-63655380D01*
X93854642Y-63607761D01*
X93759404Y-63512523D01*
X93711785Y-63322047D01*
X93711785Y-62988714D01*
X93759404Y-62798238D01*
X93854642Y-62703000D01*
X93949880Y-62655380D01*
X94664166Y-62655380D02*
X95235595Y-62655380D01*
X94949880Y-63655380D02*
X94949880Y-62655380D01*
X95426071Y-62655380D02*
X95997500Y-62655380D01*
X95711785Y-63655380D02*
X95711785Y-62655380D01*
X96807023Y-63655380D02*
X96330833Y-63655380D01*
X96330833Y-62655380D01*
X97140357Y-63131571D02*
X97473690Y-63131571D01*
X97616547Y-63655380D02*
X97140357Y-63655380D01*
X97140357Y-62655380D01*
X97616547Y-62655380D01*
X89473690Y-65598714D02*
X89473690Y-64170142D01*
X91283214Y-64741571D02*
X90949880Y-64741571D01*
X90949880Y-65265380D02*
X90949880Y-64265380D01*
X91426071Y-64265380D01*
X92140357Y-64741571D02*
X92283214Y-64789190D01*
X92330833Y-64836809D01*
X92378452Y-64932047D01*
X92378452Y-65074904D01*
X92330833Y-65170142D01*
X92283214Y-65217761D01*
X92187976Y-65265380D01*
X91807023Y-65265380D01*
X91807023Y-64265380D01*
X92140357Y-64265380D01*
X92235595Y-64313000D01*
X92283214Y-64360619D01*
X92330833Y-64455857D01*
X92330833Y-64551095D01*
X92283214Y-64646333D01*
X92235595Y-64693952D01*
X92140357Y-64741571D01*
X91807023Y-64741571D01*
X89473690Y-67208714D02*
X89473690Y-65780142D01*
X90949880Y-66351571D02*
X91283214Y-66351571D01*
X91426071Y-66875380D02*
X90949880Y-66875380D01*
X90949880Y-65875380D01*
X91426071Y-65875380D01*
X92187976Y-66351571D02*
X92330833Y-66399190D01*
X92378452Y-66446809D01*
X92426071Y-66542047D01*
X92426071Y-66684904D01*
X92378452Y-66780142D01*
X92330833Y-66827761D01*
X92235595Y-66875380D01*
X91854642Y-66875380D01*
X91854642Y-65875380D01*
X92187976Y-65875380D01*
X92283214Y-65923000D01*
X92330833Y-65970619D01*
X92378452Y-66065857D01*
X92378452Y-66161095D01*
X92330833Y-66256333D01*
X92283214Y-66303952D01*
X92187976Y-66351571D01*
X91854642Y-66351571D01*
X93426071Y-66875380D02*
X93092738Y-66399190D01*
X92854642Y-66875380D02*
X92854642Y-65875380D01*
X93235595Y-65875380D01*
X93330833Y-65923000D01*
X93378452Y-65970619D01*
X93426071Y-66065857D01*
X93426071Y-66208714D01*
X93378452Y-66303952D01*
X93330833Y-66351571D01*
X93235595Y-66399190D01*
X92854642Y-66399190D01*
X93807023Y-66589666D02*
X94283214Y-66589666D01*
X93711785Y-66875380D02*
X94045119Y-65875380D01*
X94378452Y-66875380D01*
X94711785Y-66875380D02*
X94711785Y-65875380D01*
X95283214Y-66875380D02*
X94854642Y-66303952D01*
X95283214Y-65875380D02*
X94711785Y-66446809D01*
X95711785Y-66351571D02*
X96045119Y-66351571D01*
X96187976Y-66875380D02*
X95711785Y-66875380D01*
X95711785Y-65875380D01*
X96187976Y-65875380D01*
X97140357Y-66875380D02*
X96568928Y-66875380D01*
X96854642Y-66875380D02*
X96854642Y-65875380D01*
X96759404Y-66018238D01*
X96664166Y-66113476D01*
X96568928Y-66161095D01*
X89473690Y-68818714D02*
X89473690Y-67390142D01*
X90949880Y-67961571D02*
X91283214Y-67961571D01*
X91426071Y-68485380D02*
X90949880Y-68485380D01*
X90949880Y-67485380D01*
X91426071Y-67485380D01*
X92187976Y-67961571D02*
X92330833Y-68009190D01*
X92378452Y-68056809D01*
X92426071Y-68152047D01*
X92426071Y-68294904D01*
X92378452Y-68390142D01*
X92330833Y-68437761D01*
X92235595Y-68485380D01*
X91854642Y-68485380D01*
X91854642Y-67485380D01*
X92187976Y-67485380D01*
X92283214Y-67533000D01*
X92330833Y-67580619D01*
X92378452Y-67675857D01*
X92378452Y-67771095D01*
X92330833Y-67866333D01*
X92283214Y-67913952D01*
X92187976Y-67961571D01*
X91854642Y-67961571D01*
X93426071Y-68485380D02*
X93092738Y-68009190D01*
X92854642Y-68485380D02*
X92854642Y-67485380D01*
X93235595Y-67485380D01*
X93330833Y-67533000D01*
X93378452Y-67580619D01*
X93426071Y-67675857D01*
X93426071Y-67818714D01*
X93378452Y-67913952D01*
X93330833Y-67961571D01*
X93235595Y-68009190D01*
X92854642Y-68009190D01*
X93807023Y-68199666D02*
X94283214Y-68199666D01*
X93711785Y-68485380D02*
X94045119Y-67485380D01*
X94378452Y-68485380D01*
X94711785Y-68485380D02*
X94711785Y-67485380D01*
X95283214Y-68485380D02*
X94854642Y-67913952D01*
X95283214Y-67485380D02*
X94711785Y-68056809D01*
X95711785Y-67961571D02*
X96045119Y-67961571D01*
X96187976Y-68485380D02*
X95711785Y-68485380D01*
X95711785Y-67485380D01*
X96187976Y-67485380D01*
X96568928Y-67580619D02*
X96616547Y-67533000D01*
X96711785Y-67485380D01*
X96949880Y-67485380D01*
X97045119Y-67533000D01*
X97092738Y-67580619D01*
X97140357Y-67675857D01*
X97140357Y-67771095D01*
X97092738Y-67913952D01*
X96521309Y-68485380D01*
X97140357Y-68485380D01*
X89473690Y-70428714D02*
X89473690Y-69000142D01*
X90902261Y-70047761D02*
X91045119Y-70095380D01*
X91283214Y-70095380D01*
X91378452Y-70047761D01*
X91426071Y-70000142D01*
X91473690Y-69904904D01*
X91473690Y-69809666D01*
X91426071Y-69714428D01*
X91378452Y-69666809D01*
X91283214Y-69619190D01*
X91092738Y-69571571D01*
X90997500Y-69523952D01*
X90949880Y-69476333D01*
X90902261Y-69381095D01*
X90902261Y-69285857D01*
X90949880Y-69190619D01*
X90997500Y-69143000D01*
X91092738Y-69095380D01*
X91330833Y-69095380D01*
X91473690Y-69143000D01*
X91759404Y-69095380D02*
X92330833Y-69095380D01*
X92045119Y-70095380D02*
X92045119Y-69095380D01*
X92664166Y-69571571D02*
X92997500Y-69571571D01*
X93140357Y-70095380D02*
X92664166Y-70095380D01*
X92664166Y-69095380D01*
X93140357Y-69095380D01*
X93568928Y-69571571D02*
X93902261Y-69571571D01*
X94045119Y-70095380D02*
X93568928Y-70095380D01*
X93568928Y-69095380D01*
X94045119Y-69095380D01*
X95045119Y-70095380D02*
X94711785Y-69619190D01*
X94473690Y-70095380D02*
X94473690Y-69095380D01*
X94854642Y-69095380D01*
X94949880Y-69143000D01*
X94997500Y-69190619D01*
X95045119Y-69285857D01*
X95045119Y-69428714D01*
X94997500Y-69523952D01*
X94949880Y-69571571D01*
X94854642Y-69619190D01*
X94473690Y-69619190D01*
X95473690Y-70095380D02*
X95473690Y-69095380D01*
X95949880Y-70095380D02*
X95949880Y-69095380D01*
X96521309Y-70095380D01*
X96521309Y-69095380D01*
X97521309Y-69143000D02*
X97426071Y-69095380D01*
X97283214Y-69095380D01*
X97140357Y-69143000D01*
X97045119Y-69238238D01*
X96997500Y-69333476D01*
X96949880Y-69523952D01*
X96949880Y-69666809D01*
X96997500Y-69857285D01*
X97045119Y-69952523D01*
X97140357Y-70047761D01*
X97283214Y-70095380D01*
X97378452Y-70095380D01*
X97521309Y-70047761D01*
X97568928Y-70000142D01*
X97568928Y-69666809D01*
X97378452Y-69666809D01*
X103608571Y-56575571D02*
X103941904Y-56575571D01*
X104084761Y-57099380D02*
X103608571Y-57099380D01*
X103608571Y-56099380D01*
X104084761Y-56099380D01*
X104846666Y-56575571D02*
X104989523Y-56623190D01*
X105037142Y-56670809D01*
X105084761Y-56766047D01*
X105084761Y-56908904D01*
X105037142Y-57004142D01*
X104989523Y-57051761D01*
X104894285Y-57099380D01*
X104513333Y-57099380D01*
X104513333Y-56099380D01*
X104846666Y-56099380D01*
X104941904Y-56147000D01*
X104989523Y-56194619D01*
X105037142Y-56289857D01*
X105037142Y-56385095D01*
X104989523Y-56480333D01*
X104941904Y-56527952D01*
X104846666Y-56575571D01*
X104513333Y-56575571D01*
X106084761Y-57099380D02*
X105751428Y-56623190D01*
X105513333Y-57099380D02*
X105513333Y-56099380D01*
X105894285Y-56099380D01*
X105989523Y-56147000D01*
X106037142Y-56194619D01*
X106084761Y-56289857D01*
X106084761Y-56432714D01*
X106037142Y-56527952D01*
X105989523Y-56575571D01*
X105894285Y-56623190D01*
X105513333Y-56623190D01*
X106465714Y-56813666D02*
X106941904Y-56813666D01*
X106370476Y-57099380D02*
X106703809Y-56099380D01*
X107037142Y-57099380D01*
X107370476Y-57099380D02*
X107370476Y-56099380D01*
X107941904Y-57099380D02*
X107513333Y-56527952D01*
X107941904Y-56099380D02*
X107370476Y-56670809D01*
X108370476Y-56575571D02*
X108703809Y-56575571D01*
X108846666Y-57099380D02*
X108370476Y-57099380D01*
X108370476Y-56099380D01*
X108846666Y-56099380D01*
X109799047Y-57099380D02*
X109227619Y-57099380D01*
X109513333Y-57099380D02*
X109513333Y-56099380D01*
X109418095Y-56242238D01*
X109322857Y-56337476D01*
X109227619Y-56385095D01*
D10*
X132922000Y-91539142D02*
X133136285Y-91610571D01*
X133493428Y-91610571D01*
X133636285Y-91539142D01*
X133707714Y-91467714D01*
X133779142Y-91324857D01*
X133779142Y-91182000D01*
X133707714Y-91039142D01*
X133636285Y-90967714D01*
X133493428Y-90896285D01*
X133207714Y-90824857D01*
X133064857Y-90753428D01*
X132993428Y-90682000D01*
X132922000Y-90539142D01*
X132922000Y-90396285D01*
X132993428Y-90253428D01*
X133064857Y-90182000D01*
X133207714Y-90110571D01*
X133564857Y-90110571D01*
X133779142Y-90182000D01*
X134207714Y-90110571D02*
X135064857Y-90110571D01*
X134636285Y-91610571D02*
X134636285Y-90110571D01*
X135564857Y-90824857D02*
X136064857Y-90824857D01*
X136279142Y-91610571D02*
X135564857Y-91610571D01*
X135564857Y-90110571D01*
X136279142Y-90110571D01*
X136922000Y-90824857D02*
X137422000Y-90824857D01*
X137636285Y-91610571D02*
X136922000Y-91610571D01*
X136922000Y-90110571D01*
X137636285Y-90110571D01*
X139136285Y-91610571D02*
X138636285Y-90896285D01*
X138279142Y-91610571D02*
X138279142Y-90110571D01*
X138850571Y-90110571D01*
X138993428Y-90182000D01*
X139064857Y-90253428D01*
X139136285Y-90396285D01*
X139136285Y-90610571D01*
X139064857Y-90753428D01*
X138993428Y-90824857D01*
X138850571Y-90896285D01*
X138279142Y-90896285D01*
X139779142Y-91610571D02*
X139779142Y-90110571D01*
X140493428Y-91610571D02*
X140493428Y-90110571D01*
X141350571Y-91610571D01*
X141350571Y-90110571D01*
X142850571Y-90182000D02*
X142707714Y-90110571D01*
X142493428Y-90110571D01*
X142279142Y-90182000D01*
X142136285Y-90324857D01*
X142064857Y-90467714D01*
X141993428Y-90753428D01*
X141993428Y-90967714D01*
X142064857Y-91253428D01*
X142136285Y-91396285D01*
X142279142Y-91539142D01*
X142493428Y-91610571D01*
X142636285Y-91610571D01*
X142850571Y-91539142D01*
X142922000Y-91467714D01*
X142922000Y-90967714D01*
X142636285Y-90967714D01*
D11*
X151347666Y-99464761D02*
X151490523Y-99512380D01*
X151728619Y-99512380D01*
X151823857Y-99464761D01*
X151871476Y-99417142D01*
X151919095Y-99321904D01*
X151919095Y-99226666D01*
X151871476Y-99131428D01*
X151823857Y-99083809D01*
X151728619Y-99036190D01*
X151538142Y-98988571D01*
X151442904Y-98940952D01*
X151395285Y-98893333D01*
X151347666Y-98798095D01*
X151347666Y-98702857D01*
X151395285Y-98607619D01*
X151442904Y-98560000D01*
X151538142Y-98512380D01*
X151776238Y-98512380D01*
X151919095Y-98560000D01*
X152204809Y-98512380D02*
X152776238Y-98512380D01*
X152490523Y-99512380D02*
X152490523Y-98512380D01*
X153109571Y-98988571D02*
X153442904Y-98988571D01*
X153585761Y-99512380D02*
X153109571Y-99512380D01*
X153109571Y-98512380D01*
X153585761Y-98512380D01*
X154014333Y-98988571D02*
X154347666Y-98988571D01*
X154490523Y-99512380D02*
X154014333Y-99512380D01*
X154014333Y-98512380D01*
X154490523Y-98512380D01*
X155490523Y-99512380D02*
X155157190Y-99036190D01*
X154919095Y-99512380D02*
X154919095Y-98512380D01*
X155300047Y-98512380D01*
X155395285Y-98560000D01*
X155442904Y-98607619D01*
X155490523Y-98702857D01*
X155490523Y-98845714D01*
X155442904Y-98940952D01*
X155395285Y-98988571D01*
X155300047Y-99036190D01*
X154919095Y-99036190D01*
X155919095Y-99512380D02*
X155919095Y-98512380D01*
X156395285Y-99512380D02*
X156395285Y-98512380D01*
X156966714Y-99512380D01*
X156966714Y-98512380D01*
X157966714Y-98560000D02*
X157871476Y-98512380D01*
X157728619Y-98512380D01*
X157585761Y-98560000D01*
X157490523Y-98655238D01*
X157442904Y-98750476D01*
X157395285Y-98940952D01*
X157395285Y-99083809D01*
X157442904Y-99274285D01*
X157490523Y-99369523D01*
X157585761Y-99464761D01*
X157728619Y-99512380D01*
X157823857Y-99512380D01*
X157966714Y-99464761D01*
X158014333Y-99417142D01*
X158014333Y-99083809D01*
X157823857Y-99083809D01*
X120205523Y-139914380D02*
X119729333Y-139914380D01*
X119681714Y-140390571D01*
X119729333Y-140342952D01*
X119824571Y-140295333D01*
X120062666Y-140295333D01*
X120157904Y-140342952D01*
X120205523Y-140390571D01*
X120253142Y-140485809D01*
X120253142Y-140723904D01*
X120205523Y-140819142D01*
X120157904Y-140866761D01*
X120062666Y-140914380D01*
X119824571Y-140914380D01*
X119729333Y-140866761D01*
X119681714Y-140819142D01*
X120538857Y-139914380D02*
X120872190Y-140914380D01*
X121205523Y-139914380D01*
X102727619Y-64444571D02*
X103060952Y-64444571D01*
X103203809Y-64968380D02*
X102727619Y-64968380D01*
X102727619Y-63968380D01*
X103203809Y-63968380D01*
X103965714Y-64444571D02*
X104108571Y-64492190D01*
X104156190Y-64539809D01*
X104203809Y-64635047D01*
X104203809Y-64777904D01*
X104156190Y-64873142D01*
X104108571Y-64920761D01*
X104013333Y-64968380D01*
X103632380Y-64968380D01*
X103632380Y-63968380D01*
X103965714Y-63968380D01*
X104060952Y-64016000D01*
X104108571Y-64063619D01*
X104156190Y-64158857D01*
X104156190Y-64254095D01*
X104108571Y-64349333D01*
X104060952Y-64396952D01*
X103965714Y-64444571D01*
X103632380Y-64444571D01*
X105203809Y-64968380D02*
X104870476Y-64492190D01*
X104632380Y-64968380D02*
X104632380Y-63968380D01*
X105013333Y-63968380D01*
X105108571Y-64016000D01*
X105156190Y-64063619D01*
X105203809Y-64158857D01*
X105203809Y-64301714D01*
X105156190Y-64396952D01*
X105108571Y-64444571D01*
X105013333Y-64492190D01*
X104632380Y-64492190D01*
X105584761Y-64682666D02*
X106060952Y-64682666D01*
X105489523Y-64968380D02*
X105822857Y-63968380D01*
X106156190Y-64968380D01*
X106489523Y-64968380D02*
X106489523Y-63968380D01*
X107060952Y-64968380D02*
X106632380Y-64396952D01*
X107060952Y-63968380D02*
X106489523Y-64539809D01*
X107489523Y-64444571D02*
X107822857Y-64444571D01*
X107965714Y-64968380D02*
X107489523Y-64968380D01*
X107489523Y-63968380D01*
X107965714Y-63968380D01*
X108156190Y-65063619D02*
X108918095Y-65063619D01*
X109156190Y-64444571D02*
X109489523Y-64444571D01*
X109632380Y-64968380D02*
X109156190Y-64968380D01*
X109156190Y-63968380D01*
X109632380Y-63968380D01*
X110060952Y-64968380D02*
X110060952Y-63968380D01*
X110632380Y-64968380D01*
X110632380Y-63968380D01*
%TO.C,C1*%
X121515142Y-104052666D02*
X121562761Y-104100285D01*
X121610380Y-104243142D01*
X121610380Y-104338380D01*
X121562761Y-104481238D01*
X121467523Y-104576476D01*
X121372285Y-104624095D01*
X121181809Y-104671714D01*
X121038952Y-104671714D01*
X120848476Y-104624095D01*
X120753238Y-104576476D01*
X120658000Y-104481238D01*
X120610380Y-104338380D01*
X120610380Y-104243142D01*
X120658000Y-104100285D01*
X120705619Y-104052666D01*
X121610380Y-103100285D02*
X121610380Y-103671714D01*
X121610380Y-103386000D02*
X120610380Y-103386000D01*
X120753238Y-103481238D01*
X120848476Y-103576476D01*
X120896095Y-103671714D01*
%TO.C,U2*%
X122428095Y-112482380D02*
X122428095Y-113291904D01*
X122475714Y-113387142D01*
X122523333Y-113434761D01*
X122618571Y-113482380D01*
X122809047Y-113482380D01*
X122904285Y-113434761D01*
X122951904Y-113387142D01*
X122999523Y-113291904D01*
X122999523Y-112482380D01*
X123428095Y-112577619D02*
X123475714Y-112530000D01*
X123570952Y-112482380D01*
X123809047Y-112482380D01*
X123904285Y-112530000D01*
X123951904Y-112577619D01*
X123999523Y-112672857D01*
X123999523Y-112768095D01*
X123951904Y-112910952D01*
X123380476Y-113482380D01*
X123999523Y-113482380D01*
%TO.C,U9*%
X157196380Y-116575904D02*
X158005904Y-116575904D01*
X158101142Y-116528285D01*
X158148761Y-116480666D01*
X158196380Y-116385428D01*
X158196380Y-116194952D01*
X158148761Y-116099714D01*
X158101142Y-116052095D01*
X158005904Y-116004476D01*
X157196380Y-116004476D01*
X158196380Y-115480666D02*
X158196380Y-115290190D01*
X158148761Y-115194952D01*
X158101142Y-115147333D01*
X157958285Y-115052095D01*
X157767809Y-115004476D01*
X157386857Y-115004476D01*
X157291619Y-115052095D01*
X157244000Y-115099714D01*
X157196380Y-115194952D01*
X157196380Y-115385428D01*
X157244000Y-115480666D01*
X157291619Y-115528285D01*
X157386857Y-115575904D01*
X157624952Y-115575904D01*
X157720190Y-115528285D01*
X157767809Y-115480666D01*
X157815428Y-115385428D01*
X157815428Y-115194952D01*
X157767809Y-115099714D01*
X157720190Y-115052095D01*
X157624952Y-115004476D01*
%TO.C,R13*%
X177157142Y-115006380D02*
X176823809Y-114530190D01*
X176585714Y-115006380D02*
X176585714Y-114006380D01*
X176966666Y-114006380D01*
X177061904Y-114054000D01*
X177109523Y-114101619D01*
X177157142Y-114196857D01*
X177157142Y-114339714D01*
X177109523Y-114434952D01*
X177061904Y-114482571D01*
X176966666Y-114530190D01*
X176585714Y-114530190D01*
X178109523Y-115006380D02*
X177538095Y-115006380D01*
X177823809Y-115006380D02*
X177823809Y-114006380D01*
X177728571Y-114149238D01*
X177633333Y-114244476D01*
X177538095Y-114292095D01*
X178442857Y-114006380D02*
X179061904Y-114006380D01*
X178728571Y-114387333D01*
X178871428Y-114387333D01*
X178966666Y-114434952D01*
X179014285Y-114482571D01*
X179061904Y-114577809D01*
X179061904Y-114815904D01*
X179014285Y-114911142D01*
X178966666Y-114958761D01*
X178871428Y-115006380D01*
X178585714Y-115006380D01*
X178490476Y-114958761D01*
X178442857Y-114911142D01*
%TO.C,C9*%
X96861333Y-143105142D02*
X96813714Y-143152761D01*
X96670857Y-143200380D01*
X96575619Y-143200380D01*
X96432761Y-143152761D01*
X96337523Y-143057523D01*
X96289904Y-142962285D01*
X96242285Y-142771809D01*
X96242285Y-142628952D01*
X96289904Y-142438476D01*
X96337523Y-142343238D01*
X96432761Y-142248000D01*
X96575619Y-142200380D01*
X96670857Y-142200380D01*
X96813714Y-142248000D01*
X96861333Y-142295619D01*
X97337523Y-143200380D02*
X97528000Y-143200380D01*
X97623238Y-143152761D01*
X97670857Y-143105142D01*
X97766095Y-142962285D01*
X97813714Y-142771809D01*
X97813714Y-142390857D01*
X97766095Y-142295619D01*
X97718476Y-142248000D01*
X97623238Y-142200380D01*
X97432761Y-142200380D01*
X97337523Y-142248000D01*
X97289904Y-142295619D01*
X97242285Y-142390857D01*
X97242285Y-142628952D01*
X97289904Y-142724190D01*
X97337523Y-142771809D01*
X97432761Y-142819428D01*
X97623238Y-142819428D01*
X97718476Y-142771809D01*
X97766095Y-142724190D01*
X97813714Y-142628952D01*
%TO.C,R25*%
X170029142Y-104084380D02*
X169695809Y-103608190D01*
X169457714Y-104084380D02*
X169457714Y-103084380D01*
X169838666Y-103084380D01*
X169933904Y-103132000D01*
X169981523Y-103179619D01*
X170029142Y-103274857D01*
X170029142Y-103417714D01*
X169981523Y-103512952D01*
X169933904Y-103560571D01*
X169838666Y-103608190D01*
X169457714Y-103608190D01*
X170410095Y-103179619D02*
X170457714Y-103132000D01*
X170552952Y-103084380D01*
X170791047Y-103084380D01*
X170886285Y-103132000D01*
X170933904Y-103179619D01*
X170981523Y-103274857D01*
X170981523Y-103370095D01*
X170933904Y-103512952D01*
X170362476Y-104084380D01*
X170981523Y-104084380D01*
X171886285Y-103084380D02*
X171410095Y-103084380D01*
X171362476Y-103560571D01*
X171410095Y-103512952D01*
X171505333Y-103465333D01*
X171743428Y-103465333D01*
X171838666Y-103512952D01*
X171886285Y-103560571D01*
X171933904Y-103655809D01*
X171933904Y-103893904D01*
X171886285Y-103989142D01*
X171838666Y-104036761D01*
X171743428Y-104084380D01*
X171505333Y-104084380D01*
X171410095Y-104036761D01*
X171362476Y-103989142D01*
%TO.C,R28*%
X157086142Y-93924380D02*
X156752809Y-93448190D01*
X156514714Y-93924380D02*
X156514714Y-92924380D01*
X156895666Y-92924380D01*
X156990904Y-92972000D01*
X157038523Y-93019619D01*
X157086142Y-93114857D01*
X157086142Y-93257714D01*
X157038523Y-93352952D01*
X156990904Y-93400571D01*
X156895666Y-93448190D01*
X156514714Y-93448190D01*
X157467095Y-93019619D02*
X157514714Y-92972000D01*
X157609952Y-92924380D01*
X157848047Y-92924380D01*
X157943285Y-92972000D01*
X157990904Y-93019619D01*
X158038523Y-93114857D01*
X158038523Y-93210095D01*
X157990904Y-93352952D01*
X157419476Y-93924380D01*
X158038523Y-93924380D01*
X158609952Y-93352952D02*
X158514714Y-93305333D01*
X158467095Y-93257714D01*
X158419476Y-93162476D01*
X158419476Y-93114857D01*
X158467095Y-93019619D01*
X158514714Y-92972000D01*
X158609952Y-92924380D01*
X158800428Y-92924380D01*
X158895666Y-92972000D01*
X158943285Y-93019619D01*
X158990904Y-93114857D01*
X158990904Y-93162476D01*
X158943285Y-93257714D01*
X158895666Y-93305333D01*
X158800428Y-93352952D01*
X158609952Y-93352952D01*
X158514714Y-93400571D01*
X158467095Y-93448190D01*
X158419476Y-93543428D01*
X158419476Y-93733904D01*
X158467095Y-93829142D01*
X158514714Y-93876761D01*
X158609952Y-93924380D01*
X158800428Y-93924380D01*
X158895666Y-93876761D01*
X158943285Y-93829142D01*
X158990904Y-93733904D01*
X158990904Y-93543428D01*
X158943285Y-93448190D01*
X158895666Y-93400571D01*
X158800428Y-93352952D01*
D10*
%TO.C,J6*%
X153097571Y-65071857D02*
X152811857Y-64976619D01*
X152716619Y-64881380D01*
X152621380Y-64690904D01*
X152621380Y-64405190D01*
X152716619Y-64214714D01*
X152811857Y-64119476D01*
X153002333Y-64024238D01*
X153764238Y-64024238D01*
X153764238Y-66024238D01*
X153097571Y-66024238D01*
X152907095Y-65929000D01*
X152811857Y-65833761D01*
X152716619Y-65643285D01*
X152716619Y-65452809D01*
X152811857Y-65262333D01*
X152907095Y-65167095D01*
X153097571Y-65071857D01*
X153764238Y-65071857D01*
X151764238Y-64024238D02*
X151764238Y-65357571D01*
X151764238Y-64976619D02*
X151669000Y-65167095D01*
X151573761Y-65262333D01*
X151383285Y-65357571D01*
X151192809Y-65357571D01*
X149764238Y-64119476D02*
X149954714Y-64024238D01*
X150335666Y-64024238D01*
X150526142Y-64119476D01*
X150621380Y-64309952D01*
X150621380Y-65071857D01*
X150526142Y-65262333D01*
X150335666Y-65357571D01*
X149954714Y-65357571D01*
X149764238Y-65262333D01*
X149669000Y-65071857D01*
X149669000Y-64881380D01*
X150621380Y-64690904D01*
X147954714Y-64024238D02*
X147954714Y-65071857D01*
X148049952Y-65262333D01*
X148240428Y-65357571D01*
X148621380Y-65357571D01*
X148811857Y-65262333D01*
X147954714Y-64119476D02*
X148145190Y-64024238D01*
X148621380Y-64024238D01*
X148811857Y-64119476D01*
X148907095Y-64309952D01*
X148907095Y-64500428D01*
X148811857Y-64690904D01*
X148621380Y-64786142D01*
X148145190Y-64786142D01*
X147954714Y-64881380D01*
X147002333Y-64024238D02*
X147002333Y-66024238D01*
X146811857Y-64786142D02*
X146240428Y-64024238D01*
X146240428Y-65357571D02*
X147002333Y-64595666D01*
X145097571Y-64024238D02*
X145288047Y-64119476D01*
X145383285Y-64214714D01*
X145478523Y-64405190D01*
X145478523Y-64976619D01*
X145383285Y-65167095D01*
X145288047Y-65262333D01*
X145097571Y-65357571D01*
X144811857Y-65357571D01*
X144621380Y-65262333D01*
X144526142Y-65167095D01*
X144430904Y-64976619D01*
X144430904Y-64405190D01*
X144526142Y-64214714D01*
X144621380Y-64119476D01*
X144811857Y-64024238D01*
X145097571Y-64024238D01*
X142716619Y-65357571D02*
X142716619Y-64024238D01*
X143573761Y-65357571D02*
X143573761Y-64309952D01*
X143478523Y-64119476D01*
X143288047Y-64024238D01*
X143002333Y-64024238D01*
X142811857Y-64119476D01*
X142716619Y-64214714D01*
X142049952Y-65357571D02*
X141288047Y-65357571D01*
X141764238Y-66024238D02*
X141764238Y-64309952D01*
X141669000Y-64119476D01*
X141478523Y-64024238D01*
X141288047Y-64024238D01*
X158907095Y-70151857D02*
X158621380Y-70056619D01*
X158526142Y-69961380D01*
X158430904Y-69770904D01*
X158430904Y-69485190D01*
X158526142Y-69294714D01*
X158621380Y-69199476D01*
X158811857Y-69104238D01*
X159573761Y-69104238D01*
X159573761Y-71104238D01*
X158907095Y-71104238D01*
X158716619Y-71009000D01*
X158621380Y-70913761D01*
X158526142Y-70723285D01*
X158526142Y-70532809D01*
X158621380Y-70342333D01*
X158716619Y-70247095D01*
X158907095Y-70151857D01*
X159573761Y-70151857D01*
X157573761Y-69104238D02*
X157573761Y-70437571D01*
X157573761Y-70056619D02*
X157478523Y-70247095D01*
X157383285Y-70342333D01*
X157192809Y-70437571D01*
X157002333Y-70437571D01*
X155478523Y-69104238D02*
X155478523Y-70151857D01*
X155573761Y-70342333D01*
X155764238Y-70437571D01*
X156145190Y-70437571D01*
X156335666Y-70342333D01*
X155478523Y-69199476D02*
X155669000Y-69104238D01*
X156145190Y-69104238D01*
X156335666Y-69199476D01*
X156430904Y-69389952D01*
X156430904Y-69580428D01*
X156335666Y-69770904D01*
X156145190Y-69866142D01*
X155669000Y-69866142D01*
X155478523Y-69961380D01*
X154526142Y-69104238D02*
X154526142Y-71104238D01*
X154335666Y-69866142D02*
X153764238Y-69104238D01*
X153764238Y-70437571D02*
X154526142Y-69675666D01*
X152145190Y-69199476D02*
X152335666Y-69104238D01*
X152716619Y-69104238D01*
X152907095Y-69199476D01*
X153002333Y-69389952D01*
X153002333Y-70151857D01*
X152907095Y-70342333D01*
X152716619Y-70437571D01*
X152335666Y-70437571D01*
X152145190Y-70342333D01*
X152049952Y-70151857D01*
X152049952Y-69961380D01*
X153002333Y-69770904D01*
X148526142Y-69294714D02*
X148621380Y-69199476D01*
X148907095Y-69104238D01*
X149097571Y-69104238D01*
X149383285Y-69199476D01*
X149573761Y-69389952D01*
X149669000Y-69580428D01*
X149764238Y-69961380D01*
X149764238Y-70247095D01*
X149669000Y-70628047D01*
X149573761Y-70818523D01*
X149383285Y-71009000D01*
X149097571Y-71104238D01*
X148907095Y-71104238D01*
X148621380Y-71009000D01*
X148526142Y-70913761D01*
X147383285Y-69104238D02*
X147573761Y-69199476D01*
X147669000Y-69294714D01*
X147764238Y-69485190D01*
X147764238Y-70056619D01*
X147669000Y-70247095D01*
X147573761Y-70342333D01*
X147383285Y-70437571D01*
X147097571Y-70437571D01*
X146907095Y-70342333D01*
X146811857Y-70247095D01*
X146716619Y-70056619D01*
X146716619Y-69485190D01*
X146811857Y-69294714D01*
X146907095Y-69199476D01*
X147097571Y-69104238D01*
X147383285Y-69104238D01*
X145859476Y-70437571D02*
X145859476Y-69104238D01*
X145859476Y-70247095D02*
X145764238Y-70342333D01*
X145573761Y-70437571D01*
X145288047Y-70437571D01*
X145097571Y-70342333D01*
X145002333Y-70151857D01*
X145002333Y-69104238D01*
X144335666Y-70437571D02*
X143573761Y-70437571D01*
X144049952Y-71104238D02*
X144049952Y-69389952D01*
X143954714Y-69199476D01*
X143764238Y-69104238D01*
X143573761Y-69104238D01*
X142907095Y-69104238D02*
X142907095Y-70437571D01*
X142907095Y-70056619D02*
X142811857Y-70247095D01*
X142716619Y-70342333D01*
X142526142Y-70437571D01*
X142335666Y-70437571D01*
X141383285Y-69104238D02*
X141573761Y-69199476D01*
X141669000Y-69294714D01*
X141764238Y-69485190D01*
X141764238Y-70056619D01*
X141669000Y-70247095D01*
X141573761Y-70342333D01*
X141383285Y-70437571D01*
X141097571Y-70437571D01*
X140907095Y-70342333D01*
X140811857Y-70247095D01*
X140716619Y-70056619D01*
X140716619Y-69485190D01*
X140811857Y-69294714D01*
X140907095Y-69199476D01*
X141097571Y-69104238D01*
X141383285Y-69104238D01*
X139573761Y-69104238D02*
X139764238Y-69199476D01*
X139859476Y-69389952D01*
X139859476Y-71104238D01*
X138526142Y-69104238D02*
X138716619Y-69199476D01*
X138811857Y-69389952D01*
X138811857Y-71104238D01*
X137002333Y-69199476D02*
X137192809Y-69104238D01*
X137573761Y-69104238D01*
X137764238Y-69199476D01*
X137859476Y-69389952D01*
X137859476Y-70151857D01*
X137764238Y-70342333D01*
X137573761Y-70437571D01*
X137192809Y-70437571D01*
X137002333Y-70342333D01*
X136907095Y-70151857D01*
X136907095Y-69961380D01*
X137859476Y-69770904D01*
X136049952Y-69104238D02*
X136049952Y-70437571D01*
X136049952Y-70056619D02*
X135954714Y-70247095D01*
X135859476Y-70342333D01*
X135669000Y-70437571D01*
X135478523Y-70437571D01*
D11*
%TO.C,R30*%
X149974142Y-94432380D02*
X149640809Y-93956190D01*
X149402714Y-94432380D02*
X149402714Y-93432380D01*
X149783666Y-93432380D01*
X149878904Y-93480000D01*
X149926523Y-93527619D01*
X149974142Y-93622857D01*
X149974142Y-93765714D01*
X149926523Y-93860952D01*
X149878904Y-93908571D01*
X149783666Y-93956190D01*
X149402714Y-93956190D01*
X150307476Y-93432380D02*
X150926523Y-93432380D01*
X150593190Y-93813333D01*
X150736047Y-93813333D01*
X150831285Y-93860952D01*
X150878904Y-93908571D01*
X150926523Y-94003809D01*
X150926523Y-94241904D01*
X150878904Y-94337142D01*
X150831285Y-94384761D01*
X150736047Y-94432380D01*
X150450333Y-94432380D01*
X150355095Y-94384761D01*
X150307476Y-94337142D01*
X151545571Y-93432380D02*
X151640809Y-93432380D01*
X151736047Y-93480000D01*
X151783666Y-93527619D01*
X151831285Y-93622857D01*
X151878904Y-93813333D01*
X151878904Y-94051428D01*
X151831285Y-94241904D01*
X151783666Y-94337142D01*
X151736047Y-94384761D01*
X151640809Y-94432380D01*
X151545571Y-94432380D01*
X151450333Y-94384761D01*
X151402714Y-94337142D01*
X151355095Y-94241904D01*
X151307476Y-94051428D01*
X151307476Y-93813333D01*
X151355095Y-93622857D01*
X151402714Y-93527619D01*
X151450333Y-93480000D01*
X151545571Y-93432380D01*
%TO.C,R11*%
X89860380Y-102988857D02*
X89384190Y-103322190D01*
X89860380Y-103560285D02*
X88860380Y-103560285D01*
X88860380Y-103179333D01*
X88908000Y-103084095D01*
X88955619Y-103036476D01*
X89050857Y-102988857D01*
X89193714Y-102988857D01*
X89288952Y-103036476D01*
X89336571Y-103084095D01*
X89384190Y-103179333D01*
X89384190Y-103560285D01*
X89860380Y-102036476D02*
X89860380Y-102607904D01*
X89860380Y-102322190D02*
X88860380Y-102322190D01*
X89003238Y-102417428D01*
X89098476Y-102512666D01*
X89146095Y-102607904D01*
X89860380Y-101084095D02*
X89860380Y-101655523D01*
X89860380Y-101369809D02*
X88860380Y-101369809D01*
X89003238Y-101465047D01*
X89098476Y-101560285D01*
X89146095Y-101655523D01*
%TO.C,R5*%
X99147333Y-146756380D02*
X98814000Y-146280190D01*
X98575904Y-146756380D02*
X98575904Y-145756380D01*
X98956857Y-145756380D01*
X99052095Y-145804000D01*
X99099714Y-145851619D01*
X99147333Y-145946857D01*
X99147333Y-146089714D01*
X99099714Y-146184952D01*
X99052095Y-146232571D01*
X98956857Y-146280190D01*
X98575904Y-146280190D01*
X100052095Y-145756380D02*
X99575904Y-145756380D01*
X99528285Y-146232571D01*
X99575904Y-146184952D01*
X99671142Y-146137333D01*
X99909238Y-146137333D01*
X100004476Y-146184952D01*
X100052095Y-146232571D01*
X100099714Y-146327809D01*
X100099714Y-146565904D01*
X100052095Y-146661142D01*
X100004476Y-146708761D01*
X99909238Y-146756380D01*
X99671142Y-146756380D01*
X99575904Y-146708761D01*
X99528285Y-146661142D01*
%TO.C,C12*%
X98163142Y-100433142D02*
X98115523Y-100480761D01*
X97972666Y-100528380D01*
X97877428Y-100528380D01*
X97734571Y-100480761D01*
X97639333Y-100385523D01*
X97591714Y-100290285D01*
X97544095Y-100099809D01*
X97544095Y-99956952D01*
X97591714Y-99766476D01*
X97639333Y-99671238D01*
X97734571Y-99576000D01*
X97877428Y-99528380D01*
X97972666Y-99528380D01*
X98115523Y-99576000D01*
X98163142Y-99623619D01*
X99115523Y-100528380D02*
X98544095Y-100528380D01*
X98829809Y-100528380D02*
X98829809Y-99528380D01*
X98734571Y-99671238D01*
X98639333Y-99766476D01*
X98544095Y-99814095D01*
X99496476Y-99623619D02*
X99544095Y-99576000D01*
X99639333Y-99528380D01*
X99877428Y-99528380D01*
X99972666Y-99576000D01*
X100020285Y-99623619D01*
X100067904Y-99718857D01*
X100067904Y-99814095D01*
X100020285Y-99956952D01*
X99448857Y-100528380D01*
X100067904Y-100528380D01*
%TO.C,Q2*%
X177704761Y-95543619D02*
X177609523Y-95496000D01*
X177514285Y-95400761D01*
X177371428Y-95257904D01*
X177276190Y-95210285D01*
X177180952Y-95210285D01*
X177228571Y-95448380D02*
X177133333Y-95400761D01*
X177038095Y-95305523D01*
X176990476Y-95115047D01*
X176990476Y-94781714D01*
X177038095Y-94591238D01*
X177133333Y-94496000D01*
X177228571Y-94448380D01*
X177419047Y-94448380D01*
X177514285Y-94496000D01*
X177609523Y-94591238D01*
X177657142Y-94781714D01*
X177657142Y-95115047D01*
X177609523Y-95305523D01*
X177514285Y-95400761D01*
X177419047Y-95448380D01*
X177228571Y-95448380D01*
X178038095Y-94543619D02*
X178085714Y-94496000D01*
X178180952Y-94448380D01*
X178419047Y-94448380D01*
X178514285Y-94496000D01*
X178561904Y-94543619D01*
X178609523Y-94638857D01*
X178609523Y-94734095D01*
X178561904Y-94876952D01*
X177990476Y-95448380D01*
X178609523Y-95448380D01*
%TO.C,R33*%
X106794142Y-138618380D02*
X106460809Y-138142190D01*
X106222714Y-138618380D02*
X106222714Y-137618380D01*
X106603666Y-137618380D01*
X106698904Y-137666000D01*
X106746523Y-137713619D01*
X106794142Y-137808857D01*
X106794142Y-137951714D01*
X106746523Y-138046952D01*
X106698904Y-138094571D01*
X106603666Y-138142190D01*
X106222714Y-138142190D01*
X107127476Y-137618380D02*
X107746523Y-137618380D01*
X107413190Y-137999333D01*
X107556047Y-137999333D01*
X107651285Y-138046952D01*
X107698904Y-138094571D01*
X107746523Y-138189809D01*
X107746523Y-138427904D01*
X107698904Y-138523142D01*
X107651285Y-138570761D01*
X107556047Y-138618380D01*
X107270333Y-138618380D01*
X107175095Y-138570761D01*
X107127476Y-138523142D01*
X108079857Y-137618380D02*
X108698904Y-137618380D01*
X108365571Y-137999333D01*
X108508428Y-137999333D01*
X108603666Y-138046952D01*
X108651285Y-138094571D01*
X108698904Y-138189809D01*
X108698904Y-138427904D01*
X108651285Y-138523142D01*
X108603666Y-138570761D01*
X108508428Y-138618380D01*
X108222714Y-138618380D01*
X108127476Y-138570761D01*
X108079857Y-138523142D01*
%TO.C,R27*%
X159377142Y-106370380D02*
X159043809Y-105894190D01*
X158805714Y-106370380D02*
X158805714Y-105370380D01*
X159186666Y-105370380D01*
X159281904Y-105418000D01*
X159329523Y-105465619D01*
X159377142Y-105560857D01*
X159377142Y-105703714D01*
X159329523Y-105798952D01*
X159281904Y-105846571D01*
X159186666Y-105894190D01*
X158805714Y-105894190D01*
X159758095Y-105465619D02*
X159805714Y-105418000D01*
X159900952Y-105370380D01*
X160139047Y-105370380D01*
X160234285Y-105418000D01*
X160281904Y-105465619D01*
X160329523Y-105560857D01*
X160329523Y-105656095D01*
X160281904Y-105798952D01*
X159710476Y-106370380D01*
X160329523Y-106370380D01*
X160662857Y-105370380D02*
X161329523Y-105370380D01*
X160900952Y-106370380D01*
%TO.C,R36*%
X113354380Y-52971857D02*
X112878190Y-53305190D01*
X113354380Y-53543285D02*
X112354380Y-53543285D01*
X112354380Y-53162333D01*
X112402000Y-53067095D01*
X112449619Y-53019476D01*
X112544857Y-52971857D01*
X112687714Y-52971857D01*
X112782952Y-53019476D01*
X112830571Y-53067095D01*
X112878190Y-53162333D01*
X112878190Y-53543285D01*
X112354380Y-52638523D02*
X112354380Y-52019476D01*
X112735333Y-52352809D01*
X112735333Y-52209952D01*
X112782952Y-52114714D01*
X112830571Y-52067095D01*
X112925809Y-52019476D01*
X113163904Y-52019476D01*
X113259142Y-52067095D01*
X113306761Y-52114714D01*
X113354380Y-52209952D01*
X113354380Y-52495666D01*
X113306761Y-52590904D01*
X113259142Y-52638523D01*
X112354380Y-51162333D02*
X112354380Y-51352809D01*
X112402000Y-51448047D01*
X112449619Y-51495666D01*
X112592476Y-51590904D01*
X112782952Y-51638523D01*
X113163904Y-51638523D01*
X113259142Y-51590904D01*
X113306761Y-51543285D01*
X113354380Y-51448047D01*
X113354380Y-51257571D01*
X113306761Y-51162333D01*
X113259142Y-51114714D01*
X113163904Y-51067095D01*
X112925809Y-51067095D01*
X112830571Y-51114714D01*
X112782952Y-51162333D01*
X112735333Y-51257571D01*
X112735333Y-51448047D01*
X112782952Y-51543285D01*
X112830571Y-51590904D01*
X112925809Y-51638523D01*
%TO.C,C2*%
X125579142Y-104031166D02*
X125626761Y-104078785D01*
X125674380Y-104221642D01*
X125674380Y-104316880D01*
X125626761Y-104459738D01*
X125531523Y-104554976D01*
X125436285Y-104602595D01*
X125245809Y-104650214D01*
X125102952Y-104650214D01*
X124912476Y-104602595D01*
X124817238Y-104554976D01*
X124722000Y-104459738D01*
X124674380Y-104316880D01*
X124674380Y-104221642D01*
X124722000Y-104078785D01*
X124769619Y-104031166D01*
X124769619Y-103650214D02*
X124722000Y-103602595D01*
X124674380Y-103507357D01*
X124674380Y-103269261D01*
X124722000Y-103174023D01*
X124769619Y-103126404D01*
X124864857Y-103078785D01*
X124960095Y-103078785D01*
X125102952Y-103126404D01*
X125674380Y-103697833D01*
X125674380Y-103078785D01*
%TO.C,C7*%
X170013333Y-106275142D02*
X169965714Y-106322761D01*
X169822857Y-106370380D01*
X169727619Y-106370380D01*
X169584761Y-106322761D01*
X169489523Y-106227523D01*
X169441904Y-106132285D01*
X169394285Y-105941809D01*
X169394285Y-105798952D01*
X169441904Y-105608476D01*
X169489523Y-105513238D01*
X169584761Y-105418000D01*
X169727619Y-105370380D01*
X169822857Y-105370380D01*
X169965714Y-105418000D01*
X170013333Y-105465619D01*
X170346666Y-105370380D02*
X171013333Y-105370380D01*
X170584761Y-106370380D01*
%TO.C,C14*%
X161170142Y-135739142D02*
X161122523Y-135786761D01*
X160979666Y-135834380D01*
X160884428Y-135834380D01*
X160741571Y-135786761D01*
X160646333Y-135691523D01*
X160598714Y-135596285D01*
X160551095Y-135405809D01*
X160551095Y-135262952D01*
X160598714Y-135072476D01*
X160646333Y-134977238D01*
X160741571Y-134882000D01*
X160884428Y-134834380D01*
X160979666Y-134834380D01*
X161122523Y-134882000D01*
X161170142Y-134929619D01*
X162122523Y-135834380D02*
X161551095Y-135834380D01*
X161836809Y-135834380D02*
X161836809Y-134834380D01*
X161741571Y-134977238D01*
X161646333Y-135072476D01*
X161551095Y-135120095D01*
X162979666Y-135167714D02*
X162979666Y-135834380D01*
X162741571Y-134786761D02*
X162503476Y-135501047D01*
X163122523Y-135501047D01*
%TO.C,C17*%
X92575142Y-138787142D02*
X92527523Y-138834761D01*
X92384666Y-138882380D01*
X92289428Y-138882380D01*
X92146571Y-138834761D01*
X92051333Y-138739523D01*
X92003714Y-138644285D01*
X91956095Y-138453809D01*
X91956095Y-138310952D01*
X92003714Y-138120476D01*
X92051333Y-138025238D01*
X92146571Y-137930000D01*
X92289428Y-137882380D01*
X92384666Y-137882380D01*
X92527523Y-137930000D01*
X92575142Y-137977619D01*
X93527523Y-138882380D02*
X92956095Y-138882380D01*
X93241809Y-138882380D02*
X93241809Y-137882380D01*
X93146571Y-138025238D01*
X93051333Y-138120476D01*
X92956095Y-138168095D01*
X93860857Y-137882380D02*
X94527523Y-137882380D01*
X94098952Y-138882380D01*
%TO.C,R34*%
X114922142Y-138618380D02*
X114588809Y-138142190D01*
X114350714Y-138618380D02*
X114350714Y-137618380D01*
X114731666Y-137618380D01*
X114826904Y-137666000D01*
X114874523Y-137713619D01*
X114922142Y-137808857D01*
X114922142Y-137951714D01*
X114874523Y-138046952D01*
X114826904Y-138094571D01*
X114731666Y-138142190D01*
X114350714Y-138142190D01*
X115255476Y-137618380D02*
X115874523Y-137618380D01*
X115541190Y-137999333D01*
X115684047Y-137999333D01*
X115779285Y-138046952D01*
X115826904Y-138094571D01*
X115874523Y-138189809D01*
X115874523Y-138427904D01*
X115826904Y-138523142D01*
X115779285Y-138570761D01*
X115684047Y-138618380D01*
X115398333Y-138618380D01*
X115303095Y-138570761D01*
X115255476Y-138523142D01*
X116731666Y-137951714D02*
X116731666Y-138618380D01*
X116493571Y-137570761D02*
X116255476Y-138285047D01*
X116874523Y-138285047D01*
%TO.C,Q3*%
X167171619Y-93313238D02*
X167124000Y-93408476D01*
X167028761Y-93503714D01*
X166885904Y-93646571D01*
X166838285Y-93741809D01*
X166838285Y-93837047D01*
X167076380Y-93789428D02*
X167028761Y-93884666D01*
X166933523Y-93979904D01*
X166743047Y-94027523D01*
X166409714Y-94027523D01*
X166219238Y-93979904D01*
X166124000Y-93884666D01*
X166076380Y-93789428D01*
X166076380Y-93598952D01*
X166124000Y-93503714D01*
X166219238Y-93408476D01*
X166409714Y-93360857D01*
X166743047Y-93360857D01*
X166933523Y-93408476D01*
X167028761Y-93503714D01*
X167076380Y-93598952D01*
X167076380Y-93789428D01*
X166076380Y-93027523D02*
X166076380Y-92408476D01*
X166457333Y-92741809D01*
X166457333Y-92598952D01*
X166504952Y-92503714D01*
X166552571Y-92456095D01*
X166647809Y-92408476D01*
X166885904Y-92408476D01*
X166981142Y-92456095D01*
X167028761Y-92503714D01*
X167076380Y-92598952D01*
X167076380Y-92884666D01*
X167028761Y-92979904D01*
X166981142Y-93027523D01*
%TO.C,C16*%
X157593142Y-112900857D02*
X157640761Y-112948476D01*
X157688380Y-113091333D01*
X157688380Y-113186571D01*
X157640761Y-113329428D01*
X157545523Y-113424666D01*
X157450285Y-113472285D01*
X157259809Y-113519904D01*
X157116952Y-113519904D01*
X156926476Y-113472285D01*
X156831238Y-113424666D01*
X156736000Y-113329428D01*
X156688380Y-113186571D01*
X156688380Y-113091333D01*
X156736000Y-112948476D01*
X156783619Y-112900857D01*
X157688380Y-111948476D02*
X157688380Y-112519904D01*
X157688380Y-112234190D02*
X156688380Y-112234190D01*
X156831238Y-112329428D01*
X156926476Y-112424666D01*
X156974095Y-112519904D01*
X156688380Y-111091333D02*
X156688380Y-111281809D01*
X156736000Y-111377047D01*
X156783619Y-111424666D01*
X156926476Y-111519904D01*
X157116952Y-111567523D01*
X157497904Y-111567523D01*
X157593142Y-111519904D01*
X157640761Y-111472285D01*
X157688380Y-111377047D01*
X157688380Y-111186571D01*
X157640761Y-111091333D01*
X157593142Y-111043714D01*
X157497904Y-110996095D01*
X157259809Y-110996095D01*
X157164571Y-111043714D01*
X157116952Y-111091333D01*
X157069333Y-111186571D01*
X157069333Y-111377047D01*
X157116952Y-111472285D01*
X157164571Y-111519904D01*
X157259809Y-111567523D01*
%TO.C,R31*%
X91638380Y-111408357D02*
X91162190Y-111741690D01*
X91638380Y-111979785D02*
X90638380Y-111979785D01*
X90638380Y-111598833D01*
X90686000Y-111503595D01*
X90733619Y-111455976D01*
X90828857Y-111408357D01*
X90971714Y-111408357D01*
X91066952Y-111455976D01*
X91114571Y-111503595D01*
X91162190Y-111598833D01*
X91162190Y-111979785D01*
X90638380Y-111075023D02*
X90638380Y-110455976D01*
X91019333Y-110789309D01*
X91019333Y-110646452D01*
X91066952Y-110551214D01*
X91114571Y-110503595D01*
X91209809Y-110455976D01*
X91447904Y-110455976D01*
X91543142Y-110503595D01*
X91590761Y-110551214D01*
X91638380Y-110646452D01*
X91638380Y-110932166D01*
X91590761Y-111027404D01*
X91543142Y-111075023D01*
X91638380Y-109503595D02*
X91638380Y-110075023D01*
X91638380Y-109789309D02*
X90638380Y-109789309D01*
X90781238Y-109884547D01*
X90876476Y-109979785D01*
X90924095Y-110075023D01*
%TO.C,R26*%
X159377142Y-104084380D02*
X159043809Y-103608190D01*
X158805714Y-104084380D02*
X158805714Y-103084380D01*
X159186666Y-103084380D01*
X159281904Y-103132000D01*
X159329523Y-103179619D01*
X159377142Y-103274857D01*
X159377142Y-103417714D01*
X159329523Y-103512952D01*
X159281904Y-103560571D01*
X159186666Y-103608190D01*
X158805714Y-103608190D01*
X159758095Y-103179619D02*
X159805714Y-103132000D01*
X159900952Y-103084380D01*
X160139047Y-103084380D01*
X160234285Y-103132000D01*
X160281904Y-103179619D01*
X160329523Y-103274857D01*
X160329523Y-103370095D01*
X160281904Y-103512952D01*
X159710476Y-104084380D01*
X160329523Y-104084380D01*
X161186666Y-103084380D02*
X160996190Y-103084380D01*
X160900952Y-103132000D01*
X160853333Y-103179619D01*
X160758095Y-103322476D01*
X160710476Y-103512952D01*
X160710476Y-103893904D01*
X160758095Y-103989142D01*
X160805714Y-104036761D01*
X160900952Y-104084380D01*
X161091428Y-104084380D01*
X161186666Y-104036761D01*
X161234285Y-103989142D01*
X161281904Y-103893904D01*
X161281904Y-103655809D01*
X161234285Y-103560571D01*
X161186666Y-103512952D01*
X161091428Y-103465333D01*
X160900952Y-103465333D01*
X160805714Y-103512952D01*
X160758095Y-103560571D01*
X160710476Y-103655809D01*
%TO.C,C20*%
X134739142Y-86971142D02*
X134691523Y-87018761D01*
X134548666Y-87066380D01*
X134453428Y-87066380D01*
X134310571Y-87018761D01*
X134215333Y-86923523D01*
X134167714Y-86828285D01*
X134120095Y-86637809D01*
X134120095Y-86494952D01*
X134167714Y-86304476D01*
X134215333Y-86209238D01*
X134310571Y-86114000D01*
X134453428Y-86066380D01*
X134548666Y-86066380D01*
X134691523Y-86114000D01*
X134739142Y-86161619D01*
X135120095Y-86161619D02*
X135167714Y-86114000D01*
X135262952Y-86066380D01*
X135501047Y-86066380D01*
X135596285Y-86114000D01*
X135643904Y-86161619D01*
X135691523Y-86256857D01*
X135691523Y-86352095D01*
X135643904Y-86494952D01*
X135072476Y-87066380D01*
X135691523Y-87066380D01*
X136310571Y-86066380D02*
X136405809Y-86066380D01*
X136501047Y-86114000D01*
X136548666Y-86161619D01*
X136596285Y-86256857D01*
X136643904Y-86447333D01*
X136643904Y-86685428D01*
X136596285Y-86875904D01*
X136548666Y-86971142D01*
X136501047Y-87018761D01*
X136405809Y-87066380D01*
X136310571Y-87066380D01*
X136215333Y-87018761D01*
X136167714Y-86971142D01*
X136120095Y-86875904D01*
X136072476Y-86685428D01*
X136072476Y-86447333D01*
X136120095Y-86256857D01*
X136167714Y-86161619D01*
X136215333Y-86114000D01*
X136310571Y-86066380D01*
%TO.C,U3*%
X98004380Y-144708904D02*
X98813904Y-144708904D01*
X98909142Y-144661285D01*
X98956761Y-144613666D01*
X99004380Y-144518428D01*
X99004380Y-144327952D01*
X98956761Y-144232714D01*
X98909142Y-144185095D01*
X98813904Y-144137476D01*
X98004380Y-144137476D01*
X98004380Y-143756523D02*
X98004380Y-143137476D01*
X98385333Y-143470809D01*
X98385333Y-143327952D01*
X98432952Y-143232714D01*
X98480571Y-143185095D01*
X98575809Y-143137476D01*
X98813904Y-143137476D01*
X98909142Y-143185095D01*
X98956761Y-143232714D01*
X99004380Y-143327952D01*
X99004380Y-143613666D01*
X98956761Y-143708904D01*
X98909142Y-143756523D01*
%TO.C,U8*%
X120102380Y-134619904D02*
X120911904Y-134619904D01*
X121007142Y-134572285D01*
X121054761Y-134524666D01*
X121102380Y-134429428D01*
X121102380Y-134238952D01*
X121054761Y-134143714D01*
X121007142Y-134096095D01*
X120911904Y-134048476D01*
X120102380Y-134048476D01*
X120530952Y-133429428D02*
X120483333Y-133524666D01*
X120435714Y-133572285D01*
X120340476Y-133619904D01*
X120292857Y-133619904D01*
X120197619Y-133572285D01*
X120150000Y-133524666D01*
X120102380Y-133429428D01*
X120102380Y-133238952D01*
X120150000Y-133143714D01*
X120197619Y-133096095D01*
X120292857Y-133048476D01*
X120340476Y-133048476D01*
X120435714Y-133096095D01*
X120483333Y-133143714D01*
X120530952Y-133238952D01*
X120530952Y-133429428D01*
X120578571Y-133524666D01*
X120626190Y-133572285D01*
X120721428Y-133619904D01*
X120911904Y-133619904D01*
X121007142Y-133572285D01*
X121054761Y-133524666D01*
X121102380Y-133429428D01*
X121102380Y-133238952D01*
X121054761Y-133143714D01*
X121007142Y-133096095D01*
X120911904Y-133048476D01*
X120721428Y-133048476D01*
X120626190Y-133096095D01*
X120578571Y-133143714D01*
X120530952Y-133238952D01*
%TO.C,C18*%
X106799142Y-126341142D02*
X106751523Y-126388761D01*
X106608666Y-126436380D01*
X106513428Y-126436380D01*
X106370571Y-126388761D01*
X106275333Y-126293523D01*
X106227714Y-126198285D01*
X106180095Y-126007809D01*
X106180095Y-125864952D01*
X106227714Y-125674476D01*
X106275333Y-125579238D01*
X106370571Y-125484000D01*
X106513428Y-125436380D01*
X106608666Y-125436380D01*
X106751523Y-125484000D01*
X106799142Y-125531619D01*
X107751523Y-126436380D02*
X107180095Y-126436380D01*
X107465809Y-126436380D02*
X107465809Y-125436380D01*
X107370571Y-125579238D01*
X107275333Y-125674476D01*
X107180095Y-125722095D01*
X108322952Y-125864952D02*
X108227714Y-125817333D01*
X108180095Y-125769714D01*
X108132476Y-125674476D01*
X108132476Y-125626857D01*
X108180095Y-125531619D01*
X108227714Y-125484000D01*
X108322952Y-125436380D01*
X108513428Y-125436380D01*
X108608666Y-125484000D01*
X108656285Y-125531619D01*
X108703904Y-125626857D01*
X108703904Y-125674476D01*
X108656285Y-125769714D01*
X108608666Y-125817333D01*
X108513428Y-125864952D01*
X108322952Y-125864952D01*
X108227714Y-125912571D01*
X108180095Y-125960190D01*
X108132476Y-126055428D01*
X108132476Y-126245904D01*
X108180095Y-126341142D01*
X108227714Y-126388761D01*
X108322952Y-126436380D01*
X108513428Y-126436380D01*
X108608666Y-126388761D01*
X108656285Y-126341142D01*
X108703904Y-126245904D01*
X108703904Y-126055428D01*
X108656285Y-125960190D01*
X108608666Y-125912571D01*
X108513428Y-125864952D01*
%TO.C,R19*%
X157091142Y-118562380D02*
X156757809Y-118086190D01*
X156519714Y-118562380D02*
X156519714Y-117562380D01*
X156900666Y-117562380D01*
X156995904Y-117610000D01*
X157043523Y-117657619D01*
X157091142Y-117752857D01*
X157091142Y-117895714D01*
X157043523Y-117990952D01*
X156995904Y-118038571D01*
X156900666Y-118086190D01*
X156519714Y-118086190D01*
X158043523Y-118562380D02*
X157472095Y-118562380D01*
X157757809Y-118562380D02*
X157757809Y-117562380D01*
X157662571Y-117705238D01*
X157567333Y-117800476D01*
X157472095Y-117848095D01*
X158519714Y-118562380D02*
X158710190Y-118562380D01*
X158805428Y-118514761D01*
X158853047Y-118467142D01*
X158948285Y-118324285D01*
X158995904Y-118133809D01*
X158995904Y-117752857D01*
X158948285Y-117657619D01*
X158900666Y-117610000D01*
X158805428Y-117562380D01*
X158614952Y-117562380D01*
X158519714Y-117610000D01*
X158472095Y-117657619D01*
X158424476Y-117752857D01*
X158424476Y-117990952D01*
X158472095Y-118086190D01*
X158519714Y-118133809D01*
X158614952Y-118181428D01*
X158805428Y-118181428D01*
X158900666Y-118133809D01*
X158948285Y-118086190D01*
X158995904Y-117990952D01*
%TO.C,U6*%
X166330380Y-129539904D02*
X167139904Y-129539904D01*
X167235142Y-129492285D01*
X167282761Y-129444666D01*
X167330380Y-129349428D01*
X167330380Y-129158952D01*
X167282761Y-129063714D01*
X167235142Y-129016095D01*
X167139904Y-128968476D01*
X166330380Y-128968476D01*
X166330380Y-128063714D02*
X166330380Y-128254190D01*
X166378000Y-128349428D01*
X166425619Y-128397047D01*
X166568476Y-128492285D01*
X166758952Y-128539904D01*
X167139904Y-128539904D01*
X167235142Y-128492285D01*
X167282761Y-128444666D01*
X167330380Y-128349428D01*
X167330380Y-128158952D01*
X167282761Y-128063714D01*
X167235142Y-128016095D01*
X167139904Y-127968476D01*
X166901809Y-127968476D01*
X166806571Y-128016095D01*
X166758952Y-128063714D01*
X166711333Y-128158952D01*
X166711333Y-128349428D01*
X166758952Y-128444666D01*
X166806571Y-128492285D01*
X166901809Y-128539904D01*
%TO.C,C10*%
X110609142Y-145137142D02*
X110561523Y-145184761D01*
X110418666Y-145232380D01*
X110323428Y-145232380D01*
X110180571Y-145184761D01*
X110085333Y-145089523D01*
X110037714Y-144994285D01*
X109990095Y-144803809D01*
X109990095Y-144660952D01*
X110037714Y-144470476D01*
X110085333Y-144375238D01*
X110180571Y-144280000D01*
X110323428Y-144232380D01*
X110418666Y-144232380D01*
X110561523Y-144280000D01*
X110609142Y-144327619D01*
X111561523Y-145232380D02*
X110990095Y-145232380D01*
X111275809Y-145232380D02*
X111275809Y-144232380D01*
X111180571Y-144375238D01*
X111085333Y-144470476D01*
X110990095Y-144518095D01*
X112180571Y-144232380D02*
X112275809Y-144232380D01*
X112371047Y-144280000D01*
X112418666Y-144327619D01*
X112466285Y-144422857D01*
X112513904Y-144613333D01*
X112513904Y-144851428D01*
X112466285Y-145041904D01*
X112418666Y-145137142D01*
X112371047Y-145184761D01*
X112275809Y-145232380D01*
X112180571Y-145232380D01*
X112085333Y-145184761D01*
X112037714Y-145137142D01*
X111990095Y-145041904D01*
X111942476Y-144851428D01*
X111942476Y-144613333D01*
X111990095Y-144422857D01*
X112037714Y-144327619D01*
X112085333Y-144280000D01*
X112180571Y-144232380D01*
%TO.C,U5*%
X166599380Y-141731904D02*
X167408904Y-141731904D01*
X167504142Y-141684285D01*
X167551761Y-141636666D01*
X167599380Y-141541428D01*
X167599380Y-141350952D01*
X167551761Y-141255714D01*
X167504142Y-141208095D01*
X167408904Y-141160476D01*
X166599380Y-141160476D01*
X166599380Y-140208095D02*
X166599380Y-140684285D01*
X167075571Y-140731904D01*
X167027952Y-140684285D01*
X166980333Y-140589047D01*
X166980333Y-140350952D01*
X167027952Y-140255714D01*
X167075571Y-140208095D01*
X167170809Y-140160476D01*
X167408904Y-140160476D01*
X167504142Y-140208095D01*
X167551761Y-140255714D01*
X167599380Y-140350952D01*
X167599380Y-140589047D01*
X167551761Y-140684285D01*
X167504142Y-140731904D01*
%TO.C,R6*%
X95337333Y-100528380D02*
X95004000Y-100052190D01*
X94765904Y-100528380D02*
X94765904Y-99528380D01*
X95146857Y-99528380D01*
X95242095Y-99576000D01*
X95289714Y-99623619D01*
X95337333Y-99718857D01*
X95337333Y-99861714D01*
X95289714Y-99956952D01*
X95242095Y-100004571D01*
X95146857Y-100052190D01*
X94765904Y-100052190D01*
X96194476Y-99528380D02*
X96004000Y-99528380D01*
X95908761Y-99576000D01*
X95861142Y-99623619D01*
X95765904Y-99766476D01*
X95718285Y-99956952D01*
X95718285Y-100337904D01*
X95765904Y-100433142D01*
X95813523Y-100480761D01*
X95908761Y-100528380D01*
X96099238Y-100528380D01*
X96194476Y-100480761D01*
X96242095Y-100433142D01*
X96289714Y-100337904D01*
X96289714Y-100099809D01*
X96242095Y-100004571D01*
X96194476Y-99956952D01*
X96099238Y-99909333D01*
X95908761Y-99909333D01*
X95813523Y-99956952D01*
X95765904Y-100004571D01*
X95718285Y-100099809D01*
%TO.C,R3*%
X109069333Y-146756380D02*
X108736000Y-146280190D01*
X108497904Y-146756380D02*
X108497904Y-145756380D01*
X108878857Y-145756380D01*
X108974095Y-145804000D01*
X109021714Y-145851619D01*
X109069333Y-145946857D01*
X109069333Y-146089714D01*
X109021714Y-146184952D01*
X108974095Y-146232571D01*
X108878857Y-146280190D01*
X108497904Y-146280190D01*
X109402666Y-145756380D02*
X110021714Y-145756380D01*
X109688380Y-146137333D01*
X109831238Y-146137333D01*
X109926476Y-146184952D01*
X109974095Y-146232571D01*
X110021714Y-146327809D01*
X110021714Y-146565904D01*
X109974095Y-146661142D01*
X109926476Y-146708761D01*
X109831238Y-146756380D01*
X109545523Y-146756380D01*
X109450285Y-146708761D01*
X109402666Y-146661142D01*
%TO.C,R15*%
X163954142Y-120848380D02*
X163620809Y-120372190D01*
X163382714Y-120848380D02*
X163382714Y-119848380D01*
X163763666Y-119848380D01*
X163858904Y-119896000D01*
X163906523Y-119943619D01*
X163954142Y-120038857D01*
X163954142Y-120181714D01*
X163906523Y-120276952D01*
X163858904Y-120324571D01*
X163763666Y-120372190D01*
X163382714Y-120372190D01*
X164906523Y-120848380D02*
X164335095Y-120848380D01*
X164620809Y-120848380D02*
X164620809Y-119848380D01*
X164525571Y-119991238D01*
X164430333Y-120086476D01*
X164335095Y-120134095D01*
X165811285Y-119848380D02*
X165335095Y-119848380D01*
X165287476Y-120324571D01*
X165335095Y-120276952D01*
X165430333Y-120229333D01*
X165668428Y-120229333D01*
X165763666Y-120276952D01*
X165811285Y-120324571D01*
X165858904Y-120419809D01*
X165858904Y-120657904D01*
X165811285Y-120753142D01*
X165763666Y-120800761D01*
X165668428Y-120848380D01*
X165430333Y-120848380D01*
X165335095Y-120800761D01*
X165287476Y-120753142D01*
%TO.C,U1*%
X139824000Y-126808666D02*
X139824000Y-126108666D01*
X139990666Y-126108666D01*
X140090666Y-126142000D01*
X140157333Y-126208666D01*
X140190666Y-126275333D01*
X140224000Y-126408666D01*
X140224000Y-126508666D01*
X140190666Y-126642000D01*
X140157333Y-126708666D01*
X140090666Y-126775333D01*
X139990666Y-126808666D01*
X139824000Y-126808666D01*
X140424000Y-126108666D02*
X140657333Y-126808666D01*
X140890666Y-126108666D01*
X141457333Y-126808666D02*
X141124000Y-126808666D01*
X141124000Y-126108666D01*
X141990666Y-126108666D02*
X141857333Y-126108666D01*
X141790666Y-126142000D01*
X141757333Y-126175333D01*
X141690666Y-126275333D01*
X141657333Y-126408666D01*
X141657333Y-126675333D01*
X141690666Y-126742000D01*
X141724000Y-126775333D01*
X141790666Y-126808666D01*
X141924000Y-126808666D01*
X141990666Y-126775333D01*
X142024000Y-126742000D01*
X142057333Y-126675333D01*
X142057333Y-126508666D01*
X142024000Y-126442000D01*
X141990666Y-126408666D01*
X141924000Y-126375333D01*
X141790666Y-126375333D01*
X141724000Y-126408666D01*
X141690666Y-126442000D01*
X141657333Y-126508666D01*
X142324000Y-126608666D02*
X142657333Y-126608666D01*
X142257333Y-126808666D02*
X142490666Y-126108666D01*
X142724000Y-126808666D01*
X138140666Y-128332666D02*
X138140666Y-127632666D01*
X138374000Y-128132666D01*
X138607333Y-127632666D01*
X138607333Y-128332666D01*
X138940666Y-128332666D02*
X138940666Y-127632666D01*
X139274000Y-128332666D02*
X139274000Y-127632666D01*
X139507333Y-128132666D01*
X139740666Y-127632666D01*
X139740666Y-128332666D01*
X140007333Y-127632666D02*
X140474000Y-128332666D01*
X140474000Y-127632666D02*
X140007333Y-128332666D01*
X141140666Y-128332666D02*
X140907333Y-127999333D01*
X140740666Y-128332666D02*
X140740666Y-127632666D01*
X141007333Y-127632666D01*
X141074000Y-127666000D01*
X141107333Y-127699333D01*
X141140666Y-127766000D01*
X141140666Y-127866000D01*
X141107333Y-127932666D01*
X141074000Y-127966000D01*
X141007333Y-127999333D01*
X140740666Y-127999333D01*
X141340666Y-127632666D02*
X141740666Y-127632666D01*
X141540666Y-128332666D02*
X141540666Y-127632666D01*
X142340666Y-128332666D02*
X141940666Y-128332666D01*
X142140666Y-128332666D02*
X142140666Y-127632666D01*
X142074000Y-127732666D01*
X142007333Y-127799333D01*
X141940666Y-127832666D01*
X142774000Y-127632666D02*
X142840666Y-127632666D01*
X142907333Y-127666000D01*
X142940666Y-127699333D01*
X142974000Y-127766000D01*
X143007333Y-127899333D01*
X143007333Y-128066000D01*
X142974000Y-128199333D01*
X142940666Y-128266000D01*
X142907333Y-128299333D01*
X142840666Y-128332666D01*
X142774000Y-128332666D01*
X142707333Y-128299333D01*
X142674000Y-128266000D01*
X142640666Y-128199333D01*
X142607333Y-128066000D01*
X142607333Y-127899333D01*
X142640666Y-127766000D01*
X142674000Y-127699333D01*
X142707333Y-127666000D01*
X142774000Y-127632666D01*
X143607333Y-127632666D02*
X143474000Y-127632666D01*
X143407333Y-127666000D01*
X143374000Y-127699333D01*
X143307333Y-127799333D01*
X143274000Y-127932666D01*
X143274000Y-128199333D01*
X143307333Y-128266000D01*
X143340666Y-128299333D01*
X143407333Y-128332666D01*
X143540666Y-128332666D01*
X143607333Y-128299333D01*
X143640666Y-128266000D01*
X143674000Y-128199333D01*
X143674000Y-128032666D01*
X143640666Y-127966000D01*
X143607333Y-127932666D01*
X143540666Y-127899333D01*
X143407333Y-127899333D01*
X143340666Y-127932666D01*
X143307333Y-127966000D01*
X143274000Y-128032666D01*
X143940666Y-127699333D02*
X143974000Y-127666000D01*
X144040666Y-127632666D01*
X144207333Y-127632666D01*
X144274000Y-127666000D01*
X144307333Y-127699333D01*
X144340666Y-127766000D01*
X144340666Y-127832666D01*
X144307333Y-127932666D01*
X143907333Y-128332666D01*
X144340666Y-128332666D01*
%TO.C,C15*%
X160901142Y-123293142D02*
X160853523Y-123340761D01*
X160710666Y-123388380D01*
X160615428Y-123388380D01*
X160472571Y-123340761D01*
X160377333Y-123245523D01*
X160329714Y-123150285D01*
X160282095Y-122959809D01*
X160282095Y-122816952D01*
X160329714Y-122626476D01*
X160377333Y-122531238D01*
X160472571Y-122436000D01*
X160615428Y-122388380D01*
X160710666Y-122388380D01*
X160853523Y-122436000D01*
X160901142Y-122483619D01*
X161853523Y-123388380D02*
X161282095Y-123388380D01*
X161567809Y-123388380D02*
X161567809Y-122388380D01*
X161472571Y-122531238D01*
X161377333Y-122626476D01*
X161282095Y-122674095D01*
X162758285Y-122388380D02*
X162282095Y-122388380D01*
X162234476Y-122864571D01*
X162282095Y-122816952D01*
X162377333Y-122769333D01*
X162615428Y-122769333D01*
X162710666Y-122816952D01*
X162758285Y-122864571D01*
X162805904Y-122959809D01*
X162805904Y-123197904D01*
X162758285Y-123293142D01*
X162710666Y-123340761D01*
X162615428Y-123388380D01*
X162377333Y-123388380D01*
X162282095Y-123340761D01*
X162234476Y-123293142D01*
%TO.C,R29*%
X148916380Y-100718857D02*
X148440190Y-101052190D01*
X148916380Y-101290285D02*
X147916380Y-101290285D01*
X147916380Y-100909333D01*
X147964000Y-100814095D01*
X148011619Y-100766476D01*
X148106857Y-100718857D01*
X148249714Y-100718857D01*
X148344952Y-100766476D01*
X148392571Y-100814095D01*
X148440190Y-100909333D01*
X148440190Y-101290285D01*
X148011619Y-100337904D02*
X147964000Y-100290285D01*
X147916380Y-100195047D01*
X147916380Y-99956952D01*
X147964000Y-99861714D01*
X148011619Y-99814095D01*
X148106857Y-99766476D01*
X148202095Y-99766476D01*
X148344952Y-99814095D01*
X148916380Y-100385523D01*
X148916380Y-99766476D01*
X148916380Y-99290285D02*
X148916380Y-99099809D01*
X148868761Y-99004571D01*
X148821142Y-98956952D01*
X148678285Y-98861714D01*
X148487809Y-98814095D01*
X148106857Y-98814095D01*
X148011619Y-98861714D01*
X147964000Y-98909333D01*
X147916380Y-99004571D01*
X147916380Y-99195047D01*
X147964000Y-99290285D01*
X148011619Y-99337904D01*
X148106857Y-99385523D01*
X148344952Y-99385523D01*
X148440190Y-99337904D01*
X148487809Y-99290285D01*
X148535428Y-99195047D01*
X148535428Y-99004571D01*
X148487809Y-98909333D01*
X148440190Y-98861714D01*
X148344952Y-98814095D01*
%TO.C,C13*%
X131421142Y-140850857D02*
X131468761Y-140898476D01*
X131516380Y-141041333D01*
X131516380Y-141136571D01*
X131468761Y-141279428D01*
X131373523Y-141374666D01*
X131278285Y-141422285D01*
X131087809Y-141469904D01*
X130944952Y-141469904D01*
X130754476Y-141422285D01*
X130659238Y-141374666D01*
X130564000Y-141279428D01*
X130516380Y-141136571D01*
X130516380Y-141041333D01*
X130564000Y-140898476D01*
X130611619Y-140850857D01*
X131516380Y-139898476D02*
X131516380Y-140469904D01*
X131516380Y-140184190D02*
X130516380Y-140184190D01*
X130659238Y-140279428D01*
X130754476Y-140374666D01*
X130802095Y-140469904D01*
X130516380Y-139565142D02*
X130516380Y-138946095D01*
X130897333Y-139279428D01*
X130897333Y-139136571D01*
X130944952Y-139041333D01*
X130992571Y-138993714D01*
X131087809Y-138946095D01*
X131325904Y-138946095D01*
X131421142Y-138993714D01*
X131468761Y-139041333D01*
X131516380Y-139136571D01*
X131516380Y-139422285D01*
X131468761Y-139517523D01*
X131421142Y-139565142D01*
%TO.C,R2*%
X120086380Y-110910666D02*
X119610190Y-111244000D01*
X120086380Y-111482095D02*
X119086380Y-111482095D01*
X119086380Y-111101142D01*
X119134000Y-111005904D01*
X119181619Y-110958285D01*
X119276857Y-110910666D01*
X119419714Y-110910666D01*
X119514952Y-110958285D01*
X119562571Y-111005904D01*
X119610190Y-111101142D01*
X119610190Y-111482095D01*
X119181619Y-110529714D02*
X119134000Y-110482095D01*
X119086380Y-110386857D01*
X119086380Y-110148761D01*
X119134000Y-110053523D01*
X119181619Y-110005904D01*
X119276857Y-109958285D01*
X119372095Y-109958285D01*
X119514952Y-110005904D01*
X120086380Y-110577333D01*
X120086380Y-109958285D01*
%TO.C,Q1*%
X177450761Y-106719619D02*
X177355523Y-106672000D01*
X177260285Y-106576761D01*
X177117428Y-106433904D01*
X177022190Y-106386285D01*
X176926952Y-106386285D01*
X176974571Y-106624380D02*
X176879333Y-106576761D01*
X176784095Y-106481523D01*
X176736476Y-106291047D01*
X176736476Y-105957714D01*
X176784095Y-105767238D01*
X176879333Y-105672000D01*
X176974571Y-105624380D01*
X177165047Y-105624380D01*
X177260285Y-105672000D01*
X177355523Y-105767238D01*
X177403142Y-105957714D01*
X177403142Y-106291047D01*
X177355523Y-106481523D01*
X177260285Y-106576761D01*
X177165047Y-106624380D01*
X176974571Y-106624380D01*
X178355523Y-106624380D02*
X177784095Y-106624380D01*
X178069809Y-106624380D02*
X178069809Y-105624380D01*
X177974571Y-105767238D01*
X177879333Y-105862476D01*
X177784095Y-105910095D01*
%TO.C,R18*%
X177157142Y-104100380D02*
X176823809Y-103624190D01*
X176585714Y-104100380D02*
X176585714Y-103100380D01*
X176966666Y-103100380D01*
X177061904Y-103148000D01*
X177109523Y-103195619D01*
X177157142Y-103290857D01*
X177157142Y-103433714D01*
X177109523Y-103528952D01*
X177061904Y-103576571D01*
X176966666Y-103624190D01*
X176585714Y-103624190D01*
X178109523Y-104100380D02*
X177538095Y-104100380D01*
X177823809Y-104100380D02*
X177823809Y-103100380D01*
X177728571Y-103243238D01*
X177633333Y-103338476D01*
X177538095Y-103386095D01*
X178680952Y-103528952D02*
X178585714Y-103481333D01*
X178538095Y-103433714D01*
X178490476Y-103338476D01*
X178490476Y-103290857D01*
X178538095Y-103195619D01*
X178585714Y-103148000D01*
X178680952Y-103100380D01*
X178871428Y-103100380D01*
X178966666Y-103148000D01*
X179014285Y-103195619D01*
X179061904Y-103290857D01*
X179061904Y-103338476D01*
X179014285Y-103433714D01*
X178966666Y-103481333D01*
X178871428Y-103528952D01*
X178680952Y-103528952D01*
X178585714Y-103576571D01*
X178538095Y-103624190D01*
X178490476Y-103719428D01*
X178490476Y-103909904D01*
X178538095Y-104005142D01*
X178585714Y-104052761D01*
X178680952Y-104100380D01*
X178871428Y-104100380D01*
X178966666Y-104052761D01*
X179014285Y-104005142D01*
X179061904Y-103909904D01*
X179061904Y-103719428D01*
X179014285Y-103624190D01*
X178966666Y-103576571D01*
X178871428Y-103528952D01*
%TO.C,C5*%
X125055333Y-114403142D02*
X125007714Y-114450761D01*
X124864857Y-114498380D01*
X124769619Y-114498380D01*
X124626761Y-114450761D01*
X124531523Y-114355523D01*
X124483904Y-114260285D01*
X124436285Y-114069809D01*
X124436285Y-113926952D01*
X124483904Y-113736476D01*
X124531523Y-113641238D01*
X124626761Y-113546000D01*
X124769619Y-113498380D01*
X124864857Y-113498380D01*
X125007714Y-113546000D01*
X125055333Y-113593619D01*
X125960095Y-113498380D02*
X125483904Y-113498380D01*
X125436285Y-113974571D01*
X125483904Y-113926952D01*
X125579142Y-113879333D01*
X125817238Y-113879333D01*
X125912476Y-113926952D01*
X125960095Y-113974571D01*
X126007714Y-114069809D01*
X126007714Y-114307904D01*
X125960095Y-114403142D01*
X125912476Y-114450761D01*
X125817238Y-114498380D01*
X125579142Y-114498380D01*
X125483904Y-114450761D01*
X125436285Y-114403142D01*
%TO.C,C8*%
X89257142Y-111440166D02*
X89304761Y-111487785D01*
X89352380Y-111630642D01*
X89352380Y-111725880D01*
X89304761Y-111868738D01*
X89209523Y-111963976D01*
X89114285Y-112011595D01*
X88923809Y-112059214D01*
X88780952Y-112059214D01*
X88590476Y-112011595D01*
X88495238Y-111963976D01*
X88400000Y-111868738D01*
X88352380Y-111725880D01*
X88352380Y-111630642D01*
X88400000Y-111487785D01*
X88447619Y-111440166D01*
X88780952Y-110868738D02*
X88733333Y-110963976D01*
X88685714Y-111011595D01*
X88590476Y-111059214D01*
X88542857Y-111059214D01*
X88447619Y-111011595D01*
X88400000Y-110963976D01*
X88352380Y-110868738D01*
X88352380Y-110678261D01*
X88400000Y-110583023D01*
X88447619Y-110535404D01*
X88542857Y-110487785D01*
X88590476Y-110487785D01*
X88685714Y-110535404D01*
X88733333Y-110583023D01*
X88780952Y-110678261D01*
X88780952Y-110868738D01*
X88828571Y-110963976D01*
X88876190Y-111011595D01*
X88971428Y-111059214D01*
X89161904Y-111059214D01*
X89257142Y-111011595D01*
X89304761Y-110963976D01*
X89352380Y-110868738D01*
X89352380Y-110678261D01*
X89304761Y-110583023D01*
X89257142Y-110535404D01*
X89161904Y-110487785D01*
X88971428Y-110487785D01*
X88876190Y-110535404D01*
X88828571Y-110583023D01*
X88780952Y-110678261D01*
%TO.C,C4*%
X117943333Y-113641142D02*
X117895714Y-113688761D01*
X117752857Y-113736380D01*
X117657619Y-113736380D01*
X117514761Y-113688761D01*
X117419523Y-113593523D01*
X117371904Y-113498285D01*
X117324285Y-113307809D01*
X117324285Y-113164952D01*
X117371904Y-112974476D01*
X117419523Y-112879238D01*
X117514761Y-112784000D01*
X117657619Y-112736380D01*
X117752857Y-112736380D01*
X117895714Y-112784000D01*
X117943333Y-112831619D01*
X118800476Y-113069714D02*
X118800476Y-113736380D01*
X118562380Y-112688761D02*
X118324285Y-113403047D01*
X118943333Y-113403047D01*
%TO.C,C3*%
X124039333Y-119483142D02*
X123991714Y-119530761D01*
X123848857Y-119578380D01*
X123753619Y-119578380D01*
X123610761Y-119530761D01*
X123515523Y-119435523D01*
X123467904Y-119340285D01*
X123420285Y-119149809D01*
X123420285Y-119006952D01*
X123467904Y-118816476D01*
X123515523Y-118721238D01*
X123610761Y-118626000D01*
X123753619Y-118578380D01*
X123848857Y-118578380D01*
X123991714Y-118626000D01*
X124039333Y-118673619D01*
X124372666Y-118578380D02*
X124991714Y-118578380D01*
X124658380Y-118959333D01*
X124801238Y-118959333D01*
X124896476Y-119006952D01*
X124944095Y-119054571D01*
X124991714Y-119149809D01*
X124991714Y-119387904D01*
X124944095Y-119483142D01*
X124896476Y-119530761D01*
X124801238Y-119578380D01*
X124515523Y-119578380D01*
X124420285Y-119530761D01*
X124372666Y-119483142D01*
%TO.C,U7*%
X94996095Y-115022380D02*
X94996095Y-115831904D01*
X95043714Y-115927142D01*
X95091333Y-115974761D01*
X95186571Y-116022380D01*
X95377047Y-116022380D01*
X95472285Y-115974761D01*
X95519904Y-115927142D01*
X95567523Y-115831904D01*
X95567523Y-115022380D01*
X95948476Y-115022380D02*
X96615142Y-115022380D01*
X96186571Y-116022380D01*
%TO.C,R7*%
X124150380Y-110910666D02*
X123674190Y-111244000D01*
X124150380Y-111482095D02*
X123150380Y-111482095D01*
X123150380Y-111101142D01*
X123198000Y-111005904D01*
X123245619Y-110958285D01*
X123340857Y-110910666D01*
X123483714Y-110910666D01*
X123578952Y-110958285D01*
X123626571Y-111005904D01*
X123674190Y-111101142D01*
X123674190Y-111482095D01*
X123150380Y-110577333D02*
X123150380Y-109910666D01*
X124150380Y-110339238D01*
%TO.C,R17*%
X186380380Y-101988857D02*
X185904190Y-102322190D01*
X186380380Y-102560285D02*
X185380380Y-102560285D01*
X185380380Y-102179333D01*
X185428000Y-102084095D01*
X185475619Y-102036476D01*
X185570857Y-101988857D01*
X185713714Y-101988857D01*
X185808952Y-102036476D01*
X185856571Y-102084095D01*
X185904190Y-102179333D01*
X185904190Y-102560285D01*
X186380380Y-101036476D02*
X186380380Y-101607904D01*
X186380380Y-101322190D02*
X185380380Y-101322190D01*
X185523238Y-101417428D01*
X185618476Y-101512666D01*
X185666095Y-101607904D01*
X185380380Y-100703142D02*
X185380380Y-100036476D01*
X186380380Y-100465047D01*
%TO.C,R4*%
X88987333Y-100528380D02*
X88654000Y-100052190D01*
X88415904Y-100528380D02*
X88415904Y-99528380D01*
X88796857Y-99528380D01*
X88892095Y-99576000D01*
X88939714Y-99623619D01*
X88987333Y-99718857D01*
X88987333Y-99861714D01*
X88939714Y-99956952D01*
X88892095Y-100004571D01*
X88796857Y-100052190D01*
X88415904Y-100052190D01*
X89844476Y-99861714D02*
X89844476Y-100528380D01*
X89606380Y-99480761D02*
X89368285Y-100195047D01*
X89987333Y-100195047D01*
%TO.C,R23*%
X167505142Y-99766380D02*
X167171809Y-99290190D01*
X166933714Y-99766380D02*
X166933714Y-98766380D01*
X167314666Y-98766380D01*
X167409904Y-98814000D01*
X167457523Y-98861619D01*
X167505142Y-98956857D01*
X167505142Y-99099714D01*
X167457523Y-99194952D01*
X167409904Y-99242571D01*
X167314666Y-99290190D01*
X166933714Y-99290190D01*
X167886095Y-98861619D02*
X167933714Y-98814000D01*
X168028952Y-98766380D01*
X168267047Y-98766380D01*
X168362285Y-98814000D01*
X168409904Y-98861619D01*
X168457523Y-98956857D01*
X168457523Y-99052095D01*
X168409904Y-99194952D01*
X167838476Y-99766380D01*
X168457523Y-99766380D01*
X168790857Y-98766380D02*
X169409904Y-98766380D01*
X169076571Y-99147333D01*
X169219428Y-99147333D01*
X169314666Y-99194952D01*
X169362285Y-99242571D01*
X169409904Y-99337809D01*
X169409904Y-99575904D01*
X169362285Y-99671142D01*
X169314666Y-99718761D01*
X169219428Y-99766380D01*
X168933714Y-99766380D01*
X168838476Y-99718761D01*
X168790857Y-99671142D01*
%TO.C,R38*%
X113354380Y-68714857D02*
X112878190Y-69048190D01*
X113354380Y-69286285D02*
X112354380Y-69286285D01*
X112354380Y-68905333D01*
X112402000Y-68810095D01*
X112449619Y-68762476D01*
X112544857Y-68714857D01*
X112687714Y-68714857D01*
X112782952Y-68762476D01*
X112830571Y-68810095D01*
X112878190Y-68905333D01*
X112878190Y-69286285D01*
X112354380Y-68381523D02*
X112354380Y-67762476D01*
X112735333Y-68095809D01*
X112735333Y-67952952D01*
X112782952Y-67857714D01*
X112830571Y-67810095D01*
X112925809Y-67762476D01*
X113163904Y-67762476D01*
X113259142Y-67810095D01*
X113306761Y-67857714D01*
X113354380Y-67952952D01*
X113354380Y-68238666D01*
X113306761Y-68333904D01*
X113259142Y-68381523D01*
X112782952Y-67191047D02*
X112735333Y-67286285D01*
X112687714Y-67333904D01*
X112592476Y-67381523D01*
X112544857Y-67381523D01*
X112449619Y-67333904D01*
X112402000Y-67286285D01*
X112354380Y-67191047D01*
X112354380Y-67000571D01*
X112402000Y-66905333D01*
X112449619Y-66857714D01*
X112544857Y-66810095D01*
X112592476Y-66810095D01*
X112687714Y-66857714D01*
X112735333Y-66905333D01*
X112782952Y-67000571D01*
X112782952Y-67191047D01*
X112830571Y-67286285D01*
X112878190Y-67333904D01*
X112973428Y-67381523D01*
X113163904Y-67381523D01*
X113259142Y-67333904D01*
X113306761Y-67286285D01*
X113354380Y-67191047D01*
X113354380Y-67000571D01*
X113306761Y-66905333D01*
X113259142Y-66857714D01*
X113163904Y-66810095D01*
X112973428Y-66810095D01*
X112878190Y-66857714D01*
X112830571Y-66905333D01*
X112782952Y-67000571D01*
%TO.C,R12*%
X186380380Y-112910857D02*
X185904190Y-113244190D01*
X186380380Y-113482285D02*
X185380380Y-113482285D01*
X185380380Y-113101333D01*
X185428000Y-113006095D01*
X185475619Y-112958476D01*
X185570857Y-112910857D01*
X185713714Y-112910857D01*
X185808952Y-112958476D01*
X185856571Y-113006095D01*
X185904190Y-113101333D01*
X185904190Y-113482285D01*
X186380380Y-111958476D02*
X186380380Y-112529904D01*
X186380380Y-112244190D02*
X185380380Y-112244190D01*
X185523238Y-112339428D01*
X185618476Y-112434666D01*
X185666095Y-112529904D01*
X185475619Y-111577523D02*
X185428000Y-111529904D01*
X185380380Y-111434666D01*
X185380380Y-111196571D01*
X185428000Y-111101333D01*
X185475619Y-111053714D01*
X185570857Y-111006095D01*
X185666095Y-111006095D01*
X185808952Y-111053714D01*
X186380380Y-111625142D01*
X186380380Y-111006095D01*
%TO.C,C11*%
X89003142Y-92590857D02*
X89050761Y-92638476D01*
X89098380Y-92781333D01*
X89098380Y-92876571D01*
X89050761Y-93019428D01*
X88955523Y-93114666D01*
X88860285Y-93162285D01*
X88669809Y-93209904D01*
X88526952Y-93209904D01*
X88336476Y-93162285D01*
X88241238Y-93114666D01*
X88146000Y-93019428D01*
X88098380Y-92876571D01*
X88098380Y-92781333D01*
X88146000Y-92638476D01*
X88193619Y-92590857D01*
X89098380Y-91638476D02*
X89098380Y-92209904D01*
X89098380Y-91924190D02*
X88098380Y-91924190D01*
X88241238Y-92019428D01*
X88336476Y-92114666D01*
X88384095Y-92209904D01*
X89098380Y-90686095D02*
X89098380Y-91257523D01*
X89098380Y-90971809D02*
X88098380Y-90971809D01*
X88241238Y-91067047D01*
X88336476Y-91162285D01*
X88384095Y-91257523D01*
%TO.C,R1*%
X96210380Y-85510666D02*
X95734190Y-85844000D01*
X96210380Y-86082095D02*
X95210380Y-86082095D01*
X95210380Y-85701142D01*
X95258000Y-85605904D01*
X95305619Y-85558285D01*
X95400857Y-85510666D01*
X95543714Y-85510666D01*
X95638952Y-85558285D01*
X95686571Y-85605904D01*
X95734190Y-85701142D01*
X95734190Y-86082095D01*
X96210380Y-84558285D02*
X96210380Y-85129714D01*
X96210380Y-84844000D02*
X95210380Y-84844000D01*
X95353238Y-84939238D01*
X95448476Y-85034476D01*
X95496095Y-85129714D01*
%TO.C,R35*%
X112974380Y-122054857D02*
X112498190Y-122388190D01*
X112974380Y-122626285D02*
X111974380Y-122626285D01*
X111974380Y-122245333D01*
X112022000Y-122150095D01*
X112069619Y-122102476D01*
X112164857Y-122054857D01*
X112307714Y-122054857D01*
X112402952Y-122102476D01*
X112450571Y-122150095D01*
X112498190Y-122245333D01*
X112498190Y-122626285D01*
X111974380Y-121721523D02*
X111974380Y-121102476D01*
X112355333Y-121435809D01*
X112355333Y-121292952D01*
X112402952Y-121197714D01*
X112450571Y-121150095D01*
X112545809Y-121102476D01*
X112783904Y-121102476D01*
X112879142Y-121150095D01*
X112926761Y-121197714D01*
X112974380Y-121292952D01*
X112974380Y-121578666D01*
X112926761Y-121673904D01*
X112879142Y-121721523D01*
X111974380Y-120197714D02*
X111974380Y-120673904D01*
X112450571Y-120721523D01*
X112402952Y-120673904D01*
X112355333Y-120578666D01*
X112355333Y-120340571D01*
X112402952Y-120245333D01*
X112450571Y-120197714D01*
X112545809Y-120150095D01*
X112783904Y-120150095D01*
X112879142Y-120197714D01*
X112926761Y-120245333D01*
X112974380Y-120340571D01*
X112974380Y-120578666D01*
X112926761Y-120673904D01*
X112879142Y-120721523D01*
%TO.C,U4*%
X98806095Y-90892380D02*
X98806095Y-91701904D01*
X98853714Y-91797142D01*
X98901333Y-91844761D01*
X98996571Y-91892380D01*
X99187047Y-91892380D01*
X99282285Y-91844761D01*
X99329904Y-91797142D01*
X99377523Y-91701904D01*
X99377523Y-90892380D01*
X100282285Y-91225714D02*
X100282285Y-91892380D01*
X100044190Y-90844761D02*
X99806095Y-91559047D01*
X100425142Y-91559047D01*
%TO.C,R22*%
X176728380Y-97924857D02*
X176252190Y-98258190D01*
X176728380Y-98496285D02*
X175728380Y-98496285D01*
X175728380Y-98115333D01*
X175776000Y-98020095D01*
X175823619Y-97972476D01*
X175918857Y-97924857D01*
X176061714Y-97924857D01*
X176156952Y-97972476D01*
X176204571Y-98020095D01*
X176252190Y-98115333D01*
X176252190Y-98496285D01*
X175823619Y-97543904D02*
X175776000Y-97496285D01*
X175728380Y-97401047D01*
X175728380Y-97162952D01*
X175776000Y-97067714D01*
X175823619Y-97020095D01*
X175918857Y-96972476D01*
X176014095Y-96972476D01*
X176156952Y-97020095D01*
X176728380Y-97591523D01*
X176728380Y-96972476D01*
X175823619Y-96591523D02*
X175776000Y-96543904D01*
X175728380Y-96448666D01*
X175728380Y-96210571D01*
X175776000Y-96115333D01*
X175823619Y-96067714D01*
X175918857Y-96020095D01*
X176014095Y-96020095D01*
X176156952Y-96067714D01*
X176728380Y-96639142D01*
X176728380Y-96020095D01*
%TO.C,R32*%
X93924380Y-111408357D02*
X93448190Y-111741690D01*
X93924380Y-111979785D02*
X92924380Y-111979785D01*
X92924380Y-111598833D01*
X92972000Y-111503595D01*
X93019619Y-111455976D01*
X93114857Y-111408357D01*
X93257714Y-111408357D01*
X93352952Y-111455976D01*
X93400571Y-111503595D01*
X93448190Y-111598833D01*
X93448190Y-111979785D01*
X92924380Y-111075023D02*
X92924380Y-110455976D01*
X93305333Y-110789309D01*
X93305333Y-110646452D01*
X93352952Y-110551214D01*
X93400571Y-110503595D01*
X93495809Y-110455976D01*
X93733904Y-110455976D01*
X93829142Y-110503595D01*
X93876761Y-110551214D01*
X93924380Y-110646452D01*
X93924380Y-110932166D01*
X93876761Y-111027404D01*
X93829142Y-111075023D01*
X93019619Y-110075023D02*
X92972000Y-110027404D01*
X92924380Y-109932166D01*
X92924380Y-109694071D01*
X92972000Y-109598833D01*
X93019619Y-109551214D01*
X93114857Y-109503595D01*
X93210095Y-109503595D01*
X93352952Y-109551214D01*
X93924380Y-110122642D01*
X93924380Y-109503595D01*
%TO.C,R10*%
X111117142Y-146756380D02*
X110783809Y-146280190D01*
X110545714Y-146756380D02*
X110545714Y-145756380D01*
X110926666Y-145756380D01*
X111021904Y-145804000D01*
X111069523Y-145851619D01*
X111117142Y-145946857D01*
X111117142Y-146089714D01*
X111069523Y-146184952D01*
X111021904Y-146232571D01*
X110926666Y-146280190D01*
X110545714Y-146280190D01*
X112069523Y-146756380D02*
X111498095Y-146756380D01*
X111783809Y-146756380D02*
X111783809Y-145756380D01*
X111688571Y-145899238D01*
X111593333Y-145994476D01*
X111498095Y-146042095D01*
X112688571Y-145756380D02*
X112783809Y-145756380D01*
X112879047Y-145804000D01*
X112926666Y-145851619D01*
X112974285Y-145946857D01*
X113021904Y-146137333D01*
X113021904Y-146375428D01*
X112974285Y-146565904D01*
X112926666Y-146661142D01*
X112879047Y-146708761D01*
X112783809Y-146756380D01*
X112688571Y-146756380D01*
X112593333Y-146708761D01*
X112545714Y-146661142D01*
X112498095Y-146565904D01*
X112450476Y-146375428D01*
X112450476Y-146137333D01*
X112498095Y-145946857D01*
X112545714Y-145851619D01*
X112593333Y-145804000D01*
X112688571Y-145756380D01*
%TO.C,Q4*%
X149132619Y-96615238D02*
X149085000Y-96710476D01*
X148989761Y-96805714D01*
X148846904Y-96948571D01*
X148799285Y-97043809D01*
X148799285Y-97139047D01*
X149037380Y-97091428D02*
X148989761Y-97186666D01*
X148894523Y-97281904D01*
X148704047Y-97329523D01*
X148370714Y-97329523D01*
X148180238Y-97281904D01*
X148085000Y-97186666D01*
X148037380Y-97091428D01*
X148037380Y-96900952D01*
X148085000Y-96805714D01*
X148180238Y-96710476D01*
X148370714Y-96662857D01*
X148704047Y-96662857D01*
X148894523Y-96710476D01*
X148989761Y-96805714D01*
X149037380Y-96900952D01*
X149037380Y-97091428D01*
X148370714Y-95805714D02*
X149037380Y-95805714D01*
X147989761Y-96043809D02*
X148704047Y-96281904D01*
X148704047Y-95662857D01*
%TO.C,R14*%
X163954142Y-123134380D02*
X163620809Y-122658190D01*
X163382714Y-123134380D02*
X163382714Y-122134380D01*
X163763666Y-122134380D01*
X163858904Y-122182000D01*
X163906523Y-122229619D01*
X163954142Y-122324857D01*
X163954142Y-122467714D01*
X163906523Y-122562952D01*
X163858904Y-122610571D01*
X163763666Y-122658190D01*
X163382714Y-122658190D01*
X164906523Y-123134380D02*
X164335095Y-123134380D01*
X164620809Y-123134380D02*
X164620809Y-122134380D01*
X164525571Y-122277238D01*
X164430333Y-122372476D01*
X164335095Y-122420095D01*
X165763666Y-122467714D02*
X165763666Y-123134380D01*
X165525571Y-122086761D02*
X165287476Y-122801047D01*
X165906523Y-122801047D01*
%TO.C,C6*%
X164938333Y-118467142D02*
X164890714Y-118514761D01*
X164747857Y-118562380D01*
X164652619Y-118562380D01*
X164509761Y-118514761D01*
X164414523Y-118419523D01*
X164366904Y-118324285D01*
X164319285Y-118133809D01*
X164319285Y-117990952D01*
X164366904Y-117800476D01*
X164414523Y-117705238D01*
X164509761Y-117610000D01*
X164652619Y-117562380D01*
X164747857Y-117562380D01*
X164890714Y-117610000D01*
X164938333Y-117657619D01*
X165795476Y-117562380D02*
X165605000Y-117562380D01*
X165509761Y-117610000D01*
X165462142Y-117657619D01*
X165366904Y-117800476D01*
X165319285Y-117990952D01*
X165319285Y-118371904D01*
X165366904Y-118467142D01*
X165414523Y-118514761D01*
X165509761Y-118562380D01*
X165700238Y-118562380D01*
X165795476Y-118514761D01*
X165843095Y-118467142D01*
X165890714Y-118371904D01*
X165890714Y-118133809D01*
X165843095Y-118038571D01*
X165795476Y-117990952D01*
X165700238Y-117943333D01*
X165509761Y-117943333D01*
X165414523Y-117990952D01*
X165366904Y-118038571D01*
X165319285Y-118133809D01*
%TO.C,R16*%
X157091142Y-120848380D02*
X156757809Y-120372190D01*
X156519714Y-120848380D02*
X156519714Y-119848380D01*
X156900666Y-119848380D01*
X156995904Y-119896000D01*
X157043523Y-119943619D01*
X157091142Y-120038857D01*
X157091142Y-120181714D01*
X157043523Y-120276952D01*
X156995904Y-120324571D01*
X156900666Y-120372190D01*
X156519714Y-120372190D01*
X158043523Y-120848380D02*
X157472095Y-120848380D01*
X157757809Y-120848380D02*
X157757809Y-119848380D01*
X157662571Y-119991238D01*
X157567333Y-120086476D01*
X157472095Y-120134095D01*
X158900666Y-119848380D02*
X158710190Y-119848380D01*
X158614952Y-119896000D01*
X158567333Y-119943619D01*
X158472095Y-120086476D01*
X158424476Y-120276952D01*
X158424476Y-120657904D01*
X158472095Y-120753142D01*
X158519714Y-120800761D01*
X158614952Y-120848380D01*
X158805428Y-120848380D01*
X158900666Y-120800761D01*
X158948285Y-120753142D01*
X158995904Y-120657904D01*
X158995904Y-120419809D01*
X158948285Y-120324571D01*
X158900666Y-120276952D01*
X158805428Y-120229333D01*
X158614952Y-120229333D01*
X158519714Y-120276952D01*
X158472095Y-120324571D01*
X158424476Y-120419809D01*
%TO.C,C19*%
X117197142Y-59876857D02*
X117244761Y-59924476D01*
X117292380Y-60067333D01*
X117292380Y-60162571D01*
X117244761Y-60305428D01*
X117149523Y-60400666D01*
X117054285Y-60448285D01*
X116863809Y-60495904D01*
X116720952Y-60495904D01*
X116530476Y-60448285D01*
X116435238Y-60400666D01*
X116340000Y-60305428D01*
X116292380Y-60162571D01*
X116292380Y-60067333D01*
X116340000Y-59924476D01*
X116387619Y-59876857D01*
X117292380Y-58924476D02*
X117292380Y-59495904D01*
X117292380Y-59210190D02*
X116292380Y-59210190D01*
X116435238Y-59305428D01*
X116530476Y-59400666D01*
X116578095Y-59495904D01*
X117292380Y-58448285D02*
X117292380Y-58257809D01*
X117244761Y-58162571D01*
X117197142Y-58114952D01*
X117054285Y-58019714D01*
X116863809Y-57972095D01*
X116482857Y-57972095D01*
X116387619Y-58019714D01*
X116340000Y-58067333D01*
X116292380Y-58162571D01*
X116292380Y-58353047D01*
X116340000Y-58448285D01*
X116387619Y-58495904D01*
X116482857Y-58543523D01*
X116720952Y-58543523D01*
X116816190Y-58495904D01*
X116863809Y-58448285D01*
X116911428Y-58353047D01*
X116911428Y-58162571D01*
X116863809Y-58067333D01*
X116816190Y-58019714D01*
X116720952Y-57972095D01*
%TO.C,USB1*%
X117054380Y-106640095D02*
X117863904Y-106640095D01*
X117959142Y-106592476D01*
X118006761Y-106544857D01*
X118054380Y-106449619D01*
X118054380Y-106259142D01*
X118006761Y-106163904D01*
X117959142Y-106116285D01*
X117863904Y-106068666D01*
X117054380Y-106068666D01*
X118006761Y-105640095D02*
X118054380Y-105497238D01*
X118054380Y-105259142D01*
X118006761Y-105163904D01*
X117959142Y-105116285D01*
X117863904Y-105068666D01*
X117768666Y-105068666D01*
X117673428Y-105116285D01*
X117625809Y-105163904D01*
X117578190Y-105259142D01*
X117530571Y-105449619D01*
X117482952Y-105544857D01*
X117435333Y-105592476D01*
X117340095Y-105640095D01*
X117244857Y-105640095D01*
X117149619Y-105592476D01*
X117102000Y-105544857D01*
X117054380Y-105449619D01*
X117054380Y-105211523D01*
X117102000Y-105068666D01*
X117530571Y-104306761D02*
X117578190Y-104163904D01*
X117625809Y-104116285D01*
X117721047Y-104068666D01*
X117863904Y-104068666D01*
X117959142Y-104116285D01*
X118006761Y-104163904D01*
X118054380Y-104259142D01*
X118054380Y-104640095D01*
X117054380Y-104640095D01*
X117054380Y-104306761D01*
X117102000Y-104211523D01*
X117149619Y-104163904D01*
X117244857Y-104116285D01*
X117340095Y-104116285D01*
X117435333Y-104163904D01*
X117482952Y-104211523D01*
X117530571Y-104306761D01*
X117530571Y-104640095D01*
X118054380Y-103116285D02*
X118054380Y-103687714D01*
X118054380Y-103402000D02*
X117054380Y-103402000D01*
X117197238Y-103497238D01*
X117292476Y-103592476D01*
X117340095Y-103687714D01*
%TO.C,R8*%
X114133333Y-119324380D02*
X113800000Y-118848190D01*
X113561904Y-119324380D02*
X113561904Y-118324380D01*
X113942857Y-118324380D01*
X114038095Y-118372000D01*
X114085714Y-118419619D01*
X114133333Y-118514857D01*
X114133333Y-118657714D01*
X114085714Y-118752952D01*
X114038095Y-118800571D01*
X113942857Y-118848190D01*
X113561904Y-118848190D01*
X114704761Y-118752952D02*
X114609523Y-118705333D01*
X114561904Y-118657714D01*
X114514285Y-118562476D01*
X114514285Y-118514857D01*
X114561904Y-118419619D01*
X114609523Y-118372000D01*
X114704761Y-118324380D01*
X114895238Y-118324380D01*
X114990476Y-118372000D01*
X115038095Y-118419619D01*
X115085714Y-118514857D01*
X115085714Y-118562476D01*
X115038095Y-118657714D01*
X114990476Y-118705333D01*
X114895238Y-118752952D01*
X114704761Y-118752952D01*
X114609523Y-118800571D01*
X114561904Y-118848190D01*
X114514285Y-118943428D01*
X114514285Y-119133904D01*
X114561904Y-119229142D01*
X114609523Y-119276761D01*
X114704761Y-119324380D01*
X114895238Y-119324380D01*
X114990476Y-119276761D01*
X115038095Y-119229142D01*
X115085714Y-119133904D01*
X115085714Y-118943428D01*
X115038095Y-118848190D01*
X114990476Y-118800571D01*
X114895238Y-118752952D01*
%TO.C,R9*%
X114133333Y-121610380D02*
X113800000Y-121134190D01*
X113561904Y-121610380D02*
X113561904Y-120610380D01*
X113942857Y-120610380D01*
X114038095Y-120658000D01*
X114085714Y-120705619D01*
X114133333Y-120800857D01*
X114133333Y-120943714D01*
X114085714Y-121038952D01*
X114038095Y-121086571D01*
X113942857Y-121134190D01*
X113561904Y-121134190D01*
X114609523Y-121610380D02*
X114800000Y-121610380D01*
X114895238Y-121562761D01*
X114942857Y-121515142D01*
X115038095Y-121372285D01*
X115085714Y-121181809D01*
X115085714Y-120800857D01*
X115038095Y-120705619D01*
X114990476Y-120658000D01*
X114895238Y-120610380D01*
X114704761Y-120610380D01*
X114609523Y-120658000D01*
X114561904Y-120705619D01*
X114514285Y-120800857D01*
X114514285Y-121038952D01*
X114561904Y-121134190D01*
X114609523Y-121181809D01*
X114704761Y-121229428D01*
X114895238Y-121229428D01*
X114990476Y-121181809D01*
X115038095Y-121134190D01*
X115085714Y-121038952D01*
%TO.C,R20*%
X95877142Y-73732380D02*
X95543809Y-73256190D01*
X95305714Y-73732380D02*
X95305714Y-72732380D01*
X95686666Y-72732380D01*
X95781904Y-72780000D01*
X95829523Y-72827619D01*
X95877142Y-72922857D01*
X95877142Y-73065714D01*
X95829523Y-73160952D01*
X95781904Y-73208571D01*
X95686666Y-73256190D01*
X95305714Y-73256190D01*
X96258095Y-72827619D02*
X96305714Y-72780000D01*
X96400952Y-72732380D01*
X96639047Y-72732380D01*
X96734285Y-72780000D01*
X96781904Y-72827619D01*
X96829523Y-72922857D01*
X96829523Y-73018095D01*
X96781904Y-73160952D01*
X96210476Y-73732380D01*
X96829523Y-73732380D01*
X97448571Y-72732380D02*
X97543809Y-72732380D01*
X97639047Y-72780000D01*
X97686666Y-72827619D01*
X97734285Y-72922857D01*
X97781904Y-73113333D01*
X97781904Y-73351428D01*
X97734285Y-73541904D01*
X97686666Y-73637142D01*
X97639047Y-73684761D01*
X97543809Y-73732380D01*
X97448571Y-73732380D01*
X97353333Y-73684761D01*
X97305714Y-73637142D01*
X97258095Y-73541904D01*
X97210476Y-73351428D01*
X97210476Y-73113333D01*
X97258095Y-72922857D01*
X97305714Y-72827619D01*
X97353333Y-72780000D01*
X97448571Y-72732380D01*
%TO.C,R24*%
X173300380Y-106290857D02*
X172824190Y-106624190D01*
X173300380Y-106862285D02*
X172300380Y-106862285D01*
X172300380Y-106481333D01*
X172348000Y-106386095D01*
X172395619Y-106338476D01*
X172490857Y-106290857D01*
X172633714Y-106290857D01*
X172728952Y-106338476D01*
X172776571Y-106386095D01*
X172824190Y-106481333D01*
X172824190Y-106862285D01*
X172395619Y-105909904D02*
X172348000Y-105862285D01*
X172300380Y-105767047D01*
X172300380Y-105528952D01*
X172348000Y-105433714D01*
X172395619Y-105386095D01*
X172490857Y-105338476D01*
X172586095Y-105338476D01*
X172728952Y-105386095D01*
X173300380Y-105957523D01*
X173300380Y-105338476D01*
X172633714Y-104481333D02*
X173300380Y-104481333D01*
X172252761Y-104719428D02*
X172967047Y-104957523D01*
X172967047Y-104338476D01*
%TO.C,R37*%
X113354380Y-60845857D02*
X112878190Y-61179190D01*
X113354380Y-61417285D02*
X112354380Y-61417285D01*
X112354380Y-61036333D01*
X112402000Y-60941095D01*
X112449619Y-60893476D01*
X112544857Y-60845857D01*
X112687714Y-60845857D01*
X112782952Y-60893476D01*
X112830571Y-60941095D01*
X112878190Y-61036333D01*
X112878190Y-61417285D01*
X112354380Y-60512523D02*
X112354380Y-59893476D01*
X112735333Y-60226809D01*
X112735333Y-60083952D01*
X112782952Y-59988714D01*
X112830571Y-59941095D01*
X112925809Y-59893476D01*
X113163904Y-59893476D01*
X113259142Y-59941095D01*
X113306761Y-59988714D01*
X113354380Y-60083952D01*
X113354380Y-60369666D01*
X113306761Y-60464904D01*
X113259142Y-60512523D01*
X112354380Y-59560142D02*
X112354380Y-58893476D01*
X113354380Y-59322047D01*
D13*
%TO.C,C1*%
X121893000Y-106941252D02*
X121893000Y-106418748D01*
X120423000Y-106941252D02*
X120423000Y-106418748D01*
%TO.C,U2*%
X121666000Y-113706000D02*
X123166000Y-113706000D01*
X120166000Y-116926000D02*
X123166000Y-116926000D01*
%TO.C,U9*%
X158700000Y-109354000D02*
X158700000Y-111004000D01*
X158700000Y-113004000D02*
X158700000Y-114654000D01*
X168980000Y-109354000D02*
X158700000Y-109354000D01*
X158700000Y-114654000D02*
X168980000Y-114654000D01*
X168980000Y-114654000D02*
X168980000Y-109354000D01*
X158700000Y-113004000D02*
G75*
G03*
X158700000Y-111004000I0J1000000D01*
G01*
%TO.C,R13*%
X178789000Y-112241064D02*
X178789000Y-111786936D01*
X177319000Y-112241064D02*
X177319000Y-111786936D01*
%TO.C,JT2*%
X134809000Y-105350000D02*
X134809000Y-108010000D01*
X146299000Y-105350000D02*
X147629000Y-105350000D01*
X145029000Y-108010000D02*
X134809000Y-108010000D01*
X147629000Y-105350000D02*
X147629000Y-106680000D01*
X145029000Y-105350000D02*
X134809000Y-105350000D01*
X145029000Y-105350000D02*
X145029000Y-108010000D01*
%TO.C,C9*%
X97289252Y-141705000D02*
X96766748Y-141705000D01*
X97289252Y-140235000D02*
X96766748Y-140235000D01*
%TO.C,R25*%
X167613064Y-102897000D02*
X167158936Y-102897000D01*
X167613064Y-104367000D02*
X167158936Y-104367000D01*
%TO.C,R28*%
X158464000Y-96239064D02*
X158464000Y-95784936D01*
X156994000Y-96239064D02*
X156994000Y-95784936D01*
%TO.C,J6*%
X165957000Y-49689000D02*
X129381000Y-49689000D01*
X165957000Y-85249000D02*
X129381000Y-85249000D01*
X166719000Y-84487000D02*
X166719000Y-50451000D01*
X128619000Y-84487000D02*
X128619000Y-50451000D01*
X129381000Y-49689000D02*
G75*
G03*
X128619000Y-50451000I0J-762000D01*
G01*
X166719000Y-50451000D02*
G75*
G03*
X165957000Y-49689000I-762000J0D01*
G01*
X128619000Y-84487000D02*
G75*
G03*
X129381000Y-85249000I762000J0D01*
G01*
X165957000Y-85249000D02*
G75*
G03*
X166719000Y-84487000I0J762000D01*
G01*
%TO.C,JP8*%
X178487000Y-123130000D02*
X178487000Y-125790000D01*
X183627000Y-125790000D02*
X178487000Y-125790000D01*
X186227000Y-123130000D02*
X186227000Y-124460000D01*
X183627000Y-123130000D02*
X178487000Y-123130000D01*
X183627000Y-123130000D02*
X183627000Y-125790000D01*
X184897000Y-123130000D02*
X186227000Y-123130000D01*
%TO.C,R30*%
X153707936Y-94715000D02*
X154162064Y-94715000D01*
X153707936Y-93245000D02*
X154162064Y-93245000D01*
%TO.C,R11*%
X88673000Y-105875064D02*
X88673000Y-105420936D01*
X90143000Y-105875064D02*
X90143000Y-105420936D01*
%TO.C,JP4*%
X183627000Y-133290000D02*
X178487000Y-133290000D01*
X186227000Y-133290000D02*
X186227000Y-134620000D01*
X178487000Y-133290000D02*
X178487000Y-135950000D01*
X184897000Y-133290000D02*
X186227000Y-133290000D01*
X183627000Y-133290000D02*
X183627000Y-135950000D01*
X183627000Y-135950000D02*
X178487000Y-135950000D01*
%TO.C,R5*%
X102118936Y-147039000D02*
X102573064Y-147039000D01*
X102118936Y-145569000D02*
X102573064Y-145569000D01*
%TO.C,C12*%
X98290748Y-97563000D02*
X98813252Y-97563000D01*
X98290748Y-99033000D02*
X98813252Y-99033000D01*
%TO.C,Q2*%
X177184000Y-96012000D02*
X177184000Y-98552000D01*
X183893000Y-96751000D02*
X184004000Y-96751000D01*
X184004000Y-96012000D02*
X184004000Y-98552000D01*
X179313000Y-96751000D02*
X179586000Y-96751000D01*
X181603000Y-96751000D02*
X181876000Y-96751000D01*
X177184000Y-96751000D02*
X177295000Y-96751000D01*
X177184000Y-96012000D02*
X184004000Y-96012000D01*
X177184000Y-98552000D02*
X184004000Y-98552000D01*
%TO.C,R33*%
X103907936Y-137431000D02*
X104362064Y-137431000D01*
X103907936Y-138901000D02*
X104362064Y-138901000D01*
%TO.C,U10*%
X102254000Y-72709000D02*
X127554000Y-72709000D01*
X127554000Y-72709000D02*
X127554000Y-101919000D01*
X127554000Y-101919000D02*
X102254000Y-101919000D01*
X102254000Y-101919000D02*
X102254000Y-72709000D01*
%TO.C,JT1*%
X155254000Y-143500000D02*
X152594000Y-143500000D01*
X155254000Y-143500000D02*
X155254000Y-110420000D01*
X155254000Y-144770000D02*
X155254000Y-146100000D01*
X152594000Y-143500000D02*
X152594000Y-110420000D01*
X155254000Y-110420000D02*
X152594000Y-110420000D01*
X155254000Y-146100000D02*
X153924000Y-146100000D01*
%TO.C,JP5*%
X186227000Y-130750000D02*
X186227000Y-132080000D01*
X178487000Y-130750000D02*
X178487000Y-133410000D01*
X183627000Y-130750000D02*
X183627000Y-133410000D01*
X183627000Y-130750000D02*
X178487000Y-130750000D01*
X183627000Y-133410000D02*
X178487000Y-133410000D01*
X184897000Y-130750000D02*
X186227000Y-130750000D01*
%TO.C,JP10*%
X183627000Y-118050000D02*
X183627000Y-120710000D01*
X183627000Y-118050000D02*
X178487000Y-118050000D01*
X178487000Y-118050000D02*
X178487000Y-120710000D01*
X183627000Y-120710000D02*
X178487000Y-120710000D01*
X186227000Y-118050000D02*
X186227000Y-119380000D01*
X184897000Y-118050000D02*
X186227000Y-118050000D01*
%TO.C,R27*%
X163549064Y-105183000D02*
X163094936Y-105183000D01*
X163549064Y-106653000D02*
X163094936Y-106653000D01*
%TO.C,J2*%
X170418000Y-57382000D02*
X170418000Y-67202000D01*
X171418000Y-68602000D02*
X173228000Y-68602000D01*
X171418000Y-67202000D02*
X171418000Y-68602000D01*
X173228000Y-57382000D02*
X170418000Y-57382000D01*
X176038000Y-67202000D02*
X175038000Y-67202000D01*
X173028000Y-57142000D02*
X170178000Y-57142000D01*
X175038000Y-68602000D02*
X173228000Y-68602000D01*
X170418000Y-67202000D02*
X171418000Y-67202000D01*
X175038000Y-67202000D02*
X175038000Y-68602000D01*
X170178000Y-57142000D02*
X170178000Y-59992000D01*
X173228000Y-57382000D02*
X176038000Y-57382000D01*
X176038000Y-57382000D02*
X176038000Y-67202000D01*
%TO.C,D11*%
X108225000Y-57897000D02*
X105135000Y-57897000D01*
X105135170Y-57897000D02*
G75*
G03*
X106680462Y-63447000I1544830J-2560000D01*
G01*
X106679538Y-63447000D02*
G75*
G03*
X108224830Y-57897000I462J2990000D01*
G01*
X109180000Y-60457000D02*
G75*
G03*
X109180000Y-60457000I-2500000J0D01*
G01*
%TO.C,R36*%
X111987000Y-52101936D02*
X111987000Y-52556064D01*
X110517000Y-52101936D02*
X110517000Y-52556064D01*
%TO.C,C2*%
X125957000Y-106919752D02*
X125957000Y-106397248D01*
X124487000Y-106919752D02*
X124487000Y-106397248D01*
%TO.C,C7*%
X167124748Y-106653000D02*
X167647252Y-106653000D01*
X167124748Y-105183000D02*
X167647252Y-105183000D01*
%TO.C,C14*%
X158249748Y-134647000D02*
X158772252Y-134647000D01*
X158249748Y-136117000D02*
X158772252Y-136117000D01*
%TO.C,JP12*%
X98168000Y-134382000D02*
X100968000Y-134382000D01*
X100968000Y-136382000D02*
X98168000Y-136382000D01*
X100968000Y-134382000D02*
X100968000Y-136382000D01*
X98168000Y-136382000D02*
X98168000Y-134382000D01*
%TO.C,C17*%
X89654748Y-137695000D02*
X90177252Y-137695000D01*
X89654748Y-139165000D02*
X90177252Y-139165000D01*
%TO.C,R34*%
X112490064Y-137431000D02*
X112035936Y-137431000D01*
X112490064Y-138901000D02*
X112035936Y-138901000D01*
%TO.C,Q3*%
X174241000Y-92567000D02*
X174352000Y-92567000D01*
X167532000Y-92567000D02*
X167643000Y-92567000D01*
X169661000Y-92567000D02*
X169934000Y-92567000D01*
X174352000Y-91828000D02*
X174352000Y-94368000D01*
X167532000Y-91828000D02*
X174352000Y-91828000D01*
X171951000Y-92567000D02*
X172224000Y-92567000D01*
X167532000Y-91828000D02*
X167532000Y-94368000D01*
X167532000Y-94368000D02*
X174352000Y-94368000D01*
%TO.C,C16*%
X157971000Y-108694748D02*
X157971000Y-109217252D01*
X156501000Y-108694748D02*
X156501000Y-109217252D01*
%TO.C,D10*%
X108225000Y-65766000D02*
X105135000Y-65766000D01*
X105135170Y-65766000D02*
G75*
G03*
X106680462Y-71316000I1544830J-2560000D01*
G01*
X106679538Y-71316000D02*
G75*
G03*
X108224830Y-65766000I462J2990000D01*
G01*
X109180000Y-68326000D02*
G75*
G03*
X109180000Y-68326000I-2500000J0D01*
G01*
%TO.C,JT4*%
X124654000Y-140910000D02*
X125984000Y-140910000D01*
X124654000Y-143510000D02*
X124654000Y-143570000D01*
X124654000Y-142240000D02*
X124654000Y-140910000D01*
X124654000Y-143570000D02*
X127314000Y-143570000D01*
X127314000Y-143510000D02*
X127314000Y-143570000D01*
X124654000Y-143510000D02*
X127314000Y-143510000D01*
%TO.C,J4*%
X147032000Y-103654000D02*
X147032000Y-93834000D01*
X139732000Y-92434000D02*
X137922000Y-92434000D01*
X139732000Y-93834000D02*
X139732000Y-92434000D01*
X128812000Y-103654000D02*
X128812000Y-93834000D01*
X147032000Y-93834000D02*
X139732000Y-93834000D01*
X137922000Y-103654000D02*
X147032000Y-103654000D01*
X136112000Y-93834000D02*
X136112000Y-92434000D01*
X128812000Y-93834000D02*
X136112000Y-93834000D01*
X136112000Y-92434000D02*
X137922000Y-92434000D01*
X147272000Y-103894000D02*
X147272000Y-101044000D01*
X137922000Y-103654000D02*
X128812000Y-103654000D01*
X144422000Y-103894000D02*
X147272000Y-103894000D01*
%TO.C,R31*%
X91921000Y-113840436D02*
X91921000Y-114294564D01*
X90451000Y-113840436D02*
X90451000Y-114294564D01*
%TO.C,JP7*%
X183627000Y-125670000D02*
X178487000Y-125670000D01*
X178487000Y-125670000D02*
X178487000Y-128330000D01*
X184897000Y-125670000D02*
X186227000Y-125670000D01*
X183627000Y-128330000D02*
X178487000Y-128330000D01*
X186227000Y-125670000D02*
X186227000Y-127000000D01*
X183627000Y-125670000D02*
X183627000Y-128330000D01*
%TO.C,R26*%
X163549064Y-104367000D02*
X163094936Y-104367000D01*
X163549064Y-102897000D02*
X163094936Y-102897000D01*
%TO.C,D13*%
X107463000Y-118852000D02*
X104373000Y-118852000D01*
X105917538Y-124402000D02*
G75*
G03*
X107462830Y-118852000I462J2990000D01*
G01*
X104373170Y-118852000D02*
G75*
G03*
X105918462Y-124402000I1544830J-2560000D01*
G01*
X108418000Y-121412000D02*
G75*
G03*
X108418000Y-121412000I-2500000J0D01*
G01*
%TO.C,JP1*%
X115700000Y-140478000D02*
X115700000Y-142478000D01*
X112900000Y-140478000D02*
X115700000Y-140478000D01*
X112900000Y-142478000D02*
X112900000Y-140478000D01*
X115700000Y-142478000D02*
X112900000Y-142478000D01*
%TO.C,C20*%
X131818748Y-87349000D02*
X132341252Y-87349000D01*
X131818748Y-85879000D02*
X132341252Y-85879000D01*
%TO.C,U3*%
X109514000Y-144748000D02*
X99274000Y-144748000D01*
X109514000Y-140107000D02*
X99274000Y-140107000D01*
X99274000Y-144748000D02*
X99274000Y-140107000D01*
X109514000Y-143238000D02*
X99274000Y-143238000D01*
X109514000Y-144748000D02*
X109514000Y-140107000D01*
X102543000Y-144748000D02*
X102543000Y-143238000D01*
X106244000Y-144748000D02*
X106244000Y-143238000D01*
%TO.C,D3*%
X91594000Y-104119000D02*
X91594000Y-107209000D01*
X97144000Y-105664462D02*
G75*
G03*
X91594000Y-104119170I-2990000J462D01*
G01*
X91594000Y-107208830D02*
G75*
G03*
X97144000Y-105663538I2560000J1544830D01*
G01*
X96654000Y-105664000D02*
G75*
G03*
X96654000Y-105664000I-2500000J0D01*
G01*
%TO.C,U8*%
X101789000Y-133070000D02*
X101789000Y-134720000D01*
X101789000Y-134720000D02*
X119689000Y-134720000D01*
X101789000Y-129420000D02*
X101789000Y-131070000D01*
X119689000Y-129420000D02*
X101789000Y-129420000D01*
X119689000Y-134720000D02*
X119689000Y-129420000D01*
X101789000Y-133070000D02*
G75*
G03*
X101789000Y-131070000I0J1000000D01*
G01*
%TO.C,C18*%
X103878748Y-126719000D02*
X104401252Y-126719000D01*
X103878748Y-125249000D02*
X104401252Y-125249000D01*
%TO.C,J5*%
X124266000Y-123130000D02*
X124266000Y-124460000D01*
X121606000Y-125730000D02*
X124266000Y-125730000D01*
X121606000Y-125730000D02*
X121606000Y-133410000D01*
X122936000Y-123130000D02*
X124266000Y-123130000D01*
X121606000Y-133410000D02*
X124266000Y-133410000D01*
X124266000Y-125730000D02*
X124266000Y-133410000D01*
%TO.C,JP6*%
X183627000Y-130870000D02*
X178487000Y-130870000D01*
X184897000Y-128210000D02*
X186227000Y-128210000D01*
X186227000Y-128210000D02*
X186227000Y-129540000D01*
X183627000Y-128210000D02*
X178487000Y-128210000D01*
X183627000Y-128210000D02*
X183627000Y-130870000D01*
X178487000Y-128210000D02*
X178487000Y-130870000D01*
%TO.C,D4*%
X184932000Y-115845000D02*
X184932000Y-112755000D01*
X184932000Y-112755170D02*
G75*
G03*
X179382000Y-114300462I-2560000J-1544830D01*
G01*
X179382000Y-114299538D02*
G75*
G03*
X184932000Y-115844830I2990000J-462D01*
G01*
X184872000Y-114300000D02*
G75*
G03*
X184872000Y-114300000I-2500000J0D01*
G01*
%TO.C,R19*%
X161263064Y-118845000D02*
X160808936Y-118845000D01*
X161263064Y-117375000D02*
X160808936Y-117375000D01*
%TO.C,U6*%
X156927000Y-126372000D02*
X156927000Y-128022000D01*
X177367000Y-126372000D02*
X156927000Y-126372000D01*
X156927000Y-130022000D02*
X156927000Y-131672000D01*
X156927000Y-131672000D02*
X177367000Y-131672000D01*
X177367000Y-131672000D02*
X177367000Y-126372000D01*
X156927000Y-130022000D02*
G75*
G03*
X156927000Y-128022000I0J1000000D01*
G01*
%TO.C,C10*%
X111987000Y-141724748D02*
X111987000Y-142247252D01*
X110517000Y-141724748D02*
X110517000Y-142247252D01*
%TO.C,JP9*%
X184897000Y-120590000D02*
X186227000Y-120590000D01*
X183627000Y-123250000D02*
X178487000Y-123250000D01*
X183627000Y-120590000D02*
X183627000Y-123250000D01*
X186227000Y-120590000D02*
X186227000Y-121920000D01*
X183627000Y-120590000D02*
X178487000Y-120590000D01*
X178487000Y-120590000D02*
X178487000Y-123250000D01*
%TO.C,D6*%
X175285000Y-100859000D02*
X175285000Y-97769000D01*
X175285000Y-97769170D02*
G75*
G03*
X169735000Y-99314462I-2560000J-1544830D01*
G01*
X169735000Y-99313538D02*
G75*
G03*
X175285000Y-100858830I2990000J-462D01*
G01*
X175225000Y-99314000D02*
G75*
G03*
X175225000Y-99314000I-2500000J0D01*
G01*
%TO.C,JP2*%
X98060000Y-104815000D02*
X98060000Y-102015000D01*
X100060000Y-102015000D02*
X100060000Y-104815000D01*
X98060000Y-102015000D02*
X100060000Y-102015000D01*
X100060000Y-104815000D02*
X98060000Y-104815000D01*
%TO.C,U5*%
X156927000Y-144118000D02*
X177367000Y-144118000D01*
X156927000Y-142468000D02*
X156927000Y-144118000D01*
X156927000Y-138818000D02*
X156927000Y-140468000D01*
X177367000Y-144118000D02*
X177367000Y-138818000D01*
X177367000Y-138818000D02*
X156927000Y-138818000D01*
X156927000Y-142468000D02*
G75*
G03*
X156927000Y-140468000I0J1000000D01*
G01*
%TO.C,R6*%
X94731064Y-97563000D02*
X94276936Y-97563000D01*
X94731064Y-99033000D02*
X94276936Y-99033000D01*
%TO.C,D7*%
X157246000Y-104415000D02*
X157246000Y-101325000D01*
X157246000Y-101325170D02*
G75*
G03*
X151696000Y-102870462I-2560000J-1544830D01*
G01*
X151696000Y-102869538D02*
G75*
G03*
X157246000Y-104414830I2990000J-462D01*
G01*
X157186000Y-102870000D02*
G75*
G03*
X157186000Y-102870000I-2500000J0D01*
G01*
%TO.C,R3*%
X106653064Y-147039000D02*
X106198936Y-147039000D01*
X106653064Y-145569000D02*
X106198936Y-145569000D01*
%TO.C,R15*%
X168126064Y-121131000D02*
X167671936Y-121131000D01*
X168126064Y-119661000D02*
X167671936Y-119661000D01*
D11*
%TO.C,U1*%
X139954000Y-118110000D02*
X139954000Y-113538000D01*
X136144000Y-120650000D02*
X139319000Y-120650000D01*
X137414000Y-147320000D02*
X137414000Y-146050000D01*
X142494000Y-113538000D02*
X142494000Y-118110000D01*
X139319000Y-123190000D02*
X136144000Y-123190000D01*
X136144000Y-133985000D02*
X146304000Y-133985000D01*
X146304000Y-123825000D02*
X146304000Y-133985000D01*
X146304000Y-123825000D02*
X136144000Y-123825000D01*
X150114000Y-110490000D02*
X150114000Y-146050000D01*
X136144000Y-123825000D02*
X136144000Y-133985000D01*
X136144000Y-123190000D02*
X136144000Y-120650000D01*
X132334000Y-110490000D02*
X150114000Y-110490000D01*
X139954000Y-113538000D02*
X142494000Y-113538000D01*
X145034000Y-146050000D02*
X145034000Y-147320000D01*
X150114000Y-146050000D02*
X132334000Y-146050000D01*
X142494000Y-118110000D02*
X139954000Y-118110000D01*
X137414000Y-140970000D02*
X137414000Y-146050000D01*
X145034000Y-140970000D02*
X145034000Y-146050000D01*
X132334000Y-146050000D02*
X132334000Y-110490000D01*
X145034000Y-147320000D02*
X137414000Y-147320000D01*
X139319000Y-120650000D02*
X139319000Y-123190000D01*
X145034000Y-140970000D02*
X137414000Y-140970000D01*
G36*
X141732000Y-131953000D02*
G01*
X141351000Y-132207000D01*
X141097000Y-131953000D01*
X141478000Y-131699000D01*
X141732000Y-131953000D01*
G37*
D14*
X141732000Y-131953000D02*
X141351000Y-132207000D01*
X141097000Y-131953000D01*
X141478000Y-131699000D01*
X141732000Y-131953000D01*
G36*
X140970000Y-131191000D02*
G01*
X140589000Y-131445000D01*
X140335000Y-131191000D01*
X140716000Y-130937000D01*
X140970000Y-131191000D01*
G37*
X140970000Y-131191000D02*
X140589000Y-131445000D01*
X140335000Y-131191000D01*
X140716000Y-130937000D01*
X140970000Y-131191000D01*
G36*
X141097000Y-130429000D02*
G01*
X140716000Y-130683000D01*
X140462000Y-130429000D01*
X140843000Y-130175000D01*
X141097000Y-130429000D01*
G37*
X141097000Y-130429000D02*
X140716000Y-130683000D01*
X140462000Y-130429000D01*
X140843000Y-130175000D01*
X141097000Y-130429000D01*
G36*
X142113000Y-129667000D02*
G01*
X141732000Y-129921000D01*
X141478000Y-129667000D01*
X141859000Y-129413000D01*
X142113000Y-129667000D01*
G37*
X142113000Y-129667000D02*
X141732000Y-129921000D01*
X141478000Y-129667000D01*
X141859000Y-129413000D01*
X142113000Y-129667000D01*
G36*
X141605000Y-130048000D02*
G01*
X141224000Y-130302000D01*
X140970000Y-130048000D01*
X141351000Y-129794000D01*
X141605000Y-130048000D01*
G37*
X141605000Y-130048000D02*
X141224000Y-130302000D01*
X140970000Y-130048000D01*
X141351000Y-129794000D01*
X141605000Y-130048000D01*
G36*
X141351000Y-131572000D02*
G01*
X140970000Y-131826000D01*
X140716000Y-131572000D01*
X141097000Y-131318000D01*
X141351000Y-131572000D01*
G37*
X141351000Y-131572000D02*
X140970000Y-131826000D01*
X140716000Y-131572000D01*
X141097000Y-131318000D01*
X141351000Y-131572000D01*
G36*
X141986000Y-130429000D02*
G01*
X141605000Y-130683000D01*
X141351000Y-130429000D01*
X141732000Y-130175000D01*
X141986000Y-130429000D01*
G37*
X141986000Y-130429000D02*
X141605000Y-130683000D01*
X141351000Y-130429000D01*
X141732000Y-130175000D01*
X141986000Y-130429000D01*
G36*
X141478000Y-130810000D02*
G01*
X141097000Y-131064000D01*
X140843000Y-130810000D01*
X141224000Y-130556000D01*
X141478000Y-130810000D01*
G37*
X141478000Y-130810000D02*
X141097000Y-131064000D01*
X140843000Y-130810000D01*
X141224000Y-130556000D01*
X141478000Y-130810000D01*
D13*
%TO.C,C15*%
X157980748Y-123671000D02*
X158503252Y-123671000D01*
X157980748Y-122201000D02*
X158503252Y-122201000D01*
%TO.C,R29*%
X150849000Y-100303064D02*
X150849000Y-99848936D01*
X149379000Y-100303064D02*
X149379000Y-99848936D01*
%TO.C,C13*%
X130329000Y-143771252D02*
X130329000Y-143248748D01*
X131799000Y-143771252D02*
X131799000Y-143248748D01*
%TO.C,R2*%
X120423000Y-110516936D02*
X120423000Y-110971064D01*
X121893000Y-110516936D02*
X121893000Y-110971064D01*
%TO.C,Q1*%
X181603000Y-107807000D02*
X181876000Y-107807000D01*
X183893000Y-107807000D02*
X184004000Y-107807000D01*
X177184000Y-109608000D02*
X184004000Y-109608000D01*
X179313000Y-107807000D02*
X179586000Y-107807000D01*
X177184000Y-107807000D02*
X177295000Y-107807000D01*
X184004000Y-107068000D02*
X184004000Y-109608000D01*
X177184000Y-107068000D02*
X184004000Y-107068000D01*
X177184000Y-107068000D02*
X177184000Y-109608000D01*
%TO.C,R18*%
X178789000Y-101319064D02*
X178789000Y-100864936D01*
X177319000Y-101319064D02*
X177319000Y-100864936D01*
%TO.C,C5*%
X124487000Y-116324748D02*
X124487000Y-116847252D01*
X125957000Y-116324748D02*
X125957000Y-116847252D01*
%TO.C,C8*%
X89635000Y-113784748D02*
X89635000Y-114307252D01*
X88165000Y-113784748D02*
X88165000Y-114307252D01*
%TO.C,C4*%
X117375000Y-115495248D02*
X117375000Y-116017752D01*
X118845000Y-115495248D02*
X118845000Y-116017752D01*
%TO.C,J1*%
X118616000Y-57142000D02*
X118616000Y-59992000D01*
X123476000Y-68602000D02*
X121666000Y-68602000D01*
X118856000Y-67202000D02*
X119856000Y-67202000D01*
X124476000Y-67202000D02*
X123476000Y-67202000D01*
X119856000Y-67202000D02*
X119856000Y-68602000D01*
X121666000Y-57382000D02*
X124476000Y-57382000D01*
X123476000Y-67202000D02*
X123476000Y-68602000D01*
X121466000Y-57142000D02*
X118616000Y-57142000D01*
X119856000Y-68602000D02*
X121666000Y-68602000D01*
X121666000Y-57382000D02*
X118856000Y-57382000D01*
X118856000Y-57382000D02*
X118856000Y-67202000D01*
X124476000Y-57382000D02*
X124476000Y-67202000D01*
%TO.C,C3*%
X121150748Y-119353000D02*
X121673252Y-119353000D01*
X121150748Y-117883000D02*
X121673252Y-117883000D01*
%TO.C,U7*%
X90081500Y-116511000D02*
X90081500Y-136951000D01*
X93731500Y-136951000D02*
X95381500Y-136951000D01*
X90081500Y-136951000D02*
X91731500Y-136951000D01*
X95381500Y-136951000D02*
X95381500Y-116511000D01*
X95381500Y-116511000D02*
X90081500Y-116511000D01*
X93731500Y-136951000D02*
G75*
G03*
X91731500Y-136951000I-1000000J0D01*
G01*
%TO.C,JT3*%
X127194000Y-111760000D02*
X127194000Y-110430000D01*
X127194000Y-110430000D02*
X128524000Y-110430000D01*
X127194000Y-113030000D02*
X129854000Y-113030000D01*
X127194000Y-146110000D02*
X129854000Y-146110000D01*
X127194000Y-113030000D02*
X127194000Y-146110000D01*
X129854000Y-113030000D02*
X129854000Y-146110000D01*
%TO.C,R7*%
X125957000Y-110516936D02*
X125957000Y-110971064D01*
X124487000Y-110516936D02*
X124487000Y-110971064D01*
%TO.C,R17*%
X184685000Y-98271064D02*
X184685000Y-97816936D01*
X186155000Y-98271064D02*
X186155000Y-97816936D01*
%TO.C,D14*%
X92731000Y-73635000D02*
X89641000Y-73635000D01*
X91185538Y-79185000D02*
G75*
G03*
X92730830Y-73635000I462J2990000D01*
G01*
X89641170Y-73635000D02*
G75*
G03*
X91186462Y-79185000I1544830J-2560000D01*
G01*
X93686000Y-76195000D02*
G75*
G03*
X93686000Y-76195000I-2500000J0D01*
G01*
%TO.C,R4*%
X90180936Y-99033000D02*
X90635064Y-99033000D01*
X90180936Y-97563000D02*
X90635064Y-97563000D01*
%TO.C,R23*%
X167667000Y-97001064D02*
X167667000Y-96546936D01*
X169137000Y-97001064D02*
X169137000Y-96546936D01*
%TO.C,D8*%
X175793000Y-121941000D02*
X175793000Y-118851000D01*
X170243000Y-120395538D02*
G75*
G03*
X175793000Y-121940830I2990000J-462D01*
G01*
X175793000Y-118851170D02*
G75*
G03*
X170243000Y-120396462I-2560000J-1544830D01*
G01*
X175733000Y-120396000D02*
G75*
G03*
X175733000Y-120396000I-2500000J0D01*
G01*
%TO.C,JX1*%
X180890000Y-67818000D02*
X179890000Y-67818000D01*
X185310000Y-68618000D02*
X185910000Y-68618000D01*
X179890000Y-58818000D02*
X179890000Y-69198000D01*
X185310000Y-59398000D02*
X185310000Y-60998000D01*
X179890000Y-69198000D02*
X185910000Y-69198000D01*
X185310000Y-63538000D02*
X185910000Y-63538000D01*
X185910000Y-67018000D02*
X185310000Y-67018000D01*
X181420000Y-67568000D02*
X180890000Y-67818000D01*
X185310000Y-61938000D02*
X185310000Y-63538000D01*
X184880000Y-58528000D02*
X180880000Y-58528000D01*
X185910000Y-64478000D02*
X185310000Y-64478000D01*
X185310000Y-60998000D02*
X185910000Y-60998000D01*
X180890000Y-60198000D02*
X180890000Y-67818000D01*
X185910000Y-69198000D02*
X185910000Y-58818000D01*
X179890000Y-60448000D02*
X180890000Y-60448000D01*
X179890000Y-60198000D02*
X180890000Y-60198000D01*
X185310000Y-64478000D02*
X185310000Y-66078000D01*
X185910000Y-61938000D02*
X185310000Y-61938000D01*
X185310000Y-67018000D02*
X185310000Y-68618000D01*
X185910000Y-59398000D02*
X185310000Y-59398000D01*
X179890000Y-67568000D02*
X180890000Y-67568000D01*
X181420000Y-60448000D02*
X181420000Y-67568000D01*
X185910000Y-58818000D02*
X179890000Y-58818000D01*
X180890000Y-60198000D02*
X181420000Y-60448000D01*
X185310000Y-66078000D02*
X185910000Y-66078000D01*
%TO.C,R38*%
X111987000Y-67844936D02*
X111987000Y-68299064D01*
X110517000Y-67844936D02*
X110517000Y-68299064D01*
%TO.C,R12*%
X186155000Y-109193064D02*
X186155000Y-108738936D01*
X184685000Y-109193064D02*
X184685000Y-108738936D01*
%TO.C,C11*%
X87911000Y-94988748D02*
X87911000Y-95511252D01*
X89381000Y-94988748D02*
X89381000Y-95511252D01*
%TO.C,D5*%
X184972000Y-104923000D02*
X184972000Y-101833000D01*
X184972000Y-101833170D02*
G75*
G03*
X179422000Y-103378462I-2560000J-1544830D01*
G01*
X179422000Y-103377538D02*
G75*
G03*
X184972000Y-104922830I2990000J-462D01*
G01*
X184912000Y-103378000D02*
G75*
G03*
X184912000Y-103378000I-2500000J0D01*
G01*
%TO.C,JP13*%
X101005000Y-131588000D02*
X101005000Y-133588000D01*
X101005000Y-133588000D02*
X98205000Y-133588000D01*
X98205000Y-133588000D02*
X98205000Y-131588000D01*
X98205000Y-131588000D02*
X101005000Y-131588000D01*
%TO.C,D2*%
X118851000Y-146852000D02*
X121941000Y-146852000D01*
X120396462Y-141302000D02*
G75*
G03*
X118851170Y-146852000I-462J-2990000D01*
G01*
X121940830Y-146852000D02*
G75*
G03*
X120395538Y-141302000I-1544830J2560000D01*
G01*
X122896000Y-144292000D02*
G75*
G03*
X122896000Y-144292000I-2500000J0D01*
G01*
%TO.C,JP11*%
X101005000Y-137176000D02*
X101005000Y-139176000D01*
X98205000Y-139176000D02*
X98205000Y-137176000D01*
X101005000Y-139176000D02*
X98205000Y-139176000D01*
X98205000Y-137176000D02*
X101005000Y-137176000D01*
%TO.C,R1*%
X95023000Y-88349064D02*
X95023000Y-87894936D01*
X96493000Y-88349064D02*
X96493000Y-87894936D01*
%TO.C,R35*%
X110263000Y-121184936D02*
X110263000Y-121639064D01*
X111733000Y-121184936D02*
X111733000Y-121639064D01*
%TO.C,U4*%
X100370000Y-96813000D02*
X90130000Y-96813000D01*
X93399000Y-96813000D02*
X93399000Y-95303000D01*
X90130000Y-96813000D02*
X90130000Y-92172000D01*
X97100000Y-96813000D02*
X97100000Y-95303000D01*
X100370000Y-96813000D02*
X100370000Y-92172000D01*
X100370000Y-92172000D02*
X90130000Y-92172000D01*
X100370000Y-95303000D02*
X90130000Y-95303000D01*
%TO.C,R22*%
X175033000Y-94191064D02*
X175033000Y-93736936D01*
X176503000Y-94191064D02*
X176503000Y-93736936D01*
%TO.C,R32*%
X92737000Y-113840436D02*
X92737000Y-114294564D01*
X94207000Y-113840436D02*
X94207000Y-114294564D01*
%TO.C,D1*%
X89641000Y-89428000D02*
X92731000Y-89428000D01*
X91186462Y-83878000D02*
G75*
G03*
X89641170Y-89428000I-462J-2990000D01*
G01*
X92730830Y-89428000D02*
G75*
G03*
X91185538Y-83878000I-1544830J2560000D01*
G01*
X93686000Y-86868000D02*
G75*
G03*
X93686000Y-86868000I-2500000J0D01*
G01*
%TO.C,D9*%
X175793000Y-114067000D02*
X175793000Y-110977000D01*
X170243000Y-112521538D02*
G75*
G03*
X175793000Y-114066830I2990000J-462D01*
G01*
X175793000Y-110977170D02*
G75*
G03*
X170243000Y-112522462I-2560000J-1544830D01*
G01*
X175733000Y-112522000D02*
G75*
G03*
X175733000Y-112522000I-2500000J0D01*
G01*
%TO.C,R10*%
X115289064Y-145569000D02*
X114834936Y-145569000D01*
X115289064Y-147039000D02*
X114834936Y-147039000D01*
%TO.C,J3*%
X186642000Y-90686000D02*
X186642000Y-87836000D01*
X175482000Y-79226000D02*
X177292000Y-79226000D01*
X177292000Y-90446000D02*
X186402000Y-90446000D01*
X179102000Y-79226000D02*
X177292000Y-79226000D01*
X183792000Y-90686000D02*
X186642000Y-90686000D01*
X175482000Y-80626000D02*
X175482000Y-79226000D01*
X177292000Y-90446000D02*
X168182000Y-90446000D01*
X179102000Y-80626000D02*
X179102000Y-79226000D01*
X168182000Y-90446000D02*
X168182000Y-80626000D01*
X168182000Y-80626000D02*
X175482000Y-80626000D01*
X186402000Y-80626000D02*
X179102000Y-80626000D01*
X186402000Y-90446000D02*
X186402000Y-80626000D01*
%TO.C,JP3*%
X183627000Y-138490000D02*
X178487000Y-138490000D01*
X183627000Y-135830000D02*
X183627000Y-138490000D01*
X178487000Y-135830000D02*
X178487000Y-138490000D01*
X183627000Y-135830000D02*
X178487000Y-135830000D01*
X184897000Y-135830000D02*
X186227000Y-135830000D01*
X186227000Y-135830000D02*
X186227000Y-137160000D01*
%TO.C,D12*%
X108225000Y-50023000D02*
X105135000Y-50023000D01*
X106679538Y-55573000D02*
G75*
G03*
X108224830Y-50023000I462J2990000D01*
G01*
X105135170Y-50023000D02*
G75*
G03*
X106680462Y-55573000I1544830J-2560000D01*
G01*
X109180000Y-52583000D02*
G75*
G03*
X109180000Y-52583000I-2500000J0D01*
G01*
%TO.C,Q4*%
X153912000Y-95989000D02*
X154185000Y-95989000D01*
X149493000Y-95989000D02*
X149604000Y-95989000D01*
X151622000Y-95989000D02*
X151895000Y-95989000D01*
X156202000Y-95989000D02*
X156313000Y-95989000D01*
X156313000Y-95250000D02*
X156313000Y-97790000D01*
X149493000Y-97790000D02*
X156313000Y-97790000D01*
X149493000Y-95250000D02*
X149493000Y-97790000D01*
X149493000Y-95250000D02*
X156313000Y-95250000D01*
%TO.C,R14*%
X168142064Y-123417000D02*
X167687936Y-123417000D01*
X168142064Y-121947000D02*
X167687936Y-121947000D01*
%TO.C,C6*%
X167637748Y-117375000D02*
X168160252Y-117375000D01*
X167637748Y-118845000D02*
X168160252Y-118845000D01*
%TO.C,R16*%
X161263064Y-119661000D02*
X160808936Y-119661000D01*
X161263064Y-121131000D02*
X160808936Y-121131000D01*
%TO.C,C19*%
X116105000Y-62818752D02*
X116105000Y-62296248D01*
X117575000Y-62818752D02*
X117575000Y-62296248D01*
%TO.C,USB1*%
X116016000Y-115756500D02*
X101916000Y-115756500D01*
X116016000Y-110956500D02*
X116016000Y-115756500D01*
X107716000Y-115956500D02*
X107216000Y-116456500D01*
X101916000Y-115756500D02*
X101916000Y-110956500D01*
X108216000Y-116456500D02*
X107716000Y-115956500D01*
X101916000Y-102656500D02*
X116016000Y-102656500D01*
X107216000Y-116456500D02*
X108216000Y-116456500D01*
X101916000Y-107456500D02*
X101916000Y-102656500D01*
X116016000Y-102656500D02*
X116016000Y-107456500D01*
%TO.C,R8*%
X116866936Y-119607000D02*
X117321064Y-119607000D01*
X116866936Y-118137000D02*
X117321064Y-118137000D01*
%TO.C,R9*%
X117321064Y-120423000D02*
X116866936Y-120423000D01*
X117321064Y-121893000D02*
X116866936Y-121893000D01*
%TO.C,R20*%
X96292936Y-74195000D02*
X96747064Y-74195000D01*
X96292936Y-75665000D02*
X96747064Y-75665000D01*
%TO.C,R24*%
X175233000Y-105875064D02*
X175233000Y-105420936D01*
X173763000Y-105875064D02*
X173763000Y-105420936D01*
%TO.C,R37*%
X111987000Y-59975936D02*
X111987000Y-60430064D01*
X110517000Y-59975936D02*
X110517000Y-60430064D01*
%TO.C,JP14*%
X98168000Y-130794000D02*
X98168000Y-128794000D01*
X98168000Y-128794000D02*
X100968000Y-128794000D01*
X100968000Y-128794000D02*
X100968000Y-130794000D01*
X100968000Y-130794000D02*
X98168000Y-130794000D01*
%TD*%
%LPC*%
D15*
%TO.C,C1*%
X121158000Y-107717500D03*
X121158000Y-105642500D03*
%TD*%
D16*
%TO.C,U2*%
X120241000Y-114066000D03*
X120241000Y-114566000D03*
X120241000Y-115066000D03*
X120241000Y-115566000D03*
X120241000Y-116066000D03*
X120241000Y-116566000D03*
X123091000Y-116566000D03*
X123091000Y-116066000D03*
X123091000Y-115566000D03*
X123091000Y-115066000D03*
X123091000Y-114566000D03*
X123091000Y-114066000D03*
D17*
X121666000Y-115316000D03*
%TD*%
D18*
%TO.C,U9*%
X160030000Y-115814000D03*
D19*
X162570000Y-115814000D03*
X165110000Y-115814000D03*
X167650000Y-115814000D03*
X167650000Y-108194000D03*
X165110000Y-108194000D03*
X162570000Y-108194000D03*
X160030000Y-108194000D03*
%TD*%
D20*
%TO.C,R13*%
X178054000Y-113014000D03*
X178054000Y-111014000D03*
%TD*%
D21*
%TO.C,JT2*%
X146299000Y-106680000D03*
D22*
X143759000Y-106680000D03*
X141219000Y-106680000D03*
X138679000Y-106680000D03*
X136139000Y-106680000D03*
%TD*%
D23*
%TO.C,C9*%
X98065500Y-140970000D03*
X95990500Y-140970000D03*
%TD*%
D24*
%TO.C,R25*%
X168386000Y-103632000D03*
X166386000Y-103632000D03*
%TD*%
D20*
%TO.C,R28*%
X157729000Y-97012000D03*
X157729000Y-95012000D03*
%TD*%
D25*
%TO.C,J6*%
X164179000Y-82709000D03*
X164179000Y-80169000D03*
X164179000Y-77629000D03*
X164179000Y-75089000D03*
X164179000Y-72549000D03*
X164179000Y-70009000D03*
X164179000Y-67469000D03*
X164179000Y-64929000D03*
X164179000Y-62389000D03*
X164179000Y-59849000D03*
X164179000Y-57309000D03*
X164179000Y-54769000D03*
X164179000Y-52229000D03*
X131159000Y-52229000D03*
X131159000Y-54769000D03*
X131159000Y-57309000D03*
X131159000Y-59849000D03*
X131159000Y-62389000D03*
X131159000Y-64929000D03*
X131159000Y-67469000D03*
X131159000Y-70009000D03*
X131159000Y-72549000D03*
X131159000Y-75089000D03*
X131159000Y-77629000D03*
X131159000Y-80169000D03*
X131159000Y-82709000D03*
%TD*%
D21*
%TO.C,JP8*%
X184897000Y-124460000D03*
D22*
X182357000Y-124460000D03*
X179817000Y-124460000D03*
%TD*%
D26*
%TO.C,R30*%
X152935000Y-93980000D03*
X154935000Y-93980000D03*
%TD*%
D20*
%TO.C,R11*%
X89408000Y-106648000D03*
X89408000Y-104648000D03*
%TD*%
D21*
%TO.C,JP4*%
X184897000Y-134620000D03*
D22*
X182357000Y-134620000D03*
X179817000Y-134620000D03*
%TD*%
D26*
%TO.C,R5*%
X101346000Y-146304000D03*
X103346000Y-146304000D03*
%TD*%
D27*
%TO.C,C12*%
X97514500Y-98298000D03*
X99589500Y-98298000D03*
%TD*%
D28*
%TO.C,Q2*%
X178304000Y-97402000D03*
D29*
X180594000Y-97402000D03*
X182884000Y-97402000D03*
%TD*%
D26*
%TO.C,R33*%
X103135000Y-138166000D03*
X105135000Y-138166000D03*
%TD*%
D25*
%TO.C,U10*%
X104394000Y-99314000D03*
X106934000Y-99314000D03*
X109474000Y-99314000D03*
X112014000Y-99314000D03*
X114554000Y-99314000D03*
X117094000Y-99314000D03*
X119634000Y-99314000D03*
X122174000Y-99314000D03*
X124714000Y-99314000D03*
X104394000Y-73914000D03*
X106934000Y-73914000D03*
X109474000Y-73914000D03*
X112014000Y-73914000D03*
X114554000Y-73914000D03*
%TD*%
D21*
%TO.C,JT1*%
X153924000Y-144770000D03*
D22*
X153924000Y-142230000D03*
X153924000Y-139690000D03*
X153924000Y-137150000D03*
X153924000Y-134610000D03*
X153924000Y-132070000D03*
X153924000Y-129530000D03*
X153924000Y-126990000D03*
X153924000Y-124450000D03*
X153924000Y-121910000D03*
X153924000Y-119370000D03*
X153924000Y-116830000D03*
X153924000Y-114290000D03*
X153924000Y-111750000D03*
%TD*%
D21*
%TO.C,JP5*%
X184897000Y-132080000D03*
D22*
X182357000Y-132080000D03*
X179817000Y-132080000D03*
%TD*%
D30*
%TO.C,H4*%
X91694000Y-51816000D03*
%TD*%
D21*
%TO.C,JP10*%
X184897000Y-119380000D03*
D22*
X182357000Y-119380000D03*
X179817000Y-119380000D03*
%TD*%
D24*
%TO.C,R27*%
X164322000Y-105918000D03*
X162322000Y-105918000D03*
%TD*%
D31*
%TO.C,J2*%
X173228000Y-59742000D03*
D32*
X173228000Y-65242000D03*
%TD*%
D33*
%TO.C,D11*%
X106680000Y-59187000D03*
D34*
X106680000Y-61727000D03*
%TD*%
D35*
%TO.C,R36*%
X111252000Y-51329000D03*
X111252000Y-53329000D03*
%TD*%
D30*
%TO.C,H1*%
X91694000Y-143256000D03*
%TD*%
D15*
%TO.C,C2*%
X125222000Y-107696000D03*
X125222000Y-105621000D03*
%TD*%
D27*
%TO.C,C7*%
X166348500Y-105918000D03*
X168423500Y-105918000D03*
%TD*%
%TO.C,C14*%
X157473500Y-135382000D03*
X159548500Y-135382000D03*
%TD*%
D36*
%TO.C,JP12*%
X98843000Y-135382000D03*
D37*
X100293000Y-135382000D03*
%TD*%
D27*
%TO.C,C17*%
X88878500Y-138430000D03*
X90953500Y-138430000D03*
%TD*%
D24*
%TO.C,R34*%
X113263000Y-138166000D03*
X111263000Y-138166000D03*
%TD*%
D28*
%TO.C,Q3*%
X168652000Y-93218000D03*
D29*
X170942000Y-93218000D03*
X173232000Y-93218000D03*
%TD*%
D38*
%TO.C,C16*%
X157236000Y-107918500D03*
X157236000Y-109993500D03*
%TD*%
D33*
%TO.C,D10*%
X106680000Y-67056000D03*
D34*
X106680000Y-69596000D03*
%TD*%
D21*
%TO.C,JT4*%
X125984000Y-142240000D03*
%TD*%
D39*
%TO.C,J4*%
X144222000Y-101294000D03*
D32*
X140022000Y-101294000D03*
X135822000Y-101294000D03*
X131622000Y-101294000D03*
X144222000Y-95794000D03*
X140022000Y-95794000D03*
X135822000Y-95794000D03*
X131622000Y-95794000D03*
%TD*%
D35*
%TO.C,R31*%
X91186000Y-113067500D03*
X91186000Y-115067500D03*
%TD*%
D21*
%TO.C,JP7*%
X184897000Y-127000000D03*
D22*
X182357000Y-127000000D03*
X179817000Y-127000000D03*
%TD*%
D24*
%TO.C,R26*%
X164322000Y-103632000D03*
X162322000Y-103632000D03*
%TD*%
D33*
%TO.C,D13*%
X105918000Y-120142000D03*
D34*
X105918000Y-122682000D03*
%TD*%
D36*
%TO.C,JP1*%
X113575000Y-141478000D03*
D37*
X115025000Y-141478000D03*
%TD*%
D27*
%TO.C,C20*%
X131042500Y-86614000D03*
X133117500Y-86614000D03*
%TD*%
D40*
%TO.C,U3*%
X106934000Y-141478000D03*
D41*
X104394000Y-141478000D03*
X101854000Y-141478000D03*
%TD*%
D33*
%TO.C,D3*%
X92884000Y-105664000D03*
D34*
X95424000Y-105664000D03*
%TD*%
D18*
%TO.C,U8*%
X103119000Y-135880000D03*
D19*
X105659000Y-135880000D03*
X108199000Y-135880000D03*
X110739000Y-135880000D03*
X113279000Y-135880000D03*
X115819000Y-135880000D03*
X118359000Y-135880000D03*
X118359000Y-128260000D03*
X115819000Y-128260000D03*
X113279000Y-128260000D03*
X110739000Y-128260000D03*
X108199000Y-128260000D03*
X105659000Y-128260000D03*
X103119000Y-128260000D03*
%TD*%
D27*
%TO.C,C18*%
X103102500Y-125984000D03*
X105177500Y-125984000D03*
%TD*%
D21*
%TO.C,J5*%
X122936000Y-124460000D03*
D22*
X122936000Y-127000000D03*
X122936000Y-129540000D03*
X122936000Y-132080000D03*
%TD*%
D21*
%TO.C,JP6*%
X184897000Y-129540000D03*
D22*
X182357000Y-129540000D03*
X179817000Y-129540000D03*
%TD*%
D33*
%TO.C,D4*%
X183642000Y-114300000D03*
D34*
X181102000Y-114300000D03*
%TD*%
D24*
%TO.C,R19*%
X162036000Y-118110000D03*
X160036000Y-118110000D03*
%TD*%
D18*
%TO.C,U6*%
X158257000Y-132832000D03*
D19*
X160797000Y-132832000D03*
X163337000Y-132832000D03*
X165877000Y-132832000D03*
X168417000Y-132832000D03*
X170957000Y-132832000D03*
X173497000Y-132832000D03*
X176037000Y-132832000D03*
X176037000Y-125212000D03*
X173497000Y-125212000D03*
X170957000Y-125212000D03*
X168417000Y-125212000D03*
X165877000Y-125212000D03*
X163337000Y-125212000D03*
X160797000Y-125212000D03*
X158257000Y-125212000D03*
%TD*%
D38*
%TO.C,C10*%
X111252000Y-140948500D03*
X111252000Y-143023500D03*
%TD*%
D21*
%TO.C,JP9*%
X184897000Y-121920000D03*
D22*
X182357000Y-121920000D03*
X179817000Y-121920000D03*
%TD*%
D33*
%TO.C,D6*%
X173995000Y-99314000D03*
D34*
X171455000Y-99314000D03*
%TD*%
D42*
%TO.C,JP2*%
X99060000Y-102690000D03*
D43*
X99060000Y-104140000D03*
%TD*%
D18*
%TO.C,U5*%
X158257000Y-145278000D03*
D19*
X160797000Y-145278000D03*
X163337000Y-145278000D03*
X165877000Y-145278000D03*
X168417000Y-145278000D03*
X170957000Y-145278000D03*
X173497000Y-145278000D03*
X176037000Y-145278000D03*
X176037000Y-137658000D03*
X173497000Y-137658000D03*
X170957000Y-137658000D03*
X168417000Y-137658000D03*
X165877000Y-137658000D03*
X163337000Y-137658000D03*
X160797000Y-137658000D03*
X158257000Y-137658000D03*
%TD*%
D24*
%TO.C,R6*%
X95504000Y-98298000D03*
X93504000Y-98298000D03*
%TD*%
D33*
%TO.C,D7*%
X155956000Y-102870000D03*
D34*
X153416000Y-102870000D03*
%TD*%
D24*
%TO.C,R3*%
X107426000Y-146304000D03*
X105426000Y-146304000D03*
%TD*%
%TO.C,R15*%
X168899000Y-120396000D03*
X166899000Y-120396000D03*
%TD*%
D44*
%TO.C,U1*%
X148844000Y-144780000D03*
X148844000Y-142240000D03*
X148844000Y-139700000D03*
X148844000Y-137160000D03*
X148844000Y-134620000D03*
X148844000Y-132080000D03*
X148844000Y-129540000D03*
X148844000Y-127000000D03*
X148844000Y-124460000D03*
X148844000Y-121920000D03*
X148844000Y-119380000D03*
X148844000Y-116840000D03*
X148844000Y-114300000D03*
X148844000Y-111760000D03*
X146304000Y-111760000D03*
X143764000Y-111760000D03*
X141224000Y-111760000D03*
X138684000Y-111760000D03*
X136144000Y-111760000D03*
X133604000Y-111760000D03*
X133604000Y-114300000D03*
X133604000Y-116840000D03*
X133604000Y-119380000D03*
X133604000Y-121920000D03*
X133604000Y-124460000D03*
X133604000Y-127000000D03*
X133604000Y-129540000D03*
X133604000Y-132080000D03*
X133604000Y-134620000D03*
X133604000Y-137160000D03*
X133604000Y-139700000D03*
X133604000Y-142240000D03*
X133604000Y-144780000D03*
X136144000Y-142240000D03*
X136144000Y-116840000D03*
X136144000Y-119380000D03*
X138684000Y-116840000D03*
X138684000Y-119380000D03*
X141224000Y-116840000D03*
X141224000Y-119380000D03*
X143764000Y-116840000D03*
X143764000Y-119380000D03*
X146304000Y-116840000D03*
X146304000Y-119380000D03*
%TD*%
D27*
%TO.C,C15*%
X157204500Y-122936000D03*
X159279500Y-122936000D03*
%TD*%
D20*
%TO.C,R29*%
X150114000Y-101076000D03*
X150114000Y-99076000D03*
%TD*%
D15*
%TO.C,C13*%
X131064000Y-144547500D03*
X131064000Y-142472500D03*
%TD*%
D35*
%TO.C,R2*%
X121158000Y-109744000D03*
X121158000Y-111744000D03*
%TD*%
D28*
%TO.C,Q1*%
X178304000Y-108458000D03*
D29*
X180594000Y-108458000D03*
X182884000Y-108458000D03*
%TD*%
D20*
%TO.C,R18*%
X178054000Y-102092000D03*
X178054000Y-100092000D03*
%TD*%
D38*
%TO.C,C5*%
X125222000Y-115548500D03*
X125222000Y-117623500D03*
%TD*%
%TO.C,C8*%
X88900000Y-113008500D03*
X88900000Y-115083500D03*
%TD*%
%TO.C,C4*%
X118110000Y-114719000D03*
X118110000Y-116794000D03*
%TD*%
D31*
%TO.C,J1*%
X121666000Y-59742000D03*
D32*
X121666000Y-65242000D03*
%TD*%
D27*
%TO.C,C3*%
X120374500Y-118618000D03*
X122449500Y-118618000D03*
%TD*%
D18*
%TO.C,U7*%
X96541500Y-135621000D03*
D19*
X96541500Y-133081000D03*
X96541500Y-130541000D03*
X96541500Y-128001000D03*
X96541500Y-125461000D03*
X96541500Y-122921000D03*
X96541500Y-120381000D03*
X96541500Y-117841000D03*
X88921500Y-117841000D03*
X88921500Y-120381000D03*
X88921500Y-122921000D03*
X88921500Y-125461000D03*
X88921500Y-128001000D03*
X88921500Y-130541000D03*
X88921500Y-133081000D03*
X88921500Y-135621000D03*
%TD*%
D21*
%TO.C,JT3*%
X128524000Y-111760000D03*
D22*
X128524000Y-114300000D03*
X128524000Y-116840000D03*
X128524000Y-119380000D03*
X128524000Y-121920000D03*
X128524000Y-124460000D03*
X128524000Y-127000000D03*
X128524000Y-129540000D03*
X128524000Y-132080000D03*
X128524000Y-134620000D03*
X128524000Y-137160000D03*
X128524000Y-139700000D03*
X128524000Y-142240000D03*
X128524000Y-144780000D03*
%TD*%
D35*
%TO.C,R7*%
X125222000Y-109744000D03*
X125222000Y-111744000D03*
%TD*%
D20*
%TO.C,R17*%
X185420000Y-99044000D03*
X185420000Y-97044000D03*
%TD*%
D33*
%TO.C,D14*%
X91186000Y-74925000D03*
D34*
X91186000Y-77465000D03*
%TD*%
D26*
%TO.C,R4*%
X89408000Y-98298000D03*
X91408000Y-98298000D03*
%TD*%
D20*
%TO.C,R23*%
X168402000Y-97774000D03*
X168402000Y-95774000D03*
%TD*%
D33*
%TO.C,D8*%
X174503000Y-120396000D03*
D34*
X171963000Y-120396000D03*
%TD*%
D45*
%TO.C,JX1*%
X182880000Y-60198000D03*
D46*
X182880000Y-62738000D03*
X182880000Y-65278000D03*
X182880000Y-67818000D03*
%TD*%
D35*
%TO.C,R38*%
X111252000Y-67072000D03*
X111252000Y-69072000D03*
%TD*%
D20*
%TO.C,R12*%
X185420000Y-109966000D03*
X185420000Y-107966000D03*
%TD*%
D38*
%TO.C,C11*%
X88646000Y-94212500D03*
X88646000Y-96287500D03*
%TD*%
D33*
%TO.C,D5*%
X183682000Y-103378000D03*
D34*
X181142000Y-103378000D03*
%TD*%
D36*
%TO.C,JP13*%
X98880000Y-132588000D03*
D37*
X100330000Y-132588000D03*
%TD*%
D33*
%TO.C,D2*%
X120396000Y-145562000D03*
D34*
X120396000Y-143022000D03*
%TD*%
D36*
%TO.C,JP11*%
X98880000Y-138176000D03*
D37*
X100330000Y-138176000D03*
%TD*%
D20*
%TO.C,R1*%
X95758000Y-89122000D03*
X95758000Y-87122000D03*
%TD*%
D35*
%TO.C,R35*%
X110998000Y-120412000D03*
X110998000Y-122412000D03*
%TD*%
D40*
%TO.C,U4*%
X97790000Y-93543000D03*
D41*
X95250000Y-93543000D03*
X92710000Y-93543000D03*
%TD*%
D20*
%TO.C,R22*%
X175768000Y-94964000D03*
X175768000Y-92964000D03*
%TD*%
D35*
%TO.C,R32*%
X93472000Y-113067500D03*
X93472000Y-115067500D03*
%TD*%
D33*
%TO.C,D1*%
X91186000Y-88138000D03*
D34*
X91186000Y-85598000D03*
%TD*%
D33*
%TO.C,D9*%
X174503000Y-112522000D03*
D34*
X171963000Y-112522000D03*
%TD*%
D24*
%TO.C,R10*%
X116062000Y-146304000D03*
X114062000Y-146304000D03*
%TD*%
D39*
%TO.C,J3*%
X183592000Y-88086000D03*
D32*
X179392000Y-88086000D03*
X175192000Y-88086000D03*
X170992000Y-88086000D03*
X183592000Y-82586000D03*
X179392000Y-82586000D03*
X175192000Y-82586000D03*
X170992000Y-82586000D03*
%TD*%
D21*
%TO.C,JP3*%
X184897000Y-137160000D03*
D22*
X182357000Y-137160000D03*
X179817000Y-137160000D03*
%TD*%
D30*
%TO.C,H2*%
X183134000Y-143256000D03*
%TD*%
D33*
%TO.C,D12*%
X106680000Y-51313000D03*
D34*
X106680000Y-53853000D03*
%TD*%
D28*
%TO.C,Q4*%
X150613000Y-96640000D03*
D29*
X152903000Y-96640000D03*
X155193000Y-96640000D03*
%TD*%
D24*
%TO.C,R14*%
X168915000Y-122682000D03*
X166915000Y-122682000D03*
%TD*%
D27*
%TO.C,C6*%
X166861500Y-118110000D03*
X168936500Y-118110000D03*
%TD*%
D24*
%TO.C,R16*%
X162036000Y-120396000D03*
X160036000Y-120396000D03*
%TD*%
D30*
%TO.C,H3*%
X183134000Y-51816000D03*
%TD*%
D15*
%TO.C,C19*%
X116840000Y-63595000D03*
X116840000Y-61520000D03*
%TD*%
D47*
%TO.C,USB1*%
X107716000Y-111956500D03*
D48*
X110216000Y-111956500D03*
X110216000Y-108756500D03*
X107716000Y-108756500D03*
D49*
X102946000Y-109246500D03*
X114986000Y-109246500D03*
%TD*%
D26*
%TO.C,R8*%
X116094000Y-118872000D03*
X118094000Y-118872000D03*
%TD*%
D24*
%TO.C,R9*%
X118094000Y-121158000D03*
X116094000Y-121158000D03*
%TD*%
D26*
%TO.C,R20*%
X95520000Y-74930000D03*
X97520000Y-74930000D03*
%TD*%
D20*
%TO.C,R24*%
X174498000Y-106648000D03*
X174498000Y-104648000D03*
%TD*%
D35*
%TO.C,R37*%
X111252000Y-59203000D03*
X111252000Y-61203000D03*
%TD*%
D36*
%TO.C,JP14*%
X98843000Y-129794000D03*
D37*
X100293000Y-129794000D03*
%TD*%
M02*
