%TF.GenerationSoftware,KiCad,Pcbnew,6.0.10-86aedd382b~118~ubuntu20.04.1*%
%TF.CreationDate,2022-12-27T17:02:08-05:00*%
%TF.ProjectId,AMP_PCBv2,414d505f-5043-4427-9632-2e6b69636164,A*%
%TF.SameCoordinates,Original*%
%TF.FileFunction,Drillmap*%
%TF.FilePolarity,Positive*%
%FSLAX45Y45*%
G04 Gerber Fmt 4.5, Leading zero omitted, Abs format (unit mm)*
G04 Created by KiCad (PCBNEW 6.0.10-86aedd382b~118~ubuntu20.04.1) date 2022-12-27 17:02:08*
%MOMM*%
%LPD*%
G01*
G04 APERTURE LIST*
%ADD10C,0.100000*%
%ADD11C,0.200000*%
%ADD12C,0.040000*%
%ADD13C,0.076200*%
%ADD14C,0.080000*%
%ADD15C,0.090000*%
%ADD16C,0.092000*%
%ADD17C,0.110000*%
%ADD18C,0.119000*%
%ADD19C,0.140000*%
%ADD20C,0.230000*%
G04 APERTURE END LIST*
D10*
X18313400Y-14757400D02*
G75*
G03*
X18745200Y-14325600I0J431800D01*
G01*
X9169400Y-4749800D02*
G75*
G03*
X8737600Y-5181600I0J-431800D01*
G01*
X9169400Y-4749800D02*
X18313400Y-4749800D01*
X9169400Y-14757400D02*
X18313400Y-14757400D01*
X18745200Y-5181600D02*
G75*
G03*
X18313400Y-4749800I-431800J0D01*
G01*
X8737600Y-14325600D02*
X8737600Y-5181600D01*
X18745200Y-5181600D02*
X18745200Y-14325600D01*
X8737600Y-14325600D02*
G75*
G03*
X9169400Y-14757400I431800J0D01*
G01*
D11*
D12*
X9022400Y-10317800D02*
X9062400Y-10357800D01*
X9062400Y-10317800D02*
X9022400Y-10357800D01*
X9047800Y-9987600D02*
X9087800Y-10027600D01*
X9087800Y-9987600D02*
X9047800Y-10027600D01*
X9098600Y-13162600D02*
X9138600Y-13202600D01*
X9138600Y-13162600D02*
X9098600Y-13202600D01*
X9098600Y-13416600D02*
X9138600Y-13456600D01*
X9138600Y-13416600D02*
X9098600Y-13456600D01*
X9124000Y-9581200D02*
X9164000Y-9621200D01*
X9164000Y-9581200D02*
X9124000Y-9621200D01*
X9428800Y-12527600D02*
X9468800Y-12567600D01*
X9468800Y-12527600D02*
X9428800Y-12567600D01*
X9428800Y-12781600D02*
X9468800Y-12821600D01*
X9468800Y-12781600D02*
X9428800Y-12821600D01*
X9428800Y-13950000D02*
X9468800Y-13990000D01*
X9468800Y-13950000D02*
X9428800Y-13990000D01*
X9733600Y-8692200D02*
X9773600Y-8732200D01*
X9773600Y-8692200D02*
X9733600Y-8732200D01*
X9759000Y-9581200D02*
X9799000Y-9621200D01*
X9799000Y-9581200D02*
X9759000Y-9621200D01*
X9886000Y-7498400D02*
X9926000Y-7538400D01*
X9926000Y-7498400D02*
X9886000Y-7538400D01*
X9911400Y-11206800D02*
X9951400Y-11246800D01*
X9951400Y-11206800D02*
X9911400Y-11246800D01*
X9911400Y-12121200D02*
X9951400Y-12161200D01*
X9951400Y-12121200D02*
X9911400Y-12161200D01*
X9962200Y-9632000D02*
X10002200Y-9672000D01*
X10002200Y-9632000D02*
X9962200Y-9672000D01*
X10140000Y-10190800D02*
X10180000Y-10230800D01*
X10180000Y-10190800D02*
X10140000Y-10230800D01*
X10546400Y-7828600D02*
X10586400Y-7868600D01*
X10586400Y-7828600D02*
X10546400Y-7868600D01*
X10546400Y-8158800D02*
X10586400Y-8198800D01*
X10586400Y-8158800D02*
X10546400Y-8198800D01*
X10546400Y-8870000D02*
X10586400Y-8910000D01*
X10586400Y-8870000D02*
X10546400Y-8910000D01*
X10546400Y-9276400D02*
X10586400Y-9316400D01*
X10586400Y-9276400D02*
X10546400Y-9316400D01*
X10546400Y-13010200D02*
X10586400Y-13050200D01*
X10586400Y-13010200D02*
X10546400Y-13050200D01*
X10648000Y-13848400D02*
X10688000Y-13888400D01*
X10688000Y-13848400D02*
X10648000Y-13888400D01*
X10673400Y-13289600D02*
X10713400Y-13329600D01*
X10713400Y-13289600D02*
X10673400Y-13329600D01*
X10673400Y-13391200D02*
X10713400Y-13431200D01*
X10713400Y-13391200D02*
X10673400Y-13431200D01*
X10800400Y-13010200D02*
X10840400Y-13050200D01*
X10840400Y-13010200D02*
X10800400Y-13050200D01*
X10927400Y-11562400D02*
X10967400Y-11602400D01*
X10967400Y-11562400D02*
X10927400Y-11602400D01*
X10927400Y-11765600D02*
X10967400Y-11805600D01*
X10967400Y-11765600D02*
X10927400Y-11805600D01*
X10927400Y-13289600D02*
X10967400Y-13329600D01*
X10967400Y-13289600D02*
X10927400Y-13329600D01*
X10927400Y-13391200D02*
X10967400Y-13431200D01*
X10967400Y-13391200D02*
X10927400Y-13431200D01*
X10927400Y-14178600D02*
X10967400Y-14218600D01*
X10967400Y-14178600D02*
X10927400Y-14218600D01*
X10978200Y-13848400D02*
X11018200Y-13888400D01*
X11018200Y-13848400D02*
X10978200Y-13888400D01*
X11029000Y-11664000D02*
X11069000Y-11704000D01*
X11069000Y-11664000D02*
X11029000Y-11704000D01*
X11079800Y-12375200D02*
X11119800Y-12415200D01*
X11119800Y-12375200D02*
X11079800Y-12415200D01*
X11283000Y-5466400D02*
X11323000Y-5506400D01*
X11323000Y-5466400D02*
X11283000Y-5506400D01*
X11308400Y-7117400D02*
X11348400Y-7157400D01*
X11348400Y-7117400D02*
X11308400Y-7157400D01*
X11308400Y-13162600D02*
X11348400Y-13202600D01*
X11348400Y-13162600D02*
X11308400Y-13202600D01*
X11333800Y-6253800D02*
X11373800Y-6293800D01*
X11373800Y-6253800D02*
X11333800Y-6293800D01*
X11460800Y-5999800D02*
X11500800Y-6039800D01*
X11500800Y-5999800D02*
X11460800Y-6039800D01*
X11460800Y-11664000D02*
X11500800Y-11704000D01*
X11500800Y-11664000D02*
X11460800Y-11704000D01*
X11587800Y-12248200D02*
X11627800Y-12288200D01*
X11627800Y-12248200D02*
X11587800Y-12288200D01*
X11638600Y-11664000D02*
X11678600Y-11704000D01*
X11678600Y-11664000D02*
X11638600Y-11704000D01*
X11765600Y-13823000D02*
X11805600Y-13863000D01*
X11805600Y-13823000D02*
X11765600Y-13863000D01*
X11943400Y-10546400D02*
X11983400Y-10586400D01*
X11983400Y-10546400D02*
X11943400Y-10586400D01*
X11968800Y-12019600D02*
X12008800Y-12059600D01*
X12008800Y-12019600D02*
X11968800Y-12059600D01*
X12019600Y-12553000D02*
X12059600Y-12593000D01*
X12059600Y-12553000D02*
X12019600Y-12593000D01*
X12019600Y-13315000D02*
X12059600Y-13355000D01*
X12059600Y-13315000D02*
X12019600Y-13355000D01*
X12019600Y-13950000D02*
X12059600Y-13990000D01*
X12059600Y-13950000D02*
X12019600Y-13990000D01*
X12261877Y-10814077D02*
X12301877Y-10854077D01*
X12301877Y-10814077D02*
X12261877Y-10854077D01*
X12336123Y-10888323D02*
X12376123Y-10928323D01*
X12376123Y-10888323D02*
X12336123Y-10928323D01*
X12349800Y-10546400D02*
X12389800Y-10586400D01*
X12389800Y-10546400D02*
X12349800Y-10586400D01*
X12349800Y-11765600D02*
X12389800Y-11805600D01*
X12389800Y-11765600D02*
X12349800Y-11805600D01*
X12553000Y-13975400D02*
X12593000Y-14015400D01*
X12593000Y-13975400D02*
X12553000Y-14015400D01*
X12578400Y-13035600D02*
X12618400Y-13075600D01*
X12618400Y-13035600D02*
X12578400Y-13075600D01*
X12578400Y-14585000D02*
X12618400Y-14625000D01*
X12618400Y-14585000D02*
X12578400Y-14625000D01*
X12579650Y-12830202D02*
X12619650Y-12870202D01*
X12619650Y-12830202D02*
X12579650Y-12870202D01*
X12654600Y-11537000D02*
X12694600Y-11577000D01*
X12694600Y-11537000D02*
X12654600Y-11577000D01*
X12654600Y-11714800D02*
X12694600Y-11754800D01*
X12694600Y-11714800D02*
X12654600Y-11754800D01*
X12984800Y-11130600D02*
X13024800Y-11170600D01*
X13024800Y-11130600D02*
X12984800Y-11170600D01*
X13061000Y-11232200D02*
X13101000Y-11272200D01*
X13101000Y-11232200D02*
X13061000Y-11272200D01*
X13137200Y-11333800D02*
X13177200Y-11373800D01*
X13177200Y-11333800D02*
X13137200Y-11373800D01*
X13467400Y-8819200D02*
X13507400Y-8859200D01*
X13507400Y-8819200D02*
X13467400Y-8859200D01*
X13518200Y-8184200D02*
X13558200Y-8224200D01*
X13558200Y-8184200D02*
X13518200Y-8224200D01*
X13518200Y-8616000D02*
X13558200Y-8656000D01*
X13558200Y-8616000D02*
X13518200Y-8656000D01*
X13569000Y-12146600D02*
X13609000Y-12186600D01*
X13609000Y-12146600D02*
X13569000Y-12186600D01*
X13619800Y-8870000D02*
X13659800Y-8910000D01*
X13659800Y-8870000D02*
X13619800Y-8910000D01*
X13645200Y-8184200D02*
X13685200Y-8224200D01*
X13685200Y-8184200D02*
X13645200Y-8224200D01*
X13721400Y-8666800D02*
X13761400Y-8706800D01*
X13761400Y-8666800D02*
X13721400Y-8706800D01*
X13721400Y-8920800D02*
X13761400Y-8960800D01*
X13761400Y-8920800D02*
X13721400Y-8960800D01*
X13848400Y-14508800D02*
X13888400Y-14548800D01*
X13888400Y-14508800D02*
X13848400Y-14548800D01*
X15524800Y-10876600D02*
X15564800Y-10916600D01*
X15564800Y-10876600D02*
X15524800Y-10916600D01*
X15550200Y-12807000D02*
X15590200Y-12847000D01*
X15590200Y-12807000D02*
X15550200Y-12847000D01*
X15575600Y-13289600D02*
X15615600Y-13329600D01*
X15615600Y-13289600D02*
X15575600Y-13329600D01*
X15626400Y-9428800D02*
X15666400Y-9468800D01*
X15666400Y-9428800D02*
X15626400Y-9468800D01*
X15677200Y-11892600D02*
X15717200Y-11932600D01*
X15717200Y-11892600D02*
X15677200Y-11932600D01*
X15804200Y-14102400D02*
X15844200Y-14142400D01*
X15844200Y-14102400D02*
X15804200Y-14142400D01*
X15855000Y-10978200D02*
X15895000Y-11018200D01*
X15895000Y-10978200D02*
X15855000Y-11018200D01*
X15855000Y-11918000D02*
X15895000Y-11958000D01*
X15895000Y-11918000D02*
X15855000Y-11958000D01*
X16007400Y-10190800D02*
X16047400Y-10230800D01*
X16047400Y-10190800D02*
X16007400Y-10230800D01*
X16210600Y-10165400D02*
X16250600Y-10205400D01*
X16250600Y-10165400D02*
X16210600Y-10205400D01*
X16515400Y-12121200D02*
X16555400Y-12161200D01*
X16555400Y-12121200D02*
X16515400Y-12161200D01*
X16820200Y-11206800D02*
X16860200Y-11246800D01*
X16860200Y-11206800D02*
X16820200Y-11246800D01*
X16820200Y-13467400D02*
X16860200Y-13507400D01*
X16860200Y-13467400D02*
X16820200Y-13507400D01*
X16921800Y-10698800D02*
X16961800Y-10738800D01*
X16961800Y-10698800D02*
X16921800Y-10738800D01*
X16947200Y-13086400D02*
X16987200Y-13126400D01*
X16987200Y-13086400D02*
X16947200Y-13126400D01*
X16998000Y-12857800D02*
X17038000Y-12897800D01*
X17038000Y-12857800D02*
X16998000Y-12897800D01*
X17023400Y-11765600D02*
X17063400Y-11805600D01*
X17063400Y-11765600D02*
X17023400Y-11805600D01*
X17048800Y-10978200D02*
X17088800Y-11018200D01*
X17088800Y-10978200D02*
X17048800Y-11018200D01*
X17074200Y-13467400D02*
X17114200Y-13507400D01*
X17114200Y-13467400D02*
X17074200Y-13507400D01*
X17175800Y-12984800D02*
X17215800Y-13024800D01*
X17215800Y-12984800D02*
X17175800Y-13024800D01*
X17201200Y-12680000D02*
X17241200Y-12720000D01*
X17241200Y-12680000D02*
X17201200Y-12720000D01*
X17277400Y-10343200D02*
X17317400Y-10383200D01*
X17317400Y-10343200D02*
X17277400Y-10383200D01*
X17302800Y-7955600D02*
X17342800Y-7995600D01*
X17342800Y-7955600D02*
X17302800Y-7995600D01*
X17455200Y-12680000D02*
X17495200Y-12720000D01*
X17495200Y-12680000D02*
X17455200Y-12720000D01*
X17506000Y-13975400D02*
X17546000Y-14015400D01*
X17546000Y-13975400D02*
X17506000Y-14015400D01*
X17506000Y-14204000D02*
X17546000Y-14244000D01*
X17546000Y-14204000D02*
X17506000Y-14244000D01*
X17607600Y-11892600D02*
X17647600Y-11932600D01*
X17647600Y-11892600D02*
X17607600Y-11932600D01*
X17709200Y-7955600D02*
X17749200Y-7995600D01*
X17749200Y-7955600D02*
X17709200Y-7995600D01*
X17709200Y-11892600D02*
X17749200Y-11932600D01*
X17749200Y-11892600D02*
X17709200Y-11932600D01*
X17887000Y-14000800D02*
X17927000Y-14040800D01*
X17927000Y-14000800D02*
X17887000Y-14040800D01*
X17887000Y-14508800D02*
X17927000Y-14548800D01*
X17927000Y-14508800D02*
X17887000Y-14548800D01*
X18141000Y-7955600D02*
X18181000Y-7995600D01*
X18181000Y-7955600D02*
X18141000Y-7995600D01*
X18547400Y-10546400D02*
X18587400Y-10586400D01*
X18587400Y-10546400D02*
X18547400Y-10586400D01*
X18651198Y-10675598D02*
X18691198Y-10715598D01*
X18691198Y-10675598D02*
X18651198Y-10715598D01*
D13*
X10477500Y-7391400D02*
G75*
G03*
X10477500Y-7391400I-38100J0D01*
G01*
X10477500Y-9931400D02*
G75*
G03*
X10477500Y-9931400I-38100J0D01*
G01*
X10731500Y-7391400D02*
G75*
G03*
X10731500Y-7391400I-38100J0D01*
G01*
X10731500Y-9931400D02*
G75*
G03*
X10731500Y-9931400I-38100J0D01*
G01*
X10985500Y-7391400D02*
G75*
G03*
X10985500Y-7391400I-38100J0D01*
G01*
X10985500Y-9931400D02*
G75*
G03*
X10985500Y-9931400I-38100J0D01*
G01*
X11239500Y-7391400D02*
G75*
G03*
X11239500Y-7391400I-38100J0D01*
G01*
X11239500Y-9931400D02*
G75*
G03*
X11239500Y-9931400I-38100J0D01*
G01*
X11493500Y-7391400D02*
G75*
G03*
X11493500Y-7391400I-38100J0D01*
G01*
X11493500Y-9931400D02*
G75*
G03*
X11493500Y-9931400I-38100J0D01*
G01*
X11747500Y-9931400D02*
G75*
G03*
X11747500Y-9931400I-38100J0D01*
G01*
X12001500Y-9931400D02*
G75*
G03*
X12001500Y-9931400I-38100J0D01*
G01*
X12255500Y-9931400D02*
G75*
G03*
X12255500Y-9931400I-38100J0D01*
G01*
X12509500Y-9931400D02*
G75*
G03*
X12509500Y-9931400I-38100J0D01*
G01*
X13154000Y-5222900D02*
G75*
G03*
X13154000Y-5222900I-38100J0D01*
G01*
X13154000Y-5476900D02*
G75*
G03*
X13154000Y-5476900I-38100J0D01*
G01*
X13154000Y-5730900D02*
G75*
G03*
X13154000Y-5730900I-38100J0D01*
G01*
X13154000Y-5984900D02*
G75*
G03*
X13154000Y-5984900I-38100J0D01*
G01*
X13154000Y-6238900D02*
G75*
G03*
X13154000Y-6238900I-38100J0D01*
G01*
X13154000Y-6492900D02*
G75*
G03*
X13154000Y-6492900I-38100J0D01*
G01*
X13154000Y-6746900D02*
G75*
G03*
X13154000Y-6746900I-38100J0D01*
G01*
X13154000Y-7000900D02*
G75*
G03*
X13154000Y-7000900I-38100J0D01*
G01*
X13154000Y-7254900D02*
G75*
G03*
X13154000Y-7254900I-38100J0D01*
G01*
X13154000Y-7508900D02*
G75*
G03*
X13154000Y-7508900I-38100J0D01*
G01*
X13154000Y-7762900D02*
G75*
G03*
X13154000Y-7762900I-38100J0D01*
G01*
X13154000Y-8016900D02*
G75*
G03*
X13154000Y-8016900I-38100J0D01*
G01*
X13154000Y-8270900D02*
G75*
G03*
X13154000Y-8270900I-38100J0D01*
G01*
X16456000Y-5222900D02*
G75*
G03*
X16456000Y-5222900I-38100J0D01*
G01*
X16456000Y-5476900D02*
G75*
G03*
X16456000Y-5476900I-38100J0D01*
G01*
X16456000Y-5730900D02*
G75*
G03*
X16456000Y-5730900I-38100J0D01*
G01*
X16456000Y-5984900D02*
G75*
G03*
X16456000Y-5984900I-38100J0D01*
G01*
X16456000Y-6238900D02*
G75*
G03*
X16456000Y-6238900I-38100J0D01*
G01*
X16456000Y-6492900D02*
G75*
G03*
X16456000Y-6492900I-38100J0D01*
G01*
X16456000Y-6746900D02*
G75*
G03*
X16456000Y-6746900I-38100J0D01*
G01*
X16456000Y-7000900D02*
G75*
G03*
X16456000Y-7000900I-38100J0D01*
G01*
X16456000Y-7254900D02*
G75*
G03*
X16456000Y-7254900I-38100J0D01*
G01*
X16456000Y-7508900D02*
G75*
G03*
X16456000Y-7508900I-38100J0D01*
G01*
X16456000Y-7762900D02*
G75*
G03*
X16456000Y-7762900I-38100J0D01*
G01*
X16456000Y-8016900D02*
G75*
G03*
X16456000Y-8016900I-38100J0D01*
G01*
X16456000Y-8270900D02*
G75*
G03*
X16456000Y-8270900I-38100J0D01*
G01*
D14*
X8892150Y-11744100D02*
X8892150Y-11824100D01*
X8852150Y-11784100D02*
X8932150Y-11784100D01*
X8892150Y-11998100D02*
X8892150Y-12078100D01*
X8852150Y-12038100D02*
X8932150Y-12038100D01*
X8892150Y-12252100D02*
X8892150Y-12332100D01*
X8852150Y-12292100D02*
X8932150Y-12292100D01*
X8892150Y-12506100D02*
X8892150Y-12586100D01*
X8852150Y-12546100D02*
X8932150Y-12546100D01*
X8892150Y-12760100D02*
X8892150Y-12840100D01*
X8852150Y-12800100D02*
X8932150Y-12800100D01*
X8892150Y-13014100D02*
X8892150Y-13094100D01*
X8852150Y-13054100D02*
X8932150Y-13054100D01*
X8892150Y-13268100D02*
X8892150Y-13348100D01*
X8852150Y-13308100D02*
X8932150Y-13308100D01*
X8892150Y-13522100D02*
X8892150Y-13602100D01*
X8852150Y-13562100D02*
X8932150Y-13562100D01*
X9654150Y-11744100D02*
X9654150Y-11824100D01*
X9614150Y-11784100D02*
X9694150Y-11784100D01*
X9654150Y-11998100D02*
X9654150Y-12078100D01*
X9614150Y-12038100D02*
X9694150Y-12038100D01*
X9654150Y-12252100D02*
X9654150Y-12332100D01*
X9614150Y-12292100D02*
X9694150Y-12292100D01*
X9654150Y-12506100D02*
X9654150Y-12586100D01*
X9614150Y-12546100D02*
X9694150Y-12546100D01*
X9654150Y-12760100D02*
X9654150Y-12840100D01*
X9614150Y-12800100D02*
X9694150Y-12800100D01*
X9654150Y-13014100D02*
X9654150Y-13094100D01*
X9614150Y-13054100D02*
X9694150Y-13054100D01*
X9654150Y-13268100D02*
X9654150Y-13348100D01*
X9614150Y-13308100D02*
X9694150Y-13308100D01*
X9654150Y-13522100D02*
X9654150Y-13602100D01*
X9614150Y-13562100D02*
X9694150Y-13562100D01*
X10311900Y-12786000D02*
X10311900Y-12866000D01*
X10271900Y-12826000D02*
X10351900Y-12826000D01*
X10311900Y-13548000D02*
X10311900Y-13628000D01*
X10271900Y-13588000D02*
X10351900Y-13588000D01*
X10565900Y-12786000D02*
X10565900Y-12866000D01*
X10525900Y-12826000D02*
X10605900Y-12826000D01*
X10565900Y-13548000D02*
X10565900Y-13628000D01*
X10525900Y-13588000D02*
X10605900Y-13588000D01*
X10819900Y-12786000D02*
X10819900Y-12866000D01*
X10779900Y-12826000D02*
X10859900Y-12826000D01*
X10819900Y-13548000D02*
X10819900Y-13628000D01*
X10779900Y-13588000D02*
X10859900Y-13588000D01*
X11073900Y-12786000D02*
X11073900Y-12866000D01*
X11033900Y-12826000D02*
X11113900Y-12826000D01*
X11073900Y-13548000D02*
X11073900Y-13628000D01*
X11033900Y-13588000D02*
X11113900Y-13588000D01*
X11327900Y-12786000D02*
X11327900Y-12866000D01*
X11287900Y-12826000D02*
X11367900Y-12826000D01*
X11327900Y-13548000D02*
X11327900Y-13628000D01*
X11287900Y-13588000D02*
X11367900Y-13588000D01*
X11581900Y-12786000D02*
X11581900Y-12866000D01*
X11541900Y-12826000D02*
X11621900Y-12826000D01*
X11581900Y-13548000D02*
X11581900Y-13628000D01*
X11541900Y-13588000D02*
X11621900Y-13588000D01*
X11835900Y-12786000D02*
X11835900Y-12866000D01*
X11795900Y-12826000D02*
X11875900Y-12826000D01*
X11835900Y-13548000D02*
X11835900Y-13628000D01*
X11795900Y-13588000D02*
X11875900Y-13588000D01*
X15825700Y-12481200D02*
X15825700Y-12561200D01*
X15785700Y-12521200D02*
X15865700Y-12521200D01*
X15825700Y-13243200D02*
X15825700Y-13323200D01*
X15785700Y-13283200D02*
X15865700Y-13283200D01*
X15825700Y-13725800D02*
X15825700Y-13805800D01*
X15785700Y-13765800D02*
X15865700Y-13765800D01*
X15825700Y-14487800D02*
X15825700Y-14567800D01*
X15785700Y-14527800D02*
X15865700Y-14527800D01*
X16003000Y-10779400D02*
X16003000Y-10859400D01*
X15963000Y-10819400D02*
X16043000Y-10819400D01*
X16003000Y-11541400D02*
X16003000Y-11621400D01*
X15963000Y-11581400D02*
X16043000Y-11581400D01*
X16079700Y-12481200D02*
X16079700Y-12561200D01*
X16039700Y-12521200D02*
X16119700Y-12521200D01*
X16079700Y-13243200D02*
X16079700Y-13323200D01*
X16039700Y-13283200D02*
X16119700Y-13283200D01*
X16079700Y-13725800D02*
X16079700Y-13805800D01*
X16039700Y-13765800D02*
X16119700Y-13765800D01*
X16079700Y-14487800D02*
X16079700Y-14567800D01*
X16039700Y-14527800D02*
X16119700Y-14527800D01*
X16257000Y-10779400D02*
X16257000Y-10859400D01*
X16217000Y-10819400D02*
X16297000Y-10819400D01*
X16257000Y-11541400D02*
X16257000Y-11621400D01*
X16217000Y-11581400D02*
X16297000Y-11581400D01*
X16333700Y-12481200D02*
X16333700Y-12561200D01*
X16293700Y-12521200D02*
X16373700Y-12521200D01*
X16333700Y-13243200D02*
X16333700Y-13323200D01*
X16293700Y-13283200D02*
X16373700Y-13283200D01*
X16333700Y-13725800D02*
X16333700Y-13805800D01*
X16293700Y-13765800D02*
X16373700Y-13765800D01*
X16333700Y-14487800D02*
X16333700Y-14567800D01*
X16293700Y-14527800D02*
X16373700Y-14527800D01*
X16511000Y-10779400D02*
X16511000Y-10859400D01*
X16471000Y-10819400D02*
X16551000Y-10819400D01*
X16511000Y-11541400D02*
X16511000Y-11621400D01*
X16471000Y-11581400D02*
X16551000Y-11581400D01*
X16587700Y-12481200D02*
X16587700Y-12561200D01*
X16547700Y-12521200D02*
X16627700Y-12521200D01*
X16587700Y-13243200D02*
X16587700Y-13323200D01*
X16547700Y-13283200D02*
X16627700Y-13283200D01*
X16587700Y-13725800D02*
X16587700Y-13805800D01*
X16547700Y-13765800D02*
X16627700Y-13765800D01*
X16587700Y-14487800D02*
X16587700Y-14567800D01*
X16547700Y-14527800D02*
X16627700Y-14527800D01*
X16765000Y-10779400D02*
X16765000Y-10859400D01*
X16725000Y-10819400D02*
X16805000Y-10819400D01*
X16765000Y-11541400D02*
X16765000Y-11621400D01*
X16725000Y-11581400D02*
X16805000Y-11581400D01*
X16841700Y-12481200D02*
X16841700Y-12561200D01*
X16801700Y-12521200D02*
X16881700Y-12521200D01*
X16841700Y-13243200D02*
X16841700Y-13323200D01*
X16801700Y-13283200D02*
X16881700Y-13283200D01*
X16841700Y-13725800D02*
X16841700Y-13805800D01*
X16801700Y-13765800D02*
X16881700Y-13765800D01*
X16841700Y-14487800D02*
X16841700Y-14567800D01*
X16801700Y-14527800D02*
X16881700Y-14527800D01*
X17095700Y-12481200D02*
X17095700Y-12561200D01*
X17055700Y-12521200D02*
X17135700Y-12521200D01*
X17095700Y-13243200D02*
X17095700Y-13323200D01*
X17055700Y-13283200D02*
X17135700Y-13283200D01*
X17095700Y-13725800D02*
X17095700Y-13805800D01*
X17055700Y-13765800D02*
X17135700Y-13765800D01*
X17095700Y-14487800D02*
X17095700Y-14567800D01*
X17055700Y-14527800D02*
X17135700Y-14527800D01*
X17349700Y-12481200D02*
X17349700Y-12561200D01*
X17309700Y-12521200D02*
X17389700Y-12521200D01*
X17349700Y-13243200D02*
X17349700Y-13323200D01*
X17309700Y-13283200D02*
X17389700Y-13283200D01*
X17349700Y-13725800D02*
X17349700Y-13805800D01*
X17309700Y-13765800D02*
X17389700Y-13765800D01*
X17349700Y-14487800D02*
X17349700Y-14567800D01*
X17309700Y-14527800D02*
X17389700Y-14527800D01*
X17603700Y-12481200D02*
X17603700Y-12561200D01*
X17563700Y-12521200D02*
X17643700Y-12521200D01*
X17603700Y-13243200D02*
X17603700Y-13323200D01*
X17563700Y-13283200D02*
X17643700Y-13283200D01*
X17603700Y-13725800D02*
X17603700Y-13805800D01*
X17563700Y-13765800D02*
X17643700Y-13765800D01*
X17603700Y-14487800D02*
X17603700Y-14567800D01*
X17563700Y-14527800D02*
X17643700Y-14527800D01*
D15*
X9150420Y-7524320D02*
X9150420Y-7460680D01*
X9086780Y-7460680D01*
X9086780Y-7524320D01*
X9150420Y-7524320D01*
X9150420Y-7778320D02*
X9150420Y-7714680D01*
X9086780Y-7714680D01*
X9086780Y-7778320D01*
X9150420Y-7778320D01*
X9150420Y-8591620D02*
X9150420Y-8527980D01*
X9086780Y-8527980D01*
X9086780Y-8591620D01*
X9150420Y-8591620D01*
X9150420Y-8845620D02*
X9150420Y-8781980D01*
X9086780Y-8781980D01*
X9086780Y-8845620D01*
X9150420Y-8845620D01*
X9320220Y-10598220D02*
X9320220Y-10534580D01*
X9256580Y-10534580D01*
X9256580Y-10598220D01*
X9320220Y-10598220D01*
X9574220Y-10598220D02*
X9574220Y-10534580D01*
X9510580Y-10534580D01*
X9510580Y-10598220D01*
X9574220Y-10598220D01*
X10623620Y-12046020D02*
X10623620Y-11982380D01*
X10559980Y-11982380D01*
X10559980Y-12046020D01*
X10623620Y-12046020D01*
X10623620Y-12300020D02*
X10623620Y-12236380D01*
X10559980Y-12236380D01*
X10559980Y-12300020D01*
X10623620Y-12300020D01*
X10699820Y-5163120D02*
X10699820Y-5099480D01*
X10636180Y-5099480D01*
X10636180Y-5163120D01*
X10699820Y-5163120D01*
X10699820Y-5417120D02*
X10699820Y-5353480D01*
X10636180Y-5353480D01*
X10636180Y-5417120D01*
X10699820Y-5417120D01*
X10699820Y-5950520D02*
X10699820Y-5886880D01*
X10636180Y-5886880D01*
X10636180Y-5950520D01*
X10699820Y-5950520D01*
X10699820Y-6204520D02*
X10699820Y-6140880D01*
X10636180Y-6140880D01*
X10636180Y-6204520D01*
X10699820Y-6204520D01*
X10699820Y-6737420D02*
X10699820Y-6673780D01*
X10636180Y-6673780D01*
X10636180Y-6737420D01*
X10699820Y-6737420D01*
X10699820Y-6991420D02*
X10699820Y-6927780D01*
X10636180Y-6927780D01*
X10636180Y-6991420D01*
X10699820Y-6991420D01*
X12071420Y-14334020D02*
X12071420Y-14270380D01*
X12007780Y-14270380D01*
X12007780Y-14334020D01*
X12071420Y-14334020D01*
X12071420Y-14588020D02*
X12071420Y-14524380D01*
X12007780Y-14524380D01*
X12007780Y-14588020D01*
X12071420Y-14588020D01*
X15373420Y-10318820D02*
X15373420Y-10255180D01*
X15309780Y-10255180D01*
X15309780Y-10318820D01*
X15373420Y-10318820D01*
X15627420Y-10318820D02*
X15627420Y-10255180D01*
X15563780Y-10255180D01*
X15563780Y-10318820D01*
X15627420Y-10318820D01*
X17177320Y-9963220D02*
X17177320Y-9899580D01*
X17113680Y-9899580D01*
X17113680Y-9963220D01*
X17177320Y-9963220D01*
X17228120Y-11284020D02*
X17228120Y-11220380D01*
X17164480Y-11220380D01*
X17164480Y-11284020D01*
X17228120Y-11284020D01*
X17228120Y-12071420D02*
X17228120Y-12007780D01*
X17164480Y-12007780D01*
X17164480Y-12071420D01*
X17228120Y-12071420D01*
X17431320Y-9963220D02*
X17431320Y-9899580D01*
X17367680Y-9899580D01*
X17367680Y-9963220D01*
X17431320Y-9963220D01*
X17482120Y-11284020D02*
X17482120Y-11220380D01*
X17418480Y-11220380D01*
X17418480Y-11284020D01*
X17482120Y-11284020D01*
X17482120Y-12071420D02*
X17482120Y-12007780D01*
X17418480Y-12007780D01*
X17418480Y-12071420D01*
X17482120Y-12071420D01*
X18142020Y-11461820D02*
X18142020Y-11398180D01*
X18078380Y-11398180D01*
X18078380Y-11461820D01*
X18142020Y-11461820D01*
X18146020Y-10369620D02*
X18146020Y-10305980D01*
X18082380Y-10305980D01*
X18082380Y-10369620D01*
X18146020Y-10369620D01*
X18396020Y-11461820D02*
X18396020Y-11398180D01*
X18332380Y-11398180D01*
X18332380Y-11461820D01*
X18396020Y-11461820D01*
X18400020Y-10369620D02*
X18400020Y-10305980D01*
X18336380Y-10305980D01*
X18336380Y-10369620D01*
X18400020Y-10369620D01*
D16*
X10771600Y-10921650D02*
X10817600Y-10875650D01*
X10771600Y-10829650D01*
X10725600Y-10875650D01*
X10771600Y-10921650D01*
X10771600Y-11241650D02*
X10817600Y-11195650D01*
X10771600Y-11149650D01*
X10725600Y-11195650D01*
X10771600Y-11241650D01*
X11021600Y-10921650D02*
X11067600Y-10875650D01*
X11021600Y-10829650D01*
X10975600Y-10875650D01*
X11021600Y-10921650D01*
X11021600Y-11241650D02*
X11067600Y-11195650D01*
X11021600Y-11149650D01*
X10975600Y-11195650D01*
X11021600Y-11241650D01*
D10*
X12243600Y-12396000D02*
X12343600Y-12496000D01*
X12343600Y-12396000D02*
X12243600Y-12496000D01*
X12343600Y-12446000D02*
G75*
G03*
X12343600Y-12446000I-50000J0D01*
G01*
X12243600Y-12650000D02*
X12343600Y-12750000D01*
X12343600Y-12650000D02*
X12243600Y-12750000D01*
X12343600Y-12700000D02*
G75*
G03*
X12343600Y-12700000I-50000J0D01*
G01*
X12243600Y-12904000D02*
X12343600Y-13004000D01*
X12343600Y-12904000D02*
X12243600Y-13004000D01*
X12343600Y-12954000D02*
G75*
G03*
X12343600Y-12954000I-50000J0D01*
G01*
X12243600Y-13158000D02*
X12343600Y-13258000D01*
X12343600Y-13158000D02*
X12243600Y-13258000D01*
X12343600Y-13208000D02*
G75*
G03*
X12343600Y-13208000I-50000J0D01*
G01*
X12548400Y-14174000D02*
X12648400Y-14274000D01*
X12648400Y-14174000D02*
X12548400Y-14274000D01*
X12648400Y-14224000D02*
G75*
G03*
X12648400Y-14224000I-50000J0D01*
G01*
X12802400Y-11126000D02*
X12902400Y-11226000D01*
X12902400Y-11126000D02*
X12802400Y-11226000D01*
X12902400Y-11176000D02*
G75*
G03*
X12902400Y-11176000I-50000J0D01*
G01*
X12802400Y-11380000D02*
X12902400Y-11480000D01*
X12902400Y-11380000D02*
X12802400Y-11480000D01*
X12902400Y-11430000D02*
G75*
G03*
X12902400Y-11430000I-50000J0D01*
G01*
X12802400Y-11634000D02*
X12902400Y-11734000D01*
X12902400Y-11634000D02*
X12802400Y-11734000D01*
X12902400Y-11684000D02*
G75*
G03*
X12902400Y-11684000I-50000J0D01*
G01*
X12802400Y-11888000D02*
X12902400Y-11988000D01*
X12902400Y-11888000D02*
X12802400Y-11988000D01*
X12902400Y-11938000D02*
G75*
G03*
X12902400Y-11938000I-50000J0D01*
G01*
X12802400Y-12142000D02*
X12902400Y-12242000D01*
X12902400Y-12142000D02*
X12802400Y-12242000D01*
X12902400Y-12192000D02*
G75*
G03*
X12902400Y-12192000I-50000J0D01*
G01*
X12802400Y-12396000D02*
X12902400Y-12496000D01*
X12902400Y-12396000D02*
X12802400Y-12496000D01*
X12902400Y-12446000D02*
G75*
G03*
X12902400Y-12446000I-50000J0D01*
G01*
X12802400Y-12650000D02*
X12902400Y-12750000D01*
X12902400Y-12650000D02*
X12802400Y-12750000D01*
X12902400Y-12700000D02*
G75*
G03*
X12902400Y-12700000I-50000J0D01*
G01*
X12802400Y-12904000D02*
X12902400Y-13004000D01*
X12902400Y-12904000D02*
X12802400Y-13004000D01*
X12902400Y-12954000D02*
G75*
G03*
X12902400Y-12954000I-50000J0D01*
G01*
X12802400Y-13158000D02*
X12902400Y-13258000D01*
X12902400Y-13158000D02*
X12802400Y-13258000D01*
X12902400Y-13208000D02*
G75*
G03*
X12902400Y-13208000I-50000J0D01*
G01*
X12802400Y-13412000D02*
X12902400Y-13512000D01*
X12902400Y-13412000D02*
X12802400Y-13512000D01*
X12902400Y-13462000D02*
G75*
G03*
X12902400Y-13462000I-50000J0D01*
G01*
X12802400Y-13666000D02*
X12902400Y-13766000D01*
X12902400Y-13666000D02*
X12802400Y-13766000D01*
X12902400Y-13716000D02*
G75*
G03*
X12902400Y-13716000I-50000J0D01*
G01*
X12802400Y-13920000D02*
X12902400Y-14020000D01*
X12902400Y-13920000D02*
X12802400Y-14020000D01*
X12902400Y-13970000D02*
G75*
G03*
X12902400Y-13970000I-50000J0D01*
G01*
X12802400Y-14174000D02*
X12902400Y-14274000D01*
X12902400Y-14174000D02*
X12802400Y-14274000D01*
X12902400Y-14224000D02*
G75*
G03*
X12902400Y-14224000I-50000J0D01*
G01*
X12802400Y-14428000D02*
X12902400Y-14528000D01*
X12902400Y-14428000D02*
X12802400Y-14528000D01*
X12902400Y-14478000D02*
G75*
G03*
X12902400Y-14478000I-50000J0D01*
G01*
X13563900Y-10618000D02*
X13663900Y-10718000D01*
X13663900Y-10618000D02*
X13563900Y-10718000D01*
X13663900Y-10668000D02*
G75*
G03*
X13663900Y-10668000I-50000J0D01*
G01*
X13817900Y-10618000D02*
X13917900Y-10718000D01*
X13917900Y-10618000D02*
X13817900Y-10718000D01*
X13917900Y-10668000D02*
G75*
G03*
X13917900Y-10668000I-50000J0D01*
G01*
X14071900Y-10618000D02*
X14171900Y-10718000D01*
X14171900Y-10618000D02*
X14071900Y-10718000D01*
X14171900Y-10668000D02*
G75*
G03*
X14171900Y-10668000I-50000J0D01*
G01*
X14325900Y-10618000D02*
X14425900Y-10718000D01*
X14425900Y-10618000D02*
X14325900Y-10718000D01*
X14425900Y-10668000D02*
G75*
G03*
X14425900Y-10668000I-50000J0D01*
G01*
X14579900Y-10618000D02*
X14679900Y-10718000D01*
X14679900Y-10618000D02*
X14579900Y-10718000D01*
X14679900Y-10668000D02*
G75*
G03*
X14679900Y-10668000I-50000J0D01*
G01*
X15342400Y-11125000D02*
X15442400Y-11225000D01*
X15442400Y-11125000D02*
X15342400Y-11225000D01*
X15442400Y-11175000D02*
G75*
G03*
X15442400Y-11175000I-50000J0D01*
G01*
X15342400Y-11379000D02*
X15442400Y-11479000D01*
X15442400Y-11379000D02*
X15342400Y-11479000D01*
X15442400Y-11429000D02*
G75*
G03*
X15442400Y-11429000I-50000J0D01*
G01*
X15342400Y-11633000D02*
X15442400Y-11733000D01*
X15442400Y-11633000D02*
X15342400Y-11733000D01*
X15442400Y-11683000D02*
G75*
G03*
X15442400Y-11683000I-50000J0D01*
G01*
X15342400Y-11887000D02*
X15442400Y-11987000D01*
X15442400Y-11887000D02*
X15342400Y-11987000D01*
X15442400Y-11937000D02*
G75*
G03*
X15442400Y-11937000I-50000J0D01*
G01*
X15342400Y-12141000D02*
X15442400Y-12241000D01*
X15442400Y-12141000D02*
X15342400Y-12241000D01*
X15442400Y-12191000D02*
G75*
G03*
X15442400Y-12191000I-50000J0D01*
G01*
X15342400Y-12395000D02*
X15442400Y-12495000D01*
X15442400Y-12395000D02*
X15342400Y-12495000D01*
X15442400Y-12445000D02*
G75*
G03*
X15442400Y-12445000I-50000J0D01*
G01*
X15342400Y-12649000D02*
X15442400Y-12749000D01*
X15442400Y-12649000D02*
X15342400Y-12749000D01*
X15442400Y-12699000D02*
G75*
G03*
X15442400Y-12699000I-50000J0D01*
G01*
X15342400Y-12903000D02*
X15442400Y-13003000D01*
X15442400Y-12903000D02*
X15342400Y-13003000D01*
X15442400Y-12953000D02*
G75*
G03*
X15442400Y-12953000I-50000J0D01*
G01*
X15342400Y-13157000D02*
X15442400Y-13257000D01*
X15442400Y-13157000D02*
X15342400Y-13257000D01*
X15442400Y-13207000D02*
G75*
G03*
X15442400Y-13207000I-50000J0D01*
G01*
X15342400Y-13411000D02*
X15442400Y-13511000D01*
X15442400Y-13411000D02*
X15342400Y-13511000D01*
X15442400Y-13461000D02*
G75*
G03*
X15442400Y-13461000I-50000J0D01*
G01*
X15342400Y-13665000D02*
X15442400Y-13765000D01*
X15442400Y-13665000D02*
X15342400Y-13765000D01*
X15442400Y-13715000D02*
G75*
G03*
X15442400Y-13715000I-50000J0D01*
G01*
X15342400Y-13919000D02*
X15442400Y-14019000D01*
X15442400Y-13919000D02*
X15342400Y-14019000D01*
X15442400Y-13969000D02*
G75*
G03*
X15442400Y-13969000I-50000J0D01*
G01*
X15342400Y-14173000D02*
X15442400Y-14273000D01*
X15442400Y-14173000D02*
X15342400Y-14273000D01*
X15442400Y-14223000D02*
G75*
G03*
X15442400Y-14223000I-50000J0D01*
G01*
X15342400Y-14427000D02*
X15442400Y-14527000D01*
X15442400Y-14427000D02*
X15342400Y-14527000D01*
X15442400Y-14477000D02*
G75*
G03*
X15442400Y-14477000I-50000J0D01*
G01*
X17931700Y-11888000D02*
X18031700Y-11988000D01*
X18031700Y-11888000D02*
X17931700Y-11988000D01*
X18031700Y-11938000D02*
G75*
G03*
X18031700Y-11938000I-50000J0D01*
G01*
X17931700Y-12142000D02*
X18031700Y-12242000D01*
X18031700Y-12142000D02*
X17931700Y-12242000D01*
X18031700Y-12192000D02*
G75*
G03*
X18031700Y-12192000I-50000J0D01*
G01*
X17931700Y-12396000D02*
X18031700Y-12496000D01*
X18031700Y-12396000D02*
X17931700Y-12496000D01*
X18031700Y-12446000D02*
G75*
G03*
X18031700Y-12446000I-50000J0D01*
G01*
X17931700Y-12650000D02*
X18031700Y-12750000D01*
X18031700Y-12650000D02*
X17931700Y-12750000D01*
X18031700Y-12700000D02*
G75*
G03*
X18031700Y-12700000I-50000J0D01*
G01*
X17931700Y-12904000D02*
X18031700Y-13004000D01*
X18031700Y-12904000D02*
X17931700Y-13004000D01*
X18031700Y-12954000D02*
G75*
G03*
X18031700Y-12954000I-50000J0D01*
G01*
X17931700Y-13158000D02*
X18031700Y-13258000D01*
X18031700Y-13158000D02*
X17931700Y-13258000D01*
X18031700Y-13208000D02*
G75*
G03*
X18031700Y-13208000I-50000J0D01*
G01*
X17931700Y-13412000D02*
X18031700Y-13512000D01*
X18031700Y-13412000D02*
X17931700Y-13512000D01*
X18031700Y-13462000D02*
G75*
G03*
X18031700Y-13462000I-50000J0D01*
G01*
X17931700Y-13666000D02*
X18031700Y-13766000D01*
X18031700Y-13666000D02*
X17931700Y-13766000D01*
X18031700Y-13716000D02*
G75*
G03*
X18031700Y-13716000I-50000J0D01*
G01*
X18185700Y-11888000D02*
X18285700Y-11988000D01*
X18285700Y-11888000D02*
X18185700Y-11988000D01*
X18285700Y-11938000D02*
G75*
G03*
X18285700Y-11938000I-50000J0D01*
G01*
X18185700Y-12142000D02*
X18285700Y-12242000D01*
X18285700Y-12142000D02*
X18185700Y-12242000D01*
X18285700Y-12192000D02*
G75*
G03*
X18285700Y-12192000I-50000J0D01*
G01*
X18185700Y-12396000D02*
X18285700Y-12496000D01*
X18285700Y-12396000D02*
X18185700Y-12496000D01*
X18285700Y-12446000D02*
G75*
G03*
X18285700Y-12446000I-50000J0D01*
G01*
X18185700Y-12650000D02*
X18285700Y-12750000D01*
X18285700Y-12650000D02*
X18185700Y-12750000D01*
X18285700Y-12700000D02*
G75*
G03*
X18285700Y-12700000I-50000J0D01*
G01*
X18185700Y-12904000D02*
X18285700Y-13004000D01*
X18285700Y-12904000D02*
X18185700Y-13004000D01*
X18285700Y-12954000D02*
G75*
G03*
X18285700Y-12954000I-50000J0D01*
G01*
X18185700Y-13158000D02*
X18285700Y-13258000D01*
X18285700Y-13158000D02*
X18185700Y-13258000D01*
X18285700Y-13208000D02*
G75*
G03*
X18285700Y-13208000I-50000J0D01*
G01*
X18185700Y-13412000D02*
X18285700Y-13512000D01*
X18285700Y-13412000D02*
X18185700Y-13512000D01*
X18285700Y-13462000D02*
G75*
G03*
X18285700Y-13462000I-50000J0D01*
G01*
X18185700Y-13666000D02*
X18285700Y-13766000D01*
X18285700Y-13666000D02*
X18185700Y-13766000D01*
X18285700Y-13716000D02*
G75*
G03*
X18285700Y-13716000I-50000J0D01*
G01*
X18439700Y-11888000D02*
X18539700Y-11988000D01*
X18539700Y-11888000D02*
X18439700Y-11988000D01*
X18539700Y-11938000D02*
G75*
G03*
X18539700Y-11938000I-50000J0D01*
G01*
X18439700Y-12142000D02*
X18539700Y-12242000D01*
X18539700Y-12142000D02*
X18439700Y-12242000D01*
X18539700Y-12192000D02*
G75*
G03*
X18539700Y-12192000I-50000J0D01*
G01*
X18439700Y-12396000D02*
X18539700Y-12496000D01*
X18539700Y-12396000D02*
X18439700Y-12496000D01*
X18539700Y-12446000D02*
G75*
G03*
X18539700Y-12446000I-50000J0D01*
G01*
X18439700Y-12650000D02*
X18539700Y-12750000D01*
X18539700Y-12650000D02*
X18439700Y-12750000D01*
X18539700Y-12700000D02*
G75*
G03*
X18539700Y-12700000I-50000J0D01*
G01*
X18439700Y-12904000D02*
X18539700Y-13004000D01*
X18539700Y-12904000D02*
X18439700Y-13004000D01*
X18539700Y-12954000D02*
G75*
G03*
X18539700Y-12954000I-50000J0D01*
G01*
X18439700Y-13158000D02*
X18539700Y-13258000D01*
X18539700Y-13158000D02*
X18439700Y-13258000D01*
X18539700Y-13208000D02*
G75*
G03*
X18539700Y-13208000I-50000J0D01*
G01*
X18439700Y-13412000D02*
X18539700Y-13512000D01*
X18539700Y-13412000D02*
X18439700Y-13512000D01*
X18539700Y-13462000D02*
G75*
G03*
X18539700Y-13462000I-50000J0D01*
G01*
X18439700Y-13666000D02*
X18539700Y-13766000D01*
X18539700Y-13666000D02*
X18439700Y-13766000D01*
X18539700Y-13716000D02*
G75*
G03*
X18539700Y-13716000I-50000J0D01*
G01*
D17*
X9216000Y-9299300D02*
X9326000Y-9409300D01*
X9326000Y-9299300D02*
X9216000Y-9409300D01*
X9271000Y-9299300D02*
X9271000Y-9409300D01*
X9216000Y-9354300D02*
X9326000Y-9354300D01*
X9470000Y-9299300D02*
X9580000Y-9409300D01*
X9580000Y-9299300D02*
X9470000Y-9409300D01*
X9525000Y-9299300D02*
X9525000Y-9409300D01*
X9470000Y-9354300D02*
X9580000Y-9354300D01*
X9724000Y-9299300D02*
X9834000Y-9409300D01*
X9834000Y-9299300D02*
X9724000Y-9409300D01*
X9779000Y-9299300D02*
X9779000Y-9409300D01*
X9724000Y-9354300D02*
X9834000Y-9354300D01*
X10130400Y-14092800D02*
X10240400Y-14202800D01*
X10240400Y-14092800D02*
X10130400Y-14202800D01*
X10185400Y-14092800D02*
X10185400Y-14202800D01*
X10130400Y-14147800D02*
X10240400Y-14147800D01*
X10384400Y-14092800D02*
X10494400Y-14202800D01*
X10494400Y-14092800D02*
X10384400Y-14202800D01*
X10439400Y-14092800D02*
X10439400Y-14202800D01*
X10384400Y-14147800D02*
X10494400Y-14147800D01*
X10638400Y-14092800D02*
X10748400Y-14202800D01*
X10748400Y-14092800D02*
X10638400Y-14202800D01*
X10693400Y-14092800D02*
X10693400Y-14202800D01*
X10638400Y-14147800D02*
X10748400Y-14147800D01*
X13305400Y-11121000D02*
X13415400Y-11231000D01*
X13415400Y-11121000D02*
X13305400Y-11231000D01*
X13360400Y-11121000D02*
X13360400Y-11231000D01*
X13305400Y-11176000D02*
X13415400Y-11176000D01*
X13305400Y-11375000D02*
X13415400Y-11485000D01*
X13415400Y-11375000D02*
X13305400Y-11485000D01*
X13360400Y-11375000D02*
X13360400Y-11485000D01*
X13305400Y-11430000D02*
X13415400Y-11430000D01*
X13305400Y-11629000D02*
X13415400Y-11739000D01*
X13415400Y-11629000D02*
X13305400Y-11739000D01*
X13360400Y-11629000D02*
X13360400Y-11739000D01*
X13305400Y-11684000D02*
X13415400Y-11684000D01*
X13305400Y-11883000D02*
X13415400Y-11993000D01*
X13415400Y-11883000D02*
X13305400Y-11993000D01*
X13360400Y-11883000D02*
X13360400Y-11993000D01*
X13305400Y-11938000D02*
X13415400Y-11938000D01*
X13305400Y-12137000D02*
X13415400Y-12247000D01*
X13415400Y-12137000D02*
X13305400Y-12247000D01*
X13360400Y-12137000D02*
X13360400Y-12247000D01*
X13305400Y-12192000D02*
X13415400Y-12192000D01*
X13305400Y-12391000D02*
X13415400Y-12501000D01*
X13415400Y-12391000D02*
X13305400Y-12501000D01*
X13360400Y-12391000D02*
X13360400Y-12501000D01*
X13305400Y-12446000D02*
X13415400Y-12446000D01*
X13305400Y-12645000D02*
X13415400Y-12755000D01*
X13415400Y-12645000D02*
X13305400Y-12755000D01*
X13360400Y-12645000D02*
X13360400Y-12755000D01*
X13305400Y-12700000D02*
X13415400Y-12700000D01*
X13305400Y-12899000D02*
X13415400Y-13009000D01*
X13415400Y-12899000D02*
X13305400Y-13009000D01*
X13360400Y-12899000D02*
X13360400Y-13009000D01*
X13305400Y-12954000D02*
X13415400Y-12954000D01*
X13305400Y-13153000D02*
X13415400Y-13263000D01*
X13415400Y-13153000D02*
X13305400Y-13263000D01*
X13360400Y-13153000D02*
X13360400Y-13263000D01*
X13305400Y-13208000D02*
X13415400Y-13208000D01*
X13305400Y-13407000D02*
X13415400Y-13517000D01*
X13415400Y-13407000D02*
X13305400Y-13517000D01*
X13360400Y-13407000D02*
X13360400Y-13517000D01*
X13305400Y-13462000D02*
X13415400Y-13462000D01*
X13305400Y-13661000D02*
X13415400Y-13771000D01*
X13415400Y-13661000D02*
X13305400Y-13771000D01*
X13360400Y-13661000D02*
X13360400Y-13771000D01*
X13305400Y-13716000D02*
X13415400Y-13716000D01*
X13305400Y-13915000D02*
X13415400Y-14025000D01*
X13415400Y-13915000D02*
X13305400Y-14025000D01*
X13360400Y-13915000D02*
X13360400Y-14025000D01*
X13305400Y-13970000D02*
X13415400Y-13970000D01*
X13305400Y-14169000D02*
X13415400Y-14279000D01*
X13415400Y-14169000D02*
X13305400Y-14279000D01*
X13360400Y-14169000D02*
X13360400Y-14279000D01*
X13305400Y-14224000D02*
X13415400Y-14224000D01*
X13305400Y-14423000D02*
X13415400Y-14533000D01*
X13415400Y-14423000D02*
X13305400Y-14533000D01*
X13360400Y-14423000D02*
X13360400Y-14533000D01*
X13305400Y-14478000D02*
X13415400Y-14478000D01*
X13559400Y-11121000D02*
X13669400Y-11231000D01*
X13669400Y-11121000D02*
X13559400Y-11231000D01*
X13614400Y-11121000D02*
X13614400Y-11231000D01*
X13559400Y-11176000D02*
X13669400Y-11176000D01*
X13559400Y-11629000D02*
X13669400Y-11739000D01*
X13669400Y-11629000D02*
X13559400Y-11739000D01*
X13614400Y-11629000D02*
X13614400Y-11739000D01*
X13559400Y-11684000D02*
X13669400Y-11684000D01*
X13559400Y-11883000D02*
X13669400Y-11993000D01*
X13669400Y-11883000D02*
X13559400Y-11993000D01*
X13614400Y-11883000D02*
X13614400Y-11993000D01*
X13559400Y-11938000D02*
X13669400Y-11938000D01*
X13559400Y-14169000D02*
X13669400Y-14279000D01*
X13669400Y-14169000D02*
X13559400Y-14279000D01*
X13614400Y-14169000D02*
X13614400Y-14279000D01*
X13559400Y-14224000D02*
X13669400Y-14224000D01*
X13813400Y-11121000D02*
X13923400Y-11231000D01*
X13923400Y-11121000D02*
X13813400Y-11231000D01*
X13868400Y-11121000D02*
X13868400Y-11231000D01*
X13813400Y-11176000D02*
X13923400Y-11176000D01*
X13813400Y-11629000D02*
X13923400Y-11739000D01*
X13923400Y-11629000D02*
X13813400Y-11739000D01*
X13868400Y-11629000D02*
X13868400Y-11739000D01*
X13813400Y-11684000D02*
X13923400Y-11684000D01*
X13813400Y-11883000D02*
X13923400Y-11993000D01*
X13923400Y-11883000D02*
X13813400Y-11993000D01*
X13868400Y-11883000D02*
X13868400Y-11993000D01*
X13813400Y-11938000D02*
X13923400Y-11938000D01*
X14067400Y-11121000D02*
X14177400Y-11231000D01*
X14177400Y-11121000D02*
X14067400Y-11231000D01*
X14122400Y-11121000D02*
X14122400Y-11231000D01*
X14067400Y-11176000D02*
X14177400Y-11176000D01*
X14067400Y-11629000D02*
X14177400Y-11739000D01*
X14177400Y-11629000D02*
X14067400Y-11739000D01*
X14122400Y-11629000D02*
X14122400Y-11739000D01*
X14067400Y-11684000D02*
X14177400Y-11684000D01*
X14067400Y-11883000D02*
X14177400Y-11993000D01*
X14177400Y-11883000D02*
X14067400Y-11993000D01*
X14122400Y-11883000D02*
X14122400Y-11993000D01*
X14067400Y-11938000D02*
X14177400Y-11938000D01*
X14321400Y-11121000D02*
X14431400Y-11231000D01*
X14431400Y-11121000D02*
X14321400Y-11231000D01*
X14376400Y-11121000D02*
X14376400Y-11231000D01*
X14321400Y-11176000D02*
X14431400Y-11176000D01*
X14321400Y-11629000D02*
X14431400Y-11739000D01*
X14431400Y-11629000D02*
X14321400Y-11739000D01*
X14376400Y-11629000D02*
X14376400Y-11739000D01*
X14321400Y-11684000D02*
X14431400Y-11684000D01*
X14321400Y-11883000D02*
X14431400Y-11993000D01*
X14431400Y-11883000D02*
X14321400Y-11993000D01*
X14376400Y-11883000D02*
X14376400Y-11993000D01*
X14321400Y-11938000D02*
X14431400Y-11938000D01*
X14575400Y-11121000D02*
X14685400Y-11231000D01*
X14685400Y-11121000D02*
X14575400Y-11231000D01*
X14630400Y-11121000D02*
X14630400Y-11231000D01*
X14575400Y-11176000D02*
X14685400Y-11176000D01*
X14575400Y-11629000D02*
X14685400Y-11739000D01*
X14685400Y-11629000D02*
X14575400Y-11739000D01*
X14630400Y-11629000D02*
X14630400Y-11739000D01*
X14575400Y-11684000D02*
X14685400Y-11684000D01*
X14575400Y-11883000D02*
X14685400Y-11993000D01*
X14685400Y-11883000D02*
X14575400Y-11993000D01*
X14630400Y-11883000D02*
X14630400Y-11993000D01*
X14575400Y-11938000D02*
X14685400Y-11938000D01*
X14829400Y-11121000D02*
X14939400Y-11231000D01*
X14939400Y-11121000D02*
X14829400Y-11231000D01*
X14884400Y-11121000D02*
X14884400Y-11231000D01*
X14829400Y-11176000D02*
X14939400Y-11176000D01*
X14829400Y-11375000D02*
X14939400Y-11485000D01*
X14939400Y-11375000D02*
X14829400Y-11485000D01*
X14884400Y-11375000D02*
X14884400Y-11485000D01*
X14829400Y-11430000D02*
X14939400Y-11430000D01*
X14829400Y-11629000D02*
X14939400Y-11739000D01*
X14939400Y-11629000D02*
X14829400Y-11739000D01*
X14884400Y-11629000D02*
X14884400Y-11739000D01*
X14829400Y-11684000D02*
X14939400Y-11684000D01*
X14829400Y-11883000D02*
X14939400Y-11993000D01*
X14939400Y-11883000D02*
X14829400Y-11993000D01*
X14884400Y-11883000D02*
X14884400Y-11993000D01*
X14829400Y-11938000D02*
X14939400Y-11938000D01*
X14829400Y-12137000D02*
X14939400Y-12247000D01*
X14939400Y-12137000D02*
X14829400Y-12247000D01*
X14884400Y-12137000D02*
X14884400Y-12247000D01*
X14829400Y-12192000D02*
X14939400Y-12192000D01*
X14829400Y-12391000D02*
X14939400Y-12501000D01*
X14939400Y-12391000D02*
X14829400Y-12501000D01*
X14884400Y-12391000D02*
X14884400Y-12501000D01*
X14829400Y-12446000D02*
X14939400Y-12446000D01*
X14829400Y-12645000D02*
X14939400Y-12755000D01*
X14939400Y-12645000D02*
X14829400Y-12755000D01*
X14884400Y-12645000D02*
X14884400Y-12755000D01*
X14829400Y-12700000D02*
X14939400Y-12700000D01*
X14829400Y-12899000D02*
X14939400Y-13009000D01*
X14939400Y-12899000D02*
X14829400Y-13009000D01*
X14884400Y-12899000D02*
X14884400Y-13009000D01*
X14829400Y-12954000D02*
X14939400Y-12954000D01*
X14829400Y-13153000D02*
X14939400Y-13263000D01*
X14939400Y-13153000D02*
X14829400Y-13263000D01*
X14884400Y-13153000D02*
X14884400Y-13263000D01*
X14829400Y-13208000D02*
X14939400Y-13208000D01*
X14829400Y-13407000D02*
X14939400Y-13517000D01*
X14939400Y-13407000D02*
X14829400Y-13517000D01*
X14884400Y-13407000D02*
X14884400Y-13517000D01*
X14829400Y-13462000D02*
X14939400Y-13462000D01*
X14829400Y-13661000D02*
X14939400Y-13771000D01*
X14939400Y-13661000D02*
X14829400Y-13771000D01*
X14884400Y-13661000D02*
X14884400Y-13771000D01*
X14829400Y-13716000D02*
X14939400Y-13716000D01*
X14829400Y-13915000D02*
X14939400Y-14025000D01*
X14939400Y-13915000D02*
X14829400Y-14025000D01*
X14884400Y-13915000D02*
X14884400Y-14025000D01*
X14829400Y-13970000D02*
X14939400Y-13970000D01*
X14829400Y-14169000D02*
X14939400Y-14279000D01*
X14939400Y-14169000D02*
X14829400Y-14279000D01*
X14884400Y-14169000D02*
X14884400Y-14279000D01*
X14829400Y-14224000D02*
X14939400Y-14224000D01*
X14829400Y-14423000D02*
X14939400Y-14533000D01*
X14939400Y-14423000D02*
X14829400Y-14533000D01*
X14884400Y-14423000D02*
X14884400Y-14533000D01*
X14829400Y-14478000D02*
X14939400Y-14478000D01*
X15006300Y-9609000D02*
X15116300Y-9719000D01*
X15116300Y-9609000D02*
X15006300Y-9719000D01*
X15061300Y-9609000D02*
X15061300Y-9719000D01*
X15006300Y-9664000D02*
X15116300Y-9664000D01*
X15235300Y-9609000D02*
X15345300Y-9719000D01*
X15345300Y-9609000D02*
X15235300Y-9719000D01*
X15290300Y-9609000D02*
X15290300Y-9719000D01*
X15235300Y-9664000D02*
X15345300Y-9664000D01*
X15464300Y-9609000D02*
X15574300Y-9719000D01*
X15574300Y-9609000D02*
X15464300Y-9719000D01*
X15519300Y-9609000D02*
X15519300Y-9719000D01*
X15464300Y-9664000D02*
X15574300Y-9664000D01*
X16810200Y-9266800D02*
X16920200Y-9376800D01*
X16920200Y-9266800D02*
X16810200Y-9376800D01*
X16865200Y-9266800D02*
X16865200Y-9376800D01*
X16810200Y-9321800D02*
X16920200Y-9321800D01*
X17039200Y-9266800D02*
X17149200Y-9376800D01*
X17149200Y-9266800D02*
X17039200Y-9376800D01*
X17094200Y-9266800D02*
X17094200Y-9376800D01*
X17039200Y-9321800D02*
X17149200Y-9321800D01*
X17268200Y-9266800D02*
X17378200Y-9376800D01*
X17378200Y-9266800D02*
X17268200Y-9376800D01*
X17323200Y-9266800D02*
X17323200Y-9376800D01*
X17268200Y-9321800D02*
X17378200Y-9321800D01*
X17775400Y-9685200D02*
X17885400Y-9795200D01*
X17885400Y-9685200D02*
X17775400Y-9795200D01*
X17830400Y-9685200D02*
X17830400Y-9795200D01*
X17775400Y-9740200D02*
X17885400Y-9740200D01*
X17775400Y-10790800D02*
X17885400Y-10900800D01*
X17885400Y-10790800D02*
X17775400Y-10900800D01*
X17830400Y-10790800D02*
X17830400Y-10900800D01*
X17775400Y-10845800D02*
X17885400Y-10845800D01*
X18004400Y-9685200D02*
X18114400Y-9795200D01*
X18114400Y-9685200D02*
X18004400Y-9795200D01*
X18059400Y-9685200D02*
X18059400Y-9795200D01*
X18004400Y-9740200D02*
X18114400Y-9740200D01*
X18004400Y-10790800D02*
X18114400Y-10900800D01*
X18114400Y-10790800D02*
X18004400Y-10900800D01*
X18059400Y-10790800D02*
X18059400Y-10900800D01*
X18004400Y-10845800D02*
X18114400Y-10845800D01*
X18233400Y-9685200D02*
X18343400Y-9795200D01*
X18343400Y-9685200D02*
X18233400Y-9795200D01*
X18288400Y-9685200D02*
X18288400Y-9795200D01*
X18233400Y-9740200D02*
X18343400Y-9740200D01*
X18233400Y-10790800D02*
X18343400Y-10900800D01*
X18343400Y-10790800D02*
X18233400Y-10900800D01*
X18288400Y-10790800D02*
X18288400Y-10900800D01*
X18233400Y-10845800D02*
X18343400Y-10845800D01*
D18*
X18228500Y-5960300D02*
X18347500Y-6079300D01*
X18347500Y-5960300D02*
X18228500Y-6079300D01*
X18330073Y-6061873D02*
X18330073Y-5977727D01*
X18245927Y-5977727D01*
X18245927Y-6061873D01*
X18330073Y-6061873D01*
X18228500Y-6214300D02*
X18347500Y-6333300D01*
X18347500Y-6214300D02*
X18228500Y-6333300D01*
X18330073Y-6315873D02*
X18330073Y-6231727D01*
X18245927Y-6231727D01*
X18245927Y-6315873D01*
X18330073Y-6315873D01*
X18228500Y-6468300D02*
X18347500Y-6587300D01*
X18347500Y-6468300D02*
X18228500Y-6587300D01*
X18330073Y-6569873D02*
X18330073Y-6485727D01*
X18245927Y-6485727D01*
X18245927Y-6569873D01*
X18330073Y-6569873D01*
X18228500Y-6722300D02*
X18347500Y-6841300D01*
X18347500Y-6722300D02*
X18228500Y-6841300D01*
X18330073Y-6823873D02*
X18330073Y-6739727D01*
X18245927Y-6739727D01*
X18245927Y-6823873D01*
X18330073Y-6823873D01*
D19*
X12096600Y-5904200D02*
X12236600Y-6044200D01*
X12236600Y-5904200D02*
X12096600Y-6044200D01*
X12166600Y-6044200D02*
X12236600Y-5974200D01*
X12166600Y-5904200D01*
X12096600Y-5974200D01*
X12166600Y-6044200D01*
X12096600Y-6454200D02*
X12236600Y-6594200D01*
X12236600Y-6454200D02*
X12096600Y-6594200D01*
X12166600Y-6594200D02*
X12236600Y-6524200D01*
X12166600Y-6454200D01*
X12096600Y-6524200D01*
X12166600Y-6594200D01*
X13092200Y-9509400D02*
X13232200Y-9649400D01*
X13232200Y-9509400D02*
X13092200Y-9649400D01*
X13162200Y-9649400D02*
X13232200Y-9579400D01*
X13162200Y-9509400D01*
X13092200Y-9579400D01*
X13162200Y-9649400D01*
X13092200Y-10059400D02*
X13232200Y-10199400D01*
X13232200Y-10059400D02*
X13092200Y-10199400D01*
X13162200Y-10199400D02*
X13232200Y-10129400D01*
X13162200Y-10059400D01*
X13092200Y-10129400D01*
X13162200Y-10199400D01*
X13512200Y-9509400D02*
X13652200Y-9649400D01*
X13652200Y-9509400D02*
X13512200Y-9649400D01*
X13582200Y-9649400D02*
X13652200Y-9579400D01*
X13582200Y-9509400D01*
X13512200Y-9579400D01*
X13582200Y-9649400D01*
X13512200Y-10059400D02*
X13652200Y-10199400D01*
X13652200Y-10059400D02*
X13512200Y-10199400D01*
X13582200Y-10199400D02*
X13652200Y-10129400D01*
X13582200Y-10059400D01*
X13512200Y-10129400D01*
X13582200Y-10199400D01*
X13932200Y-9509400D02*
X14072200Y-9649400D01*
X14072200Y-9509400D02*
X13932200Y-9649400D01*
X14002200Y-9649400D02*
X14072200Y-9579400D01*
X14002200Y-9509400D01*
X13932200Y-9579400D01*
X14002200Y-9649400D01*
X13932200Y-10059400D02*
X14072200Y-10199400D01*
X14072200Y-10059400D02*
X13932200Y-10199400D01*
X14002200Y-10199400D02*
X14072200Y-10129400D01*
X14002200Y-10059400D01*
X13932200Y-10129400D01*
X14002200Y-10199400D01*
X14352200Y-9509400D02*
X14492200Y-9649400D01*
X14492200Y-9509400D02*
X14352200Y-9649400D01*
X14422200Y-9649400D02*
X14492200Y-9579400D01*
X14422200Y-9509400D01*
X14352200Y-9579400D01*
X14422200Y-9649400D01*
X14352200Y-10059400D02*
X14492200Y-10199400D01*
X14492200Y-10059400D02*
X14352200Y-10199400D01*
X14422200Y-10199400D02*
X14492200Y-10129400D01*
X14422200Y-10059400D01*
X14352200Y-10129400D01*
X14422200Y-10199400D01*
X17029200Y-8188600D02*
X17169200Y-8328600D01*
X17169200Y-8188600D02*
X17029200Y-8328600D01*
X17099200Y-8328600D02*
X17169200Y-8258600D01*
X17099200Y-8188600D01*
X17029200Y-8258600D01*
X17099200Y-8328600D01*
X17029200Y-8738600D02*
X17169200Y-8878600D01*
X17169200Y-8738600D02*
X17029200Y-8878600D01*
X17099200Y-8878600D02*
X17169200Y-8808600D01*
X17099200Y-8738600D01*
X17029200Y-8808600D01*
X17099200Y-8878600D01*
X17252800Y-5904200D02*
X17392800Y-6044200D01*
X17392800Y-5904200D02*
X17252800Y-6044200D01*
X17322800Y-6044200D02*
X17392800Y-5974200D01*
X17322800Y-5904200D01*
X17252800Y-5974200D01*
X17322800Y-6044200D01*
X17252800Y-6454200D02*
X17392800Y-6594200D01*
X17392800Y-6454200D02*
X17252800Y-6594200D01*
X17322800Y-6594200D02*
X17392800Y-6524200D01*
X17322800Y-6454200D01*
X17252800Y-6524200D01*
X17322800Y-6594200D01*
X17449200Y-8188600D02*
X17589200Y-8328600D01*
X17589200Y-8188600D02*
X17449200Y-8328600D01*
X17519200Y-8328600D02*
X17589200Y-8258600D01*
X17519200Y-8188600D01*
X17449200Y-8258600D01*
X17519200Y-8328600D01*
X17449200Y-8738600D02*
X17589200Y-8878600D01*
X17589200Y-8738600D02*
X17449200Y-8878600D01*
X17519200Y-8878600D02*
X17589200Y-8808600D01*
X17519200Y-8738600D01*
X17449200Y-8808600D01*
X17519200Y-8878600D01*
X17869200Y-8188600D02*
X18009200Y-8328600D01*
X18009200Y-8188600D02*
X17869200Y-8328600D01*
X17939200Y-8328600D02*
X18009200Y-8258600D01*
X17939200Y-8188600D01*
X17869200Y-8258600D01*
X17939200Y-8328600D01*
X17869200Y-8738600D02*
X18009200Y-8878600D01*
X18009200Y-8738600D02*
X17869200Y-8878600D01*
X17939200Y-8878600D02*
X18009200Y-8808600D01*
X17939200Y-8738600D01*
X17869200Y-8808600D01*
X17939200Y-8878600D01*
X18289200Y-8188600D02*
X18429200Y-8328600D01*
X18429200Y-8188600D02*
X18289200Y-8328600D01*
X18359200Y-8328600D02*
X18429200Y-8258600D01*
X18359200Y-8188600D01*
X18289200Y-8258600D01*
X18359200Y-8328600D01*
X18289200Y-8738600D02*
X18429200Y-8878600D01*
X18429200Y-8738600D02*
X18289200Y-8878600D01*
X18359200Y-8878600D02*
X18429200Y-8808600D01*
X18359200Y-8738600D01*
X18289200Y-8808600D01*
X18359200Y-8878600D01*
D20*
X10294600Y-10809650D02*
X10294600Y-11039650D01*
X10179600Y-10924650D02*
X10409600Y-10924650D01*
X10409600Y-10924650D02*
G75*
G03*
X10409600Y-10924650I-115000J0D01*
G01*
X11498600Y-10809650D02*
X11498600Y-11039650D01*
X11383600Y-10924650D02*
X11613600Y-10924650D01*
X11613600Y-10924650D02*
G75*
G03*
X11613600Y-10924650I-115000J0D01*
G01*
D11*
X8990219Y-15072876D02*
X8990219Y-14872876D01*
X9037838Y-14872876D01*
X9066410Y-14882400D01*
X9085457Y-14901448D01*
X9094981Y-14920495D01*
X9104505Y-14958590D01*
X9104505Y-14987162D01*
X9094981Y-15025257D01*
X9085457Y-15044305D01*
X9066410Y-15063352D01*
X9037838Y-15072876D01*
X8990219Y-15072876D01*
X9190219Y-15072876D02*
X9190219Y-14939543D01*
X9190219Y-14977638D02*
X9199743Y-14958590D01*
X9209267Y-14949067D01*
X9228314Y-14939543D01*
X9247362Y-14939543D01*
X9314029Y-15072876D02*
X9314029Y-14939543D01*
X9314029Y-14872876D02*
X9304505Y-14882400D01*
X9314029Y-14891924D01*
X9323552Y-14882400D01*
X9314029Y-14872876D01*
X9314029Y-14891924D01*
X9437838Y-15072876D02*
X9418790Y-15063352D01*
X9409267Y-15044305D01*
X9409267Y-14872876D01*
X9542600Y-15072876D02*
X9523552Y-15063352D01*
X9514029Y-15044305D01*
X9514029Y-14872876D01*
X9771171Y-15072876D02*
X9771171Y-14872876D01*
X9837838Y-15015733D01*
X9904505Y-14872876D01*
X9904505Y-15072876D01*
X10085457Y-15072876D02*
X10085457Y-14968114D01*
X10075933Y-14949067D01*
X10056886Y-14939543D01*
X10018790Y-14939543D01*
X9999743Y-14949067D01*
X10085457Y-15063352D02*
X10066410Y-15072876D01*
X10018790Y-15072876D01*
X9999743Y-15063352D01*
X9990219Y-15044305D01*
X9990219Y-15025257D01*
X9999743Y-15006209D01*
X10018790Y-14996686D01*
X10066410Y-14996686D01*
X10085457Y-14987162D01*
X10180695Y-14939543D02*
X10180695Y-15139543D01*
X10180695Y-14949067D02*
X10199743Y-14939543D01*
X10237838Y-14939543D01*
X10256886Y-14949067D01*
X10266410Y-14958590D01*
X10275933Y-14977638D01*
X10275933Y-15034781D01*
X10266410Y-15053828D01*
X10256886Y-15063352D01*
X10237838Y-15072876D01*
X10199743Y-15072876D01*
X10180695Y-15063352D01*
X10361648Y-15053828D02*
X10371171Y-15063352D01*
X10361648Y-15072876D01*
X10352124Y-15063352D01*
X10361648Y-15053828D01*
X10361648Y-15072876D01*
X10361648Y-14949067D02*
X10371171Y-14958590D01*
X10361648Y-14968114D01*
X10352124Y-14958590D01*
X10361648Y-14949067D01*
X10361648Y-14968114D01*
D12*
X8692600Y-15382400D02*
X8732600Y-15422400D01*
X8732600Y-15382400D02*
X8692600Y-15422400D01*
D11*
X9028314Y-15292876D02*
X9047362Y-15292876D01*
X9066410Y-15302400D01*
X9075933Y-15311924D01*
X9085457Y-15330971D01*
X9094981Y-15369067D01*
X9094981Y-15416686D01*
X9085457Y-15454781D01*
X9075933Y-15473828D01*
X9066410Y-15483352D01*
X9047362Y-15492876D01*
X9028314Y-15492876D01*
X9009267Y-15483352D01*
X8999743Y-15473828D01*
X8990219Y-15454781D01*
X8980695Y-15416686D01*
X8980695Y-15369067D01*
X8990219Y-15330971D01*
X8999743Y-15311924D01*
X9009267Y-15302400D01*
X9028314Y-15292876D01*
X9180695Y-15473828D02*
X9190219Y-15483352D01*
X9180695Y-15492876D01*
X9171171Y-15483352D01*
X9180695Y-15473828D01*
X9180695Y-15492876D01*
X9361648Y-15359543D02*
X9361648Y-15492876D01*
X9314029Y-15283352D02*
X9266410Y-15426209D01*
X9390219Y-15426209D01*
X9504505Y-15292876D02*
X9523552Y-15292876D01*
X9542600Y-15302400D01*
X9552124Y-15311924D01*
X9561648Y-15330971D01*
X9571171Y-15369067D01*
X9571171Y-15416686D01*
X9561648Y-15454781D01*
X9552124Y-15473828D01*
X9542600Y-15483352D01*
X9523552Y-15492876D01*
X9504505Y-15492876D01*
X9485457Y-15483352D01*
X9475933Y-15473828D01*
X9466410Y-15454781D01*
X9456886Y-15416686D01*
X9456886Y-15369067D01*
X9466410Y-15330971D01*
X9475933Y-15311924D01*
X9485457Y-15302400D01*
X9504505Y-15292876D01*
X9694981Y-15292876D02*
X9714029Y-15292876D01*
X9733076Y-15302400D01*
X9742600Y-15311924D01*
X9752124Y-15330971D01*
X9761648Y-15369067D01*
X9761648Y-15416686D01*
X9752124Y-15454781D01*
X9742600Y-15473828D01*
X9733076Y-15483352D01*
X9714029Y-15492876D01*
X9694981Y-15492876D01*
X9675933Y-15483352D01*
X9666410Y-15473828D01*
X9656886Y-15454781D01*
X9647362Y-15416686D01*
X9647362Y-15369067D01*
X9656886Y-15330971D01*
X9666410Y-15311924D01*
X9675933Y-15302400D01*
X9694981Y-15292876D01*
X9847362Y-15492876D02*
X9847362Y-15359543D01*
X9847362Y-15378590D02*
X9856886Y-15369067D01*
X9875933Y-15359543D01*
X9904505Y-15359543D01*
X9923552Y-15369067D01*
X9933076Y-15388114D01*
X9933076Y-15492876D01*
X9933076Y-15388114D02*
X9942600Y-15369067D01*
X9961648Y-15359543D01*
X9990219Y-15359543D01*
X10009267Y-15369067D01*
X10018790Y-15388114D01*
X10018790Y-15492876D01*
X10114029Y-15492876D02*
X10114029Y-15359543D01*
X10114029Y-15378590D02*
X10123552Y-15369067D01*
X10142600Y-15359543D01*
X10171171Y-15359543D01*
X10190219Y-15369067D01*
X10199743Y-15388114D01*
X10199743Y-15492876D01*
X10199743Y-15388114D02*
X10209267Y-15369067D01*
X10228314Y-15359543D01*
X10256886Y-15359543D01*
X10275933Y-15369067D01*
X10285457Y-15388114D01*
X10285457Y-15492876D01*
X10675933Y-15283352D02*
X10504505Y-15540495D01*
X10933076Y-15292876D02*
X10952124Y-15292876D01*
X10971171Y-15302400D01*
X10980695Y-15311924D01*
X10990219Y-15330971D01*
X10999743Y-15369067D01*
X10999743Y-15416686D01*
X10990219Y-15454781D01*
X10980695Y-15473828D01*
X10971171Y-15483352D01*
X10952124Y-15492876D01*
X10933076Y-15492876D01*
X10914029Y-15483352D01*
X10904505Y-15473828D01*
X10894981Y-15454781D01*
X10885457Y-15416686D01*
X10885457Y-15369067D01*
X10894981Y-15330971D01*
X10904505Y-15311924D01*
X10914029Y-15302400D01*
X10933076Y-15292876D01*
X11085457Y-15473828D02*
X11094981Y-15483352D01*
X11085457Y-15492876D01*
X11075933Y-15483352D01*
X11085457Y-15473828D01*
X11085457Y-15492876D01*
X11218790Y-15292876D02*
X11237838Y-15292876D01*
X11256886Y-15302400D01*
X11266409Y-15311924D01*
X11275933Y-15330971D01*
X11285457Y-15369067D01*
X11285457Y-15416686D01*
X11275933Y-15454781D01*
X11266409Y-15473828D01*
X11256886Y-15483352D01*
X11237838Y-15492876D01*
X11218790Y-15492876D01*
X11199743Y-15483352D01*
X11190219Y-15473828D01*
X11180695Y-15454781D01*
X11171171Y-15416686D01*
X11171171Y-15369067D01*
X11180695Y-15330971D01*
X11190219Y-15311924D01*
X11199743Y-15302400D01*
X11218790Y-15292876D01*
X11475933Y-15492876D02*
X11361648Y-15492876D01*
X11418790Y-15492876D02*
X11418790Y-15292876D01*
X11399743Y-15321448D01*
X11380695Y-15340495D01*
X11361648Y-15350019D01*
X11656886Y-15292876D02*
X11561648Y-15292876D01*
X11552124Y-15388114D01*
X11561648Y-15378590D01*
X11580695Y-15369067D01*
X11628314Y-15369067D01*
X11647362Y-15378590D01*
X11656886Y-15388114D01*
X11666409Y-15407162D01*
X11666409Y-15454781D01*
X11656886Y-15473828D01*
X11647362Y-15483352D01*
X11628314Y-15492876D01*
X11580695Y-15492876D01*
X11561648Y-15483352D01*
X11552124Y-15473828D01*
X11733076Y-15292876D02*
X11866409Y-15292876D01*
X11780695Y-15492876D01*
X11933076Y-15292876D02*
X11933076Y-15330971D01*
X12009267Y-15292876D02*
X12009267Y-15330971D01*
X12304505Y-15569067D02*
X12294981Y-15559543D01*
X12275933Y-15530971D01*
X12266409Y-15511924D01*
X12256886Y-15483352D01*
X12247362Y-15435733D01*
X12247362Y-15397638D01*
X12256886Y-15350019D01*
X12266409Y-15321448D01*
X12275933Y-15302400D01*
X12294981Y-15273828D01*
X12304505Y-15264305D01*
X12485457Y-15492876D02*
X12371171Y-15492876D01*
X12428314Y-15492876D02*
X12428314Y-15292876D01*
X12409267Y-15321448D01*
X12390219Y-15340495D01*
X12371171Y-15350019D01*
X12609267Y-15292876D02*
X12628314Y-15292876D01*
X12647362Y-15302400D01*
X12656886Y-15311924D01*
X12666409Y-15330971D01*
X12675933Y-15369067D01*
X12675933Y-15416686D01*
X12666409Y-15454781D01*
X12656886Y-15473828D01*
X12647362Y-15483352D01*
X12628314Y-15492876D01*
X12609267Y-15492876D01*
X12590219Y-15483352D01*
X12580695Y-15473828D01*
X12571171Y-15454781D01*
X12561648Y-15416686D01*
X12561648Y-15369067D01*
X12571171Y-15330971D01*
X12580695Y-15311924D01*
X12590219Y-15302400D01*
X12609267Y-15292876D01*
X12752124Y-15311924D02*
X12761648Y-15302400D01*
X12780695Y-15292876D01*
X12828314Y-15292876D01*
X12847362Y-15302400D01*
X12856886Y-15311924D01*
X12866409Y-15330971D01*
X12866409Y-15350019D01*
X12856886Y-15378590D01*
X12742600Y-15492876D01*
X12866409Y-15492876D01*
X13104505Y-15492876D02*
X13104505Y-15292876D01*
X13190219Y-15492876D02*
X13190219Y-15388114D01*
X13180695Y-15369067D01*
X13161648Y-15359543D01*
X13133076Y-15359543D01*
X13114028Y-15369067D01*
X13104505Y-15378590D01*
X13314028Y-15492876D02*
X13294981Y-15483352D01*
X13285457Y-15473828D01*
X13275933Y-15454781D01*
X13275933Y-15397638D01*
X13285457Y-15378590D01*
X13294981Y-15369067D01*
X13314028Y-15359543D01*
X13342600Y-15359543D01*
X13361648Y-15369067D01*
X13371171Y-15378590D01*
X13380695Y-15397638D01*
X13380695Y-15454781D01*
X13371171Y-15473828D01*
X13361648Y-15483352D01*
X13342600Y-15492876D01*
X13314028Y-15492876D01*
X13494981Y-15492876D02*
X13475933Y-15483352D01*
X13466409Y-15464305D01*
X13466409Y-15292876D01*
X13647362Y-15483352D02*
X13628314Y-15492876D01*
X13590219Y-15492876D01*
X13571171Y-15483352D01*
X13561648Y-15464305D01*
X13561648Y-15388114D01*
X13571171Y-15369067D01*
X13590219Y-15359543D01*
X13628314Y-15359543D01*
X13647362Y-15369067D01*
X13656886Y-15388114D01*
X13656886Y-15407162D01*
X13561648Y-15426209D01*
X13733076Y-15483352D02*
X13752124Y-15492876D01*
X13790219Y-15492876D01*
X13809267Y-15483352D01*
X13818790Y-15464305D01*
X13818790Y-15454781D01*
X13809267Y-15435733D01*
X13790219Y-15426209D01*
X13761648Y-15426209D01*
X13742600Y-15416686D01*
X13733076Y-15397638D01*
X13733076Y-15388114D01*
X13742600Y-15369067D01*
X13761648Y-15359543D01*
X13790219Y-15359543D01*
X13809267Y-15369067D01*
X13885457Y-15569067D02*
X13894981Y-15559543D01*
X13914028Y-15530971D01*
X13923552Y-15511924D01*
X13933076Y-15483352D01*
X13942600Y-15435733D01*
X13942600Y-15397638D01*
X13933076Y-15350019D01*
X13923552Y-15321448D01*
X13914028Y-15302400D01*
X13894981Y-15273828D01*
X13885457Y-15264305D01*
D13*
X8732600Y-15666400D02*
G75*
G03*
X8732600Y-15666400I-38100J0D01*
G01*
D11*
X9028314Y-15556876D02*
X9047362Y-15556876D01*
X9066410Y-15566400D01*
X9075933Y-15575924D01*
X9085457Y-15594971D01*
X9094981Y-15633067D01*
X9094981Y-15680686D01*
X9085457Y-15718781D01*
X9075933Y-15737828D01*
X9066410Y-15747352D01*
X9047362Y-15756876D01*
X9028314Y-15756876D01*
X9009267Y-15747352D01*
X8999743Y-15737828D01*
X8990219Y-15718781D01*
X8980695Y-15680686D01*
X8980695Y-15633067D01*
X8990219Y-15594971D01*
X8999743Y-15575924D01*
X9009267Y-15566400D01*
X9028314Y-15556876D01*
X9180695Y-15737828D02*
X9190219Y-15747352D01*
X9180695Y-15756876D01*
X9171171Y-15747352D01*
X9180695Y-15737828D01*
X9180695Y-15756876D01*
X9256886Y-15556876D02*
X9390219Y-15556876D01*
X9304505Y-15756876D01*
X9552124Y-15556876D02*
X9514029Y-15556876D01*
X9494981Y-15566400D01*
X9485457Y-15575924D01*
X9466410Y-15604495D01*
X9456886Y-15642590D01*
X9456886Y-15718781D01*
X9466410Y-15737828D01*
X9475933Y-15747352D01*
X9494981Y-15756876D01*
X9533076Y-15756876D01*
X9552124Y-15747352D01*
X9561648Y-15737828D01*
X9571171Y-15718781D01*
X9571171Y-15671162D01*
X9561648Y-15652114D01*
X9552124Y-15642590D01*
X9533076Y-15633067D01*
X9494981Y-15633067D01*
X9475933Y-15642590D01*
X9466410Y-15652114D01*
X9456886Y-15671162D01*
X9647362Y-15575924D02*
X9656886Y-15566400D01*
X9675933Y-15556876D01*
X9723552Y-15556876D01*
X9742600Y-15566400D01*
X9752124Y-15575924D01*
X9761648Y-15594971D01*
X9761648Y-15614019D01*
X9752124Y-15642590D01*
X9637838Y-15756876D01*
X9761648Y-15756876D01*
X9847362Y-15756876D02*
X9847362Y-15623543D01*
X9847362Y-15642590D02*
X9856886Y-15633067D01*
X9875933Y-15623543D01*
X9904505Y-15623543D01*
X9923552Y-15633067D01*
X9933076Y-15652114D01*
X9933076Y-15756876D01*
X9933076Y-15652114D02*
X9942600Y-15633067D01*
X9961648Y-15623543D01*
X9990219Y-15623543D01*
X10009267Y-15633067D01*
X10018790Y-15652114D01*
X10018790Y-15756876D01*
X10114029Y-15756876D02*
X10114029Y-15623543D01*
X10114029Y-15642590D02*
X10123552Y-15633067D01*
X10142600Y-15623543D01*
X10171171Y-15623543D01*
X10190219Y-15633067D01*
X10199743Y-15652114D01*
X10199743Y-15756876D01*
X10199743Y-15652114D02*
X10209267Y-15633067D01*
X10228314Y-15623543D01*
X10256886Y-15623543D01*
X10275933Y-15633067D01*
X10285457Y-15652114D01*
X10285457Y-15756876D01*
X10675933Y-15547352D02*
X10504505Y-15804495D01*
X10933076Y-15556876D02*
X10952124Y-15556876D01*
X10971171Y-15566400D01*
X10980695Y-15575924D01*
X10990219Y-15594971D01*
X10999743Y-15633067D01*
X10999743Y-15680686D01*
X10990219Y-15718781D01*
X10980695Y-15737828D01*
X10971171Y-15747352D01*
X10952124Y-15756876D01*
X10933076Y-15756876D01*
X10914029Y-15747352D01*
X10904505Y-15737828D01*
X10894981Y-15718781D01*
X10885457Y-15680686D01*
X10885457Y-15633067D01*
X10894981Y-15594971D01*
X10904505Y-15575924D01*
X10914029Y-15566400D01*
X10933076Y-15556876D01*
X11085457Y-15737828D02*
X11094981Y-15747352D01*
X11085457Y-15756876D01*
X11075933Y-15747352D01*
X11085457Y-15737828D01*
X11085457Y-15756876D01*
X11218790Y-15556876D02*
X11237838Y-15556876D01*
X11256886Y-15566400D01*
X11266409Y-15575924D01*
X11275933Y-15594971D01*
X11285457Y-15633067D01*
X11285457Y-15680686D01*
X11275933Y-15718781D01*
X11266409Y-15737828D01*
X11256886Y-15747352D01*
X11237838Y-15756876D01*
X11218790Y-15756876D01*
X11199743Y-15747352D01*
X11190219Y-15737828D01*
X11180695Y-15718781D01*
X11171171Y-15680686D01*
X11171171Y-15633067D01*
X11180695Y-15594971D01*
X11190219Y-15575924D01*
X11199743Y-15566400D01*
X11218790Y-15556876D01*
X11352124Y-15556876D02*
X11475933Y-15556876D01*
X11409267Y-15633067D01*
X11437838Y-15633067D01*
X11456886Y-15642590D01*
X11466409Y-15652114D01*
X11475933Y-15671162D01*
X11475933Y-15718781D01*
X11466409Y-15737828D01*
X11456886Y-15747352D01*
X11437838Y-15756876D01*
X11380695Y-15756876D01*
X11361648Y-15747352D01*
X11352124Y-15737828D01*
X11599743Y-15556876D02*
X11618790Y-15556876D01*
X11637838Y-15566400D01*
X11647362Y-15575924D01*
X11656886Y-15594971D01*
X11666409Y-15633067D01*
X11666409Y-15680686D01*
X11656886Y-15718781D01*
X11647362Y-15737828D01*
X11637838Y-15747352D01*
X11618790Y-15756876D01*
X11599743Y-15756876D01*
X11580695Y-15747352D01*
X11571171Y-15737828D01*
X11561648Y-15718781D01*
X11552124Y-15680686D01*
X11552124Y-15633067D01*
X11561648Y-15594971D01*
X11571171Y-15575924D01*
X11580695Y-15566400D01*
X11599743Y-15556876D01*
X11790219Y-15556876D02*
X11809267Y-15556876D01*
X11828314Y-15566400D01*
X11837838Y-15575924D01*
X11847362Y-15594971D01*
X11856886Y-15633067D01*
X11856886Y-15680686D01*
X11847362Y-15718781D01*
X11837838Y-15737828D01*
X11828314Y-15747352D01*
X11809267Y-15756876D01*
X11790219Y-15756876D01*
X11771171Y-15747352D01*
X11761648Y-15737828D01*
X11752124Y-15718781D01*
X11742600Y-15680686D01*
X11742600Y-15633067D01*
X11752124Y-15594971D01*
X11761648Y-15575924D01*
X11771171Y-15566400D01*
X11790219Y-15556876D01*
X11933076Y-15556876D02*
X11933076Y-15594971D01*
X12009267Y-15556876D02*
X12009267Y-15594971D01*
X12304505Y-15833067D02*
X12294981Y-15823543D01*
X12275933Y-15794971D01*
X12266409Y-15775924D01*
X12256886Y-15747352D01*
X12247362Y-15699733D01*
X12247362Y-15661638D01*
X12256886Y-15614019D01*
X12266409Y-15585448D01*
X12275933Y-15566400D01*
X12294981Y-15537828D01*
X12304505Y-15528305D01*
X12466409Y-15623543D02*
X12466409Y-15756876D01*
X12418790Y-15547352D02*
X12371171Y-15690209D01*
X12494981Y-15690209D01*
X12609267Y-15556876D02*
X12628314Y-15556876D01*
X12647362Y-15566400D01*
X12656886Y-15575924D01*
X12666409Y-15594971D01*
X12675933Y-15633067D01*
X12675933Y-15680686D01*
X12666409Y-15718781D01*
X12656886Y-15737828D01*
X12647362Y-15747352D01*
X12628314Y-15756876D01*
X12609267Y-15756876D01*
X12590219Y-15747352D01*
X12580695Y-15737828D01*
X12571171Y-15718781D01*
X12561648Y-15680686D01*
X12561648Y-15633067D01*
X12571171Y-15594971D01*
X12580695Y-15575924D01*
X12590219Y-15566400D01*
X12609267Y-15556876D01*
X12914028Y-15756876D02*
X12914028Y-15556876D01*
X12999743Y-15756876D02*
X12999743Y-15652114D01*
X12990219Y-15633067D01*
X12971171Y-15623543D01*
X12942600Y-15623543D01*
X12923552Y-15633067D01*
X12914028Y-15642590D01*
X13123552Y-15756876D02*
X13104505Y-15747352D01*
X13094981Y-15737828D01*
X13085457Y-15718781D01*
X13085457Y-15661638D01*
X13094981Y-15642590D01*
X13104505Y-15633067D01*
X13123552Y-15623543D01*
X13152124Y-15623543D01*
X13171171Y-15633067D01*
X13180695Y-15642590D01*
X13190219Y-15661638D01*
X13190219Y-15718781D01*
X13180695Y-15737828D01*
X13171171Y-15747352D01*
X13152124Y-15756876D01*
X13123552Y-15756876D01*
X13304505Y-15756876D02*
X13285457Y-15747352D01*
X13275933Y-15728305D01*
X13275933Y-15556876D01*
X13456886Y-15747352D02*
X13437838Y-15756876D01*
X13399743Y-15756876D01*
X13380695Y-15747352D01*
X13371171Y-15728305D01*
X13371171Y-15652114D01*
X13380695Y-15633067D01*
X13399743Y-15623543D01*
X13437838Y-15623543D01*
X13456886Y-15633067D01*
X13466409Y-15652114D01*
X13466409Y-15671162D01*
X13371171Y-15690209D01*
X13542600Y-15747352D02*
X13561648Y-15756876D01*
X13599743Y-15756876D01*
X13618790Y-15747352D01*
X13628314Y-15728305D01*
X13628314Y-15718781D01*
X13618790Y-15699733D01*
X13599743Y-15690209D01*
X13571171Y-15690209D01*
X13552124Y-15680686D01*
X13542600Y-15661638D01*
X13542600Y-15652114D01*
X13552124Y-15633067D01*
X13571171Y-15623543D01*
X13599743Y-15623543D01*
X13618790Y-15633067D01*
X13694981Y-15833067D02*
X13704505Y-15823543D01*
X13723552Y-15794971D01*
X13733076Y-15775924D01*
X13742600Y-15747352D01*
X13752124Y-15699733D01*
X13752124Y-15661638D01*
X13742600Y-15614019D01*
X13733076Y-15585448D01*
X13723552Y-15566400D01*
X13704505Y-15537828D01*
X13694981Y-15528305D01*
D14*
X8692600Y-15890400D02*
X8692600Y-15970400D01*
X8652600Y-15930400D02*
X8732600Y-15930400D01*
D11*
X9028314Y-15820876D02*
X9047362Y-15820876D01*
X9066410Y-15830400D01*
X9075933Y-15839924D01*
X9085457Y-15858971D01*
X9094981Y-15897067D01*
X9094981Y-15944686D01*
X9085457Y-15982781D01*
X9075933Y-16001828D01*
X9066410Y-16011352D01*
X9047362Y-16020876D01*
X9028314Y-16020876D01*
X9009267Y-16011352D01*
X8999743Y-16001828D01*
X8990219Y-15982781D01*
X8980695Y-15944686D01*
X8980695Y-15897067D01*
X8990219Y-15858971D01*
X8999743Y-15839924D01*
X9009267Y-15830400D01*
X9028314Y-15820876D01*
X9180695Y-16001828D02*
X9190219Y-16011352D01*
X9180695Y-16020876D01*
X9171171Y-16011352D01*
X9180695Y-16001828D01*
X9180695Y-16020876D01*
X9304505Y-15906590D02*
X9285457Y-15897067D01*
X9275933Y-15887543D01*
X9266410Y-15868495D01*
X9266410Y-15858971D01*
X9275933Y-15839924D01*
X9285457Y-15830400D01*
X9304505Y-15820876D01*
X9342600Y-15820876D01*
X9361648Y-15830400D01*
X9371171Y-15839924D01*
X9380695Y-15858971D01*
X9380695Y-15868495D01*
X9371171Y-15887543D01*
X9361648Y-15897067D01*
X9342600Y-15906590D01*
X9304505Y-15906590D01*
X9285457Y-15916114D01*
X9275933Y-15925638D01*
X9266410Y-15944686D01*
X9266410Y-15982781D01*
X9275933Y-16001828D01*
X9285457Y-16011352D01*
X9304505Y-16020876D01*
X9342600Y-16020876D01*
X9361648Y-16011352D01*
X9371171Y-16001828D01*
X9380695Y-15982781D01*
X9380695Y-15944686D01*
X9371171Y-15925638D01*
X9361648Y-15916114D01*
X9342600Y-15906590D01*
X9504505Y-15820876D02*
X9523552Y-15820876D01*
X9542600Y-15830400D01*
X9552124Y-15839924D01*
X9561648Y-15858971D01*
X9571171Y-15897067D01*
X9571171Y-15944686D01*
X9561648Y-15982781D01*
X9552124Y-16001828D01*
X9542600Y-16011352D01*
X9523552Y-16020876D01*
X9504505Y-16020876D01*
X9485457Y-16011352D01*
X9475933Y-16001828D01*
X9466410Y-15982781D01*
X9456886Y-15944686D01*
X9456886Y-15897067D01*
X9466410Y-15858971D01*
X9475933Y-15839924D01*
X9485457Y-15830400D01*
X9504505Y-15820876D01*
X9694981Y-15820876D02*
X9714029Y-15820876D01*
X9733076Y-15830400D01*
X9742600Y-15839924D01*
X9752124Y-15858971D01*
X9761648Y-15897067D01*
X9761648Y-15944686D01*
X9752124Y-15982781D01*
X9742600Y-16001828D01*
X9733076Y-16011352D01*
X9714029Y-16020876D01*
X9694981Y-16020876D01*
X9675933Y-16011352D01*
X9666410Y-16001828D01*
X9656886Y-15982781D01*
X9647362Y-15944686D01*
X9647362Y-15897067D01*
X9656886Y-15858971D01*
X9666410Y-15839924D01*
X9675933Y-15830400D01*
X9694981Y-15820876D01*
X9847362Y-16020876D02*
X9847362Y-15887543D01*
X9847362Y-15906590D02*
X9856886Y-15897067D01*
X9875933Y-15887543D01*
X9904505Y-15887543D01*
X9923552Y-15897067D01*
X9933076Y-15916114D01*
X9933076Y-16020876D01*
X9933076Y-15916114D02*
X9942600Y-15897067D01*
X9961648Y-15887543D01*
X9990219Y-15887543D01*
X10009267Y-15897067D01*
X10018790Y-15916114D01*
X10018790Y-16020876D01*
X10114029Y-16020876D02*
X10114029Y-15887543D01*
X10114029Y-15906590D02*
X10123552Y-15897067D01*
X10142600Y-15887543D01*
X10171171Y-15887543D01*
X10190219Y-15897067D01*
X10199743Y-15916114D01*
X10199743Y-16020876D01*
X10199743Y-15916114D02*
X10209267Y-15897067D01*
X10228314Y-15887543D01*
X10256886Y-15887543D01*
X10275933Y-15897067D01*
X10285457Y-15916114D01*
X10285457Y-16020876D01*
X10675933Y-15811352D02*
X10504505Y-16068495D01*
X10933076Y-15820876D02*
X10952124Y-15820876D01*
X10971171Y-15830400D01*
X10980695Y-15839924D01*
X10990219Y-15858971D01*
X10999743Y-15897067D01*
X10999743Y-15944686D01*
X10990219Y-15982781D01*
X10980695Y-16001828D01*
X10971171Y-16011352D01*
X10952124Y-16020876D01*
X10933076Y-16020876D01*
X10914029Y-16011352D01*
X10904505Y-16001828D01*
X10894981Y-15982781D01*
X10885457Y-15944686D01*
X10885457Y-15897067D01*
X10894981Y-15858971D01*
X10904505Y-15839924D01*
X10914029Y-15830400D01*
X10933076Y-15820876D01*
X11085457Y-16001828D02*
X11094981Y-16011352D01*
X11085457Y-16020876D01*
X11075933Y-16011352D01*
X11085457Y-16001828D01*
X11085457Y-16020876D01*
X11218790Y-15820876D02*
X11237838Y-15820876D01*
X11256886Y-15830400D01*
X11266409Y-15839924D01*
X11275933Y-15858971D01*
X11285457Y-15897067D01*
X11285457Y-15944686D01*
X11275933Y-15982781D01*
X11266409Y-16001828D01*
X11256886Y-16011352D01*
X11237838Y-16020876D01*
X11218790Y-16020876D01*
X11199743Y-16011352D01*
X11190219Y-16001828D01*
X11180695Y-15982781D01*
X11171171Y-15944686D01*
X11171171Y-15897067D01*
X11180695Y-15858971D01*
X11190219Y-15839924D01*
X11199743Y-15830400D01*
X11218790Y-15820876D01*
X11352124Y-15820876D02*
X11475933Y-15820876D01*
X11409267Y-15897067D01*
X11437838Y-15897067D01*
X11456886Y-15906590D01*
X11466409Y-15916114D01*
X11475933Y-15935162D01*
X11475933Y-15982781D01*
X11466409Y-16001828D01*
X11456886Y-16011352D01*
X11437838Y-16020876D01*
X11380695Y-16020876D01*
X11361648Y-16011352D01*
X11352124Y-16001828D01*
X11666409Y-16020876D02*
X11552124Y-16020876D01*
X11609267Y-16020876D02*
X11609267Y-15820876D01*
X11590219Y-15849448D01*
X11571171Y-15868495D01*
X11552124Y-15878019D01*
X11847362Y-15820876D02*
X11752124Y-15820876D01*
X11742600Y-15916114D01*
X11752124Y-15906590D01*
X11771171Y-15897067D01*
X11818790Y-15897067D01*
X11837838Y-15906590D01*
X11847362Y-15916114D01*
X11856886Y-15935162D01*
X11856886Y-15982781D01*
X11847362Y-16001828D01*
X11837838Y-16011352D01*
X11818790Y-16020876D01*
X11771171Y-16020876D01*
X11752124Y-16011352D01*
X11742600Y-16001828D01*
X11933076Y-15820876D02*
X11933076Y-15858971D01*
X12009267Y-15820876D02*
X12009267Y-15858971D01*
X12304505Y-16097067D02*
X12294981Y-16087543D01*
X12275933Y-16058971D01*
X12266409Y-16039924D01*
X12256886Y-16011352D01*
X12247362Y-15963733D01*
X12247362Y-15925638D01*
X12256886Y-15878019D01*
X12266409Y-15849448D01*
X12275933Y-15830400D01*
X12294981Y-15801828D01*
X12304505Y-15792305D01*
X12361648Y-15820876D02*
X12494981Y-15820876D01*
X12409267Y-16020876D01*
X12609267Y-15820876D02*
X12628314Y-15820876D01*
X12647362Y-15830400D01*
X12656886Y-15839924D01*
X12666409Y-15858971D01*
X12675933Y-15897067D01*
X12675933Y-15944686D01*
X12666409Y-15982781D01*
X12656886Y-16001828D01*
X12647362Y-16011352D01*
X12628314Y-16020876D01*
X12609267Y-16020876D01*
X12590219Y-16011352D01*
X12580695Y-16001828D01*
X12571171Y-15982781D01*
X12561648Y-15944686D01*
X12561648Y-15897067D01*
X12571171Y-15858971D01*
X12580695Y-15839924D01*
X12590219Y-15830400D01*
X12609267Y-15820876D01*
X12914028Y-16020876D02*
X12914028Y-15820876D01*
X12999743Y-16020876D02*
X12999743Y-15916114D01*
X12990219Y-15897067D01*
X12971171Y-15887543D01*
X12942600Y-15887543D01*
X12923552Y-15897067D01*
X12914028Y-15906590D01*
X13123552Y-16020876D02*
X13104505Y-16011352D01*
X13094981Y-16001828D01*
X13085457Y-15982781D01*
X13085457Y-15925638D01*
X13094981Y-15906590D01*
X13104505Y-15897067D01*
X13123552Y-15887543D01*
X13152124Y-15887543D01*
X13171171Y-15897067D01*
X13180695Y-15906590D01*
X13190219Y-15925638D01*
X13190219Y-15982781D01*
X13180695Y-16001828D01*
X13171171Y-16011352D01*
X13152124Y-16020876D01*
X13123552Y-16020876D01*
X13304505Y-16020876D02*
X13285457Y-16011352D01*
X13275933Y-15992305D01*
X13275933Y-15820876D01*
X13456886Y-16011352D02*
X13437838Y-16020876D01*
X13399743Y-16020876D01*
X13380695Y-16011352D01*
X13371171Y-15992305D01*
X13371171Y-15916114D01*
X13380695Y-15897067D01*
X13399743Y-15887543D01*
X13437838Y-15887543D01*
X13456886Y-15897067D01*
X13466409Y-15916114D01*
X13466409Y-15935162D01*
X13371171Y-15954209D01*
X13542600Y-16011352D02*
X13561648Y-16020876D01*
X13599743Y-16020876D01*
X13618790Y-16011352D01*
X13628314Y-15992305D01*
X13628314Y-15982781D01*
X13618790Y-15963733D01*
X13599743Y-15954209D01*
X13571171Y-15954209D01*
X13552124Y-15944686D01*
X13542600Y-15925638D01*
X13542600Y-15916114D01*
X13552124Y-15897067D01*
X13571171Y-15887543D01*
X13599743Y-15887543D01*
X13618790Y-15897067D01*
X13694981Y-16097067D02*
X13704505Y-16087543D01*
X13723552Y-16058971D01*
X13733076Y-16039924D01*
X13742600Y-16011352D01*
X13752124Y-15963733D01*
X13752124Y-15925638D01*
X13742600Y-15878019D01*
X13733076Y-15849448D01*
X13723552Y-15830400D01*
X13704505Y-15801828D01*
X13694981Y-15792305D01*
D15*
X8719420Y-16226220D02*
X8719420Y-16162580D01*
X8655780Y-16162580D01*
X8655780Y-16226220D01*
X8719420Y-16226220D01*
D11*
X9028314Y-16084876D02*
X9047362Y-16084876D01*
X9066410Y-16094400D01*
X9075933Y-16103924D01*
X9085457Y-16122971D01*
X9094981Y-16161067D01*
X9094981Y-16208686D01*
X9085457Y-16246781D01*
X9075933Y-16265828D01*
X9066410Y-16275352D01*
X9047362Y-16284876D01*
X9028314Y-16284876D01*
X9009267Y-16275352D01*
X8999743Y-16265828D01*
X8990219Y-16246781D01*
X8980695Y-16208686D01*
X8980695Y-16161067D01*
X8990219Y-16122971D01*
X8999743Y-16103924D01*
X9009267Y-16094400D01*
X9028314Y-16084876D01*
X9180695Y-16265828D02*
X9190219Y-16275352D01*
X9180695Y-16284876D01*
X9171171Y-16275352D01*
X9180695Y-16265828D01*
X9180695Y-16284876D01*
X9285457Y-16284876D02*
X9323552Y-16284876D01*
X9342600Y-16275352D01*
X9352124Y-16265828D01*
X9371171Y-16237257D01*
X9380695Y-16199162D01*
X9380695Y-16122971D01*
X9371171Y-16103924D01*
X9361648Y-16094400D01*
X9342600Y-16084876D01*
X9304505Y-16084876D01*
X9285457Y-16094400D01*
X9275933Y-16103924D01*
X9266410Y-16122971D01*
X9266410Y-16170590D01*
X9275933Y-16189638D01*
X9285457Y-16199162D01*
X9304505Y-16208686D01*
X9342600Y-16208686D01*
X9361648Y-16199162D01*
X9371171Y-16189638D01*
X9380695Y-16170590D01*
X9504505Y-16084876D02*
X9523552Y-16084876D01*
X9542600Y-16094400D01*
X9552124Y-16103924D01*
X9561648Y-16122971D01*
X9571171Y-16161067D01*
X9571171Y-16208686D01*
X9561648Y-16246781D01*
X9552124Y-16265828D01*
X9542600Y-16275352D01*
X9523552Y-16284876D01*
X9504505Y-16284876D01*
X9485457Y-16275352D01*
X9475933Y-16265828D01*
X9466410Y-16246781D01*
X9456886Y-16208686D01*
X9456886Y-16161067D01*
X9466410Y-16122971D01*
X9475933Y-16103924D01*
X9485457Y-16094400D01*
X9504505Y-16084876D01*
X9694981Y-16084876D02*
X9714029Y-16084876D01*
X9733076Y-16094400D01*
X9742600Y-16103924D01*
X9752124Y-16122971D01*
X9761648Y-16161067D01*
X9761648Y-16208686D01*
X9752124Y-16246781D01*
X9742600Y-16265828D01*
X9733076Y-16275352D01*
X9714029Y-16284876D01*
X9694981Y-16284876D01*
X9675933Y-16275352D01*
X9666410Y-16265828D01*
X9656886Y-16246781D01*
X9647362Y-16208686D01*
X9647362Y-16161067D01*
X9656886Y-16122971D01*
X9666410Y-16103924D01*
X9675933Y-16094400D01*
X9694981Y-16084876D01*
X9847362Y-16284876D02*
X9847362Y-16151543D01*
X9847362Y-16170590D02*
X9856886Y-16161067D01*
X9875933Y-16151543D01*
X9904505Y-16151543D01*
X9923552Y-16161067D01*
X9933076Y-16180114D01*
X9933076Y-16284876D01*
X9933076Y-16180114D02*
X9942600Y-16161067D01*
X9961648Y-16151543D01*
X9990219Y-16151543D01*
X10009267Y-16161067D01*
X10018790Y-16180114D01*
X10018790Y-16284876D01*
X10114029Y-16284876D02*
X10114029Y-16151543D01*
X10114029Y-16170590D02*
X10123552Y-16161067D01*
X10142600Y-16151543D01*
X10171171Y-16151543D01*
X10190219Y-16161067D01*
X10199743Y-16180114D01*
X10199743Y-16284876D01*
X10199743Y-16180114D02*
X10209267Y-16161067D01*
X10228314Y-16151543D01*
X10256886Y-16151543D01*
X10275933Y-16161067D01*
X10285457Y-16180114D01*
X10285457Y-16284876D01*
X10675933Y-16075352D02*
X10504505Y-16332495D01*
X10933076Y-16084876D02*
X10952124Y-16084876D01*
X10971171Y-16094400D01*
X10980695Y-16103924D01*
X10990219Y-16122971D01*
X10999743Y-16161067D01*
X10999743Y-16208686D01*
X10990219Y-16246781D01*
X10980695Y-16265828D01*
X10971171Y-16275352D01*
X10952124Y-16284876D01*
X10933076Y-16284876D01*
X10914029Y-16275352D01*
X10904505Y-16265828D01*
X10894981Y-16246781D01*
X10885457Y-16208686D01*
X10885457Y-16161067D01*
X10894981Y-16122971D01*
X10904505Y-16103924D01*
X10914029Y-16094400D01*
X10933076Y-16084876D01*
X11085457Y-16265828D02*
X11094981Y-16275352D01*
X11085457Y-16284876D01*
X11075933Y-16275352D01*
X11085457Y-16265828D01*
X11085457Y-16284876D01*
X11218790Y-16084876D02*
X11237838Y-16084876D01*
X11256886Y-16094400D01*
X11266409Y-16103924D01*
X11275933Y-16122971D01*
X11285457Y-16161067D01*
X11285457Y-16208686D01*
X11275933Y-16246781D01*
X11266409Y-16265828D01*
X11256886Y-16275352D01*
X11237838Y-16284876D01*
X11218790Y-16284876D01*
X11199743Y-16275352D01*
X11190219Y-16265828D01*
X11180695Y-16246781D01*
X11171171Y-16208686D01*
X11171171Y-16161067D01*
X11180695Y-16122971D01*
X11190219Y-16103924D01*
X11199743Y-16094400D01*
X11218790Y-16084876D01*
X11352124Y-16084876D02*
X11475933Y-16084876D01*
X11409267Y-16161067D01*
X11437838Y-16161067D01*
X11456886Y-16170590D01*
X11466409Y-16180114D01*
X11475933Y-16199162D01*
X11475933Y-16246781D01*
X11466409Y-16265828D01*
X11456886Y-16275352D01*
X11437838Y-16284876D01*
X11380695Y-16284876D01*
X11361648Y-16275352D01*
X11352124Y-16265828D01*
X11656886Y-16084876D02*
X11561648Y-16084876D01*
X11552124Y-16180114D01*
X11561648Y-16170590D01*
X11580695Y-16161067D01*
X11628314Y-16161067D01*
X11647362Y-16170590D01*
X11656886Y-16180114D01*
X11666409Y-16199162D01*
X11666409Y-16246781D01*
X11656886Y-16265828D01*
X11647362Y-16275352D01*
X11628314Y-16284876D01*
X11580695Y-16284876D01*
X11561648Y-16275352D01*
X11552124Y-16265828D01*
X11837838Y-16151543D02*
X11837838Y-16284876D01*
X11790219Y-16075352D02*
X11742600Y-16218209D01*
X11866409Y-16218209D01*
X11933076Y-16084876D02*
X11933076Y-16122971D01*
X12009267Y-16084876D02*
X12009267Y-16122971D01*
X12304505Y-16361067D02*
X12294981Y-16351543D01*
X12275933Y-16322971D01*
X12266409Y-16303924D01*
X12256886Y-16275352D01*
X12247362Y-16227733D01*
X12247362Y-16189638D01*
X12256886Y-16142019D01*
X12266409Y-16113448D01*
X12275933Y-16094400D01*
X12294981Y-16065828D01*
X12304505Y-16056305D01*
X12371171Y-16103924D02*
X12380695Y-16094400D01*
X12399743Y-16084876D01*
X12447362Y-16084876D01*
X12466409Y-16094400D01*
X12475933Y-16103924D01*
X12485457Y-16122971D01*
X12485457Y-16142019D01*
X12475933Y-16170590D01*
X12361648Y-16284876D01*
X12485457Y-16284876D01*
X12599743Y-16170590D02*
X12580695Y-16161067D01*
X12571171Y-16151543D01*
X12561648Y-16132495D01*
X12561648Y-16122971D01*
X12571171Y-16103924D01*
X12580695Y-16094400D01*
X12599743Y-16084876D01*
X12637838Y-16084876D01*
X12656886Y-16094400D01*
X12666409Y-16103924D01*
X12675933Y-16122971D01*
X12675933Y-16132495D01*
X12666409Y-16151543D01*
X12656886Y-16161067D01*
X12637838Y-16170590D01*
X12599743Y-16170590D01*
X12580695Y-16180114D01*
X12571171Y-16189638D01*
X12561648Y-16208686D01*
X12561648Y-16246781D01*
X12571171Y-16265828D01*
X12580695Y-16275352D01*
X12599743Y-16284876D01*
X12637838Y-16284876D01*
X12656886Y-16275352D01*
X12666409Y-16265828D01*
X12675933Y-16246781D01*
X12675933Y-16208686D01*
X12666409Y-16189638D01*
X12656886Y-16180114D01*
X12637838Y-16170590D01*
X12914028Y-16284876D02*
X12914028Y-16084876D01*
X12999743Y-16284876D02*
X12999743Y-16180114D01*
X12990219Y-16161067D01*
X12971171Y-16151543D01*
X12942600Y-16151543D01*
X12923552Y-16161067D01*
X12914028Y-16170590D01*
X13123552Y-16284876D02*
X13104505Y-16275352D01*
X13094981Y-16265828D01*
X13085457Y-16246781D01*
X13085457Y-16189638D01*
X13094981Y-16170590D01*
X13104505Y-16161067D01*
X13123552Y-16151543D01*
X13152124Y-16151543D01*
X13171171Y-16161067D01*
X13180695Y-16170590D01*
X13190219Y-16189638D01*
X13190219Y-16246781D01*
X13180695Y-16265828D01*
X13171171Y-16275352D01*
X13152124Y-16284876D01*
X13123552Y-16284876D01*
X13304505Y-16284876D02*
X13285457Y-16275352D01*
X13275933Y-16256305D01*
X13275933Y-16084876D01*
X13456886Y-16275352D02*
X13437838Y-16284876D01*
X13399743Y-16284876D01*
X13380695Y-16275352D01*
X13371171Y-16256305D01*
X13371171Y-16180114D01*
X13380695Y-16161067D01*
X13399743Y-16151543D01*
X13437838Y-16151543D01*
X13456886Y-16161067D01*
X13466409Y-16180114D01*
X13466409Y-16199162D01*
X13371171Y-16218209D01*
X13542600Y-16275352D02*
X13561648Y-16284876D01*
X13599743Y-16284876D01*
X13618790Y-16275352D01*
X13628314Y-16256305D01*
X13628314Y-16246781D01*
X13618790Y-16227733D01*
X13599743Y-16218209D01*
X13571171Y-16218209D01*
X13552124Y-16208686D01*
X13542600Y-16189638D01*
X13542600Y-16180114D01*
X13552124Y-16161067D01*
X13571171Y-16151543D01*
X13599743Y-16151543D01*
X13618790Y-16161067D01*
X13694981Y-16361067D02*
X13704505Y-16351543D01*
X13723552Y-16322971D01*
X13733076Y-16303924D01*
X13742600Y-16275352D01*
X13752124Y-16227733D01*
X13752124Y-16189638D01*
X13742600Y-16142019D01*
X13733076Y-16113448D01*
X13723552Y-16094400D01*
X13704505Y-16065828D01*
X13694981Y-16056305D01*
D16*
X8686600Y-16504400D02*
X8732600Y-16458400D01*
X8686600Y-16412400D01*
X8640600Y-16458400D01*
X8686600Y-16504400D01*
D11*
X9028314Y-16348876D02*
X9047362Y-16348876D01*
X9066410Y-16358400D01*
X9075933Y-16367924D01*
X9085457Y-16386971D01*
X9094981Y-16425067D01*
X9094981Y-16472686D01*
X9085457Y-16510781D01*
X9075933Y-16529828D01*
X9066410Y-16539352D01*
X9047362Y-16548876D01*
X9028314Y-16548876D01*
X9009267Y-16539352D01*
X8999743Y-16529828D01*
X8990219Y-16510781D01*
X8980695Y-16472686D01*
X8980695Y-16425067D01*
X8990219Y-16386971D01*
X8999743Y-16367924D01*
X9009267Y-16358400D01*
X9028314Y-16348876D01*
X9180695Y-16529828D02*
X9190219Y-16539352D01*
X9180695Y-16548876D01*
X9171171Y-16539352D01*
X9180695Y-16529828D01*
X9180695Y-16548876D01*
X9285457Y-16548876D02*
X9323552Y-16548876D01*
X9342600Y-16539352D01*
X9352124Y-16529828D01*
X9371171Y-16501257D01*
X9380695Y-16463162D01*
X9380695Y-16386971D01*
X9371171Y-16367924D01*
X9361648Y-16358400D01*
X9342600Y-16348876D01*
X9304505Y-16348876D01*
X9285457Y-16358400D01*
X9275933Y-16367924D01*
X9266410Y-16386971D01*
X9266410Y-16434590D01*
X9275933Y-16453638D01*
X9285457Y-16463162D01*
X9304505Y-16472686D01*
X9342600Y-16472686D01*
X9361648Y-16463162D01*
X9371171Y-16453638D01*
X9380695Y-16434590D01*
X9456886Y-16367924D02*
X9466410Y-16358400D01*
X9485457Y-16348876D01*
X9533076Y-16348876D01*
X9552124Y-16358400D01*
X9561648Y-16367924D01*
X9571171Y-16386971D01*
X9571171Y-16406019D01*
X9561648Y-16434590D01*
X9447362Y-16548876D01*
X9571171Y-16548876D01*
X9694981Y-16348876D02*
X9714029Y-16348876D01*
X9733076Y-16358400D01*
X9742600Y-16367924D01*
X9752124Y-16386971D01*
X9761648Y-16425067D01*
X9761648Y-16472686D01*
X9752124Y-16510781D01*
X9742600Y-16529828D01*
X9733076Y-16539352D01*
X9714029Y-16548876D01*
X9694981Y-16548876D01*
X9675933Y-16539352D01*
X9666410Y-16529828D01*
X9656886Y-16510781D01*
X9647362Y-16472686D01*
X9647362Y-16425067D01*
X9656886Y-16386971D01*
X9666410Y-16367924D01*
X9675933Y-16358400D01*
X9694981Y-16348876D01*
X9847362Y-16548876D02*
X9847362Y-16415543D01*
X9847362Y-16434590D02*
X9856886Y-16425067D01*
X9875933Y-16415543D01*
X9904505Y-16415543D01*
X9923552Y-16425067D01*
X9933076Y-16444114D01*
X9933076Y-16548876D01*
X9933076Y-16444114D02*
X9942600Y-16425067D01*
X9961648Y-16415543D01*
X9990219Y-16415543D01*
X10009267Y-16425067D01*
X10018790Y-16444114D01*
X10018790Y-16548876D01*
X10114029Y-16548876D02*
X10114029Y-16415543D01*
X10114029Y-16434590D02*
X10123552Y-16425067D01*
X10142600Y-16415543D01*
X10171171Y-16415543D01*
X10190219Y-16425067D01*
X10199743Y-16444114D01*
X10199743Y-16548876D01*
X10199743Y-16444114D02*
X10209267Y-16425067D01*
X10228314Y-16415543D01*
X10256886Y-16415543D01*
X10275933Y-16425067D01*
X10285457Y-16444114D01*
X10285457Y-16548876D01*
X10675933Y-16339352D02*
X10504505Y-16596495D01*
X10933076Y-16348876D02*
X10952124Y-16348876D01*
X10971171Y-16358400D01*
X10980695Y-16367924D01*
X10990219Y-16386971D01*
X10999743Y-16425067D01*
X10999743Y-16472686D01*
X10990219Y-16510781D01*
X10980695Y-16529828D01*
X10971171Y-16539352D01*
X10952124Y-16548876D01*
X10933076Y-16548876D01*
X10914029Y-16539352D01*
X10904505Y-16529828D01*
X10894981Y-16510781D01*
X10885457Y-16472686D01*
X10885457Y-16425067D01*
X10894981Y-16386971D01*
X10904505Y-16367924D01*
X10914029Y-16358400D01*
X10933076Y-16348876D01*
X11085457Y-16529828D02*
X11094981Y-16539352D01*
X11085457Y-16548876D01*
X11075933Y-16539352D01*
X11085457Y-16529828D01*
X11085457Y-16548876D01*
X11218790Y-16348876D02*
X11237838Y-16348876D01*
X11256886Y-16358400D01*
X11266409Y-16367924D01*
X11275933Y-16386971D01*
X11285457Y-16425067D01*
X11285457Y-16472686D01*
X11275933Y-16510781D01*
X11266409Y-16529828D01*
X11256886Y-16539352D01*
X11237838Y-16548876D01*
X11218790Y-16548876D01*
X11199743Y-16539352D01*
X11190219Y-16529828D01*
X11180695Y-16510781D01*
X11171171Y-16472686D01*
X11171171Y-16425067D01*
X11180695Y-16386971D01*
X11190219Y-16367924D01*
X11199743Y-16358400D01*
X11218790Y-16348876D01*
X11352124Y-16348876D02*
X11475933Y-16348876D01*
X11409267Y-16425067D01*
X11437838Y-16425067D01*
X11456886Y-16434590D01*
X11466409Y-16444114D01*
X11475933Y-16463162D01*
X11475933Y-16510781D01*
X11466409Y-16529828D01*
X11456886Y-16539352D01*
X11437838Y-16548876D01*
X11380695Y-16548876D01*
X11361648Y-16539352D01*
X11352124Y-16529828D01*
X11647362Y-16348876D02*
X11609267Y-16348876D01*
X11590219Y-16358400D01*
X11580695Y-16367924D01*
X11561648Y-16396495D01*
X11552124Y-16434590D01*
X11552124Y-16510781D01*
X11561648Y-16529828D01*
X11571171Y-16539352D01*
X11590219Y-16548876D01*
X11628314Y-16548876D01*
X11647362Y-16539352D01*
X11656886Y-16529828D01*
X11666409Y-16510781D01*
X11666409Y-16463162D01*
X11656886Y-16444114D01*
X11647362Y-16434590D01*
X11628314Y-16425067D01*
X11590219Y-16425067D01*
X11571171Y-16434590D01*
X11561648Y-16444114D01*
X11552124Y-16463162D01*
X11742600Y-16367924D02*
X11752124Y-16358400D01*
X11771171Y-16348876D01*
X11818790Y-16348876D01*
X11837838Y-16358400D01*
X11847362Y-16367924D01*
X11856886Y-16386971D01*
X11856886Y-16406019D01*
X11847362Y-16434590D01*
X11733076Y-16548876D01*
X11856886Y-16548876D01*
X11933076Y-16348876D02*
X11933076Y-16386971D01*
X12009267Y-16348876D02*
X12009267Y-16386971D01*
X12304505Y-16625067D02*
X12294981Y-16615543D01*
X12275933Y-16586971D01*
X12266409Y-16567924D01*
X12256886Y-16539352D01*
X12247362Y-16491733D01*
X12247362Y-16453638D01*
X12256886Y-16406019D01*
X12266409Y-16377448D01*
X12275933Y-16358400D01*
X12294981Y-16329828D01*
X12304505Y-16320305D01*
X12466409Y-16415543D02*
X12466409Y-16548876D01*
X12418790Y-16339352D02*
X12371171Y-16482209D01*
X12494981Y-16482209D01*
X12723552Y-16548876D02*
X12723552Y-16348876D01*
X12809267Y-16548876D02*
X12809267Y-16444114D01*
X12799743Y-16425067D01*
X12780695Y-16415543D01*
X12752124Y-16415543D01*
X12733076Y-16425067D01*
X12723552Y-16434590D01*
X12933076Y-16548876D02*
X12914028Y-16539352D01*
X12904505Y-16529828D01*
X12894981Y-16510781D01*
X12894981Y-16453638D01*
X12904505Y-16434590D01*
X12914028Y-16425067D01*
X12933076Y-16415543D01*
X12961648Y-16415543D01*
X12980695Y-16425067D01*
X12990219Y-16434590D01*
X12999743Y-16453638D01*
X12999743Y-16510781D01*
X12990219Y-16529828D01*
X12980695Y-16539352D01*
X12961648Y-16548876D01*
X12933076Y-16548876D01*
X13114028Y-16548876D02*
X13094981Y-16539352D01*
X13085457Y-16520305D01*
X13085457Y-16348876D01*
X13266409Y-16539352D02*
X13247362Y-16548876D01*
X13209267Y-16548876D01*
X13190219Y-16539352D01*
X13180695Y-16520305D01*
X13180695Y-16444114D01*
X13190219Y-16425067D01*
X13209267Y-16415543D01*
X13247362Y-16415543D01*
X13266409Y-16425067D01*
X13275933Y-16444114D01*
X13275933Y-16463162D01*
X13180695Y-16482209D01*
X13352124Y-16539352D02*
X13371171Y-16548876D01*
X13409267Y-16548876D01*
X13428314Y-16539352D01*
X13437838Y-16520305D01*
X13437838Y-16510781D01*
X13428314Y-16491733D01*
X13409267Y-16482209D01*
X13380695Y-16482209D01*
X13361648Y-16472686D01*
X13352124Y-16453638D01*
X13352124Y-16444114D01*
X13361648Y-16425067D01*
X13380695Y-16415543D01*
X13409267Y-16415543D01*
X13428314Y-16425067D01*
X13504505Y-16625067D02*
X13514028Y-16615543D01*
X13533076Y-16586971D01*
X13542600Y-16567924D01*
X13552124Y-16539352D01*
X13561648Y-16491733D01*
X13561648Y-16453638D01*
X13552124Y-16406019D01*
X13542600Y-16377448D01*
X13533076Y-16358400D01*
X13514028Y-16329828D01*
X13504505Y-16320305D01*
D10*
X8632600Y-16672400D02*
X8732600Y-16772400D01*
X8732600Y-16672400D02*
X8632600Y-16772400D01*
X8732600Y-16722400D02*
G75*
G03*
X8732600Y-16722400I-50000J0D01*
G01*
D11*
X9094981Y-16812876D02*
X8980695Y-16812876D01*
X9037838Y-16812876D02*
X9037838Y-16612876D01*
X9018790Y-16641448D01*
X8999743Y-16660495D01*
X8980695Y-16670019D01*
X9180695Y-16793829D02*
X9190219Y-16803352D01*
X9180695Y-16812876D01*
X9171171Y-16803352D01*
X9180695Y-16793829D01*
X9180695Y-16812876D01*
X9314029Y-16612876D02*
X9333076Y-16612876D01*
X9352124Y-16622400D01*
X9361648Y-16631924D01*
X9371171Y-16650971D01*
X9380695Y-16689067D01*
X9380695Y-16736686D01*
X9371171Y-16774781D01*
X9361648Y-16793829D01*
X9352124Y-16803352D01*
X9333076Y-16812876D01*
X9314029Y-16812876D01*
X9294981Y-16803352D01*
X9285457Y-16793829D01*
X9275933Y-16774781D01*
X9266410Y-16736686D01*
X9266410Y-16689067D01*
X9275933Y-16650971D01*
X9285457Y-16631924D01*
X9294981Y-16622400D01*
X9314029Y-16612876D01*
X9504505Y-16612876D02*
X9523552Y-16612876D01*
X9542600Y-16622400D01*
X9552124Y-16631924D01*
X9561648Y-16650971D01*
X9571171Y-16689067D01*
X9571171Y-16736686D01*
X9561648Y-16774781D01*
X9552124Y-16793829D01*
X9542600Y-16803352D01*
X9523552Y-16812876D01*
X9504505Y-16812876D01*
X9485457Y-16803352D01*
X9475933Y-16793829D01*
X9466410Y-16774781D01*
X9456886Y-16736686D01*
X9456886Y-16689067D01*
X9466410Y-16650971D01*
X9475933Y-16631924D01*
X9485457Y-16622400D01*
X9504505Y-16612876D01*
X9694981Y-16612876D02*
X9714029Y-16612876D01*
X9733076Y-16622400D01*
X9742600Y-16631924D01*
X9752124Y-16650971D01*
X9761648Y-16689067D01*
X9761648Y-16736686D01*
X9752124Y-16774781D01*
X9742600Y-16793829D01*
X9733076Y-16803352D01*
X9714029Y-16812876D01*
X9694981Y-16812876D01*
X9675933Y-16803352D01*
X9666410Y-16793829D01*
X9656886Y-16774781D01*
X9647362Y-16736686D01*
X9647362Y-16689067D01*
X9656886Y-16650971D01*
X9666410Y-16631924D01*
X9675933Y-16622400D01*
X9694981Y-16612876D01*
X9847362Y-16812876D02*
X9847362Y-16679543D01*
X9847362Y-16698590D02*
X9856886Y-16689067D01*
X9875933Y-16679543D01*
X9904505Y-16679543D01*
X9923552Y-16689067D01*
X9933076Y-16708114D01*
X9933076Y-16812876D01*
X9933076Y-16708114D02*
X9942600Y-16689067D01*
X9961648Y-16679543D01*
X9990219Y-16679543D01*
X10009267Y-16689067D01*
X10018790Y-16708114D01*
X10018790Y-16812876D01*
X10114029Y-16812876D02*
X10114029Y-16679543D01*
X10114029Y-16698590D02*
X10123552Y-16689067D01*
X10142600Y-16679543D01*
X10171171Y-16679543D01*
X10190219Y-16689067D01*
X10199743Y-16708114D01*
X10199743Y-16812876D01*
X10199743Y-16708114D02*
X10209267Y-16689067D01*
X10228314Y-16679543D01*
X10256886Y-16679543D01*
X10275933Y-16689067D01*
X10285457Y-16708114D01*
X10285457Y-16812876D01*
X10675933Y-16603352D02*
X10504505Y-16860495D01*
X10933076Y-16612876D02*
X10952124Y-16612876D01*
X10971171Y-16622400D01*
X10980695Y-16631924D01*
X10990219Y-16650971D01*
X10999743Y-16689067D01*
X10999743Y-16736686D01*
X10990219Y-16774781D01*
X10980695Y-16793829D01*
X10971171Y-16803352D01*
X10952124Y-16812876D01*
X10933076Y-16812876D01*
X10914029Y-16803352D01*
X10904505Y-16793829D01*
X10894981Y-16774781D01*
X10885457Y-16736686D01*
X10885457Y-16689067D01*
X10894981Y-16650971D01*
X10904505Y-16631924D01*
X10914029Y-16622400D01*
X10933076Y-16612876D01*
X11085457Y-16793829D02*
X11094981Y-16803352D01*
X11085457Y-16812876D01*
X11075933Y-16803352D01*
X11085457Y-16793829D01*
X11085457Y-16812876D01*
X11218790Y-16612876D02*
X11237838Y-16612876D01*
X11256886Y-16622400D01*
X11266409Y-16631924D01*
X11275933Y-16650971D01*
X11285457Y-16689067D01*
X11285457Y-16736686D01*
X11275933Y-16774781D01*
X11266409Y-16793829D01*
X11256886Y-16803352D01*
X11237838Y-16812876D01*
X11218790Y-16812876D01*
X11199743Y-16803352D01*
X11190219Y-16793829D01*
X11180695Y-16774781D01*
X11171171Y-16736686D01*
X11171171Y-16689067D01*
X11180695Y-16650971D01*
X11190219Y-16631924D01*
X11199743Y-16622400D01*
X11218790Y-16612876D01*
X11352124Y-16612876D02*
X11475933Y-16612876D01*
X11409267Y-16689067D01*
X11437838Y-16689067D01*
X11456886Y-16698590D01*
X11466409Y-16708114D01*
X11475933Y-16727162D01*
X11475933Y-16774781D01*
X11466409Y-16793829D01*
X11456886Y-16803352D01*
X11437838Y-16812876D01*
X11380695Y-16812876D01*
X11361648Y-16803352D01*
X11352124Y-16793829D01*
X11571171Y-16812876D02*
X11609267Y-16812876D01*
X11628314Y-16803352D01*
X11637838Y-16793829D01*
X11656886Y-16765257D01*
X11666409Y-16727162D01*
X11666409Y-16650971D01*
X11656886Y-16631924D01*
X11647362Y-16622400D01*
X11628314Y-16612876D01*
X11590219Y-16612876D01*
X11571171Y-16622400D01*
X11561648Y-16631924D01*
X11552124Y-16650971D01*
X11552124Y-16698590D01*
X11561648Y-16717638D01*
X11571171Y-16727162D01*
X11590219Y-16736686D01*
X11628314Y-16736686D01*
X11647362Y-16727162D01*
X11656886Y-16717638D01*
X11666409Y-16698590D01*
X11837838Y-16679543D02*
X11837838Y-16812876D01*
X11790219Y-16603352D02*
X11742600Y-16746209D01*
X11866409Y-16746209D01*
X11933076Y-16612876D02*
X11933076Y-16650971D01*
X12009267Y-16612876D02*
X12009267Y-16650971D01*
X12304505Y-16889067D02*
X12294981Y-16879543D01*
X12275933Y-16850971D01*
X12266409Y-16831924D01*
X12256886Y-16803352D01*
X12247362Y-16755733D01*
X12247362Y-16717638D01*
X12256886Y-16670019D01*
X12266409Y-16641448D01*
X12275933Y-16622400D01*
X12294981Y-16593828D01*
X12304505Y-16584305D01*
X12466409Y-16612876D02*
X12428314Y-16612876D01*
X12409267Y-16622400D01*
X12399743Y-16631924D01*
X12380695Y-16660495D01*
X12371171Y-16698590D01*
X12371171Y-16774781D01*
X12380695Y-16793829D01*
X12390219Y-16803352D01*
X12409267Y-16812876D01*
X12447362Y-16812876D01*
X12466409Y-16803352D01*
X12475933Y-16793829D01*
X12485457Y-16774781D01*
X12485457Y-16727162D01*
X12475933Y-16708114D01*
X12466409Y-16698590D01*
X12447362Y-16689067D01*
X12409267Y-16689067D01*
X12390219Y-16698590D01*
X12380695Y-16708114D01*
X12371171Y-16727162D01*
X12561648Y-16631924D02*
X12571171Y-16622400D01*
X12590219Y-16612876D01*
X12637838Y-16612876D01*
X12656886Y-16622400D01*
X12666409Y-16631924D01*
X12675933Y-16650971D01*
X12675933Y-16670019D01*
X12666409Y-16698590D01*
X12552124Y-16812876D01*
X12675933Y-16812876D01*
X12914028Y-16812876D02*
X12914028Y-16612876D01*
X12999743Y-16812876D02*
X12999743Y-16708114D01*
X12990219Y-16689067D01*
X12971171Y-16679543D01*
X12942600Y-16679543D01*
X12923552Y-16689067D01*
X12914028Y-16698590D01*
X13123552Y-16812876D02*
X13104505Y-16803352D01*
X13094981Y-16793829D01*
X13085457Y-16774781D01*
X13085457Y-16717638D01*
X13094981Y-16698590D01*
X13104505Y-16689067D01*
X13123552Y-16679543D01*
X13152124Y-16679543D01*
X13171171Y-16689067D01*
X13180695Y-16698590D01*
X13190219Y-16717638D01*
X13190219Y-16774781D01*
X13180695Y-16793829D01*
X13171171Y-16803352D01*
X13152124Y-16812876D01*
X13123552Y-16812876D01*
X13304505Y-16812876D02*
X13285457Y-16803352D01*
X13275933Y-16784305D01*
X13275933Y-16612876D01*
X13456886Y-16803352D02*
X13437838Y-16812876D01*
X13399743Y-16812876D01*
X13380695Y-16803352D01*
X13371171Y-16784305D01*
X13371171Y-16708114D01*
X13380695Y-16689067D01*
X13399743Y-16679543D01*
X13437838Y-16679543D01*
X13456886Y-16689067D01*
X13466409Y-16708114D01*
X13466409Y-16727162D01*
X13371171Y-16746209D01*
X13542600Y-16803352D02*
X13561648Y-16812876D01*
X13599743Y-16812876D01*
X13618790Y-16803352D01*
X13628314Y-16784305D01*
X13628314Y-16774781D01*
X13618790Y-16755733D01*
X13599743Y-16746209D01*
X13571171Y-16746209D01*
X13552124Y-16736686D01*
X13542600Y-16717638D01*
X13542600Y-16708114D01*
X13552124Y-16689067D01*
X13571171Y-16679543D01*
X13599743Y-16679543D01*
X13618790Y-16689067D01*
X13694981Y-16889067D02*
X13704505Y-16879543D01*
X13723552Y-16850971D01*
X13733076Y-16831924D01*
X13742600Y-16803352D01*
X13752124Y-16755733D01*
X13752124Y-16717638D01*
X13742600Y-16670019D01*
X13733076Y-16641448D01*
X13723552Y-16622400D01*
X13704505Y-16593828D01*
X13694981Y-16584305D01*
D17*
X8622600Y-16931400D02*
X8732600Y-17041400D01*
X8732600Y-16931400D02*
X8622600Y-17041400D01*
X8677600Y-16931400D02*
X8677600Y-17041400D01*
X8622600Y-16986400D02*
X8732600Y-16986400D01*
D11*
X9094981Y-17076876D02*
X8980695Y-17076876D01*
X9037838Y-17076876D02*
X9037838Y-16876876D01*
X9018790Y-16905448D01*
X8999743Y-16924495D01*
X8980695Y-16934019D01*
X9180695Y-17057829D02*
X9190219Y-17067352D01*
X9180695Y-17076876D01*
X9171171Y-17067352D01*
X9180695Y-17057829D01*
X9180695Y-17076876D01*
X9380695Y-17076876D02*
X9266410Y-17076876D01*
X9323552Y-17076876D02*
X9323552Y-16876876D01*
X9304505Y-16905448D01*
X9285457Y-16924495D01*
X9266410Y-16934019D01*
X9504505Y-16876876D02*
X9523552Y-16876876D01*
X9542600Y-16886400D01*
X9552124Y-16895924D01*
X9561648Y-16914971D01*
X9571171Y-16953067D01*
X9571171Y-17000686D01*
X9561648Y-17038781D01*
X9552124Y-17057829D01*
X9542600Y-17067352D01*
X9523552Y-17076876D01*
X9504505Y-17076876D01*
X9485457Y-17067352D01*
X9475933Y-17057829D01*
X9466410Y-17038781D01*
X9456886Y-17000686D01*
X9456886Y-16953067D01*
X9466410Y-16914971D01*
X9475933Y-16895924D01*
X9485457Y-16886400D01*
X9504505Y-16876876D01*
X9694981Y-16876876D02*
X9714029Y-16876876D01*
X9733076Y-16886400D01*
X9742600Y-16895924D01*
X9752124Y-16914971D01*
X9761648Y-16953067D01*
X9761648Y-17000686D01*
X9752124Y-17038781D01*
X9742600Y-17057829D01*
X9733076Y-17067352D01*
X9714029Y-17076876D01*
X9694981Y-17076876D01*
X9675933Y-17067352D01*
X9666410Y-17057829D01*
X9656886Y-17038781D01*
X9647362Y-17000686D01*
X9647362Y-16953067D01*
X9656886Y-16914971D01*
X9666410Y-16895924D01*
X9675933Y-16886400D01*
X9694981Y-16876876D01*
X9847362Y-17076876D02*
X9847362Y-16943543D01*
X9847362Y-16962590D02*
X9856886Y-16953067D01*
X9875933Y-16943543D01*
X9904505Y-16943543D01*
X9923552Y-16953067D01*
X9933076Y-16972114D01*
X9933076Y-17076876D01*
X9933076Y-16972114D02*
X9942600Y-16953067D01*
X9961648Y-16943543D01*
X9990219Y-16943543D01*
X10009267Y-16953067D01*
X10018790Y-16972114D01*
X10018790Y-17076876D01*
X10114029Y-17076876D02*
X10114029Y-16943543D01*
X10114029Y-16962590D02*
X10123552Y-16953067D01*
X10142600Y-16943543D01*
X10171171Y-16943543D01*
X10190219Y-16953067D01*
X10199743Y-16972114D01*
X10199743Y-17076876D01*
X10199743Y-16972114D02*
X10209267Y-16953067D01*
X10228314Y-16943543D01*
X10256886Y-16943543D01*
X10275933Y-16953067D01*
X10285457Y-16972114D01*
X10285457Y-17076876D01*
X10675933Y-16867352D02*
X10504505Y-17124495D01*
X10933076Y-16876876D02*
X10952124Y-16876876D01*
X10971171Y-16886400D01*
X10980695Y-16895924D01*
X10990219Y-16914971D01*
X10999743Y-16953067D01*
X10999743Y-17000686D01*
X10990219Y-17038781D01*
X10980695Y-17057829D01*
X10971171Y-17067352D01*
X10952124Y-17076876D01*
X10933076Y-17076876D01*
X10914029Y-17067352D01*
X10904505Y-17057829D01*
X10894981Y-17038781D01*
X10885457Y-17000686D01*
X10885457Y-16953067D01*
X10894981Y-16914971D01*
X10904505Y-16895924D01*
X10914029Y-16886400D01*
X10933076Y-16876876D01*
X11085457Y-17057829D02*
X11094981Y-17067352D01*
X11085457Y-17076876D01*
X11075933Y-17067352D01*
X11085457Y-17057829D01*
X11085457Y-17076876D01*
X11218790Y-16876876D02*
X11237838Y-16876876D01*
X11256886Y-16886400D01*
X11266409Y-16895924D01*
X11275933Y-16914971D01*
X11285457Y-16953067D01*
X11285457Y-17000686D01*
X11275933Y-17038781D01*
X11266409Y-17057829D01*
X11256886Y-17067352D01*
X11237838Y-17076876D01*
X11218790Y-17076876D01*
X11199743Y-17067352D01*
X11190219Y-17057829D01*
X11180695Y-17038781D01*
X11171171Y-17000686D01*
X11171171Y-16953067D01*
X11180695Y-16914971D01*
X11190219Y-16895924D01*
X11199743Y-16886400D01*
X11218790Y-16876876D01*
X11456886Y-16943543D02*
X11456886Y-17076876D01*
X11409267Y-16867352D02*
X11361648Y-17010210D01*
X11485457Y-17010210D01*
X11542600Y-16876876D02*
X11666409Y-16876876D01*
X11599743Y-16953067D01*
X11628314Y-16953067D01*
X11647362Y-16962590D01*
X11656886Y-16972114D01*
X11666409Y-16991162D01*
X11666409Y-17038781D01*
X11656886Y-17057829D01*
X11647362Y-17067352D01*
X11628314Y-17076876D01*
X11571171Y-17076876D01*
X11552124Y-17067352D01*
X11542600Y-17057829D01*
X11733076Y-16876876D02*
X11856886Y-16876876D01*
X11790219Y-16953067D01*
X11818790Y-16953067D01*
X11837838Y-16962590D01*
X11847362Y-16972114D01*
X11856886Y-16991162D01*
X11856886Y-17038781D01*
X11847362Y-17057829D01*
X11837838Y-17067352D01*
X11818790Y-17076876D01*
X11761648Y-17076876D01*
X11742600Y-17067352D01*
X11733076Y-17057829D01*
X11933076Y-16876876D02*
X11933076Y-16914971D01*
X12009267Y-16876876D02*
X12009267Y-16914971D01*
X12304505Y-17153067D02*
X12294981Y-17143543D01*
X12275933Y-17114971D01*
X12266409Y-17095924D01*
X12256886Y-17067352D01*
X12247362Y-17019733D01*
X12247362Y-16981638D01*
X12256886Y-16934019D01*
X12266409Y-16905448D01*
X12275933Y-16886400D01*
X12294981Y-16857829D01*
X12304505Y-16848305D01*
X12466409Y-16876876D02*
X12428314Y-16876876D01*
X12409267Y-16886400D01*
X12399743Y-16895924D01*
X12380695Y-16924495D01*
X12371171Y-16962590D01*
X12371171Y-17038781D01*
X12380695Y-17057829D01*
X12390219Y-17067352D01*
X12409267Y-17076876D01*
X12447362Y-17076876D01*
X12466409Y-17067352D01*
X12475933Y-17057829D01*
X12485457Y-17038781D01*
X12485457Y-16991162D01*
X12475933Y-16972114D01*
X12466409Y-16962590D01*
X12447362Y-16953067D01*
X12409267Y-16953067D01*
X12390219Y-16962590D01*
X12380695Y-16972114D01*
X12371171Y-16991162D01*
X12561648Y-16895924D02*
X12571171Y-16886400D01*
X12590219Y-16876876D01*
X12637838Y-16876876D01*
X12656886Y-16886400D01*
X12666409Y-16895924D01*
X12675933Y-16914971D01*
X12675933Y-16934019D01*
X12666409Y-16962590D01*
X12552124Y-17076876D01*
X12675933Y-17076876D01*
X12914028Y-17076876D02*
X12914028Y-16876876D01*
X12999743Y-17076876D02*
X12999743Y-16972114D01*
X12990219Y-16953067D01*
X12971171Y-16943543D01*
X12942600Y-16943543D01*
X12923552Y-16953067D01*
X12914028Y-16962590D01*
X13123552Y-17076876D02*
X13104505Y-17067352D01*
X13094981Y-17057829D01*
X13085457Y-17038781D01*
X13085457Y-16981638D01*
X13094981Y-16962590D01*
X13104505Y-16953067D01*
X13123552Y-16943543D01*
X13152124Y-16943543D01*
X13171171Y-16953067D01*
X13180695Y-16962590D01*
X13190219Y-16981638D01*
X13190219Y-17038781D01*
X13180695Y-17057829D01*
X13171171Y-17067352D01*
X13152124Y-17076876D01*
X13123552Y-17076876D01*
X13304505Y-17076876D02*
X13285457Y-17067352D01*
X13275933Y-17048305D01*
X13275933Y-16876876D01*
X13456886Y-17067352D02*
X13437838Y-17076876D01*
X13399743Y-17076876D01*
X13380695Y-17067352D01*
X13371171Y-17048305D01*
X13371171Y-16972114D01*
X13380695Y-16953067D01*
X13399743Y-16943543D01*
X13437838Y-16943543D01*
X13456886Y-16953067D01*
X13466409Y-16972114D01*
X13466409Y-16991162D01*
X13371171Y-17010210D01*
X13542600Y-17067352D02*
X13561648Y-17076876D01*
X13599743Y-17076876D01*
X13618790Y-17067352D01*
X13628314Y-17048305D01*
X13628314Y-17038781D01*
X13618790Y-17019733D01*
X13599743Y-17010210D01*
X13571171Y-17010210D01*
X13552124Y-17000686D01*
X13542600Y-16981638D01*
X13542600Y-16972114D01*
X13552124Y-16953067D01*
X13571171Y-16943543D01*
X13599743Y-16943543D01*
X13618790Y-16953067D01*
X13694981Y-17153067D02*
X13704505Y-17143543D01*
X13723552Y-17114971D01*
X13733076Y-17095924D01*
X13742600Y-17067352D01*
X13752124Y-17019733D01*
X13752124Y-16981638D01*
X13742600Y-16934019D01*
X13733076Y-16905448D01*
X13723552Y-16886400D01*
X13704505Y-16857829D01*
X13694981Y-16848305D01*
D18*
X8613600Y-17190900D02*
X8732600Y-17309900D01*
X8732600Y-17190900D02*
X8613600Y-17309900D01*
X8715173Y-17292473D02*
X8715173Y-17208327D01*
X8631027Y-17208327D01*
X8631027Y-17292473D01*
X8715173Y-17292473D01*
D11*
X9094981Y-17340876D02*
X8980695Y-17340876D01*
X9037838Y-17340876D02*
X9037838Y-17140876D01*
X9018790Y-17169448D01*
X8999743Y-17188495D01*
X8980695Y-17198019D01*
X9180695Y-17321829D02*
X9190219Y-17331352D01*
X9180695Y-17340876D01*
X9171171Y-17331352D01*
X9180695Y-17321829D01*
X9180695Y-17340876D01*
X9380695Y-17340876D02*
X9266410Y-17340876D01*
X9323552Y-17340876D02*
X9323552Y-17140876D01*
X9304505Y-17169448D01*
X9285457Y-17188495D01*
X9266410Y-17198019D01*
X9475933Y-17340876D02*
X9514029Y-17340876D01*
X9533076Y-17331352D01*
X9542600Y-17321829D01*
X9561648Y-17293257D01*
X9571171Y-17255162D01*
X9571171Y-17178971D01*
X9561648Y-17159924D01*
X9552124Y-17150400D01*
X9533076Y-17140876D01*
X9494981Y-17140876D01*
X9475933Y-17150400D01*
X9466410Y-17159924D01*
X9456886Y-17178971D01*
X9456886Y-17226590D01*
X9466410Y-17245638D01*
X9475933Y-17255162D01*
X9494981Y-17264686D01*
X9533076Y-17264686D01*
X9552124Y-17255162D01*
X9561648Y-17245638D01*
X9571171Y-17226590D01*
X9694981Y-17140876D02*
X9714029Y-17140876D01*
X9733076Y-17150400D01*
X9742600Y-17159924D01*
X9752124Y-17178971D01*
X9761648Y-17217067D01*
X9761648Y-17264686D01*
X9752124Y-17302781D01*
X9742600Y-17321829D01*
X9733076Y-17331352D01*
X9714029Y-17340876D01*
X9694981Y-17340876D01*
X9675933Y-17331352D01*
X9666410Y-17321829D01*
X9656886Y-17302781D01*
X9647362Y-17264686D01*
X9647362Y-17217067D01*
X9656886Y-17178971D01*
X9666410Y-17159924D01*
X9675933Y-17150400D01*
X9694981Y-17140876D01*
X9847362Y-17340876D02*
X9847362Y-17207543D01*
X9847362Y-17226590D02*
X9856886Y-17217067D01*
X9875933Y-17207543D01*
X9904505Y-17207543D01*
X9923552Y-17217067D01*
X9933076Y-17236114D01*
X9933076Y-17340876D01*
X9933076Y-17236114D02*
X9942600Y-17217067D01*
X9961648Y-17207543D01*
X9990219Y-17207543D01*
X10009267Y-17217067D01*
X10018790Y-17236114D01*
X10018790Y-17340876D01*
X10114029Y-17340876D02*
X10114029Y-17207543D01*
X10114029Y-17226590D02*
X10123552Y-17217067D01*
X10142600Y-17207543D01*
X10171171Y-17207543D01*
X10190219Y-17217067D01*
X10199743Y-17236114D01*
X10199743Y-17340876D01*
X10199743Y-17236114D02*
X10209267Y-17217067D01*
X10228314Y-17207543D01*
X10256886Y-17207543D01*
X10275933Y-17217067D01*
X10285457Y-17236114D01*
X10285457Y-17340876D01*
X10675933Y-17131352D02*
X10504505Y-17388495D01*
X10933076Y-17140876D02*
X10952124Y-17140876D01*
X10971171Y-17150400D01*
X10980695Y-17159924D01*
X10990219Y-17178971D01*
X10999743Y-17217067D01*
X10999743Y-17264686D01*
X10990219Y-17302781D01*
X10980695Y-17321829D01*
X10971171Y-17331352D01*
X10952124Y-17340876D01*
X10933076Y-17340876D01*
X10914029Y-17331352D01*
X10904505Y-17321829D01*
X10894981Y-17302781D01*
X10885457Y-17264686D01*
X10885457Y-17217067D01*
X10894981Y-17178971D01*
X10904505Y-17159924D01*
X10914029Y-17150400D01*
X10933076Y-17140876D01*
X11085457Y-17321829D02*
X11094981Y-17331352D01*
X11085457Y-17340876D01*
X11075933Y-17331352D01*
X11085457Y-17321829D01*
X11085457Y-17340876D01*
X11218790Y-17140876D02*
X11237838Y-17140876D01*
X11256886Y-17150400D01*
X11266409Y-17159924D01*
X11275933Y-17178971D01*
X11285457Y-17217067D01*
X11285457Y-17264686D01*
X11275933Y-17302781D01*
X11266409Y-17321829D01*
X11256886Y-17331352D01*
X11237838Y-17340876D01*
X11218790Y-17340876D01*
X11199743Y-17331352D01*
X11190219Y-17321829D01*
X11180695Y-17302781D01*
X11171171Y-17264686D01*
X11171171Y-17217067D01*
X11180695Y-17178971D01*
X11190219Y-17159924D01*
X11199743Y-17150400D01*
X11218790Y-17140876D01*
X11456886Y-17207543D02*
X11456886Y-17340876D01*
X11409267Y-17131352D02*
X11361648Y-17274210D01*
X11485457Y-17274210D01*
X11647362Y-17140876D02*
X11609267Y-17140876D01*
X11590219Y-17150400D01*
X11580695Y-17159924D01*
X11561648Y-17188495D01*
X11552124Y-17226590D01*
X11552124Y-17302781D01*
X11561648Y-17321829D01*
X11571171Y-17331352D01*
X11590219Y-17340876D01*
X11628314Y-17340876D01*
X11647362Y-17331352D01*
X11656886Y-17321829D01*
X11666409Y-17302781D01*
X11666409Y-17255162D01*
X11656886Y-17236114D01*
X11647362Y-17226590D01*
X11628314Y-17217067D01*
X11590219Y-17217067D01*
X11571171Y-17226590D01*
X11561648Y-17236114D01*
X11552124Y-17255162D01*
X11761648Y-17340876D02*
X11799743Y-17340876D01*
X11818790Y-17331352D01*
X11828314Y-17321829D01*
X11847362Y-17293257D01*
X11856886Y-17255162D01*
X11856886Y-17178971D01*
X11847362Y-17159924D01*
X11837838Y-17150400D01*
X11818790Y-17140876D01*
X11780695Y-17140876D01*
X11761648Y-17150400D01*
X11752124Y-17159924D01*
X11742600Y-17178971D01*
X11742600Y-17226590D01*
X11752124Y-17245638D01*
X11761648Y-17255162D01*
X11780695Y-17264686D01*
X11818790Y-17264686D01*
X11837838Y-17255162D01*
X11847362Y-17245638D01*
X11856886Y-17226590D01*
X11933076Y-17140876D02*
X11933076Y-17178971D01*
X12009267Y-17140876D02*
X12009267Y-17178971D01*
X12304505Y-17417067D02*
X12294981Y-17407543D01*
X12275933Y-17378971D01*
X12266409Y-17359924D01*
X12256886Y-17331352D01*
X12247362Y-17283733D01*
X12247362Y-17245638D01*
X12256886Y-17198019D01*
X12266409Y-17169448D01*
X12275933Y-17150400D01*
X12294981Y-17121829D01*
X12304505Y-17112305D01*
X12466409Y-17207543D02*
X12466409Y-17340876D01*
X12418790Y-17131352D02*
X12371171Y-17274210D01*
X12494981Y-17274210D01*
X12723552Y-17340876D02*
X12723552Y-17140876D01*
X12809267Y-17340876D02*
X12809267Y-17236114D01*
X12799743Y-17217067D01*
X12780695Y-17207543D01*
X12752124Y-17207543D01*
X12733076Y-17217067D01*
X12723552Y-17226590D01*
X12933076Y-17340876D02*
X12914028Y-17331352D01*
X12904505Y-17321829D01*
X12894981Y-17302781D01*
X12894981Y-17245638D01*
X12904505Y-17226590D01*
X12914028Y-17217067D01*
X12933076Y-17207543D01*
X12961648Y-17207543D01*
X12980695Y-17217067D01*
X12990219Y-17226590D01*
X12999743Y-17245638D01*
X12999743Y-17302781D01*
X12990219Y-17321829D01*
X12980695Y-17331352D01*
X12961648Y-17340876D01*
X12933076Y-17340876D01*
X13114028Y-17340876D02*
X13094981Y-17331352D01*
X13085457Y-17312305D01*
X13085457Y-17140876D01*
X13266409Y-17331352D02*
X13247362Y-17340876D01*
X13209267Y-17340876D01*
X13190219Y-17331352D01*
X13180695Y-17312305D01*
X13180695Y-17236114D01*
X13190219Y-17217067D01*
X13209267Y-17207543D01*
X13247362Y-17207543D01*
X13266409Y-17217067D01*
X13275933Y-17236114D01*
X13275933Y-17255162D01*
X13180695Y-17274210D01*
X13352124Y-17331352D02*
X13371171Y-17340876D01*
X13409267Y-17340876D01*
X13428314Y-17331352D01*
X13437838Y-17312305D01*
X13437838Y-17302781D01*
X13428314Y-17283733D01*
X13409267Y-17274210D01*
X13380695Y-17274210D01*
X13361648Y-17264686D01*
X13352124Y-17245638D01*
X13352124Y-17236114D01*
X13361648Y-17217067D01*
X13380695Y-17207543D01*
X13409267Y-17207543D01*
X13428314Y-17217067D01*
X13504505Y-17417067D02*
X13514028Y-17407543D01*
X13533076Y-17378971D01*
X13542600Y-17359924D01*
X13552124Y-17331352D01*
X13561648Y-17283733D01*
X13561648Y-17245638D01*
X13552124Y-17198019D01*
X13542600Y-17169448D01*
X13533076Y-17150400D01*
X13514028Y-17121829D01*
X13504505Y-17112305D01*
D19*
X8592600Y-17444400D02*
X8732600Y-17584400D01*
X8732600Y-17444400D02*
X8592600Y-17584400D01*
X8662600Y-17584400D02*
X8732600Y-17514400D01*
X8662600Y-17444400D01*
X8592600Y-17514400D01*
X8662600Y-17584400D01*
D11*
X9094981Y-17604876D02*
X8980695Y-17604876D01*
X9037838Y-17604876D02*
X9037838Y-17404876D01*
X9018790Y-17433448D01*
X8999743Y-17452495D01*
X8980695Y-17462019D01*
X9180695Y-17585829D02*
X9190219Y-17595352D01*
X9180695Y-17604876D01*
X9171171Y-17595352D01*
X9180695Y-17585829D01*
X9180695Y-17604876D01*
X9361648Y-17471543D02*
X9361648Y-17604876D01*
X9314029Y-17395352D02*
X9266410Y-17538210D01*
X9390219Y-17538210D01*
X9504505Y-17404876D02*
X9523552Y-17404876D01*
X9542600Y-17414400D01*
X9552124Y-17423924D01*
X9561648Y-17442971D01*
X9571171Y-17481067D01*
X9571171Y-17528686D01*
X9561648Y-17566781D01*
X9552124Y-17585829D01*
X9542600Y-17595352D01*
X9523552Y-17604876D01*
X9504505Y-17604876D01*
X9485457Y-17595352D01*
X9475933Y-17585829D01*
X9466410Y-17566781D01*
X9456886Y-17528686D01*
X9456886Y-17481067D01*
X9466410Y-17442971D01*
X9475933Y-17423924D01*
X9485457Y-17414400D01*
X9504505Y-17404876D01*
X9694981Y-17404876D02*
X9714029Y-17404876D01*
X9733076Y-17414400D01*
X9742600Y-17423924D01*
X9752124Y-17442971D01*
X9761648Y-17481067D01*
X9761648Y-17528686D01*
X9752124Y-17566781D01*
X9742600Y-17585829D01*
X9733076Y-17595352D01*
X9714029Y-17604876D01*
X9694981Y-17604876D01*
X9675933Y-17595352D01*
X9666410Y-17585829D01*
X9656886Y-17566781D01*
X9647362Y-17528686D01*
X9647362Y-17481067D01*
X9656886Y-17442971D01*
X9666410Y-17423924D01*
X9675933Y-17414400D01*
X9694981Y-17404876D01*
X9847362Y-17604876D02*
X9847362Y-17471543D01*
X9847362Y-17490590D02*
X9856886Y-17481067D01*
X9875933Y-17471543D01*
X9904505Y-17471543D01*
X9923552Y-17481067D01*
X9933076Y-17500114D01*
X9933076Y-17604876D01*
X9933076Y-17500114D02*
X9942600Y-17481067D01*
X9961648Y-17471543D01*
X9990219Y-17471543D01*
X10009267Y-17481067D01*
X10018790Y-17500114D01*
X10018790Y-17604876D01*
X10114029Y-17604876D02*
X10114029Y-17471543D01*
X10114029Y-17490590D02*
X10123552Y-17481067D01*
X10142600Y-17471543D01*
X10171171Y-17471543D01*
X10190219Y-17481067D01*
X10199743Y-17500114D01*
X10199743Y-17604876D01*
X10199743Y-17500114D02*
X10209267Y-17481067D01*
X10228314Y-17471543D01*
X10256886Y-17471543D01*
X10275933Y-17481067D01*
X10285457Y-17500114D01*
X10285457Y-17604876D01*
X10675933Y-17395352D02*
X10504505Y-17652495D01*
X10933076Y-17404876D02*
X10952124Y-17404876D01*
X10971171Y-17414400D01*
X10980695Y-17423924D01*
X10990219Y-17442971D01*
X10999743Y-17481067D01*
X10999743Y-17528686D01*
X10990219Y-17566781D01*
X10980695Y-17585829D01*
X10971171Y-17595352D01*
X10952124Y-17604876D01*
X10933076Y-17604876D01*
X10914029Y-17595352D01*
X10904505Y-17585829D01*
X10894981Y-17566781D01*
X10885457Y-17528686D01*
X10885457Y-17481067D01*
X10894981Y-17442971D01*
X10904505Y-17423924D01*
X10914029Y-17414400D01*
X10933076Y-17404876D01*
X11085457Y-17585829D02*
X11094981Y-17595352D01*
X11085457Y-17604876D01*
X11075933Y-17595352D01*
X11085457Y-17585829D01*
X11085457Y-17604876D01*
X11218790Y-17404876D02*
X11237838Y-17404876D01*
X11256886Y-17414400D01*
X11266409Y-17423924D01*
X11275933Y-17442971D01*
X11285457Y-17481067D01*
X11285457Y-17528686D01*
X11275933Y-17566781D01*
X11266409Y-17585829D01*
X11256886Y-17595352D01*
X11237838Y-17604876D01*
X11218790Y-17604876D01*
X11199743Y-17595352D01*
X11190219Y-17585829D01*
X11180695Y-17566781D01*
X11171171Y-17528686D01*
X11171171Y-17481067D01*
X11180695Y-17442971D01*
X11190219Y-17423924D01*
X11199743Y-17414400D01*
X11218790Y-17404876D01*
X11466409Y-17404876D02*
X11371171Y-17404876D01*
X11361648Y-17500114D01*
X11371171Y-17490590D01*
X11390219Y-17481067D01*
X11437838Y-17481067D01*
X11456886Y-17490590D01*
X11466409Y-17500114D01*
X11475933Y-17519162D01*
X11475933Y-17566781D01*
X11466409Y-17585829D01*
X11456886Y-17595352D01*
X11437838Y-17604876D01*
X11390219Y-17604876D01*
X11371171Y-17595352D01*
X11361648Y-17585829D01*
X11656886Y-17404876D02*
X11561648Y-17404876D01*
X11552124Y-17500114D01*
X11561648Y-17490590D01*
X11580695Y-17481067D01*
X11628314Y-17481067D01*
X11647362Y-17490590D01*
X11656886Y-17500114D01*
X11666409Y-17519162D01*
X11666409Y-17566781D01*
X11656886Y-17585829D01*
X11647362Y-17595352D01*
X11628314Y-17604876D01*
X11580695Y-17604876D01*
X11561648Y-17595352D01*
X11552124Y-17585829D01*
X11856886Y-17604876D02*
X11742600Y-17604876D01*
X11799743Y-17604876D02*
X11799743Y-17404876D01*
X11780695Y-17433448D01*
X11761648Y-17452495D01*
X11742600Y-17462019D01*
X11933076Y-17404876D02*
X11933076Y-17442971D01*
X12009267Y-17404876D02*
X12009267Y-17442971D01*
X12304505Y-17681067D02*
X12294981Y-17671543D01*
X12275933Y-17642971D01*
X12266409Y-17623924D01*
X12256886Y-17595352D01*
X12247362Y-17547733D01*
X12247362Y-17509638D01*
X12256886Y-17462019D01*
X12266409Y-17433448D01*
X12275933Y-17414400D01*
X12294981Y-17385829D01*
X12304505Y-17376305D01*
X12371171Y-17423924D02*
X12380695Y-17414400D01*
X12399743Y-17404876D01*
X12447362Y-17404876D01*
X12466409Y-17414400D01*
X12475933Y-17423924D01*
X12485457Y-17442971D01*
X12485457Y-17462019D01*
X12475933Y-17490590D01*
X12361648Y-17604876D01*
X12485457Y-17604876D01*
X12609267Y-17404876D02*
X12628314Y-17404876D01*
X12647362Y-17414400D01*
X12656886Y-17423924D01*
X12666409Y-17442971D01*
X12675933Y-17481067D01*
X12675933Y-17528686D01*
X12666409Y-17566781D01*
X12656886Y-17585829D01*
X12647362Y-17595352D01*
X12628314Y-17604876D01*
X12609267Y-17604876D01*
X12590219Y-17595352D01*
X12580695Y-17585829D01*
X12571171Y-17566781D01*
X12561648Y-17528686D01*
X12561648Y-17481067D01*
X12571171Y-17442971D01*
X12580695Y-17423924D01*
X12590219Y-17414400D01*
X12609267Y-17404876D01*
X12914028Y-17604876D02*
X12914028Y-17404876D01*
X12999743Y-17604876D02*
X12999743Y-17500114D01*
X12990219Y-17481067D01*
X12971171Y-17471543D01*
X12942600Y-17471543D01*
X12923552Y-17481067D01*
X12914028Y-17490590D01*
X13123552Y-17604876D02*
X13104505Y-17595352D01*
X13094981Y-17585829D01*
X13085457Y-17566781D01*
X13085457Y-17509638D01*
X13094981Y-17490590D01*
X13104505Y-17481067D01*
X13123552Y-17471543D01*
X13152124Y-17471543D01*
X13171171Y-17481067D01*
X13180695Y-17490590D01*
X13190219Y-17509638D01*
X13190219Y-17566781D01*
X13180695Y-17585829D01*
X13171171Y-17595352D01*
X13152124Y-17604876D01*
X13123552Y-17604876D01*
X13304505Y-17604876D02*
X13285457Y-17595352D01*
X13275933Y-17576305D01*
X13275933Y-17404876D01*
X13456886Y-17595352D02*
X13437838Y-17604876D01*
X13399743Y-17604876D01*
X13380695Y-17595352D01*
X13371171Y-17576305D01*
X13371171Y-17500114D01*
X13380695Y-17481067D01*
X13399743Y-17471543D01*
X13437838Y-17471543D01*
X13456886Y-17481067D01*
X13466409Y-17500114D01*
X13466409Y-17519162D01*
X13371171Y-17538210D01*
X13542600Y-17595352D02*
X13561648Y-17604876D01*
X13599743Y-17604876D01*
X13618790Y-17595352D01*
X13628314Y-17576305D01*
X13628314Y-17566781D01*
X13618790Y-17547733D01*
X13599743Y-17538210D01*
X13571171Y-17538210D01*
X13552124Y-17528686D01*
X13542600Y-17509638D01*
X13542600Y-17500114D01*
X13552124Y-17481067D01*
X13571171Y-17471543D01*
X13599743Y-17471543D01*
X13618790Y-17481067D01*
X13694981Y-17681067D02*
X13704505Y-17671543D01*
X13723552Y-17642971D01*
X13733076Y-17623924D01*
X13742600Y-17595352D01*
X13752124Y-17547733D01*
X13752124Y-17509638D01*
X13742600Y-17462019D01*
X13733076Y-17433448D01*
X13723552Y-17414400D01*
X13704505Y-17385829D01*
X13694981Y-17376305D01*
X8632600Y-17678400D02*
X8632600Y-17878400D01*
X8532600Y-17778400D02*
X8732600Y-17778400D01*
X8732600Y-17778400D02*
G75*
G03*
X8732600Y-17778400I-100000J0D01*
G01*
X8980695Y-17687924D02*
X8990219Y-17678400D01*
X9009267Y-17668876D01*
X9056886Y-17668876D01*
X9075933Y-17678400D01*
X9085457Y-17687924D01*
X9094981Y-17706971D01*
X9094981Y-17726019D01*
X9085457Y-17754590D01*
X8971171Y-17868876D01*
X9094981Y-17868876D01*
X9180695Y-17849829D02*
X9190219Y-17859352D01*
X9180695Y-17868876D01*
X9171171Y-17859352D01*
X9180695Y-17849829D01*
X9180695Y-17868876D01*
X9256886Y-17668876D02*
X9380695Y-17668876D01*
X9314029Y-17745067D01*
X9342600Y-17745067D01*
X9361648Y-17754590D01*
X9371171Y-17764114D01*
X9380695Y-17783162D01*
X9380695Y-17830781D01*
X9371171Y-17849829D01*
X9361648Y-17859352D01*
X9342600Y-17868876D01*
X9285457Y-17868876D01*
X9266410Y-17859352D01*
X9256886Y-17849829D01*
X9504505Y-17668876D02*
X9523552Y-17668876D01*
X9542600Y-17678400D01*
X9552124Y-17687924D01*
X9561648Y-17706971D01*
X9571171Y-17745067D01*
X9571171Y-17792686D01*
X9561648Y-17830781D01*
X9552124Y-17849829D01*
X9542600Y-17859352D01*
X9523552Y-17868876D01*
X9504505Y-17868876D01*
X9485457Y-17859352D01*
X9475933Y-17849829D01*
X9466410Y-17830781D01*
X9456886Y-17792686D01*
X9456886Y-17745067D01*
X9466410Y-17706971D01*
X9475933Y-17687924D01*
X9485457Y-17678400D01*
X9504505Y-17668876D01*
X9694981Y-17668876D02*
X9714029Y-17668876D01*
X9733076Y-17678400D01*
X9742600Y-17687924D01*
X9752124Y-17706971D01*
X9761648Y-17745067D01*
X9761648Y-17792686D01*
X9752124Y-17830781D01*
X9742600Y-17849829D01*
X9733076Y-17859352D01*
X9714029Y-17868876D01*
X9694981Y-17868876D01*
X9675933Y-17859352D01*
X9666410Y-17849829D01*
X9656886Y-17830781D01*
X9647362Y-17792686D01*
X9647362Y-17745067D01*
X9656886Y-17706971D01*
X9666410Y-17687924D01*
X9675933Y-17678400D01*
X9694981Y-17668876D01*
X9847362Y-17868876D02*
X9847362Y-17735543D01*
X9847362Y-17754590D02*
X9856886Y-17745067D01*
X9875933Y-17735543D01*
X9904505Y-17735543D01*
X9923552Y-17745067D01*
X9933076Y-17764114D01*
X9933076Y-17868876D01*
X9933076Y-17764114D02*
X9942600Y-17745067D01*
X9961648Y-17735543D01*
X9990219Y-17735543D01*
X10009267Y-17745067D01*
X10018790Y-17764114D01*
X10018790Y-17868876D01*
X10114029Y-17868876D02*
X10114029Y-17735543D01*
X10114029Y-17754590D02*
X10123552Y-17745067D01*
X10142600Y-17735543D01*
X10171171Y-17735543D01*
X10190219Y-17745067D01*
X10199743Y-17764114D01*
X10199743Y-17868876D01*
X10199743Y-17764114D02*
X10209267Y-17745067D01*
X10228314Y-17735543D01*
X10256886Y-17735543D01*
X10275933Y-17745067D01*
X10285457Y-17764114D01*
X10285457Y-17868876D01*
X10675933Y-17659352D02*
X10504505Y-17916495D01*
X10933076Y-17668876D02*
X10952124Y-17668876D01*
X10971171Y-17678400D01*
X10980695Y-17687924D01*
X10990219Y-17706971D01*
X10999743Y-17745067D01*
X10999743Y-17792686D01*
X10990219Y-17830781D01*
X10980695Y-17849829D01*
X10971171Y-17859352D01*
X10952124Y-17868876D01*
X10933076Y-17868876D01*
X10914029Y-17859352D01*
X10904505Y-17849829D01*
X10894981Y-17830781D01*
X10885457Y-17792686D01*
X10885457Y-17745067D01*
X10894981Y-17706971D01*
X10904505Y-17687924D01*
X10914029Y-17678400D01*
X10933076Y-17668876D01*
X11085457Y-17849829D02*
X11094981Y-17859352D01*
X11085457Y-17868876D01*
X11075933Y-17859352D01*
X11085457Y-17849829D01*
X11085457Y-17868876D01*
X11218790Y-17668876D02*
X11237838Y-17668876D01*
X11256886Y-17678400D01*
X11266409Y-17687924D01*
X11275933Y-17706971D01*
X11285457Y-17745067D01*
X11285457Y-17792686D01*
X11275933Y-17830781D01*
X11266409Y-17849829D01*
X11256886Y-17859352D01*
X11237838Y-17868876D01*
X11218790Y-17868876D01*
X11199743Y-17859352D01*
X11190219Y-17849829D01*
X11180695Y-17830781D01*
X11171171Y-17792686D01*
X11171171Y-17745067D01*
X11180695Y-17706971D01*
X11190219Y-17687924D01*
X11199743Y-17678400D01*
X11218790Y-17668876D01*
X11380695Y-17868876D02*
X11418790Y-17868876D01*
X11437838Y-17859352D01*
X11447362Y-17849829D01*
X11466409Y-17821257D01*
X11475933Y-17783162D01*
X11475933Y-17706971D01*
X11466409Y-17687924D01*
X11456886Y-17678400D01*
X11437838Y-17668876D01*
X11399743Y-17668876D01*
X11380695Y-17678400D01*
X11371171Y-17687924D01*
X11361648Y-17706971D01*
X11361648Y-17754590D01*
X11371171Y-17773638D01*
X11380695Y-17783162D01*
X11399743Y-17792686D01*
X11437838Y-17792686D01*
X11456886Y-17783162D01*
X11466409Y-17773638D01*
X11475933Y-17754590D01*
X11599743Y-17668876D02*
X11618790Y-17668876D01*
X11637838Y-17678400D01*
X11647362Y-17687924D01*
X11656886Y-17706971D01*
X11666409Y-17745067D01*
X11666409Y-17792686D01*
X11656886Y-17830781D01*
X11647362Y-17849829D01*
X11637838Y-17859352D01*
X11618790Y-17868876D01*
X11599743Y-17868876D01*
X11580695Y-17859352D01*
X11571171Y-17849829D01*
X11561648Y-17830781D01*
X11552124Y-17792686D01*
X11552124Y-17745067D01*
X11561648Y-17706971D01*
X11571171Y-17687924D01*
X11580695Y-17678400D01*
X11599743Y-17668876D01*
X11837838Y-17668876D02*
X11799743Y-17668876D01*
X11780695Y-17678400D01*
X11771171Y-17687924D01*
X11752124Y-17716495D01*
X11742600Y-17754590D01*
X11742600Y-17830781D01*
X11752124Y-17849829D01*
X11761648Y-17859352D01*
X11780695Y-17868876D01*
X11818790Y-17868876D01*
X11837838Y-17859352D01*
X11847362Y-17849829D01*
X11856886Y-17830781D01*
X11856886Y-17783162D01*
X11847362Y-17764114D01*
X11837838Y-17754590D01*
X11818790Y-17745067D01*
X11780695Y-17745067D01*
X11761648Y-17754590D01*
X11752124Y-17764114D01*
X11742600Y-17783162D01*
X11933076Y-17668876D02*
X11933076Y-17706971D01*
X12009267Y-17668876D02*
X12009267Y-17706971D01*
X12304505Y-17945067D02*
X12294981Y-17935543D01*
X12275933Y-17906971D01*
X12266409Y-17887924D01*
X12256886Y-17859352D01*
X12247362Y-17811733D01*
X12247362Y-17773638D01*
X12256886Y-17726019D01*
X12266409Y-17697448D01*
X12275933Y-17678400D01*
X12294981Y-17649829D01*
X12304505Y-17640305D01*
X12371171Y-17687924D02*
X12380695Y-17678400D01*
X12399743Y-17668876D01*
X12447362Y-17668876D01*
X12466409Y-17678400D01*
X12475933Y-17687924D01*
X12485457Y-17706971D01*
X12485457Y-17726019D01*
X12475933Y-17754590D01*
X12361648Y-17868876D01*
X12485457Y-17868876D01*
X12723552Y-17868876D02*
X12723552Y-17668876D01*
X12809267Y-17868876D02*
X12809267Y-17764114D01*
X12799743Y-17745067D01*
X12780695Y-17735543D01*
X12752124Y-17735543D01*
X12733076Y-17745067D01*
X12723552Y-17754590D01*
X12933076Y-17868876D02*
X12914028Y-17859352D01*
X12904505Y-17849829D01*
X12894981Y-17830781D01*
X12894981Y-17773638D01*
X12904505Y-17754590D01*
X12914028Y-17745067D01*
X12933076Y-17735543D01*
X12961648Y-17735543D01*
X12980695Y-17745067D01*
X12990219Y-17754590D01*
X12999743Y-17773638D01*
X12999743Y-17830781D01*
X12990219Y-17849829D01*
X12980695Y-17859352D01*
X12961648Y-17868876D01*
X12933076Y-17868876D01*
X13114028Y-17868876D02*
X13094981Y-17859352D01*
X13085457Y-17840305D01*
X13085457Y-17668876D01*
X13266409Y-17859352D02*
X13247362Y-17868876D01*
X13209267Y-17868876D01*
X13190219Y-17859352D01*
X13180695Y-17840305D01*
X13180695Y-17764114D01*
X13190219Y-17745067D01*
X13209267Y-17735543D01*
X13247362Y-17735543D01*
X13266409Y-17745067D01*
X13275933Y-17764114D01*
X13275933Y-17783162D01*
X13180695Y-17802210D01*
X13352124Y-17859352D02*
X13371171Y-17868876D01*
X13409267Y-17868876D01*
X13428314Y-17859352D01*
X13437838Y-17840305D01*
X13437838Y-17830781D01*
X13428314Y-17811733D01*
X13409267Y-17802210D01*
X13380695Y-17802210D01*
X13361648Y-17792686D01*
X13352124Y-17773638D01*
X13352124Y-17764114D01*
X13361648Y-17745067D01*
X13380695Y-17735543D01*
X13409267Y-17735543D01*
X13428314Y-17745067D01*
X13504505Y-17945067D02*
X13514028Y-17935543D01*
X13533076Y-17906971D01*
X13542600Y-17887924D01*
X13552124Y-17859352D01*
X13561648Y-17811733D01*
X13561648Y-17773638D01*
X13552124Y-17726019D01*
X13542600Y-17697448D01*
X13533076Y-17678400D01*
X13514028Y-17649829D01*
X13504505Y-17640305D01*
M02*
