M48
; DRILL file {KiCad 6.0.10-86aedd382b~118~ubuntu20.04.1} date Tue 27 Dec 2022 05:02:03 PM EST
; FORMAT={-:-/ absolute / metric / decimal}
; #@! TF.CreationDate,2022-12-27T17:02:03-05:00
; #@! TF.GenerationSoftware,Kicad,Pcbnew,6.0.10-86aedd382b~118~ubuntu20.04.1
; #@! TF.FileFunction,Plated,1,2,PTH
FMAT,2
METRIC
; #@! TA.AperFunction,Plated,PTH,ViaDrill
T1C0.400
; #@! TA.AperFunction,Plated,PTH,ComponentDrill
T2C0.762
; #@! TA.AperFunction,Plated,PTH,ComponentDrill
T3C0.800
; #@! TA.AperFunction,Plated,PTH,ComponentDrill
T4C0.900
; #@! TA.AperFunction,Plated,PTH,ComponentDrill
T5C0.920
; #@! TA.AperFunction,Plated,PTH,ComponentDrill
T6C1.000
; #@! TA.AperFunction,Plated,PTH,ComponentDrill
T7C1.100
; #@! TA.AperFunction,Plated,PTH,ComponentDrill
T8C1.190
; #@! TA.AperFunction,Plated,PTH,ComponentDrill
T9C1.400
; #@! TA.AperFunction,Plated,PTH,ComponentDrill
T10C2.300
%
G90
G05
T1
X90.424Y-103.378
X90.678Y-100.076
X91.186Y-131.826
X91.186Y-134.366
X91.44Y-96.012
X94.488Y-125.476
X94.488Y-128.016
X94.488Y-139.7
X97.536Y-87.122
X97.79Y-96.012
X99.06Y-75.184
X99.314Y-112.268
X99.314Y-121.412
X99.822Y-96.52
X101.6Y-102.108
X105.664Y-78.486
X105.664Y-81.788
X105.664Y-88.9
X105.664Y-92.964
X105.664Y-130.302
X106.68Y-138.684
X106.934Y-133.096
X106.934Y-134.112
X108.204Y-130.302
X109.474Y-115.824
X109.474Y-117.856
X109.474Y-133.096
X109.474Y-134.112
X109.474Y-141.986
X109.982Y-138.684
X110.49Y-116.84
X110.998Y-123.952
X113.03Y-54.864
X113.284Y-71.374
X113.284Y-131.826
X113.538Y-62.738
X114.808Y-60.198
X114.808Y-116.84
X116.078Y-122.682
X116.586Y-116.84
X117.856Y-138.43
X119.634Y-105.664
X119.888Y-120.396
X120.396Y-125.73
X120.396Y-133.35
X120.396Y-139.7
X122.819Y-108.341
X123.561Y-109.083
X123.698Y-105.664
X123.698Y-117.856
X125.73Y-139.954
X125.984Y-130.556
X125.984Y-146.05
X125.996Y-128.502
X126.746Y-115.57
X126.746Y-117.348
X130.048Y-111.506
X130.81Y-112.522
X131.572Y-113.538
X134.874Y-88.392
X135.382Y-82.042
X135.382Y-86.36
X135.89Y-121.666
X136.398Y-88.9
X136.652Y-82.042
X137.414Y-86.868
X137.414Y-89.408
X138.684Y-145.288
X155.448Y-108.966
X155.702Y-128.27
X155.956Y-133.096
X156.464Y-94.488
X156.972Y-119.126
X158.242Y-141.224
X158.75Y-109.982
X158.75Y-119.38
X160.274Y-102.108
X162.306Y-101.854
X165.354Y-121.412
X168.402Y-112.268
X168.402Y-134.874
X169.418Y-107.188
X169.672Y-131.064
X170.18Y-128.778
X170.434Y-117.856
X170.688Y-109.982
X170.942Y-134.874
X171.958Y-130.048
X172.212Y-127.0
X172.974Y-103.632
X173.228Y-79.756
X174.752Y-127.0
X175.26Y-139.954
X175.26Y-142.24
X176.276Y-119.126
X177.292Y-79.756
X177.292Y-119.126
X179.07Y-140.208
X179.07Y-145.288
X181.61Y-79.756
X185.674Y-105.664
X186.712Y-106.956
T2
X104.394Y-73.914
X104.394Y-99.314
X106.934Y-73.914
X106.934Y-99.314
X109.474Y-73.914
X109.474Y-99.314
X112.014Y-73.914
X112.014Y-99.314
X114.554Y-73.914
X114.554Y-99.314
X117.094Y-99.314
X119.634Y-99.314
X122.174Y-99.314
X124.714Y-99.314
X131.159Y-52.229
X131.159Y-54.769
X131.159Y-57.309
X131.159Y-59.849
X131.159Y-62.389
X131.159Y-64.929
X131.159Y-67.469
X131.159Y-70.009
X131.159Y-72.549
X131.159Y-75.089
X131.159Y-77.629
X131.159Y-80.169
X131.159Y-82.709
X164.179Y-52.229
X164.179Y-54.769
X164.179Y-57.309
X164.179Y-59.849
X164.179Y-62.389
X164.179Y-64.929
X164.179Y-67.469
X164.179Y-70.009
X164.179Y-72.549
X164.179Y-75.089
X164.179Y-77.629
X164.179Y-80.169
X164.179Y-82.709
T3
X88.921Y-117.841
X88.921Y-120.381
X88.921Y-122.921
X88.921Y-125.461
X88.921Y-128.001
X88.921Y-130.541
X88.921Y-133.081
X88.921Y-135.621
X96.541Y-117.841
X96.541Y-120.381
X96.541Y-122.921
X96.541Y-125.461
X96.541Y-128.001
X96.541Y-130.541
X96.541Y-133.081
X96.541Y-135.621
X103.119Y-128.26
X103.119Y-135.88
X105.659Y-128.26
X105.659Y-135.88
X108.199Y-128.26
X108.199Y-135.88
X110.739Y-128.26
X110.739Y-135.88
X113.279Y-128.26
X113.279Y-135.88
X115.819Y-128.26
X115.819Y-135.88
X118.359Y-128.26
X118.359Y-135.88
X158.257Y-125.212
X158.257Y-132.832
X158.257Y-137.658
X158.257Y-145.278
X160.03Y-108.194
X160.03Y-115.814
X160.797Y-125.212
X160.797Y-132.832
X160.797Y-137.658
X160.797Y-145.278
X162.57Y-108.194
X162.57Y-115.814
X163.337Y-125.212
X163.337Y-132.832
X163.337Y-137.658
X163.337Y-145.278
X165.11Y-108.194
X165.11Y-115.814
X165.877Y-125.212
X165.877Y-132.832
X165.877Y-137.658
X165.877Y-145.278
X167.65Y-108.194
X167.65Y-115.814
X168.417Y-125.212
X168.417Y-132.832
X168.417Y-137.658
X168.417Y-145.278
X170.957Y-125.212
X170.957Y-132.832
X170.957Y-137.658
X170.957Y-145.278
X173.497Y-125.212
X173.497Y-132.832
X173.497Y-137.658
X173.497Y-145.278
X176.037Y-125.212
X176.037Y-132.832
X176.037Y-137.658
X176.037Y-145.278
T4
X91.186Y-74.925
X91.186Y-77.465
X91.186Y-85.598
X91.186Y-88.138
X92.884Y-105.664
X95.424Y-105.664
X105.918Y-120.142
X105.918Y-122.682
X106.68Y-51.313
X106.68Y-53.853
X106.68Y-59.187
X106.68Y-61.727
X106.68Y-67.056
X106.68Y-69.596
X120.396Y-143.022
X120.396Y-145.562
X153.416Y-102.87
X155.956Y-102.87
X171.455Y-99.314
X171.963Y-112.522
X171.963Y-120.396
X173.995Y-99.314
X174.503Y-112.522
X174.503Y-120.396
X181.102Y-114.3
X181.142Y-103.378
X183.642Y-114.3
X183.682Y-103.378
T5
X107.716Y-108.756
X107.716Y-111.956
X110.216Y-108.756
X110.216Y-111.956
T6
X122.936Y-124.46
X122.936Y-127.0
X122.936Y-129.54
X122.936Y-132.08
X125.984Y-142.24
X128.524Y-111.76
X128.524Y-114.3
X128.524Y-116.84
X128.524Y-119.38
X128.524Y-121.92
X128.524Y-124.46
X128.524Y-127.0
X128.524Y-129.54
X128.524Y-132.08
X128.524Y-134.62
X128.524Y-137.16
X128.524Y-139.7
X128.524Y-142.24
X128.524Y-144.78
X136.139Y-106.68
X138.679Y-106.68
X141.219Y-106.68
X143.759Y-106.68
X146.299Y-106.68
X153.924Y-111.75
X153.924Y-114.29
X153.924Y-116.83
X153.924Y-119.37
X153.924Y-121.91
X153.924Y-124.45
X153.924Y-126.99
X153.924Y-129.53
X153.924Y-132.07
X153.924Y-134.61
X153.924Y-137.15
X153.924Y-139.69
X153.924Y-142.23
X153.924Y-144.77
X179.817Y-119.38
X179.817Y-121.92
X179.817Y-124.46
X179.817Y-127.0
X179.817Y-129.54
X179.817Y-132.08
X179.817Y-134.62
X179.817Y-137.16
X182.357Y-119.38
X182.357Y-121.92
X182.357Y-124.46
X182.357Y-127.0
X182.357Y-129.54
X182.357Y-132.08
X182.357Y-134.62
X182.357Y-137.16
X184.897Y-119.38
X184.897Y-121.92
X184.897Y-124.46
X184.897Y-127.0
X184.897Y-129.54
X184.897Y-132.08
X184.897Y-134.62
X184.897Y-137.16
T7
X92.71Y-93.543
X95.25Y-93.543
X97.79Y-93.543
X101.854Y-141.478
X104.394Y-141.478
X106.934Y-141.478
X133.604Y-111.76
X133.604Y-114.3
X133.604Y-116.84
X133.604Y-119.38
X133.604Y-121.92
X133.604Y-124.46
X133.604Y-127.0
X133.604Y-129.54
X133.604Y-132.08
X133.604Y-134.62
X133.604Y-137.16
X133.604Y-139.7
X133.604Y-142.24
X133.604Y-144.78
X136.144Y-111.76
X136.144Y-116.84
X136.144Y-119.38
X136.144Y-142.24
X138.684Y-111.76
X138.684Y-116.84
X138.684Y-119.38
X141.224Y-111.76
X141.224Y-116.84
X141.224Y-119.38
X143.764Y-111.76
X143.764Y-116.84
X143.764Y-119.38
X146.304Y-111.76
X146.304Y-116.84
X146.304Y-119.38
X148.844Y-111.76
X148.844Y-114.3
X148.844Y-116.84
X148.844Y-119.38
X148.844Y-121.92
X148.844Y-124.46
X148.844Y-127.0
X148.844Y-129.54
X148.844Y-132.08
X148.844Y-134.62
X148.844Y-137.16
X148.844Y-139.7
X148.844Y-142.24
X148.844Y-144.78
X150.613Y-96.64
X152.903Y-96.64
X155.193Y-96.64
X168.652Y-93.218
X170.942Y-93.218
X173.232Y-93.218
X178.304Y-97.402
X178.304Y-108.458
X180.594Y-97.402
X180.594Y-108.458
X182.884Y-97.402
X182.884Y-108.458
T8
X182.88Y-60.198
X182.88Y-62.738
X182.88Y-65.278
X182.88Y-67.818
T9
X121.666Y-59.742
X121.666Y-65.242
X131.622Y-95.794
X131.622Y-101.294
X135.822Y-95.794
X135.822Y-101.294
X140.022Y-95.794
X140.022Y-101.294
X144.222Y-95.794
X144.222Y-101.294
X170.992Y-82.586
X170.992Y-88.086
X173.228Y-59.742
X173.228Y-65.242
X175.192Y-82.586
X175.192Y-88.086
X179.392Y-82.586
X179.392Y-88.086
X183.592Y-82.586
X183.592Y-88.086
T10
X102.946Y-109.246
X114.986Y-109.246
T0
M30
