%TF.GenerationSoftware,KiCad,Pcbnew,6.0.10-86aedd382b~118~ubuntu20.04.1*%
%TF.CreationDate,2022-12-27T17:01:33-05:00*%
%TF.ProjectId,AMP_PCBv2,414d505f-5043-4427-9632-2e6b69636164,A*%
%TF.SameCoordinates,Original*%
%TF.FileFunction,Legend,Bot*%
%TF.FilePolarity,Positive*%
%FSLAX46Y46*%
G04 Gerber Fmt 4.6, Leading zero omitted, Abs format (unit mm)*
G04 Created by KiCad (PCBNEW 6.0.10-86aedd382b~118~ubuntu20.04.1) date 2022-12-27 17:01:33*
%MOMM*%
%LPD*%
G01*
G04 APERTURE LIST*
G04 Aperture macros list*
%AMRoundRect*
0 Rectangle with rounded corners*
0 $1 Rounding radius*
0 $2 $3 $4 $5 $6 $7 $8 $9 X,Y pos of 4 corners*
0 Add a 4 corners polygon primitive as box body*
4,1,4,$2,$3,$4,$5,$6,$7,$8,$9,$2,$3,0*
0 Add four circle primitives for the rounded corners*
1,1,$1+$1,$2,$3*
1,1,$1+$1,$4,$5*
1,1,$1+$1,$6,$7*
1,1,$1+$1,$8,$9*
0 Add four rect primitives between the rounded corners*
20,1,$1+$1,$2,$3,$4,$5,0*
20,1,$1+$1,$4,$5,$6,$7,0*
20,1,$1+$1,$6,$7,$8,$9,0*
20,1,$1+$1,$8,$9,$2,$3,0*%
G04 Aperture macros list end*
%ADD10C,0.300000*%
%ADD11R,1.600000X1.600000*%
%ADD12O,1.600000X1.600000*%
%ADD13R,1.700000X1.700000*%
%ADD14O,1.700000X1.700000*%
%ADD15C,1.524000*%
%ADD16R,1.717500X1.800000*%
%ADD17O,1.717500X1.800000*%
%ADD18C,3.200000*%
%ADD19RoundRect,0.250001X-1.099999X-1.399999X1.099999X-1.399999X1.099999X1.399999X-1.099999X1.399999X0*%
%ADD20O,2.700000X3.300000*%
%ADD21R,1.800000X1.800000*%
%ADD22C,1.800000*%
%ADD23RoundRect,0.250001X1.099999X1.399999X-1.099999X1.399999X-1.099999X-1.399999X1.099999X-1.399999X0*%
%ADD24R,1.905000X2.000000*%
%ADD25O,1.905000X2.000000*%
%ADD26C,1.600000*%
%ADD27RoundRect,0.250000X-0.845000X0.620000X-0.845000X-0.620000X0.845000X-0.620000X0.845000X0.620000X0*%
%ADD28O,2.190000X1.740000*%
%ADD29R,1.400000X1.400000*%
%ADD30C,1.400000*%
%ADD31C,3.000000*%
G04 APERTURE END LIST*
D10*
X155669238Y-75091333D02*
X154716857Y-75091333D01*
X155859714Y-75662761D02*
X155193047Y-73662761D01*
X154526380Y-75662761D01*
X153859714Y-75662761D02*
X153859714Y-73662761D01*
X153193047Y-75091333D01*
X152526380Y-73662761D01*
X152526380Y-75662761D01*
X151574000Y-75662761D02*
X151574000Y-73662761D01*
X150812095Y-73662761D01*
X150621619Y-73758000D01*
X150526380Y-73853238D01*
X150431142Y-74043714D01*
X150431142Y-74329428D01*
X150526380Y-74519904D01*
X150621619Y-74615142D01*
X150812095Y-74710380D01*
X151574000Y-74710380D01*
X148050190Y-75662761D02*
X148050190Y-73662761D01*
X147288285Y-73662761D01*
X147097809Y-73758000D01*
X147002571Y-73853238D01*
X146907333Y-74043714D01*
X146907333Y-74329428D01*
X147002571Y-74519904D01*
X147097809Y-74615142D01*
X147288285Y-74710380D01*
X148050190Y-74710380D01*
X144907333Y-75472285D02*
X145002571Y-75567523D01*
X145288285Y-75662761D01*
X145478761Y-75662761D01*
X145764476Y-75567523D01*
X145954952Y-75377047D01*
X146050190Y-75186571D01*
X146145428Y-74805619D01*
X146145428Y-74519904D01*
X146050190Y-74138952D01*
X145954952Y-73948476D01*
X145764476Y-73758000D01*
X145478761Y-73662761D01*
X145288285Y-73662761D01*
X145002571Y-73758000D01*
X144907333Y-73853238D01*
X143383523Y-74615142D02*
X143097809Y-74710380D01*
X143002571Y-74805619D01*
X142907333Y-74996095D01*
X142907333Y-75281809D01*
X143002571Y-75472285D01*
X143097809Y-75567523D01*
X143288285Y-75662761D01*
X144050190Y-75662761D01*
X144050190Y-73662761D01*
X143383523Y-73662761D01*
X143193047Y-73758000D01*
X143097809Y-73853238D01*
X143002571Y-74043714D01*
X143002571Y-74234190D01*
X143097809Y-74424666D01*
X143193047Y-74519904D01*
X143383523Y-74615142D01*
X144050190Y-74615142D01*
X142240666Y-74329428D02*
X141764476Y-75662761D01*
X141288285Y-74329428D01*
X140621619Y-73853238D02*
X140526380Y-73758000D01*
X140335904Y-73662761D01*
X139859714Y-73662761D01*
X139669238Y-73758000D01*
X139574000Y-73853238D01*
X139478761Y-74043714D01*
X139478761Y-74234190D01*
X139574000Y-74519904D01*
X140716857Y-75662761D01*
X139478761Y-75662761D01*
X153764476Y-78882761D02*
X154431142Y-77930380D01*
X154907333Y-78882761D02*
X154907333Y-76882761D01*
X154145428Y-76882761D01*
X153954952Y-76978000D01*
X153859714Y-77073238D01*
X153764476Y-77263714D01*
X153764476Y-77549428D01*
X153859714Y-77739904D01*
X153954952Y-77835142D01*
X154145428Y-77930380D01*
X154907333Y-77930380D01*
X152145428Y-78787523D02*
X152335904Y-78882761D01*
X152716857Y-78882761D01*
X152907333Y-78787523D01*
X153002571Y-78597047D01*
X153002571Y-77835142D01*
X152907333Y-77644666D01*
X152716857Y-77549428D01*
X152335904Y-77549428D01*
X152145428Y-77644666D01*
X152050190Y-77835142D01*
X152050190Y-78025619D01*
X153002571Y-78216095D01*
X151383523Y-77549428D02*
X150907333Y-78882761D01*
X150431142Y-77549428D01*
X149669238Y-78882761D02*
X149669238Y-77549428D01*
X149669238Y-76882761D02*
X149764476Y-76978000D01*
X149669238Y-77073238D01*
X149574000Y-76978000D01*
X149669238Y-76882761D01*
X149669238Y-77073238D01*
X148812095Y-78787523D02*
X148621619Y-78882761D01*
X148240666Y-78882761D01*
X148050190Y-78787523D01*
X147954952Y-78597047D01*
X147954952Y-78501809D01*
X148050190Y-78311333D01*
X148240666Y-78216095D01*
X148526380Y-78216095D01*
X148716857Y-78120857D01*
X148812095Y-77930380D01*
X148812095Y-77835142D01*
X148716857Y-77644666D01*
X148526380Y-77549428D01*
X148240666Y-77549428D01*
X148050190Y-77644666D01*
X147097809Y-78882761D02*
X147097809Y-77549428D01*
X147097809Y-76882761D02*
X147193047Y-76978000D01*
X147097809Y-77073238D01*
X147002571Y-76978000D01*
X147097809Y-76882761D01*
X147097809Y-77073238D01*
X145859714Y-78882761D02*
X146050190Y-78787523D01*
X146145428Y-78692285D01*
X146240666Y-78501809D01*
X146240666Y-77930380D01*
X146145428Y-77739904D01*
X146050190Y-77644666D01*
X145859714Y-77549428D01*
X145574000Y-77549428D01*
X145383523Y-77644666D01*
X145288285Y-77739904D01*
X145193047Y-77930380D01*
X145193047Y-78501809D01*
X145288285Y-78692285D01*
X145383523Y-78787523D01*
X145574000Y-78882761D01*
X145859714Y-78882761D01*
X144335904Y-77549428D02*
X144335904Y-78882761D01*
X144335904Y-77739904D02*
X144240666Y-77644666D01*
X144050190Y-77549428D01*
X143764476Y-77549428D01*
X143574000Y-77644666D01*
X143478761Y-77835142D01*
X143478761Y-78882761D01*
X141097809Y-78311333D02*
X140145428Y-78311333D01*
X141288285Y-78882761D02*
X140621619Y-76882761D01*
X139954952Y-78882761D01*
X157288285Y-80293238D02*
X157193047Y-80198000D01*
X157002571Y-80102761D01*
X156526380Y-80102761D01*
X156335904Y-80198000D01*
X156240666Y-80293238D01*
X156145428Y-80483714D01*
X156145428Y-80674190D01*
X156240666Y-80959904D01*
X157383523Y-82102761D01*
X156145428Y-82102761D01*
X154907333Y-80102761D02*
X154716857Y-80102761D01*
X154526380Y-80198000D01*
X154431142Y-80293238D01*
X154335904Y-80483714D01*
X154240666Y-80864666D01*
X154240666Y-81340857D01*
X154335904Y-81721809D01*
X154431142Y-81912285D01*
X154526380Y-82007523D01*
X154716857Y-82102761D01*
X154907333Y-82102761D01*
X155097809Y-82007523D01*
X155193047Y-81912285D01*
X155288285Y-81721809D01*
X155383523Y-81340857D01*
X155383523Y-80864666D01*
X155288285Y-80483714D01*
X155193047Y-80293238D01*
X155097809Y-80198000D01*
X154907333Y-80102761D01*
X153478761Y-80293238D02*
X153383523Y-80198000D01*
X153193047Y-80102761D01*
X152716857Y-80102761D01*
X152526380Y-80198000D01*
X152431142Y-80293238D01*
X152335904Y-80483714D01*
X152335904Y-80674190D01*
X152431142Y-80959904D01*
X153574000Y-82102761D01*
X152335904Y-82102761D01*
X151574000Y-80293238D02*
X151478761Y-80198000D01*
X151288285Y-80102761D01*
X150812095Y-80102761D01*
X150621619Y-80198000D01*
X150526380Y-80293238D01*
X150431142Y-80483714D01*
X150431142Y-80674190D01*
X150526380Y-80959904D01*
X151669238Y-82102761D01*
X150431142Y-82102761D01*
X149574000Y-81340857D02*
X148050190Y-81340857D01*
X146050190Y-82102761D02*
X147193047Y-82102761D01*
X146621619Y-82102761D02*
X146621619Y-80102761D01*
X146812095Y-80388476D01*
X147002571Y-80578952D01*
X147193047Y-80674190D01*
X145288285Y-80293238D02*
X145193047Y-80198000D01*
X145002571Y-80102761D01*
X144526380Y-80102761D01*
X144335904Y-80198000D01*
X144240666Y-80293238D01*
X144145428Y-80483714D01*
X144145428Y-80674190D01*
X144240666Y-80959904D01*
X145383523Y-82102761D01*
X144145428Y-82102761D01*
X143288285Y-81340857D02*
X141764476Y-81340857D01*
X140907333Y-80293238D02*
X140812095Y-80198000D01*
X140621619Y-80102761D01*
X140145428Y-80102761D01*
X139954952Y-80198000D01*
X139859714Y-80293238D01*
X139764476Y-80483714D01*
X139764476Y-80674190D01*
X139859714Y-80959904D01*
X141002571Y-82102761D01*
X139764476Y-82102761D01*
X139097809Y-80102761D02*
X137764476Y-80102761D01*
X138621619Y-82102761D01*
%TO.C,G\u002A\u002A\u002A*%
G36*
X153399898Y-60305744D02*
G01*
X153618943Y-60318962D01*
X153737130Y-60357510D01*
X153788000Y-60430535D01*
X153803987Y-60475047D01*
X153870919Y-60643493D01*
X153977737Y-60903244D01*
X154113758Y-61228438D01*
X154268298Y-61593211D01*
X154413502Y-61934138D01*
X154700252Y-62609005D01*
X154962009Y-63227216D01*
X155192472Y-63773809D01*
X155385341Y-64233820D01*
X155534315Y-64592284D01*
X155633091Y-64834239D01*
X155770582Y-65177520D01*
X155331486Y-65156211D01*
X154892390Y-65134901D01*
X154588786Y-64419408D01*
X154456476Y-64107199D01*
X154275091Y-63678437D01*
X154084201Y-63226593D01*
X153908274Y-62809549D01*
X153755995Y-62448399D01*
X153563352Y-61991914D01*
X153376250Y-61548916D01*
X153219683Y-61178604D01*
X153111814Y-60919440D01*
X153006227Y-60655499D01*
X152934467Y-60463709D01*
X152908000Y-60373674D01*
X152952367Y-60343222D01*
X153105042Y-60315866D01*
X153328951Y-60305324D01*
X153399898Y-60305744D01*
G37*
G36*
X140911616Y-66620835D02*
G01*
X141037948Y-66766891D01*
X141195178Y-66974002D01*
X141244746Y-67042038D01*
X141927728Y-67853261D01*
X142695596Y-68551995D01*
X143539717Y-69133824D01*
X144451455Y-69594328D01*
X145422177Y-69929087D01*
X146443246Y-70133684D01*
X147506028Y-70203698D01*
X148410939Y-70157287D01*
X149434212Y-69979620D01*
X150404253Y-69669143D01*
X151320428Y-69226117D01*
X152182107Y-68650803D01*
X152988657Y-67943461D01*
X153108224Y-67821696D01*
X153374281Y-67532508D01*
X153617282Y-67246440D01*
X153796372Y-67010670D01*
X153915561Y-66843919D01*
X154066672Y-66663441D01*
X154162427Y-66595551D01*
X154195887Y-66646572D01*
X154154314Y-66742632D01*
X154032362Y-66922345D01*
X153849575Y-67159103D01*
X153625644Y-67429195D01*
X153380258Y-67708911D01*
X153133110Y-67974540D01*
X152903888Y-68202371D01*
X152364234Y-68669826D01*
X151507835Y-69262881D01*
X150589947Y-69728489D01*
X149604295Y-70069652D01*
X148544606Y-70289374D01*
X148270124Y-70326841D01*
X147826631Y-70369918D01*
X147423110Y-70377901D01*
X146999999Y-70350764D01*
X146497740Y-70288482D01*
X145520047Y-70094475D01*
X144527424Y-69767255D01*
X143606019Y-69317023D01*
X142751283Y-68741525D01*
X141958665Y-68038506D01*
X141830529Y-67906841D01*
X141560051Y-67611557D01*
X141310332Y-67317505D01*
X141096991Y-67045132D01*
X140935645Y-66814888D01*
X140841911Y-66647219D01*
X140831407Y-66562574D01*
X140838578Y-66561166D01*
X140911616Y-66620835D01*
G37*
G36*
X152085183Y-60305523D02*
G01*
X152242097Y-60681057D01*
X152271641Y-60751568D01*
X152375035Y-60997142D01*
X152513769Y-61325619D01*
X152673345Y-61702692D01*
X152839262Y-62094056D01*
X152920535Y-62285633D01*
X153103003Y-62716075D01*
X153294001Y-63167003D01*
X153484329Y-63616668D01*
X153664793Y-64043324D01*
X153826194Y-64425222D01*
X153959335Y-64740614D01*
X154055020Y-64967752D01*
X154104052Y-65084889D01*
X154108832Y-65101835D01*
X154074846Y-65144901D01*
X153943431Y-65161813D01*
X153692348Y-65156438D01*
X153242247Y-65134901D01*
X153033722Y-64634056D01*
X152843343Y-64178189D01*
X152588254Y-63570175D01*
X152303049Y-62892748D01*
X152001579Y-62178800D01*
X151697692Y-61461226D01*
X151611850Y-61257565D01*
X151473421Y-60923151D01*
X151362600Y-60647649D01*
X151289033Y-60455238D01*
X151262366Y-60370099D01*
X151303411Y-60341989D01*
X151452748Y-60315581D01*
X151673775Y-60305423D01*
X152085183Y-60305523D01*
G37*
G36*
X148160623Y-55361348D02*
G01*
X148728725Y-55416761D01*
X149213103Y-55504092D01*
X149260581Y-55515721D01*
X150187804Y-55814403D01*
X151076751Y-56234206D01*
X151899651Y-56759908D01*
X152628732Y-57376287D01*
X152781753Y-57529146D01*
X153030657Y-57791416D01*
X153259579Y-58047601D01*
X153448223Y-58273922D01*
X153576293Y-58446598D01*
X153623493Y-58541848D01*
X153613041Y-58583763D01*
X153539668Y-58571840D01*
X153401948Y-58446280D01*
X153206746Y-58212507D01*
X153119580Y-58102343D01*
X152449793Y-57383837D01*
X151692789Y-56770228D01*
X150862764Y-56266773D01*
X149973914Y-55878730D01*
X149040437Y-55611357D01*
X148076529Y-55469910D01*
X147096385Y-55459648D01*
X146114203Y-55585827D01*
X145372477Y-55769027D01*
X144529779Y-56078694D01*
X143748143Y-56491026D01*
X143011656Y-57016127D01*
X142304406Y-57664098D01*
X141610480Y-58445042D01*
X141595248Y-58463350D01*
X141499297Y-58550548D01*
X141462493Y-58523960D01*
X141487452Y-58449063D01*
X141583473Y-58288312D01*
X141727271Y-58094665D01*
X142351350Y-57410436D01*
X143133948Y-56747219D01*
X143997608Y-56201915D01*
X144942230Y-55774584D01*
X145967718Y-55465287D01*
X146403278Y-55391987D01*
X146952970Y-55348424D01*
X147553728Y-55338390D01*
X148160623Y-55361348D01*
G37*
G36*
X148137667Y-54438785D02*
G01*
X148638825Y-54476091D01*
X149044338Y-54535954D01*
X150079816Y-54812082D01*
X151097929Y-55218526D01*
X152036787Y-55740109D01*
X152890716Y-56373151D01*
X153654045Y-57113972D01*
X154321099Y-57958892D01*
X154408958Y-58087604D01*
X154556715Y-58310281D01*
X154658699Y-58472610D01*
X154696732Y-58546172D01*
X154671647Y-58599783D01*
X154589662Y-58551699D01*
X154461978Y-58399252D01*
X154300254Y-58153976D01*
X154113260Y-57882671D01*
X153820893Y-57520874D01*
X153473466Y-57133914D01*
X153102072Y-56754758D01*
X152737809Y-56416375D01*
X152411770Y-56151734D01*
X152095634Y-55929390D01*
X151304453Y-55453806D01*
X150489715Y-55085503D01*
X149616732Y-54810296D01*
X148650817Y-54614003D01*
X148562747Y-54600653D01*
X147542335Y-54523100D01*
X146519353Y-54582090D01*
X145509074Y-54772779D01*
X144526770Y-55090320D01*
X143587710Y-55529870D01*
X142707168Y-56086583D01*
X141900414Y-56755614D01*
X141844306Y-56809961D01*
X141589739Y-57078123D01*
X141306458Y-57402600D01*
X141026949Y-57744028D01*
X140783697Y-58063042D01*
X140609187Y-58320277D01*
X140560053Y-58395051D01*
X140452881Y-58518147D01*
X140379807Y-58547999D01*
X140370821Y-58534005D01*
X140399754Y-58427520D01*
X140502369Y-58242557D01*
X140662859Y-58000976D01*
X140865417Y-57724635D01*
X141094238Y-57435395D01*
X141333513Y-57155113D01*
X141567437Y-56905648D01*
X142052644Y-56452416D01*
X142924964Y-55787427D01*
X143866248Y-55247280D01*
X144879499Y-54830359D01*
X145967718Y-54535047D01*
X146072310Y-54515389D01*
X146508187Y-54462337D01*
X147027563Y-54431895D01*
X147585652Y-54424048D01*
X148137667Y-54438785D01*
G37*
G36*
X140390214Y-67179025D02*
G01*
X140473557Y-67299698D01*
X140906788Y-67856291D01*
X141415683Y-68419890D01*
X141957087Y-68945081D01*
X142487843Y-69386448D01*
X142883522Y-69655677D01*
X143458498Y-69983347D01*
X144084386Y-70285267D01*
X144710961Y-70537582D01*
X145288000Y-70716438D01*
X145334081Y-70727873D01*
X146443937Y-70934314D01*
X147535164Y-71001384D01*
X148621031Y-70929087D01*
X149714805Y-70717426D01*
X150510530Y-70468467D01*
X151474849Y-70037009D01*
X152382012Y-69483806D01*
X153218371Y-68818659D01*
X153970277Y-68051372D01*
X154624083Y-67191745D01*
X155016503Y-66601662D01*
X157844901Y-66601662D01*
X157844901Y-67317155D01*
X155567349Y-67317155D01*
X155361122Y-67585465D01*
X155309386Y-67653653D01*
X155156973Y-67862849D01*
X155041348Y-68032648D01*
X155038293Y-68037436D01*
X154867951Y-68268578D01*
X154619853Y-68561173D01*
X154323291Y-68883366D01*
X154007559Y-69203305D01*
X153701950Y-69489136D01*
X153012869Y-70040702D01*
X152067716Y-70638943D01*
X151044641Y-71128761D01*
X149959885Y-71502610D01*
X148829690Y-71752943D01*
X148731941Y-71764732D01*
X148460509Y-71781945D01*
X148100472Y-71792609D01*
X147687086Y-71795873D01*
X147255606Y-71790888D01*
X147144311Y-71788313D01*
X146673264Y-71772548D01*
X146300252Y-71748579D01*
X145987865Y-71712292D01*
X145698692Y-71659573D01*
X145395324Y-71586309D01*
X144924466Y-71458401D01*
X144523112Y-71337072D01*
X144176099Y-71214250D01*
X143839400Y-71074284D01*
X143468986Y-70901522D01*
X143249888Y-70792425D01*
X142249183Y-70204486D01*
X141351615Y-69520036D01*
X140560167Y-68741590D01*
X139877820Y-67871662D01*
X139448872Y-67245606D01*
X137811099Y-67245606D01*
X137811099Y-66530113D01*
X139953887Y-66530113D01*
X140390214Y-67179025D01*
G37*
G36*
X148407677Y-55894680D02*
G01*
X149324246Y-56071144D01*
X150199753Y-56365326D01*
X151011944Y-56775713D01*
X151039352Y-56792498D01*
X151319017Y-56980890D01*
X151629705Y-57215042D01*
X151950543Y-57476268D01*
X152260660Y-57745881D01*
X152539181Y-58005196D01*
X152765235Y-58235524D01*
X152917950Y-58418181D01*
X152976452Y-58534479D01*
X152976158Y-58555778D01*
X152955149Y-58578500D01*
X152893365Y-58545794D01*
X152776206Y-58445727D01*
X152589072Y-58266366D01*
X152317364Y-57995779D01*
X152117910Y-57802103D01*
X151825337Y-57536561D01*
X151550543Y-57305983D01*
X151333620Y-57145040D01*
X150611238Y-56724169D01*
X149704155Y-56333771D01*
X148780126Y-56078794D01*
X147849449Y-55958218D01*
X146922421Y-55971023D01*
X146009342Y-56116190D01*
X145120508Y-56392696D01*
X144266217Y-56799524D01*
X143456769Y-57335652D01*
X142702459Y-58000060D01*
X142692147Y-58010427D01*
X142463395Y-58231862D01*
X142276446Y-58397201D01*
X142150325Y-58490663D01*
X142104056Y-58496465D01*
X142105171Y-58489270D01*
X142168251Y-58389936D01*
X142313963Y-58218888D01*
X142522560Y-57998128D01*
X142774297Y-57749658D01*
X142917710Y-57615286D01*
X143525100Y-57112292D01*
X144156239Y-56704642D01*
X144862476Y-56358119D01*
X145634146Y-56086702D01*
X146540373Y-55900947D01*
X147472301Y-55837444D01*
X148407677Y-55894680D01*
G37*
G36*
X148373103Y-53412809D02*
G01*
X149492616Y-53583712D01*
X150584523Y-53892311D01*
X151641838Y-54337577D01*
X152657578Y-54918479D01*
X153053356Y-55201167D01*
X153544709Y-55605101D01*
X154039327Y-56060426D01*
X154505524Y-56536214D01*
X154911615Y-57001536D01*
X155225913Y-57425465D01*
X155566313Y-57944197D01*
X157844901Y-57944197D01*
X157844901Y-58659690D01*
X155066753Y-58659690D01*
X154838588Y-58288874D01*
X154745385Y-58144910D01*
X154505948Y-57808848D01*
X154215820Y-57431914D01*
X153907060Y-57055117D01*
X153611728Y-56719470D01*
X153218027Y-56335720D01*
X152594849Y-55841792D01*
X151887359Y-55382822D01*
X151129072Y-54978089D01*
X150353505Y-54646873D01*
X149594174Y-54408453D01*
X149161816Y-54312492D01*
X148097524Y-54177189D01*
X147023239Y-54177696D01*
X145954718Y-54311462D01*
X144907716Y-54575931D01*
X143897989Y-54968551D01*
X142941290Y-55486768D01*
X142547976Y-55761411D01*
X142072196Y-56149981D01*
X141588718Y-56594555D01*
X141130379Y-57063122D01*
X140730014Y-57523672D01*
X140420459Y-57944197D01*
X140349780Y-58051782D01*
X140192629Y-58282079D01*
X140067593Y-58453268D01*
X139996861Y-58534433D01*
X139975287Y-58541960D01*
X139831909Y-58558016D01*
X139583877Y-58568668D01*
X139258813Y-58573028D01*
X138884338Y-58570208D01*
X137846873Y-58552366D01*
X137825066Y-58212507D01*
X137803258Y-57872648D01*
X139507287Y-57872648D01*
X139828468Y-57389690D01*
X140002854Y-57143850D01*
X140407112Y-56648778D01*
X140879715Y-56143452D01*
X141383556Y-55666431D01*
X141881527Y-55256277D01*
X142080421Y-55113179D01*
X142589481Y-54788994D01*
X143161223Y-54470118D01*
X143752685Y-54178357D01*
X144320907Y-53935514D01*
X144822930Y-53763394D01*
X144918778Y-53736576D01*
X146079198Y-53488211D01*
X147232968Y-53380632D01*
X148373103Y-53412809D01*
G37*
G36*
X151897030Y-63976937D02*
G01*
X152089996Y-64446574D01*
X152226930Y-64790452D01*
X152308558Y-65010368D01*
X152335606Y-65108119D01*
X152313734Y-65129842D01*
X152187344Y-65159177D01*
X151985901Y-65170676D01*
X151636196Y-65170676D01*
X151355479Y-64473070D01*
X151074761Y-63775465D01*
X150039451Y-63755754D01*
X149004141Y-63736044D01*
X148725767Y-64363923D01*
X148656407Y-64518461D01*
X148534630Y-64780570D01*
X148436794Y-64979523D01*
X148379358Y-65081239D01*
X148349414Y-65105169D01*
X148200024Y-65152048D01*
X147990356Y-65170676D01*
X147873624Y-65169676D01*
X147738640Y-65153808D01*
X147696582Y-65101549D01*
X147714379Y-64991418D01*
X147741494Y-64909187D01*
X147823336Y-64703717D01*
X147941276Y-64430551D01*
X148079882Y-64126213D01*
X148182391Y-63905256D01*
X148295094Y-63657865D01*
X148371967Y-63483551D01*
X148400394Y-63410483D01*
X148400832Y-63408139D01*
X148436312Y-63322139D01*
X148520405Y-63135522D01*
X148579705Y-63007309D01*
X149349228Y-63007309D01*
X149671840Y-63051528D01*
X149774126Y-63063570D01*
X150077153Y-63086602D01*
X150374812Y-63095746D01*
X150755174Y-63095746D01*
X150659877Y-62827437D01*
X150547005Y-62524572D01*
X150415827Y-62201413D01*
X150288374Y-61912488D01*
X150176227Y-61682753D01*
X150090967Y-61537166D01*
X150044176Y-61500683D01*
X150007624Y-61563277D01*
X149922529Y-61735034D01*
X149805744Y-61984478D01*
X149671219Y-62282373D01*
X149349228Y-63007309D01*
X148579705Y-63007309D01*
X148641473Y-62873762D01*
X148787879Y-62562334D01*
X148796829Y-62543418D01*
X148948047Y-62220011D01*
X149078225Y-61934841D01*
X149173743Y-61718168D01*
X149220977Y-61600251D01*
X149234132Y-61564084D01*
X149305254Y-61397513D01*
X149415730Y-61156821D01*
X149547875Y-60880929D01*
X149566059Y-60843733D01*
X149696346Y-60583558D01*
X149790933Y-60424576D01*
X149873629Y-60341946D01*
X149968241Y-60310831D01*
X150098579Y-60306392D01*
X150368000Y-60307461D01*
X150667312Y-61039773D01*
X150696358Y-61110678D01*
X150847904Y-61477519D01*
X151030377Y-61915539D01*
X151223358Y-62375847D01*
X151406427Y-62809549D01*
X151527330Y-63095746D01*
X151647305Y-63379744D01*
X151897030Y-63976937D01*
G37*
G36*
X156110130Y-62541239D02*
G01*
X156269592Y-62920977D01*
X156485898Y-63437086D01*
X156682055Y-63906268D01*
X156850982Y-64311533D01*
X156985603Y-64635889D01*
X157078837Y-64862347D01*
X157123607Y-64973915D01*
X157197416Y-65170676D01*
X156781376Y-65170676D01*
X156579974Y-65167202D01*
X156426028Y-65144285D01*
X156338347Y-65085349D01*
X156274478Y-64973915D01*
X156217161Y-64845816D01*
X156098237Y-64571965D01*
X155932525Y-64184959D01*
X155724575Y-63695477D01*
X155478936Y-63114199D01*
X155200155Y-62451803D01*
X155039134Y-62070021D01*
X154866118Y-61662430D01*
X154706715Y-61289317D01*
X154581697Y-60999464D01*
X154540793Y-60904455D01*
X154437720Y-60655110D01*
X154365930Y-60466433D01*
X154338986Y-60373408D01*
X154381530Y-60343494D01*
X154532388Y-60315950D01*
X154754723Y-60305324D01*
X155170461Y-60305324D01*
X156110130Y-62541239D01*
G37*
G36*
X140431494Y-66650200D02*
G01*
X140579302Y-66830844D01*
X140787342Y-67116290D01*
X141187102Y-67638263D01*
X141873465Y-68368504D01*
X142641643Y-69017559D01*
X143466296Y-69564831D01*
X144322085Y-69989720D01*
X144635773Y-70113018D01*
X145690574Y-70434124D01*
X146746543Y-70612444D01*
X147801072Y-70648015D01*
X148851557Y-70540871D01*
X149895391Y-70291050D01*
X150929968Y-69898587D01*
X150979537Y-69875964D01*
X151699756Y-69487128D01*
X152412266Y-68998082D01*
X153083343Y-68436846D01*
X153679263Y-67831436D01*
X154166301Y-67209870D01*
X154190873Y-67173805D01*
X154415119Y-66858423D01*
X154572874Y-66666325D01*
X154666094Y-66595423D01*
X154696732Y-66643631D01*
X154693021Y-66664071D01*
X154624790Y-66797118D01*
X154484646Y-67006479D01*
X154291001Y-67268540D01*
X154062262Y-67559689D01*
X153816840Y-67856314D01*
X153573144Y-68134802D01*
X153349582Y-68371540D01*
X153266048Y-68453978D01*
X152490604Y-69112660D01*
X151622964Y-69680170D01*
X150688678Y-70143614D01*
X149713295Y-70490097D01*
X148722366Y-70706727D01*
X148636774Y-70713638D01*
X148412173Y-70720301D01*
X148093735Y-70722960D01*
X147710468Y-70721436D01*
X147291380Y-70715550D01*
X146997920Y-70708330D01*
X146446233Y-70681013D01*
X145980769Y-70632645D01*
X145562917Y-70556981D01*
X145154067Y-70447771D01*
X144715606Y-70298770D01*
X144699999Y-70293028D01*
X143712679Y-69857052D01*
X142797218Y-69307774D01*
X141966379Y-68655199D01*
X141232924Y-67909332D01*
X140609616Y-67080176D01*
X140557404Y-66998982D01*
X140406873Y-66748750D01*
X140339539Y-66607987D01*
X140349659Y-66575526D01*
X140431494Y-66650200D01*
G37*
G36*
X142174201Y-66675639D02*
G01*
X142375950Y-66851764D01*
X142665937Y-67131751D01*
X142844805Y-67305985D01*
X143559405Y-67911757D01*
X144302894Y-68393578D01*
X145101671Y-68766687D01*
X145982134Y-69046326D01*
X146446906Y-69137201D01*
X147104492Y-69198881D01*
X147797806Y-69202984D01*
X148473972Y-69149634D01*
X149080113Y-69038958D01*
X149949590Y-68759852D01*
X150831355Y-68335210D01*
X151644052Y-67785308D01*
X152386828Y-67110642D01*
X152552073Y-66943199D01*
X152743884Y-66762230D01*
X152883142Y-66647076D01*
X152947544Y-66617356D01*
X152949898Y-66620662D01*
X152918799Y-66701177D01*
X152801252Y-66852543D01*
X152617644Y-67054647D01*
X152388363Y-67287374D01*
X152133795Y-67530610D01*
X151874327Y-67764240D01*
X151630348Y-67968151D01*
X151422244Y-68122229D01*
X150798402Y-68497960D01*
X150112729Y-68831608D01*
X149433754Y-69086986D01*
X148801994Y-69246706D01*
X148735167Y-69256166D01*
X148485069Y-69275400D01*
X148142877Y-69287937D01*
X147744828Y-69292741D01*
X147327155Y-69288781D01*
X146957611Y-69278705D01*
X146549573Y-69257795D01*
X146224742Y-69225268D01*
X145948527Y-69177362D01*
X145686334Y-69110314D01*
X144962455Y-68856236D01*
X144073727Y-68416258D01*
X143259088Y-67861466D01*
X142535121Y-67201902D01*
X142321586Y-66971155D01*
X142134382Y-66751135D01*
X142049816Y-66627255D01*
X142064289Y-66601446D01*
X142174201Y-66675639D01*
G37*
G36*
X143019897Y-60233791D02*
G01*
X143126112Y-60238118D01*
X143217900Y-60260971D01*
X143312463Y-60317965D01*
X143427002Y-60424717D01*
X143578721Y-60596845D01*
X143784822Y-60849963D01*
X144062506Y-61199690D01*
X144268316Y-61456793D01*
X144500635Y-61739460D01*
X144692172Y-61964012D01*
X144827251Y-62112159D01*
X144890198Y-62165606D01*
X144927339Y-62138150D01*
X145043885Y-62016025D01*
X145221088Y-61813087D01*
X145442837Y-61547930D01*
X145693021Y-61239146D01*
X146432789Y-60312686D01*
X146808423Y-60309005D01*
X147184056Y-60305324D01*
X147183869Y-61253352D01*
X147182011Y-61569104D01*
X147175531Y-62041999D01*
X147165242Y-62576173D01*
X147152019Y-63127101D01*
X147136737Y-63650253D01*
X147089794Y-65099127D01*
X146399471Y-65099127D01*
X146380355Y-63304583D01*
X146361240Y-61510040D01*
X145681313Y-62350662D01*
X145561902Y-62497168D01*
X145330082Y-62774906D01*
X145133884Y-63001215D01*
X144991069Y-63155862D01*
X144919398Y-63218614D01*
X144895190Y-63218293D01*
X144830454Y-63179581D01*
X144728366Y-63082871D01*
X144579064Y-62916990D01*
X144372688Y-62670761D01*
X144099375Y-62333008D01*
X143749264Y-61892557D01*
X143391944Y-61440635D01*
X143391944Y-65099127D01*
X142604901Y-65099127D01*
X142605089Y-64115324D01*
X142606892Y-63795404D01*
X142613344Y-63311529D01*
X142623639Y-62767692D01*
X142636892Y-62209522D01*
X142652221Y-61682648D01*
X142699164Y-60233775D01*
X142998516Y-60233775D01*
X143019897Y-60233791D01*
G37*
G36*
X141502364Y-66633581D02*
G01*
X141657149Y-66791520D01*
X141876235Y-67045031D01*
X142567768Y-67783098D01*
X143326989Y-68403165D01*
X144163753Y-68910992D01*
X145088288Y-69312785D01*
X146110817Y-69614748D01*
X146388061Y-69660233D01*
X146795861Y-69692999D01*
X147268981Y-69707261D01*
X147767115Y-69703405D01*
X148249961Y-69681816D01*
X148677212Y-69642881D01*
X149008563Y-69586986D01*
X149985370Y-69292932D01*
X150925352Y-68872056D01*
X151785937Y-68332795D01*
X152571113Y-67672634D01*
X153284863Y-66889058D01*
X153401430Y-66753580D01*
X153521855Y-66638597D01*
X153585364Y-66611232D01*
X153589279Y-66628187D01*
X153539374Y-66735600D01*
X153415373Y-66913918D01*
X153236168Y-67139974D01*
X153020656Y-67390602D01*
X152787729Y-67642638D01*
X152556285Y-67872916D01*
X152160141Y-68217756D01*
X151366417Y-68773352D01*
X150497499Y-69229590D01*
X149582571Y-69572168D01*
X148650817Y-69786786D01*
X148503519Y-69808742D01*
X147824918Y-69873667D01*
X147169156Y-69866983D01*
X146462828Y-69788757D01*
X145831654Y-69666227D01*
X144861648Y-69365300D01*
X143948836Y-68941380D01*
X143106115Y-68401975D01*
X142346385Y-67754590D01*
X141682543Y-67006732D01*
X141666040Y-66985191D01*
X141493717Y-66747019D01*
X141413658Y-66609948D01*
X141418870Y-66572596D01*
X141502364Y-66633581D01*
G37*
G36*
X148267830Y-54871615D02*
G01*
X148290381Y-54873626D01*
X149332236Y-55037860D01*
X150326767Y-55335611D01*
X151265860Y-55763199D01*
X152141402Y-56316942D01*
X152945278Y-56993162D01*
X153050689Y-57096693D01*
X153323531Y-57382101D01*
X153588248Y-57680711D01*
X153826341Y-57969533D01*
X154019312Y-58225577D01*
X154148660Y-58425852D01*
X154195887Y-58547370D01*
X154188875Y-58583455D01*
X154127122Y-58574183D01*
X154007738Y-58449257D01*
X153838141Y-58215557D01*
X153758902Y-58105608D01*
X153556268Y-57853519D01*
X153308067Y-57568805D01*
X153051099Y-57294527D01*
X152579039Y-56844597D01*
X151866227Y-56285624D01*
X151098392Y-55825634D01*
X150249810Y-55449900D01*
X149294761Y-55143693D01*
X149106193Y-55099305D01*
X148598946Y-55023459D01*
X148012956Y-54981395D01*
X147390010Y-54973044D01*
X146771894Y-54998337D01*
X146200394Y-55057205D01*
X145717296Y-55149581D01*
X144956073Y-55386668D01*
X144086860Y-55754001D01*
X143287238Y-56195493D01*
X143009812Y-56388257D01*
X142619416Y-56701197D01*
X142214415Y-57062907D01*
X141828412Y-57441628D01*
X141495007Y-57805602D01*
X141247801Y-58123070D01*
X141184662Y-58214515D01*
X141013514Y-58440313D01*
X140897243Y-58549936D01*
X140827566Y-58551838D01*
X140823741Y-58539964D01*
X140867783Y-58438192D01*
X140988906Y-58258611D01*
X141170814Y-58021810D01*
X141397207Y-57748379D01*
X141651788Y-57458907D01*
X141918259Y-57173983D01*
X142452931Y-56670154D01*
X143281332Y-56050924D01*
X144175659Y-55555992D01*
X145128690Y-55187978D01*
X146133209Y-54949499D01*
X147181995Y-54843172D01*
X148267830Y-54871615D01*
G37*
G36*
X140959268Y-65099127D02*
G01*
X140959268Y-63045780D01*
X140279726Y-63001142D01*
X139862445Y-62958862D01*
X139460177Y-62868125D01*
X139153871Y-62723110D01*
X138919647Y-62511785D01*
X138733626Y-62222118D01*
X138611904Y-61847696D01*
X138607532Y-61540385D01*
X139338814Y-61540385D01*
X139373357Y-61819281D01*
X139513547Y-62071791D01*
X139742930Y-62254931D01*
X139746826Y-62256862D01*
X140055407Y-62348741D01*
X140476310Y-62380142D01*
X140959268Y-62380253D01*
X140959268Y-60877718D01*
X140476310Y-60877829D01*
X140308913Y-60882578D01*
X139887719Y-60952195D01*
X139581879Y-61104544D01*
X139392397Y-61339197D01*
X139338814Y-61540385D01*
X138607532Y-61540385D01*
X138606078Y-61438147D01*
X138718075Y-61046144D01*
X138942552Y-60710345D01*
X139004019Y-60646909D01*
X139162182Y-60505877D01*
X139328899Y-60404504D01*
X139531076Y-60335356D01*
X139795617Y-60290995D01*
X140149426Y-60263986D01*
X140619409Y-60246894D01*
X141674761Y-60218178D01*
X141674761Y-65099127D01*
X140959268Y-65099127D01*
G37*
%TD*%
%LPC*%
D11*
%TO.C,U9*%
X160030000Y-115814000D03*
D12*
X162570000Y-115814000D03*
X165110000Y-115814000D03*
X167650000Y-115814000D03*
X167650000Y-108194000D03*
X165110000Y-108194000D03*
X162570000Y-108194000D03*
X160030000Y-108194000D03*
%TD*%
D13*
%TO.C,JT2*%
X146299000Y-106680000D03*
D14*
X143759000Y-106680000D03*
X141219000Y-106680000D03*
X138679000Y-106680000D03*
X136139000Y-106680000D03*
%TD*%
D15*
%TO.C,J6*%
X164179000Y-82709000D03*
X164179000Y-80169000D03*
X164179000Y-77629000D03*
X164179000Y-75089000D03*
X164179000Y-72549000D03*
X164179000Y-70009000D03*
X164179000Y-67469000D03*
X164179000Y-64929000D03*
X164179000Y-62389000D03*
X164179000Y-59849000D03*
X164179000Y-57309000D03*
X164179000Y-54769000D03*
X164179000Y-52229000D03*
X131159000Y-52229000D03*
X131159000Y-54769000D03*
X131159000Y-57309000D03*
X131159000Y-59849000D03*
X131159000Y-62389000D03*
X131159000Y-64929000D03*
X131159000Y-67469000D03*
X131159000Y-70009000D03*
X131159000Y-72549000D03*
X131159000Y-75089000D03*
X131159000Y-77629000D03*
X131159000Y-80169000D03*
X131159000Y-82709000D03*
%TD*%
D13*
%TO.C,JP8*%
X184897000Y-124460000D03*
D14*
X182357000Y-124460000D03*
X179817000Y-124460000D03*
%TD*%
D13*
%TO.C,JP4*%
X184897000Y-134620000D03*
D14*
X182357000Y-134620000D03*
X179817000Y-134620000D03*
%TD*%
D16*
%TO.C,Q2*%
X178304000Y-97402000D03*
D17*
X180594000Y-97402000D03*
X182884000Y-97402000D03*
%TD*%
D15*
%TO.C,U10*%
X104394000Y-99314000D03*
X106934000Y-99314000D03*
X109474000Y-99314000D03*
X112014000Y-99314000D03*
X114554000Y-99314000D03*
X117094000Y-99314000D03*
X119634000Y-99314000D03*
X122174000Y-99314000D03*
X124714000Y-99314000D03*
X104394000Y-73914000D03*
X106934000Y-73914000D03*
X109474000Y-73914000D03*
X112014000Y-73914000D03*
X114554000Y-73914000D03*
%TD*%
D13*
%TO.C,JT1*%
X153924000Y-144770000D03*
D14*
X153924000Y-142230000D03*
X153924000Y-139690000D03*
X153924000Y-137150000D03*
X153924000Y-134610000D03*
X153924000Y-132070000D03*
X153924000Y-129530000D03*
X153924000Y-126990000D03*
X153924000Y-124450000D03*
X153924000Y-121910000D03*
X153924000Y-119370000D03*
X153924000Y-116830000D03*
X153924000Y-114290000D03*
X153924000Y-111750000D03*
%TD*%
D13*
%TO.C,JP5*%
X184897000Y-132080000D03*
D14*
X182357000Y-132080000D03*
X179817000Y-132080000D03*
%TD*%
D18*
%TO.C,H4*%
X91694000Y-51816000D03*
%TD*%
D13*
%TO.C,JP10*%
X184897000Y-119380000D03*
D14*
X182357000Y-119380000D03*
X179817000Y-119380000D03*
%TD*%
D19*
%TO.C,J2*%
X173228000Y-59742000D03*
D20*
X173228000Y-65242000D03*
%TD*%
D21*
%TO.C,D11*%
X106680000Y-59187000D03*
D22*
X106680000Y-61727000D03*
%TD*%
D18*
%TO.C,H1*%
X91694000Y-143256000D03*
%TD*%
D16*
%TO.C,Q3*%
X168652000Y-93218000D03*
D17*
X170942000Y-93218000D03*
X173232000Y-93218000D03*
%TD*%
D21*
%TO.C,D10*%
X106680000Y-67056000D03*
D22*
X106680000Y-69596000D03*
%TD*%
D13*
%TO.C,JT4*%
X125984000Y-142240000D03*
%TD*%
D23*
%TO.C,J4*%
X144222000Y-101294000D03*
D20*
X140022000Y-101294000D03*
X135822000Y-101294000D03*
X131622000Y-101294000D03*
X144222000Y-95794000D03*
X140022000Y-95794000D03*
X135822000Y-95794000D03*
X131622000Y-95794000D03*
%TD*%
D13*
%TO.C,JP7*%
X184897000Y-127000000D03*
D14*
X182357000Y-127000000D03*
X179817000Y-127000000D03*
%TD*%
D21*
%TO.C,D13*%
X105918000Y-120142000D03*
D22*
X105918000Y-122682000D03*
%TD*%
D24*
%TO.C,U3*%
X106934000Y-141478000D03*
D25*
X104394000Y-141478000D03*
X101854000Y-141478000D03*
%TD*%
D21*
%TO.C,D3*%
X92884000Y-105664000D03*
D22*
X95424000Y-105664000D03*
%TD*%
D11*
%TO.C,U8*%
X103119000Y-135880000D03*
D12*
X105659000Y-135880000D03*
X108199000Y-135880000D03*
X110739000Y-135880000D03*
X113279000Y-135880000D03*
X115819000Y-135880000D03*
X118359000Y-135880000D03*
X118359000Y-128260000D03*
X115819000Y-128260000D03*
X113279000Y-128260000D03*
X110739000Y-128260000D03*
X108199000Y-128260000D03*
X105659000Y-128260000D03*
X103119000Y-128260000D03*
%TD*%
D13*
%TO.C,J5*%
X122936000Y-124460000D03*
D14*
X122936000Y-127000000D03*
X122936000Y-129540000D03*
X122936000Y-132080000D03*
%TD*%
D13*
%TO.C,JP6*%
X184897000Y-129540000D03*
D14*
X182357000Y-129540000D03*
X179817000Y-129540000D03*
%TD*%
D21*
%TO.C,D4*%
X183642000Y-114300000D03*
D22*
X181102000Y-114300000D03*
%TD*%
D11*
%TO.C,U6*%
X158257000Y-132832000D03*
D12*
X160797000Y-132832000D03*
X163337000Y-132832000D03*
X165877000Y-132832000D03*
X168417000Y-132832000D03*
X170957000Y-132832000D03*
X173497000Y-132832000D03*
X176037000Y-132832000D03*
X176037000Y-125212000D03*
X173497000Y-125212000D03*
X170957000Y-125212000D03*
X168417000Y-125212000D03*
X165877000Y-125212000D03*
X163337000Y-125212000D03*
X160797000Y-125212000D03*
X158257000Y-125212000D03*
%TD*%
D13*
%TO.C,JP9*%
X184897000Y-121920000D03*
D14*
X182357000Y-121920000D03*
X179817000Y-121920000D03*
%TD*%
D21*
%TO.C,D6*%
X173995000Y-99314000D03*
D22*
X171455000Y-99314000D03*
%TD*%
D11*
%TO.C,U5*%
X158257000Y-145278000D03*
D12*
X160797000Y-145278000D03*
X163337000Y-145278000D03*
X165877000Y-145278000D03*
X168417000Y-145278000D03*
X170957000Y-145278000D03*
X173497000Y-145278000D03*
X176037000Y-145278000D03*
X176037000Y-137658000D03*
X173497000Y-137658000D03*
X170957000Y-137658000D03*
X168417000Y-137658000D03*
X165877000Y-137658000D03*
X163337000Y-137658000D03*
X160797000Y-137658000D03*
X158257000Y-137658000D03*
%TD*%
D21*
%TO.C,D7*%
X155956000Y-102870000D03*
D22*
X153416000Y-102870000D03*
%TD*%
D26*
%TO.C,U1*%
X148844000Y-144780000D03*
X148844000Y-142240000D03*
X148844000Y-139700000D03*
X148844000Y-137160000D03*
X148844000Y-134620000D03*
X148844000Y-132080000D03*
X148844000Y-129540000D03*
X148844000Y-127000000D03*
X148844000Y-124460000D03*
X148844000Y-121920000D03*
X148844000Y-119380000D03*
X148844000Y-116840000D03*
X148844000Y-114300000D03*
X148844000Y-111760000D03*
X146304000Y-111760000D03*
X143764000Y-111760000D03*
X141224000Y-111760000D03*
X138684000Y-111760000D03*
X136144000Y-111760000D03*
X133604000Y-111760000D03*
X133604000Y-114300000D03*
X133604000Y-116840000D03*
X133604000Y-119380000D03*
X133604000Y-121920000D03*
X133604000Y-124460000D03*
X133604000Y-127000000D03*
X133604000Y-129540000D03*
X133604000Y-132080000D03*
X133604000Y-134620000D03*
X133604000Y-137160000D03*
X133604000Y-139700000D03*
X133604000Y-142240000D03*
X133604000Y-144780000D03*
X136144000Y-142240000D03*
X136144000Y-116840000D03*
X136144000Y-119380000D03*
X138684000Y-116840000D03*
X138684000Y-119380000D03*
X141224000Y-116840000D03*
X141224000Y-119380000D03*
X143764000Y-116840000D03*
X143764000Y-119380000D03*
X146304000Y-116840000D03*
X146304000Y-119380000D03*
%TD*%
D16*
%TO.C,Q1*%
X178304000Y-108458000D03*
D17*
X180594000Y-108458000D03*
X182884000Y-108458000D03*
%TD*%
D19*
%TO.C,J1*%
X121666000Y-59742000D03*
D20*
X121666000Y-65242000D03*
%TD*%
D11*
%TO.C,U7*%
X96541500Y-135621000D03*
D12*
X96541500Y-133081000D03*
X96541500Y-130541000D03*
X96541500Y-128001000D03*
X96541500Y-125461000D03*
X96541500Y-122921000D03*
X96541500Y-120381000D03*
X96541500Y-117841000D03*
X88921500Y-117841000D03*
X88921500Y-120381000D03*
X88921500Y-122921000D03*
X88921500Y-125461000D03*
X88921500Y-128001000D03*
X88921500Y-130541000D03*
X88921500Y-133081000D03*
X88921500Y-135621000D03*
%TD*%
D13*
%TO.C,JT3*%
X128524000Y-111760000D03*
D14*
X128524000Y-114300000D03*
X128524000Y-116840000D03*
X128524000Y-119380000D03*
X128524000Y-121920000D03*
X128524000Y-124460000D03*
X128524000Y-127000000D03*
X128524000Y-129540000D03*
X128524000Y-132080000D03*
X128524000Y-134620000D03*
X128524000Y-137160000D03*
X128524000Y-139700000D03*
X128524000Y-142240000D03*
X128524000Y-144780000D03*
%TD*%
D21*
%TO.C,D14*%
X91186000Y-74925000D03*
D22*
X91186000Y-77465000D03*
%TD*%
D21*
%TO.C,D8*%
X174503000Y-120396000D03*
D22*
X171963000Y-120396000D03*
%TD*%
D27*
%TO.C,JX1*%
X182880000Y-60198000D03*
D28*
X182880000Y-62738000D03*
X182880000Y-65278000D03*
X182880000Y-67818000D03*
%TD*%
D21*
%TO.C,D5*%
X183682000Y-103378000D03*
D22*
X181142000Y-103378000D03*
%TD*%
D21*
%TO.C,D2*%
X120396000Y-145562000D03*
D22*
X120396000Y-143022000D03*
%TD*%
D24*
%TO.C,U4*%
X97790000Y-93543000D03*
D25*
X95250000Y-93543000D03*
X92710000Y-93543000D03*
%TD*%
D21*
%TO.C,D1*%
X91186000Y-88138000D03*
D22*
X91186000Y-85598000D03*
%TD*%
D21*
%TO.C,D9*%
X174503000Y-112522000D03*
D22*
X171963000Y-112522000D03*
%TD*%
D23*
%TO.C,J3*%
X183592000Y-88086000D03*
D20*
X179392000Y-88086000D03*
X175192000Y-88086000D03*
X170992000Y-88086000D03*
X183592000Y-82586000D03*
X179392000Y-82586000D03*
X175192000Y-82586000D03*
X170992000Y-82586000D03*
%TD*%
D13*
%TO.C,JP3*%
X184897000Y-137160000D03*
D14*
X182357000Y-137160000D03*
X179817000Y-137160000D03*
%TD*%
D18*
%TO.C,H2*%
X183134000Y-143256000D03*
%TD*%
D21*
%TO.C,D12*%
X106680000Y-51313000D03*
D22*
X106680000Y-53853000D03*
%TD*%
D16*
%TO.C,Q4*%
X150613000Y-96640000D03*
D17*
X152903000Y-96640000D03*
X155193000Y-96640000D03*
%TD*%
D18*
%TO.C,H3*%
X183134000Y-51816000D03*
%TD*%
D29*
%TO.C,USB1*%
X107716000Y-111956500D03*
D30*
X110216000Y-111956500D03*
X110216000Y-108756500D03*
X107716000Y-108756500D03*
D31*
X102946000Y-109246500D03*
X114986000Y-109246500D03*
%TD*%
M02*
